<svg width="146" height="90" viewBox="0 0 146 90" fill="none" xmlns="http://www.w3.org/2000/svg">
<rect x="0.279412" y="1.005" width="144.735" height="87.9216" rx="13.6912" fill="#F8F8F8" stroke="#EC6E30" stroke-width="0.558824"/>
<path d="M2.09435 78.3959L1.06083 54.9939H0.931641V76.0557C1.03499 85.4164 10.5779 88.2716 11.6544 88.7397L36.9758 88.8762C40.64 88.4556 40.851 81.065 40.9802 76.5393L40.9807 76.5237V75.5876V69.5031V52.6537L40.4639 46.5692L39.9471 29.2518L39.4304 36.2724V40.2507L38.9136 36.2724V52.6537L36.9758 78.3959L37.8801 62.4825V50.3135L36.9758 32.9961L36.0714 22.2312L35.5547 14.7426V25.5075V50.3135V64.8227L33.746 81.2041L34.6503 62.4825V50.3135V32.9961L32.5833 14.7426L31.8081 40.2507V69.5031L31.2914 46.5692L30.5162 60.1423L29.0951 50.3135L28.0616 14.7426L27.6741 32.9961L26.7697 64.8227V54.9939V44.6971L25.3486 14.7426V58.2702L24.4443 32.9961V54.9939L23.4108 74.6516V54.9939V36.2724L22.2481 14.7426L21.4729 25.5075V64.8227L20.181 40.2507L19.6642 52.6537L18.7599 64.8227L17.5972 37.6765V5.38184L16.1761 71.8433C16.1761 60.7664 15.0134 39.5487 15.0134 37.6765C15.0134 35.8043 14.7119 14.8986 13.9799 5.38184V23.6353V60.1423L11.6544 32.9961V74.6516L9.19983 20.8271L8.29549 69.5031L7.26197 32.9961C6.91746 45.0091 6.22845 67.2565 6.22845 60.1423C6.22845 53.0282 4.93654 30.9679 4.29059 20.8271V71.8433L2.09435 32.9961V78.3959Z" fill="#EC6E30" fill-opacity="0.25"/>
<path d="M20.6978 25.5075L20.181 40.2507M20.181 40.2507L19.6642 52.6537L18.7599 64.8227L17.5972 37.6765V5.38184L16.1761 71.8433C16.1761 60.7664 15.0134 39.5487 15.0134 37.6765C15.0134 35.8043 14.7119 14.8986 13.9799 5.38184V23.6353V78.3959V60.1424L11.6544 32.9961V74.6515L9.19983 20.8271L8.29549 69.5031L7.26197 32.9961C6.91746 45.0091 6.22845 67.2565 6.22845 60.1424C6.22845 53.0282 4.93654 30.9679 4.29059 20.8271V71.8433L2.09435 32.9961V78.3959L1.06083 54.9939H0.931641V76.0557C1.03499 85.4164 10.5779 88.2716 11.6544 88.7397L36.9758 88.8762C40.6442 88.4551 40.8515 81.0481 40.9807 76.5237V75.5876V69.5031V52.6537L40.4639 46.5692L39.9471 29.2518L39.4304 36.2724V40.2507L38.9136 36.2724V52.6537L36.9758 78.3959L37.8801 62.4825V50.3135L36.9758 32.9961L36.0714 22.2312L35.5547 14.7426C35.5547 17.7069 35.5547 24.0098 35.5547 25.5075C35.5547 27.0052 35.5547 42.6689 35.5547 50.3135V64.8227L33.746 81.2041L34.6503 62.4825V50.3135V32.9961L32.5833 14.7426L31.8081 40.2507V69.5031L31.2914 46.5692L30.5162 60.1424L29.0951 50.3135L28.0616 14.7426L27.6741 32.9961L26.7697 64.8227M20.181 40.2507L21.4729 64.8227V25.5075L22.2481 14.7426L23.4108 36.2724V54.9939V74.6515L24.4443 54.9939V32.9961L25.3486 58.2702V14.7426L26.7697 44.6971V54.9939V64.8227M26.7697 74.6515V64.8227" stroke="#EC6E30" stroke-width="0.558824"/>
<path d="M42.1424 78.3959L41.1089 54.9939H40.9797V76.0557C41.083 85.4164 37.5743 88.2716 38.6509 88.7397H77.3034C80.3006 89.4885 80.8995 81.0481 81.0287 76.5237V75.5876V69.5031V52.6537L80.512 46.5692L79.9952 29.2518L79.4784 36.2724V40.2507L78.9617 36.2724V52.6537L77.0238 78.3959L77.9281 62.4825V50.3135L77.0238 32.9961L76.1195 22.2312L75.6027 14.7426V25.5075V50.3135V64.8227L73.794 81.2041L74.6984 62.4825V50.3135V32.9961L72.6313 14.7426L71.8562 40.2507V69.5031L71.3394 46.5692L70.5643 60.1423L69.1432 50.3135L68.1097 14.7426L67.7221 32.9961L66.8178 64.8227V54.9939V44.6971L65.3967 14.7426V58.2702L64.4923 32.9961V54.9939L63.4588 74.6515V54.9939V36.2724L62.2961 14.7426L61.521 25.5075V64.8227L60.2291 40.2507L59.7123 52.6537L58.808 64.8227L57.6453 37.6765V5.38184L56.2242 71.8433C56.2242 60.7664 55.0614 39.5486 55.0614 37.6765C55.0614 35.8043 54.76 14.8986 54.0279 5.38184V23.6353V60.1423L51.7025 32.9961V74.6515L49.2479 20.8271L48.3435 69.5031L47.31 32.9961C46.9655 45.0091 46.2765 67.2565 46.2765 60.1423C46.2765 53.0282 44.9846 30.9679 44.3386 20.8271V71.8433L42.1424 32.9961V78.3959Z" fill="#EC6E30" fill-opacity="0.25"/>
<path d="M60.7458 25.5075L60.2291 40.2507M60.2291 40.2507L59.7123 52.6537L58.808 64.8227L57.6453 37.6765V5.38184L56.2242 71.8433C56.2242 60.7664 55.0614 39.5486 55.0614 37.6765C55.0614 35.8043 54.76 14.8986 54.0279 5.38184V23.6353V78.3959V60.1423L51.7025 32.9961V74.6515L49.2479 20.8271L48.3435 69.5031L47.31 32.9961C46.9655 45.0091 46.2765 67.2565 46.2765 60.1423C46.2765 53.0282 44.9846 30.9679 44.3386 20.8271V71.8433L42.1424 32.9961V78.3959L41.1089 54.9939H40.9797V76.0557C41.083 85.4164 37.5743 88.2716 38.6509 88.7397H77.3034C80.3006 89.4885 80.8995 81.0481 81.0287 76.5237V75.5876V69.5031V52.6537L80.5119 46.5692L79.9952 29.2518L79.4784 36.2724V40.2507L78.9617 36.2724V52.6537L77.0238 78.3959L77.9281 62.4825V50.3135L77.0238 32.9961L76.1195 22.2312L75.6027 14.7426C75.6027 17.7069 75.6027 24.0098 75.6027 25.5075C75.6027 27.0052 75.6027 42.6689 75.6027 50.3135V64.8227L73.794 81.2041L74.6984 62.4825V50.3135V32.9961L72.6313 14.7426L71.8562 40.2507V69.5031L71.3394 46.5692L70.5643 60.1423L69.1432 50.3135L68.1097 14.7426L67.7221 32.9961L66.8178 64.8227M60.2291 40.2507L61.521 64.8227V25.5075L62.2961 14.7426L63.4588 36.2724V54.9939V74.6515L64.4923 54.9939V32.9961L65.3967 58.2702V14.7426L66.8178 44.6971V54.9939V64.8227M66.8178 74.6515V64.8227" stroke="#EC6E30" stroke-width="0.558824"/>
<path d="M145.086 54.9939L143.427 78.3959V32.9961L139.903 71.8433V20.8271C138.866 30.9679 136.793 53.0282 136.793 60.1423C136.793 67.2565 135.688 45.0091 135.135 32.9961L133.477 69.5031L132.025 20.8271L128.087 74.6515V32.9961L124.355 60.1423V23.6353V5.38184C123.18 14.8986 122.697 35.8043 122.697 37.6765C122.697 39.5486 120.831 60.7664 120.831 71.8433L118.551 5.38184V37.6765L116.685 64.8227L115.234 52.6537L114.404 40.2507L112.331 64.8227V25.5075L111.088 14.7426L109.222 36.2724V54.9939V74.6515L107.563 54.9939V32.9961L106.112 58.2702V14.7426L103.832 44.6971V54.9939V64.8227L102.381 32.9961L101.759 14.7426L100.1 50.3135L97.82 60.1423L96.5762 46.5692L95.7469 69.5031V40.2507L94.5031 14.7426L91.1862 32.9961V50.3135V62.4825L92.6374 81.2041L89.7351 64.8227V50.3135V25.5075V14.7426L88.9059 22.2312L87.4547 32.9961L86.0036 50.3135V62.4825L87.4547 78.3959L84.3451 52.6537V36.2724L83.5159 40.2507V36.2724L82.6867 29.2518L81.8575 46.5692L81.0283 52.6537V69.5031V75.5876V76.5237C81.2241 80.7971 79.8036 88.3117 79.0704 88.7397H78.9488C78.9866 88.7655 79.0273 88.7648 79.0704 88.7397H128.087C132.254 89.6711 142.499 88.7397 145.293 76.0557V54.9939H145.086Z" fill="#EC6E30" fill-opacity="0.25"/>
<path d="M113.575 25.5075L114.404 40.2507M114.404 40.2507L115.234 52.6537L116.685 64.8227L118.551 37.6765V5.38184L120.831 71.8433C120.831 60.7664 122.697 39.5486 122.697 37.6765C122.697 35.8043 123.18 14.8986 124.355 5.38184V23.6353V78.3959V60.1423L128.087 32.9961V74.6515L132.025 20.8271L133.477 69.5031L135.135 32.9961C135.688 45.0091 136.793 67.2565 136.793 60.1423C136.793 53.0282 138.866 30.9679 139.903 20.8271V71.8433L143.427 32.9961V78.3959L145.086 54.9939H145.293V76.0557C142.499 88.7397 132.254 89.671 128.087 88.7397H78.9488C79.6312 89.2054 81.2356 81.0481 81.0283 76.5237V75.5876V69.5031V52.6537L81.8575 46.5692L82.6867 29.2518L83.5159 36.2724V40.2507L84.3451 36.2724V52.6537L87.4547 78.3959L86.0036 62.4825V50.3135L87.4547 32.9961L88.9059 22.2312L89.7351 14.7426C89.7351 17.7069 89.7351 24.0098 89.7351 25.5075C89.7351 27.0052 89.7351 42.6689 89.7351 50.3135V64.8227L92.6374 81.2041L91.1862 62.4825V50.3135V32.9961L94.5031 14.7426L95.7469 40.2507V69.5031L96.5762 46.5692L97.82 60.1423L100.1 50.3135L101.759 14.7426L102.381 32.9961L103.832 64.8227M114.404 40.2507L112.331 64.8227V25.5075L111.088 14.7426L109.222 36.2724V54.9939V74.6515L107.563 54.9939V32.9961L106.112 58.2702V14.7426L103.832 44.6971V54.9939V64.8227M103.832 74.6515V64.8227" stroke="#EC6E30" stroke-width="0.558824"/>
</svg>
