<svg width="146" height="89" viewBox="0 0 146 89" fill="none" xmlns="http://www.w3.org/2000/svg">
<rect x="0.465686" y="0.465686" width="144.363" height="87.549" rx="13.5049" fill="#F8F8F8" stroke="#4B9AD0" stroke-width="0.931373"/>
<path d="M8.38151 74.51L0.464844 62.8678V75.907C1.95504 84.8482 9.15765 87.7044 12.5727 88.0149H128.994C140.916 88.76 144.517 79.6325 144.828 74.9757V60.5394L143.896 54.4855L142.033 64.7306L139.705 50.76L137.377 60.5394L135.514 58.6766L128.994 20.9561V33.9953L126.666 52.6227L122.475 68.9217L118.283 45.1717L109.901 64.7306L97.3276 40.5149V71.7159L88.9452 55.8825L79.6315 33.9953L68.9207 64.7306L58.6756 43.7747L57.2786 64.7306L42.3766 54.4855L39.1168 75.907L26.5433 45.1717L21.8864 62.8678V35.3923L15.8325 60.5394L11.1756 47.0345L8.38151 74.51Z" fill="#4B9AD0" fill-opacity="0.25" stroke="#4B9AD0" stroke-width="0.465686"/>
</svg>
