<svg width="146" height="89" viewBox="0 0 146 89" fill="none" xmlns="http://www.w3.org/2000/svg">
<rect x="0.465686" y="0.985218" width="144.363" height="87.549" rx="13.5049" fill="#F8F8F8" stroke="#ECDF30" stroke-width="0.931373"/>
<path d="M4.65602 67.1131L0.464844 61.0591V74.564C1.20994 84.9954 8.8472 88.2242 12.5727 88.5346H128.994C141.661 88.9072 144.828 79.6866 144.828 75.0297V58.7307L142.965 67.5787V55.0052L141.102 61.9905L139.705 55.0052L136.911 70.8385L135.98 60.1278L130.857 64.3189L129.926 62.4562L126.666 70.8385L126.2 66.6474L124.803 52.6768L123.872 58.7307L121.543 68.0444L117.818 82.9464C117.197 76.4268 115.955 63.2013 115.955 62.4562C115.955 61.7111 114.092 49.7274 113.161 43.8287C112.23 52.6768 110.367 70.0934 110.367 68.9758C110.367 67.8582 107.883 61.3696 106.641 58.265L103.847 71.7699L100.587 55.9366L100.122 63.3876L96.8619 74.0983L95.4648 68.9758L94.5335 62.4562L93.1364 54.0738L92.205 63.8532L90.808 77.8238L88.0139 73.167L84.7541 63.3876L83.357 68.0444L81.9599 75.9611L77.3031 71.7699L74.0433 65.716L71.7148 50.3483C70.9387 52.832 69.3864 57.8925 69.3864 58.265C69.3864 58.6376 67.2132 63.0771 66.1266 65.2503L64.7296 54.5395L60.5384 59.6621L60.0727 68.0444L55.8815 70.8385L53.5531 65.716L52.156 57.7993L48.8962 54.0738L48.4305 59.6621L45.6364 66.6474V61.5248L44.705 52.6768L42.3766 39.1719L38.6511 45.2258L33.9943 55.9366L32.1315 48.9513L28.406 52.6768L26.5433 61.5248L24.2148 60.1278L22.8178 54.0738L21.4207 62.9219L17.2295 55.0052L14.4354 61.0591L12.5727 57.7993L9.77857 61.5248L8.8472 57.7993L7.45014 60.5934L5.58739 59.6621L4.65602 67.1131Z" fill="#ECDF30" fill-opacity="0.25" stroke="#ECDF30" stroke-width="0.465686"/>
</svg>
