<svg width="89" height="36" viewBox="0 0 89 36" fill="none" xmlns="http://www.w3.org/2000/svg">
<path d="M2.17578 18.6143C7.97848 21.1529 21.5423 24.7071 29.3759 18.6143C25.7493 24.417 15.2319 32.5407 2.17578 18.6143Z" fill="#3BB3E1"/>
<path d="M1.08789 22.9664C13.2736 44.7265 36.6294 33.1211 46.7842 24.0544L36.9921 17.5264C30.0289 27.9712 10.5173 25.5051 1.08789 22.9664Z" fill="#3BB3E1"/>
<path d="M63.1045 3.38281C53.53 3.38281 46.4217 7.0095 44.6084 9.91085L54.4005 16.4389C63.9749 10.3461 75.4352 15.7135 79.4246 18.6149C79.4246 8.17004 69.6325 3.38281 63.1045 3.38281Z" fill="#EC9430"/>
<path d="M40.2562 6.64662C14.1441 -9.02067 2.53868 6.64662 0 16.4387C14.7969 5.9938 27.2002 13.1747 33.7282 16.4387L60.9284 32.7588C80.5125 42.5508 88.4912 27.6814 88.1285 20.7907C74.202 32.106 52.2243 15.3507 40.2562 6.64662Z" fill="#1C77BF"/>
</svg>
