<svg width="13" height="13" viewBox="0 0 13 13" fill="none" xmlns="http://www.w3.org/2000/svg">
<circle cx="6.5" cy="6.5" r="6.5" fill="#FF0000"/>
<path d="M6.12211 7.79L5.94211 3H7.07211L6.88211 7.79H6.12211ZM6.51211 10.06C6.32544 10.06 6.16878 9.99667 6.04211 9.87C5.91544 9.74333 5.85211 9.59333 5.85211 9.42C5.85211 9.23333 5.91544 9.08 6.04211 8.96C6.16878 8.84 6.32544 8.78 6.51211 8.78C6.69878 8.78 6.85211 8.84 6.97211 8.96C7.09211 9.08 7.15211 9.23333 7.15211 9.42C7.15211 9.59333 7.09211 9.74333 6.97211 9.87C6.85211 9.99667 6.69878 10.06 6.51211 10.06Z" fill="white"/>
</svg>
