<svg width="306" height="306" viewBox="0 0 306 306" fill="none" xmlns="http://www.w3.org/2000/svg">
<g filter="url(#filter0_di_46_8331)">
<path opacity="0.8" d="M71.25 124.243C73.1714 109.543 78.9857 96.0502 87.6214 84.8287L57.05 54.2573C40.8143 73.5216 30.2643 97.7145 28 124.243H71.25Z" fill="#EC9430"/>
<path opacity="0.1" d="M163.758 10V53.25C178.458 55.1714 191.951 60.9857 203.172 69.6214L233.744 39.05C214.479 22.8143 190.286 12.2643 163.758 10Z" fill="#EC9430"/>
<path opacity="0.7" d="M87.6214 185.172C78.9928 173.95 73.1786 160.457 71.25 145.757H28C30.2643 172.286 40.8143 196.486 57.05 215.743L87.6214 185.172Z" fill="#EC9430"/>
<path d="M102.829 69.6214C114.051 60.9928 127.544 55.1786 142.244 53.25V10C115.715 12.2643 91.5221 22.8143 72.2578 39.05L102.829 69.6214Z" fill="#EC9430"/>
<path opacity="0.3" d="M234.75 145.757C232.829 160.457 227.015 173.95 218.379 185.172L248.95 215.743C265.186 196.479 275.736 172.286 278 145.757H234.75Z" fill="#EC9430"/>
<path opacity="0.2" d="M218.379 84.8287C227.007 96.0502 232.822 109.543 234.75 124.243H278C275.736 97.7145 265.186 73.5145 248.95 54.2573L218.379 84.8287Z" fill="#EC9430"/>
<path opacity="0.5" d="M142.244 216.75C127.544 214.828 114.051 209.014 102.829 200.378L72.2578 230.95C91.5221 247.186 115.715 257.736 142.244 260V216.75Z" fill="#EC9430"/>
<path opacity="0.4" d="M203.172 200.378C191.951 209.007 178.458 214.821 163.758 216.75V260C190.286 257.736 214.486 247.186 233.744 230.95L203.172 200.378Z" fill="#EC9430"/>
</g>
<defs>
<filter id="filter0_di_46_8331" x="0.799999" y="0.799999" width="304.4" height="304.4" filterUnits="userSpaceOnUse" color-interpolation-filters="sRGB">
<feFlood flood-opacity="0" result="BackgroundImageFix"/>
<feColorMatrix in="SourceAlpha" type="matrix" values="0 0 0 0 0 0 0 0 0 0 0 0 0 0 0 0 0 0 127 0" result="hardAlpha"/>
<feOffset dy="18"/>
<feGaussianBlur stdDeviation="13.6"/>
<feComposite in2="hardAlpha" operator="out"/>
<feColorMatrix type="matrix" values="0 0 0 0 0 0 0 0 0 0 0 0 0 0 0 0 0 0 0.15 0"/>
<feBlend mode="normal" in2="BackgroundImageFix" result="effect1_dropShadow_46_8331"/>
<feBlend mode="normal" in="SourceGraphic" in2="effect1_dropShadow_46_8331" result="shape"/>
<feColorMatrix in="SourceAlpha" type="matrix" values="0 0 0 0 0 0 0 0 0 0 0 0 0 0 0 0 0 0 127 0" result="hardAlpha"/>
<feOffset dy="11"/>
<feGaussianBlur stdDeviation="5"/>
<feComposite in2="hardAlpha" operator="arithmetic" k2="-1" k3="1"/>
<feColorMatrix type="matrix" values="0 0 0 0 0 0 0 0 0 0 0 0 0 0 0 0 0 0 0.1 0"/>
<feBlend mode="normal" in2="shape" result="effect2_innerShadow_46_8331"/>
</filter>
</defs>
</svg>
