<svg width="70" height="71" viewBox="0 0 70 71" fill="none" xmlns="http://www.w3.org/2000/svg">
<path d="M24.9498 44.5911V26.4083C24.9498 24.3055 27.3927 22.9758 29.3821 23.9963L47.1165 33.0928C47.5751 33.3061 47.9632 33.6459 48.2352 34.0723C48.5072 34.4987 48.6517 34.9939 48.6517 35.4997C48.6517 36.0055 48.5072 36.5007 48.2352 36.9271C47.9632 37.3535 47.5751 37.6933 47.1165 37.9065L29.3872 47.0031C27.3927 48.0235 24.9498 46.6938 24.9498 44.5911ZM2.25223 31.0622C1.91592 33.7886 1.91592 36.5459 2.25223 39.2723V31.0622ZM15.1626 8.69453C17.3561 7.03905 19.7448 5.65949 22.2749 4.58691L15.1626 8.69453ZM4.61269 22.2543C5.68351 19.7244 7.06134 17.3357 8.71515 15.142L4.61269 22.2543Z" fill="#EC9430"/>
<path d="M2.25223 31.0622C1.91592 33.7886 1.91592 36.5459 2.25223 39.2723M15.1626 8.69453C17.3561 7.03905 19.7448 5.65949 22.2749 4.58691M4.61269 22.2543C5.68351 19.7244 7.06134 17.3357 8.71515 15.142M24.9498 44.5911V26.4083C24.9498 24.3055 27.3927 22.9758 29.3821 23.9963L47.1165 33.0928C47.5751 33.3061 47.9632 33.6459 48.2352 34.0723C48.5072 34.4987 48.6517 34.9939 48.6517 35.4997C48.6517 36.0055 48.5072 36.5007 48.2352 36.9271C47.9632 37.3535 47.5751 37.6933 47.1165 37.9065L29.3872 47.0031C27.3927 48.0235 24.9498 46.6938 24.9498 44.5911Z" stroke="#EC9430" strokeWidth="3" stroke-linecap="round" strokeLinejoin="round"/>
<path d="M35.2476 2C53.5438 2 68.3714 16.9977 68.3714 35.5C68.3714 54.0023 53.5438 69 35.2476 69C22.6413 69 11.6791 61.8774 6.08203 51.3945" stroke="#EC9430" strokeWidth="3" stroke-linecap="round" strokeLinejoin="round"/>
</svg>
