<svg width="24" height="21" viewBox="0 0 24 21" fill="none" xmlns="http://www.w3.org/2000/svg">
<path d="M13 10.8259H22M22 10.8259L18.667 6.8259M22 10.8259L18.667 14.8259M14 5.8259V3.9999C14 3.72327 13.9426 3.44966 13.8314 3.19635C13.7203 2.94304 13.5578 2.71554 13.3542 2.52823C13.1507 2.34093 12.9104 2.19789 12.6488 2.10815C12.3871 2.01842 12.1097 1.98394 11.834 2.0069L3.834 2.6729C3.33405 2.71454 2.86801 2.94255 2.5283 3.31171C2.18859 3.68087 2.00002 4.16422 2 4.6659V16.9859C2.00002 17.4876 2.18859 17.9709 2.5283 18.3401C2.86801 18.7093 3.33405 18.9373 3.834 18.9789L11.834 19.6459C12.1098 19.6689 12.3873 19.6344 12.649 19.5446C12.9107 19.4548 13.151 19.3116 13.3546 19.1242C13.5582 18.9368 13.7206 18.7092 13.8317 18.4558C13.9428 18.2023 14.0001 17.9286 14 17.6519V15.8259" stroke="#D54343" stroke-width="2.5" stroke-linecap="round" stroke-linejoin="round"/>
</svg>
