<svg width="30" height="30" viewBox="0 0 30 30" fill="none" xmlns="http://www.w3.org/2000/svg">
<g opacity="0.5">
<path d="M22 10.8027C25.045 10.8195 26.6942 10.9553 27.7694 12.0305C29 13.2611 29 15.2407 29 19.1999V20.5999C29 24.5605 29 26.5401 27.7694 27.7707C26.5402 28.9999 24.5592 28.9999 20.6 28.9999H9.4C5.4408 28.9999 3.4598 28.9999 2.2306 27.7707C1 26.5387 1 24.5605 1 20.5999V19.1999C1 15.2407 1 13.2611 2.2306 12.0305C3.3058 10.9553 4.955 10.8195 8 10.8027" fill="white"/>
<path d="M22 10.8027C25.045 10.8195 26.6942 10.9553 27.7694 12.0305C29 13.2611 29 15.2407 29 19.1999V20.5999C29 24.5605 29 26.5401 27.7694 27.7707C26.5402 28.9999 24.5592 28.9999 20.6 28.9999H9.4C5.4408 28.9999 3.4598 28.9999 2.2306 27.7707C1 26.5387 1 24.5605 1 20.5999V19.1999C1 15.2407 1 13.2611 2.2306 12.0305C3.3058 10.9553 4.955 10.8195 8 10.8027" stroke="white" stroke-width="1.5" stroke-linecap="round"/>
</g>
<path d="M15.0008 19.2V1V19.2ZM15.0008 1L19.2008 5.9L15.0008 1ZM15.0008 1L10.8008 5.9L15.0008 1Z" fill="white"/>
<path d="M15.0008 19.2V1M15.0008 1L19.2008 5.9M15.0008 1L10.8008 5.9" stroke="white" stroke-width="1.5" stroke-linecap="round" stroke-linejoin="round"/>
</svg>
