<svg width="28" height="24" viewBox="0 0 28 24" fill="none" xmlns="http://www.w3.org/2000/svg">
<rect width="28" height="24" fill="#3A3A3A"/>
<g clip-path="url(#clip0_0_1)">
<rect width="1920" height="1493" transform="translate(-1339 -902)" fill="#FAFAFA"/>
<path d="M530.5 -195C530.5 -205.77 521.77 -214.5 511 -214.5H-471C-481.77 -214.5 -490.5 -205.77 -490.5 -195V511C-490.5 521.77 -481.77 530.5 -471 530.5H511C521.77 530.5 530.5 521.77 530.5 511V-195Z" fill="white" stroke="#F1F1F1"/>
<rect x="-83.5" y="7.58789" width="101" height="113" rx="14.5" fill="#FBFBFB" stroke="#E8E8E8"/>
<path d="M1.5 8.58789C1.5 13.7879 8.16667 18.4212 11.5 20.0879L13 20.5879L16 19.5879L20.5 15.5879L22.5 11.5879L23 9.08789V7.58789L22 4.08789L21.5 2.58789L19.5 1.58789H18H16L13.5 2.58789L12 4.08789L11.5 3.08789L10 2.08789L6.5 1.58789L5.5 2.08789C4.16667 2.08789 1.5 3.38789 1.5 8.58789Z" fill="white"/>
<path fill-rule="evenodd" clip-rule="evenodd" d="M0 7.29321C0 3.22326 3.30833 0.0878906 7.18898 0.0878906C9.18933 0.0878906 10.951 1.10086 12.2143 2.41228C13.4776 1.10086 15.2378 0.0878906 17.2396 0.0878906C21.1202 0.0878906 24.4286 3.22326 24.4286 7.29321C24.4286 10.0819 23.3272 12.5329 21.8015 14.6071C20.2799 16.6752 18.2865 18.4313 16.3797 19.8588C15.6496 20.4045 14.914 20.9064 14.2384 21.2773C13.606 21.6255 12.8773 21.945 12.2143 21.945C11.5512 21.945 10.824 21.6255 10.1902 21.2773C9.44907 20.8552 8.73424 20.3814 8.05026 19.8588C6.14204 18.4313 4.15007 16.6752 2.62712 14.6071C1.10138 12.5329 0 10.0819 0 7.29321ZM7.18898 2.34897C4.28547 2.34897 2.09388 4.65528 2.09388 7.29321C2.09388 9.40808 2.92585 11.3782 4.26593 13.1992C5.6088 15.0231 7.41651 16.6345 9.24238 18.0002C9.93336 18.5172 10.5825 18.9559 11.1408 19.2634C11.7383 19.592 12.0845 19.684 12.2143 19.684C12.3441 19.684 12.6903 19.592 13.2891 19.2619C13.9465 18.886 14.5806 18.4645 15.1876 18.0002C17.0121 16.6345 18.8198 15.0246 20.1626 13.1992C21.5027 11.3782 22.3347 9.40808 22.3347 7.29321C22.3347 4.65528 20.1431 2.34897 17.2396 2.34897C15.5729 2.34897 14.015 3.42374 13.0449 4.78944C12.9471 4.92701 12.8213 5.03845 12.6773 5.11514C12.5333 5.19183 12.3749 5.23172 12.2143 5.23172C12.0537 5.23172 11.8953 5.19183 11.7513 5.11514C11.6072 5.03845 11.4815 4.92701 11.3837 4.78944C10.4136 3.42374 8.8571 2.34897 7.18898 2.34897Z" fill="#52C24A"/>
<g filter="url(#filter0_d_0_1)">
<ellipse cx="19.9289" cy="16.0353" rx="7.07143" ry="6.94737" fill="#52C24A"/>
<path d="M26.8073 16.0353C26.8073 19.7624 23.7309 22.7896 19.9289 22.7896C16.1268 22.7896 13.0504 19.7624 13.0504 16.0353C13.0504 12.3081 16.1268 9.28087 19.9289 9.28087C23.7309 9.28087 26.8073 12.3081 26.8073 16.0353Z" stroke="white" stroke-width="0.385965"/>
</g>
<path d="M22.9597 14.2984L18.8034 18.517L16.8984 16.5835L17.3868 16.0878L18.8034 17.5221L22.4713 13.8027L22.9597 14.2984Z" fill="white"/>
</g>
<defs>
<filter id="filter0_d_0_1" x="12.0855" y="8.50894" width="15.6864" height="15.4384" filterUnits="userSpaceOnUse" color-interpolation-filters="sRGB">
<feFlood flood-opacity="0" result="BackgroundImageFix"/>
<feColorMatrix in="SourceAlpha" type="matrix" values="0 0 0 0 0 0 0 0 0 0 0 0 0 0 0 0 0 0 127 0" result="hardAlpha"/>
<feOffset dy="0.192982"/>
<feGaussianBlur stdDeviation="0.385965"/>
<feComposite in2="hardAlpha" operator="out"/>
<feColorMatrix type="matrix" values="0 0 0 0 0 0 0 0 0 0 0 0 0 0 0 0 0 0 0.25 0"/>
<feBlend mode="normal" in2="BackgroundImageFix" result="effect1_dropShadow_0_1"/>
<feBlend mode="normal" in="SourceGraphic" in2="effect1_dropShadow_0_1" result="shape"/>
</filter>
<clipPath id="clip0_0_1">
<rect width="1920" height="1493" fill="none" transform="translate(-1339 -902)"/>
</clipPath>
</defs>
</svg>
