<svg width="28" height="24" viewBox="0 0 28 24" fill="none" xmlns="http://www.w3.org/2000/svg">
<path fill-rule="evenodd" clip-rule="evenodd" d="M0 7.20532C0 3.13537 3.30833 0 7.18898 0C9.18933 0 10.951 1.01297 12.2143 2.32439C13.4776 1.01297 15.2378 0 17.2396 0C21.1202 0 24.4286 3.13537 24.4286 7.20532C24.4286 9.99399 23.3272 12.445 21.8015 14.5192C20.2799 16.5873 18.2865 18.3434 16.3797 19.7709C15.6496 20.3166 14.914 20.8186 14.2384 21.1894C13.606 21.5376 12.8773 21.8571 12.2143 21.8571C11.5512 21.8571 10.824 21.5376 10.1902 21.1894C9.44907 20.7673 8.73424 20.2935 8.05026 19.7709C6.14204 18.3434 4.15007 16.5873 2.62712 14.5192C1.10138 12.445 0 9.99399 0 7.20532ZM7.18898 2.26108C4.28547 2.26108 2.09388 4.56739 2.09388 7.20532C2.09388 9.32019 2.92585 11.2903 4.26593 13.1113C5.6088 14.9352 7.41651 16.5466 9.24238 17.9123C9.93336 18.4293 10.5825 18.868 11.1408 19.1755C11.7383 19.5041 12.0845 19.5961 12.2143 19.5961C12.3441 19.5961 12.6903 19.5041 13.2891 19.174C13.9465 18.7981 14.5806 18.3767 15.1876 17.9123C17.0121 16.5466 18.8198 14.9367 20.1626 13.1113C21.5027 11.2903 22.3347 9.32019 22.3347 7.20532C22.3347 4.56739 20.1431 2.26108 17.2396 2.26108C15.5729 2.26108 14.015 3.33585 13.0449 4.70155C12.9471 4.83912 12.8213 4.95056 12.6773 5.02725C12.5333 5.10394 12.3749 5.14383 12.2143 5.14383C12.0537 5.14383 11.8953 5.10394 11.7513 5.02725C11.6072 4.95056 11.4815 4.83912 11.3837 4.70155C10.4136 3.33585 8.8571 2.26108 7.18898 2.26108Z" fill="#52C24A"/>
<g filter="url(#filter0_d_46_12306)">
<ellipse cx="19.9289" cy="15.9474" rx="7.07143" ry="6.94737" fill="#52C24A"/>
<path d="M26.8073 15.9474C26.8073 19.6745 23.7309 22.7018 19.9289 22.7018C16.1268 22.7018 13.0504 19.6745 13.0504 15.9474C13.0504 12.2202 16.1268 9.19298 19.9289 9.19298C23.7309 9.19298 26.8073 12.2202 26.8073 15.9474Z" stroke="white" stroke-width="0.385965"/>
</g>
<path d="M22.9597 14.2105L18.8034 18.4291L16.8984 16.4956L17.3868 15.9999L18.8034 17.4342L22.4713 13.7148L22.9597 14.2105Z" fill="white"/>
<defs>
<filter id="filter0_d_46_12306" x="12.0855" y="8.42105" width="15.6864" height="15.4384" filterUnits="userSpaceOnUse" color-interpolation-filters="sRGB">
<feFlood flood-opacity="0" result="BackgroundImageFix"/>
<feColorMatrix in="SourceAlpha" type="matrix" values="0 0 0 0 0 0 0 0 0 0 0 0 0 0 0 0 0 0 127 0" result="hardAlpha"/>
<feOffset dy="0.192982"/>
<feGaussianBlur stdDeviation="0.385965"/>
<feComposite in2="hardAlpha" operator="out"/>
<feColorMatrix type="matrix" values="0 0 0 0 0 0 0 0 0 0 0 0 0 0 0 0 0 0 0.25 0"/>
<feBlend mode="normal" in2="BackgroundImageFix" result="effect1_dropShadow_46_12306"/>
<feBlend mode="normal" in="SourceGraphic" in2="effect1_dropShadow_46_12306" result="shape"/>
</filter>
</defs>
</svg>
