<?xml version="1.0" encoding="UTF-8" standalone="no"?>
<!DOCTYPE svg PUBLIC "-//W3C//DTD SVG 1.1//EN" "http://www.w3.org/Graphics/SVG/1.1/DTD/svg11.dtd">
<svg width="100%" height="100%" viewBox="0 0 1024 1024" version="1.1" xmlns="http://www.w3.org/2000/svg" xmlns:xlink="http://www.w3.org/1999/xlink" xml:space="preserve" xmlns:serif="http://www.serif.com/" style="fill-rule:evenodd;clip-rule:evenodd;stroke-linejoin:round;stroke-miterlimit:2;">
    <g id="Background" transform="matrix(1.303958,0,0,1.303958,12.0704,-2.247367)">
        <path d="M583.406,629.777C582.343,629.688 577.468,631.197 575.763,623.443C575.027,620.098 590.007,603.362 592.429,603.125C597.005,602.678 649.57,603.386 650.538,602.548C650.715,602.395 652.901,591.199 650.563,590.358C649.581,590.005 649.561,591.38 637.527,590.172C632.532,589.671 591.194,590.957 586.578,590.008C578.875,588.423 580.141,583.327 580.148,552.5C580.167,468.824 580.084,468.709 581.363,466.418C584.707,460.428 586.69,461.89 612.502,461.867C709.272,461.781 709.317,462.128 712.479,461.411C715.341,460.761 736.848,462.982 750.49,461.432C753.905,461.044 757.017,462.181 757.552,462.376C762.969,464.355 762.252,471.591 762.165,472.474C762.088,473.25 762.111,580.145 762.16,580.526C764.331,597.358 743.494,587.255 706.518,590.73C699.763,591.364 690.008,586.552 689.942,594.501C689.913,597.956 688.936,602.915 692.495,602.925C742.674,603.059 748.464,602.098 751.226,604.808C752.274,605.837 755.226,608.734 763.165,618.752C765.768,622.037 763.848,629.747 756.504,629.815C726.952,630.089 594.765,629.199 594.358,630.337C594.3,630.5 594.331,630.495 593.993,632.471C592.894,629.614 592.326,629.368 583.406,629.777Z" style="fill:rgb(82,195,78);"/>
        <path d="M477.572,276.376L476.5,276.653C465.761,283.295 381.429,314.68 380.566,317.551C379.413,321.39 380.36,407.941 380.169,419.503C379.569,455.961 379.793,527.152 379.823,536.512C379.847,544.233 381.615,543.942 381.622,543.954C374.163,546.092 369.473,542.249 341.464,534.602C333.161,532.335 333.421,531.656 302.467,522.594C286.413,517.893 285.384,515.813 284.69,514.41C283.372,511.745 284.058,511.535 283.825,370.5C283.697,293.186 284.354,293.151 284.655,292.58C286.64,288.815 291.872,287.294 355.548,261.617C378.282,252.45 384.046,248.728 392.553,251.347C417.367,258.984 471.866,273.873 477.572,276.376Z" style="fill:rgb(85,97,115);"/>
        <path d="M596.578,168.433C599.251,170.194 599.52,169.898 666.498,169.885C755.869,169.867 756.019,169.907 757.219,170.857C762.848,175.308 760.487,185.765 760.936,205.501C761.614,235.327 760.975,281.867 760.884,288.507C760.713,300.982 754.962,298.849 719.502,298.858C690.425,298.864 687.378,297.999 688.283,302.549C689.19,307.112 687.896,313.152 690.526,313.219C704.069,313.56 754.853,312.589 757.397,313.752C766.375,317.856 763.692,329.7 753.51,329.852C740.391,330.048 740.457,328.739 589.504,329.882C570.859,330.023 578.358,315.656 583.387,314.094C591.484,311.58 648.848,314.916 650.058,312.33C650.871,310.59 650.884,306.055 650.885,305.505C650.897,300.912 652.143,298.877 647.499,298.872C585.242,298.813 584.878,299.305 581.795,297.14C578.67,294.945 578.984,294.182 578.908,255.498C578.767,182.812 577.866,182.775 578.986,176.56C579.663,172.802 583.483,170.425 584.041,170.078C591.748,168.555 591.908,170.77 595.5,169.483C595.972,169.314 596.106,168.602 596.578,168.433Z" style="fill:rgb(10,175,181);"/>
        <path d="M473.89,646.5C473.972,750.004 473.44,750.03 473.269,750.402C470.094,757.271 468.038,755.824 436.503,755.892C404.49,755.961 402.108,754.988 402.079,759.486C402.053,763.659 400.965,770.014 404.523,770.131C416.713,770.533 467.662,769.546 470.403,770.743C481.994,775.805 474.256,786.578 469.562,786.888C467.014,787.056 297.288,787.105 295.438,786.829C290.506,786.094 280.99,770.294 302.498,770.168C359.96,769.832 363.185,772.496 363.22,767.492C363.253,762.605 364.424,756.125 360.495,755.897C353.948,755.517 298.096,756.768 295.731,755.141C290.313,751.415 291.212,750.131 291.178,711.502C291.112,634.216 291.155,633.896 292.861,631.787C298.672,624.604 321.156,630.058 333.482,628.267C340.505,627.246 340.467,629.402 347.523,628.816C358.004,627.944 358.011,629.778 368.484,628.284C370.739,627.962 385.983,628.22 387.505,628.245C393.525,628.347 393.431,628.852 399.501,628.848C416.113,628.84 416.056,628.255 417.497,628.256C419.418,628.257 419.385,628.807 441.501,628.858C447.029,628.87 446.96,628.369 452.476,628.812C457.844,629.244 464.335,626.937 469.546,629.417C475.273,632.142 473.875,643.024 473.89,646.5Z" style="fill:rgb(241,112,32);"/>
        <path d="M359.498,159.912C304.192,159.878 304.298,160.042 299.498,160.005C286.85,159.909 288.907,150.692 291.773,147.769C296.797,142.646 336.536,146.543 351.489,145.321C362.053,144.458 363.833,145.882 363.825,142.501C363.823,141.712 363.805,134.266 363.078,132.663C361.912,130.093 311.32,133.3 297.405,130.911C295.537,130.59 291.232,127.096 291.243,121.5C291.245,120.94 291.256,115.606 291.457,114.492C292.004,111.462 291.148,49.228 291.154,11.499C291.154,10.483 291.155,2.642 299.538,1.953C301.578,1.786 433.823,1.889 445.5,1.899C466.979,1.916 473.824,-0.908 473.761,15.503C473.35,123.11 475.498,124.129 471.31,128.322C466.552,133.086 465.51,131.528 410.502,131.761C404.453,131.786 401.946,130.437 401.928,136.501C401.911,142.587 400.397,145.203 406.502,145.274C435.072,145.609 435.04,145.921 437.519,145.818C439.916,145.718 453.894,145.137 467.498,145.656C478.729,146.085 477.284,158.75 469.555,159.83C468.029,160.044 368.303,159.922 359.498,159.912Z" style="fill:rgb(9,116,202);"/>
        <path d="M170.513,169.598C175.137,169.81 175.142,169.259 179.694,170.309C186.302,175.212 184.97,176.662 185.102,204.503C185.135,211.381 185.478,283.652 185.005,290.48C184.426,298.815 176.511,298.835 175.499,298.838C115.351,298.995 113.799,297.445 113.054,300.382C113.051,300.396 112.515,310.952 113.38,312.598C114.544,314.812 176.508,311.381 182.557,314.397C187.123,316.674 189.119,329.105 176.493,329.106C163.216,329.107 12.456,329.12 10.531,329.041C0.608,328.634 -0.222,313.123 12.502,313.119C42.519,313.11 42.458,313.445 72.501,313.285C77.272,313.26 76.012,311.21 76.018,306.507C76.019,305.88 76.028,299.336 74.443,298.839C72.883,298.35 12.892,299.732 8.664,298.02C1.979,295.312 3.244,289.824 3.209,256.504C3.196,232.503 3.184,208.501 3.171,184.5C3.171,183.304 2.179,177.294 5.827,172.806C9.063,168.825 10.205,170.006 97.503,169.872C164.722,169.769 164.691,169.129 170.513,169.598Z" style="fill:rgb(12,42,105);"/>
        <path d="M63.498,590.076C60.139,590.077 60.148,590.035 21.499,589.999C18.913,589.996 3.165,592.432 3.075,582.518C2.992,573.314 2.062,470.708 3.4,467.463C6.099,460.919 8.101,461.845 44.503,461.88C178.736,462.01 179.459,461.132 182.192,463.813C185.474,467.032 184.833,467.787 184.883,530.5C184.887,534.664 184.925,582 184.858,582.54C183.634,592.416 168.577,590.071 168.497,590.071C114.268,590.044 113.823,590.185 113.319,591.403C113.057,592.036 112.342,602.873 113.774,604.208C115.642,605.949 177.714,604.089 180.571,605.321C187.006,608.095 191.591,621.559 173.506,621.001C161.537,620.632 10.259,621.33 8.458,620.629C-0.14,617.279 0.092,605.158 12.502,604.91C16.662,604.827 16.636,605.499 64.506,604.867C73.796,604.745 73.889,605.015 74.487,604.485C75.198,603.853 76.148,590.253 73.587,590.105C72.782,590.058 72.84,590.103 63.498,590.076Z" style="fill:rgb(249,213,22);"/>
        <path d="M477.572,276.376C482.292,280.056 481.063,281.12 481.193,306.501C481.274,322.103 482.176,497.525 480.551,501.523C479.216,504.808 478.87,505.212 440.551,520.622C396.143,538.481 386.366,542.166 381.622,543.954C381.615,543.942 379.847,544.233 379.823,536.512C379.793,527.152 379.569,455.961 380.169,419.503C380.36,407.941 379.413,321.39 380.566,317.551C381.429,314.68 465.761,283.295 476.5,276.653L477.572,276.376Z" style="fill:rgb(64,72,91);"/>
        <path d="M317.503,13.711C408.613,14.075 408.581,13.546 416.499,13.675C458.785,14.36 461.348,12.406 461.364,16.498C461.396,24.571 461.764,115.954 461.151,117.402C460.807,118.213 460.63,119.06 434.496,118.797C418.478,118.636 305.56,119.236 304.592,118.37C303.839,117.696 303.83,112.053 303.829,111.5C303.689,23.17 303.52,23.197 303.761,15.523C303.833,13.241 310.356,13.802 317.503,13.711Z" style="fill:rgb(151,207,250);"/>
        <path d="M590.726,281.501C590.82,185.32 589.526,182.689 592.555,181.912C592.87,181.831 651.261,181.871 652.505,181.884C739.026,182.794 739.011,180.791 746.444,181.899C748.169,182.156 748.679,183.073 748.523,195.5C748.076,231.021 749.34,283.79 748.1,285.158C746.803,286.59 615.983,285.828 604.495,285.761C594.292,285.702 590.965,287.539 590.726,281.501Z" style="fill:rgb(136,229,219);"/>
        <path d="M592.729,478.492C592.86,474.949 592.71,474.93 592.87,474.669C593.425,473.765 598.964,473.716 599.5,473.711C678.68,473.006 678.627,473.819 685.506,473.705C691.611,473.604 742.769,473.54 747.489,473.809C750.715,473.992 749.949,478.485 749.981,480.514C750.09,487.386 750.149,571.999 749.931,575.587C749.838,577.107 749.106,577.378 727.498,577.333C595.267,577.059 592.98,578.791 592.787,575.461C592.589,572.059 592.717,486.25 592.729,478.492Z" style="fill:rgb(174,238,163);"/>
        <path d="M19.501,285.463C17.328,285.366 16.753,286.382 15.75,284.415C15.424,283.775 15.443,236.463 15.507,231.5C15.807,208.226 14.938,183.933 15.846,182.773C16.963,181.347 137.093,182.476 170.516,182.055C173.793,182.014 173.316,186.904 173.155,196.492C172.529,233.764 174.11,284.058 172.261,285.091C169.494,286.636 31.721,285.559 19.501,285.463Z" style="fill:rgb(115,156,241);"/>
        <path d="M166.508,577.237C152.471,577.164 64.598,577.2 61.502,577.167C27.721,576.81 16.168,578.32 15.429,575.518C15.034,574.019 15.13,477.666 15.269,475.471C15.435,472.832 17.696,473.833 45.499,473.54C55.418,473.436 111.253,472.849 169.496,473.57C173.509,473.62 172.158,478.401 172.22,490.499C172.286,503.474 172.263,524.547 172.26,527.508C172.226,559.111 172.535,575.37 172.088,576.275C171.262,577.951 170.78,577.093 166.508,577.237Z" style="fill:rgb(251,238,148);"/>
        <path d="M325.494,742.956C304.368,743.13 304.252,742.636 303.998,742.185C303.192,740.758 303.665,675.317 303.707,669.502C303.889,644.268 302.457,640.778 306.507,640.778C318.746,640.776 454.517,640.756 459.485,640.85C461.865,640.896 461.751,642.686 461.554,662.5C461.282,689.925 462.107,741.026 461.172,742.298C460.471,743.253 460.106,743.087 325.494,742.956Z" style="fill:rgb(252,194,125);"/>
        <path d="M262.393,687.92C263.269,688.301 274.11,693.014 266.276,699.213C261.019,703.373 202.557,670.473 195.724,665.215C183.565,655.858 183.046,656.654 171.24,646.803C168.247,644.306 152.406,634.9 159.735,628.79C164.997,624.404 164.494,630.816 194.262,650.8C226.603,672.512 226.855,672.131 262.393,687.92Z" style="fill:rgb(168,171,174);"/>
        <path d="M583.406,629.777C592.326,629.368 592.894,629.614 593.993,632.471C594.057,638.379 591.587,638.982 586.734,643.739C580.183,650.159 560.052,665.343 548.392,672.324C544.248,674.805 518.975,689.938 494.561,699.666C490.838,701.149 482.414,693.838 492.433,688.369C494.852,687.049 495.223,688.02 523.595,673.682C549.37,660.655 583.492,633.961 583.607,630.436C583.614,630.206 583.398,630.006 583.406,629.777Z" style="fill:rgb(168,171,174);"/>
        <path d="M170.513,169.598C170.481,169.289 171,169.094 170.968,168.786C170.914,168.269 170.761,168.388 168.913,167.298C165.741,165.424 174.09,159.281 174.755,158.791C185.882,150.603 208.341,128.901 258.574,108.676C259.085,108.471 269.805,101.992 272.65,108.423C276.02,116.038 264.429,117.402 259.608,119.727C233.31,132.409 233.13,131.936 208.394,147.33C191.044,158.127 181.699,168.157 179.694,170.309C175.142,169.259 175.137,169.81 170.513,169.598Z" style="fill:rgb(169,171,175);"/>
        <path d="M596.578,168.433C596.106,168.602 595.972,169.314 595.5,169.483C591.908,170.77 591.748,168.555 584.041,170.078C579.761,163.027 540.498,133.918 501.578,118.31C499.233,117.369 486.483,114.205 489.397,107.446C491.52,102.521 497.87,105.054 498.569,105.333C546.145,124.312 591.126,156.839 596.578,168.433Z" style="fill:rgb(167,171,175);"/>
        <path d="M49.067,374.487C46.172,418.991 49.075,418.887 49.996,441.49C50.168,445.728 53.177,449.649 45.452,451.288C38.195,452.828 40.325,438.69 38.326,431.557C36.666,425.634 38.959,425.4 37.322,419.558C37.243,419.277 36.148,385.978 37.664,380.553C39.161,375.191 37.085,374.967 38.667,369.556C39.988,365.037 39.859,335.971 50.559,340.38C55.601,342.457 52.435,349.08 52.031,354.478C51.912,356.065 49.619,366.895 49.067,374.487Z" style="fill:rgb(167,169,173);"/>
        <path d="M720.449,452.02C712.064,451.566 715.526,446.11 715.988,432.512C716.012,431.812 718.381,418.085 718,393.503C717.979,392.141 717.416,392.189 717.009,376.509C716.788,368.004 711.108,345.026 713.812,341.759C718.906,335.604 722.551,341.978 722.91,344.433C724.87,357.822 726.637,359.977 727.097,372.512C727.195,375.187 727.854,375.327 727.903,376.447C729.624,416.291 727.776,416.214 727.019,434.483C726.976,435.532 726.374,435.436 725.02,447.443C724.677,450.486 720.935,451.843 720.449,452.02Z" style="fill:rgb(164,166,170);"/>
        <path d="M297.595,367.005C297.037,365.963 296.418,366.314 296.265,364.523C295.039,350.186 296.321,349.849 297.5,349.828C298.743,349.805 351.031,365.024 361.503,367.489C365.539,368.44 364.24,373.595 364.34,382.507C364.36,384.285 364.073,384.16 363.511,385.376C343.104,380.054 302.857,368.514 297.595,367.005Z" style="fill:rgb(146,158,172);"/>
        <path d="M297.569,326.194C297.301,325.744 296.219,325.976 295.957,323.484C295.94,323.324 296.011,323.359 296.069,321.485C296.349,312.343 294.097,308.17 300.41,309.823C305.384,311.125 339.225,319.985 362.36,326.954C365.824,327.997 364.511,341.645 363.513,344.296C358.229,342.88 309.017,329.691 297.569,326.194Z" style="fill:rgb(146,157,172);"/>
        <path d="M364.409,465.463C364.144,465.98 363.88,466.496 363.616,467.013C315.513,452.884 305.706,450.908 298.475,448.573C295.518,447.618 295.999,443.698 296.159,433.47C296.217,429.775 305.124,433.465 307.593,434.142C311.822,435.302 355.263,447.215 360.398,448.841C366.046,450.628 364.523,453.383 364.409,465.463Z" style="fill:rgb(146,157,171);"/>
        <path d="M297.406,407.799C296.952,406.965 296.155,407.311 296.181,404.49C296.283,393.752 296.177,393.039 296.209,392.433C296.252,391.604 296.67,390.463 306.547,393.341C357.756,408.263 357.897,407.651 362.335,408.989C365.155,409.84 365.647,422.473 363.501,426.494C330.519,416.717 330.491,417.204 297.406,407.799Z" style="fill:rgb(147,158,173);"/>
        <path d="M192.105,511.55C192.176,510.951 192.652,506.906 196.445,505.391C198.527,504.56 254.876,475.35 255.724,474.795C268.627,466.345 270.482,477.858 265.249,482.202C264.94,482.458 199.038,516.821 198.55,516.886C193.079,517.616 192.164,511.693 192.105,511.55Z" style="fill:rgb(167,169,171);"/>
        <path d="M296.479,326.144L297.569,326.194C309.017,329.691 358.229,342.88 363.513,344.296C363.993,345.128 365.217,344.915 364.654,355.519C364.425,359.812 361.698,356.807 309.465,342.627C295.918,338.949 295.992,337.985 295.922,336.483C295.893,335.847 295.925,335.894 295.953,328.526L296.479,326.144Z" style="fill:rgb(46,56,74);"/>
        <path d="M297.595,367.005C302.857,368.514 343.104,380.054 363.511,385.376C366.629,390.623 364.798,398.678 363.499,398.512C363.308,398.488 305.422,382.346 304.636,382.08C301.325,380.959 295.993,380.079 295.886,377.494C295.553,369.436 295.536,368.979 297.595,367.005Z" style="fill:rgb(46,56,74);"/>
        <path d="M297.406,407.799C330.491,417.204 330.519,416.717 363.501,426.494L364.548,427.422C364.592,429.671 365.599,439.501 363.517,439.651C363.491,439.653 297.511,420.924 296.693,420.245C295.149,418.963 296.1,408.467 296.44,408.021C296.641,407.759 297.206,408.062 297.406,407.799Z" style="fill:rgb(47,56,74);"/>
        <path d="M496.946,334.444C497.29,326.479 501.129,329.087 508.725,323.81C509.356,323.372 520.415,317.88 521.436,317.373C523.476,316.359 523.383,316.411 525.408,315.347C547.251,303.876 547.515,304.411 549.275,303.188C552.315,301.075 560.914,297.222 562.266,296.2C568.488,291.497 574.565,299.922 570.528,303.527C567.617,306.126 566.406,307.208 527.598,326.693C503.454,338.815 500.27,342.139 496.946,334.444Z" style="fill:rgb(167,169,172);"/>
        <path d="M498.134,474.013C502.081,471.184 502.658,471.635 507.424,474.628C507.511,474.682 547.833,495.02 553.419,498.634C556.84,500.847 576.608,507.454 571.168,514.233C566.513,520.032 558.836,512.974 556.38,511.732C552.452,509.746 513.694,490.144 507.414,486.645C498.55,481.707 493.726,479.634 498.134,474.013Z" style="fill:rgb(166,168,172);"/>
        <path d="M198.439,295.959C205.272,298.436 209.006,301.624 215.572,304.36C216.406,304.707 239.553,316.715 258.617,326.272C259.299,326.614 266.064,330.006 266.642,331.431C268.348,335.634 263.879,340.886 258.599,338.289C255.935,336.979 255.976,336.96 225.413,321.668C193.592,305.747 193.453,305.408 192.291,302.579C189.713,296.302 197.717,295.988 198.439,295.959Z" style="fill:rgb(166,169,172);"/>
        <path d="M387.94,575.499C388.361,615.152 388.493,619.834 381.447,618.886C374.745,617.984 377.678,603.634 376.995,573.502C376.636,557.693 387.555,563.925 387.888,567.445C388.208,570.815 388.006,570.743 387.94,575.499Z" style="fill:rgb(163,165,169);"/>
        <path d="M387.932,191.499C387.962,219.576 389.547,227.63 381.56,226.27C375.955,225.315 377.293,222.259 376.984,191.501C376.942,187.259 375.114,168.544 384.56,172.373C389.221,174.261 388.044,182.982 387.932,191.499Z" style="fill:rgb(164,165,170);"/>
        <path d="M364.409,465.463C364.656,466.149 365.068,465.768 365.331,466.5C365.371,466.612 365.718,467.576 365.316,467.984C365.075,468.229 364.79,467.05 364.548,467.295L363.616,467.013C363.88,466.496 364.144,465.98 364.409,465.463Z" style="fill:rgb(99,110,126);"/>
        <path d="M296.479,326.144L295.953,328.526C295.757,327.211 295.726,327.217 296.479,326.144Z" style="fill:rgb(63,74,91);"/>
    </g>
</svg>
