<?xml version="1.0" encoding="UTF-8" standalone="no"?>
<!DOCTYPE svg PUBLIC "-//W3C//DTD SVG 1.1//EN" "http://www.w3.org/Graphics/SVG/1.1/DTD/svg11.dtd">
<svg width="100%" height="100%" viewBox="0 0 1024 1024" version="1.1" xmlns="http://www.w3.org/2000/svg" xmlns:xlink="http://www.w3.org/1999/xlink" xml:space="preserve" xmlns:serif="http://www.serif.com/" style="fill-rule:evenodd;clip-rule:evenodd;stroke-linejoin:round;stroke-miterlimit:2;">
    <g id="Background" transform="matrix(1.390583,0,0,1.390583,-2.620295,32.265195)">
        <path d="M44.628,96.457C48.587,96.129 692.555,96.114 695.518,96.506C695.881,104.099 695.253,275.747 695.796,279.423C695.861,279.864 696.419,280.13 696.484,280.571C692.835,281.225 521.115,280.767 516.502,280.792C442.722,281.196 442.529,280.005 438.976,281.519C438.293,272.603 437.643,252.082 416.186,231.826C382.137,199.683 308.874,209.044 300.558,279.497C297.283,281.364 289.656,280.718 282.502,280.696C270.742,280.659 172.857,280.352 135.501,280.743C128.459,280.817 64.156,281.491 47.475,280.774C45.293,280.681 44.795,279.617 44.528,279.501C44.306,273.224 44.261,122.217 44.628,96.457Z" style="fill:rgb(134,206,246);"/>
        <path d="M44.528,279.501C44.795,279.617 45.293,280.681 47.475,280.774C64.156,281.491 128.459,280.817 135.501,280.743C172.857,280.352 270.742,280.659 282.502,280.696C289.656,280.718 297.283,281.364 300.558,279.497C300.262,285.011 298.457,318.567 331.843,341.016C332.849,341.692 337.286,344.676 345.377,347.811C354.319,351.277 368.48,352.132 370.519,352.255C369.039,357.261 369.758,357.379 370.052,417.504C370.211,449.845 369.357,467.852 370.515,471.537L369.552,471.644C361.949,472.029 6.252,472.176 2.012,471.534C1.867,451.827 1.903,284.155 2.016,280.552C20.784,280.751 42.144,280.647 42.508,280.631C44.02,280.561 43.687,279.972 44.528,279.501Z" style="fill:rgb(73,210,185);"/>
        <path d="M738.071,279.485C737.836,440.876 737.947,458.896 738.044,474.497C737.871,474.227 739.041,472.703 736.5,472.087C735.452,471.833 571.85,471.867 520.493,472.025C384.206,472.445 382.487,472.331 370.515,471.537C369.357,467.852 370.211,449.845 370.052,417.504C369.758,357.379 369.039,357.261 370.519,352.255C372.164,352.105 398.925,353.585 420.523,330.521C439.442,310.32 439.043,285.707 438.976,281.519C442.529,280.005 442.722,281.196 516.502,280.792C521.115,280.767 692.835,281.225 696.484,280.571C699.688,280.605 734.89,280.972 736.542,280.595C737.156,280.454 737.457,279.625 738.071,279.485Z" style="fill:rgb(152,230,122);"/>
        <path d="M44.628,96.457C44.261,122.217 44.306,273.224 44.528,279.501C43.687,279.972 44.02,280.561 42.508,280.631C42.144,280.647 20.784,280.751 2.016,280.552C1.961,275.369 1.661,53.697 2.208,48.457C3.955,31.716 19.558,8.932 43.423,3.27C52.164,1.196 52.225,2.07 185.503,1.923C226.066,1.878 686.325,1.369 692.544,2.185C699.588,3.11 717.731,10.097 726.985,24.193C741.668,46.557 737.419,48.475 737.988,111.501C738.088,122.594 738.017,277.735 738.071,279.485C737.457,279.625 737.156,280.454 736.542,280.595C734.89,280.972 699.688,280.605 696.484,280.571C696.419,280.13 695.861,279.864 695.796,279.423C695.253,275.747 695.881,104.099 695.518,96.506C695.936,80.308 699.149,55.725 667.49,55.991C602.411,56.537 262.699,56.14 227.5,56.098C127.496,55.981 125.381,55.999 116.501,56.071C70.199,56.448 55.093,51.649 46.693,69.586C45.779,71.538 43.043,77.38 44.628,96.457Z" style="fill:rgb(38,123,194);"/>
        <path d="M2.012,471.534C6.252,472.176 361.949,472.029 369.552,471.644L369.881,472.5C370.68,477.324 370.074,502.863 369.665,503.5C369.579,503.635 369.579,503.621 368.502,505.128C364.287,505.88 364.22,505.441 360.423,507.338C346.113,514.491 340.652,541.913 367.488,547.585C370.841,550.683 370.149,551.332 370.179,562.485C370.235,583.157 369.872,583.696 368.5,583.836C367.837,583.904 367.166,583.804 366.5,583.827C362.752,583.957 362.803,583.939 362.5,584.044C361.516,584.385 362.424,585.24 361.499,585.561C357.659,585.547 328.494,585.447 313.5,585.521C290.702,585.635 290.496,584.703 286.496,586.502C283.309,585.203 282.084,584.703 243.499,584.974C174.605,585.456 67.782,585.089 52.502,585.036C27.963,584.952 5.532,562.381 2.14,537.55C1.883,535.674 2.013,472.029 2.012,471.534Z" style="fill:rgb(250,209,86);"/>
        <path d="M369.552,471.644L370.515,471.537C382.487,472.331 384.206,472.445 520.493,472.025C571.85,471.867 735.452,471.833 736.5,472.087C739.041,472.703 737.871,474.227 738.044,474.497C737.105,539.83 744.193,547.675 716.239,574.192C715.577,574.82 714.146,574.934 708.268,579.196C707.892,579.469 697.057,583.81 696.565,583.881C688.8,585 688.148,585.094 598.501,585.043C572.501,585.02 546.501,584.997 520.501,584.974C490.989,584.953 491.053,585.341 461.5,585.343C457.345,585.343 457.451,585.678 453.42,586.462C449.715,584.605 449.467,585.561 413.5,585.463C382.712,585.379 365.659,585.525 361.499,585.561C362.424,585.24 361.516,584.385 362.5,584.044C362.803,583.939 362.752,583.957 366.5,583.827C367.166,583.804 367.837,583.904 368.5,583.836C369.872,583.696 370.235,583.157 370.179,562.485C370.149,551.332 370.841,550.683 367.488,547.585C395.263,547.426 394.673,520.717 385.426,511.577C378.189,504.423 368.938,505.163 368.502,505.128C369.579,503.621 369.579,503.635 369.665,503.5C370.074,502.863 370.68,477.324 369.881,472.5L369.552,471.644Z" style="fill:rgb(251,227,107);"/>
        <path d="M44.628,96.457C43.043,77.38 45.779,71.538 46.693,69.586C55.093,51.649 70.199,56.448 116.501,56.071C125.381,55.999 127.496,55.981 227.5,56.098C262.699,56.14 602.411,56.537 667.49,55.991C699.149,55.725 695.936,80.308 695.518,96.506C692.555,96.114 48.587,96.129 44.628,96.457Z" style="fill:rgb(251,253,252);"/>
        <path d="M300.558,279.497C308.874,209.044 382.137,199.683 416.186,231.826C437.643,252.082 438.293,272.603 438.976,281.519C439.043,285.707 439.442,310.32 420.523,330.521C398.925,353.585 372.164,352.105 370.519,352.255C368.48,352.132 354.319,351.277 345.377,347.811C337.286,344.676 332.849,341.692 331.843,341.016C298.457,318.567 300.262,285.011 300.558,279.497Z" style="fill:rgb(251,253,252);"/>
        <path d="M461.427,645.582C471.123,648.212 513.075,642.587 522.259,649.809C536.452,660.969 534.161,687.772 507.5,687.864C485.017,687.941 231.244,688.816 226.463,687.651C200.694,681.374 204.46,648.035 229.481,646.221C232.43,646.008 270.746,646.433 278.323,646.001C288.152,646.508 454.985,646.697 460.5,645.972L461.427,645.582Z" style="fill:rgb(73,81,99);"/>
        <path d="M361.499,585.561C365.659,585.525 382.712,585.379 413.5,585.463C449.467,585.561 449.715,584.605 453.42,586.462C459.787,640.617 459.931,641.05 461.427,645.582L460.5,645.972C454.985,646.697 288.152,646.508 278.323,646.001C278.909,644.723 278.738,644.705 284.838,601.547C285.646,595.827 286.386,587.708 286.496,586.502C290.496,584.703 290.702,585.635 313.5,585.521C328.494,585.447 357.659,585.547 361.499,585.561Z" style="fill:rgb(127,134,147);"/>
        <path d="M380.338,265.76C404.599,279.675 403.472,282.386 402.579,284.537C401.434,287.292 400.413,286.33 365.232,309.053C357.114,314.297 347.597,321.517 347.479,311.5C347.421,306.632 346.794,253.386 347.903,250.642C349.833,245.866 355.699,249.536 356.268,249.892C367.009,256.613 378.437,264.455 380.338,265.76Z" style="fill:rgb(35,121,193);"/>
        <path d="M368.502,505.128C368.938,505.163 378.189,504.423 385.426,511.577C394.673,520.717 395.263,547.426 367.488,547.585C340.652,541.913 346.113,514.491 360.423,507.338C364.22,505.441 364.287,505.88 368.502,505.128Z" style="fill:rgb(244,135,84);"/>
        <path d="M73.463,69.248C83.916,69.593 81.21,79.829 80.101,81.197C71.935,91.276 57.382,73.384 73.463,69.248Z" style="fill:rgb(241,138,94);"/>
        <path d="M108.359,69.806C122.3,80.664 101.192,90.244 98.247,78.569C96.927,73.337 101.031,67.616 108.359,69.806Z" style="fill:rgb(34,117,189);"/>
        <path d="M136.477,83.919C126.186,82.003 129.682,73.256 130.92,71.897C140.4,61.489 151.283,82.785 136.477,83.919Z" style="fill:rgb(147,224,125);"/>
    </g>
</svg>
