<?xml version="1.0" encoding="UTF-8" standalone="no"?>
<!DOCTYPE svg PUBLIC "-//W3C//DTD SVG 1.1//EN" "http://www.w3.org/Graphics/SVG/1.1/DTD/svg11.dtd">
<svg width="100%" height="100%" viewBox="0 0 1024 1024" version="1.1" xmlns="http://www.w3.org/2000/svg" xmlns:xlink="http://www.w3.org/1999/xlink" xml:space="preserve" xmlns:serif="http://www.serif.com/" style="fill-rule:evenodd;clip-rule:evenodd;stroke-linejoin:round;stroke-miterlimit:2;">
    <g id="Background" transform="matrix(2.15776,0,0,2.15776,0.488368,6.254565)">
        <path d="M160.023,34.532C160.415,36.036 159.942,36.49 161.392,36.886C161.814,37.001 161.815,36.951 169.502,36.943C173.6,36.939 174.179,38.396 177.021,35.444C179.046,37.485 179.347,36.936 181.504,36.937C185.064,36.94 185.069,37.351 188.501,36.499C191.865,37.361 202.324,36.615 203.523,36.529C204.298,36.749 213.07,38.521 214.97,35.465C215.136,35.197 214.854,34.789 215.02,34.522C215.147,35.008 214.571,36.914 217.507,37.007C226.933,37.307 230.439,36.732 231.548,36.55C233.441,37.032 239.782,37.51 243.464,36.537C247.106,37.466 256.438,37.222 259.471,36.473C265.489,37.426 265.54,38.041 271.459,36.547C279.031,37.279 279.006,37.738 286.537,36.539C289.904,37.841 289.953,37.135 293.489,37.015C297.716,36.871 297.284,35.828 298.038,34.518C298.183,35.115 297.646,37.066 300.506,37.035C311.237,36.919 311.236,37.291 314.481,36.483C319.643,38.869 324.787,36.535 325.786,36.246C326.732,36.625 327.846,37.071 338.503,37.007C340.678,36.994 340.659,36.851 342.022,35.462C342.742,35.676 342.807,36.928 343.527,37.141C344.135,37.321 349.002,37.033 349.477,37.004C353.792,36.749 352.641,35.117 352.889,34.501C353.35,36.144 352.826,36.781 354.552,37.021C357.033,37.368 400.506,37.054 404.502,37.025C426.159,36.869 432.976,35.327 436.723,44.415C437.863,47.181 436.261,100.894 437.518,112.485L437.232,113.5C437.211,114.3 436.99,122.536 437.384,123.5C437.615,124.066 438.461,124.219 438.692,124.785C435.201,129.231 437.683,139.945 437.785,140.21L436.959,141.5C436.794,147.205 436.898,147.144 437.806,152.785C436.278,157.038 438.847,157.98 437.649,162.544C436.617,166.475 437.123,166.564 438.558,168.047C438.384,168.374 437.28,168.343 437.272,170.468C437.265,172.14 437.173,173.81 437.136,175.482C437.104,176.914 437.288,177.279 437.314,177.565C437.496,179.571 438.352,179.302 438.579,179.681C438.151,180.305 437.883,179.911 437.485,180.492C437.439,180.56 437.279,180.793 437.323,181.516C437.656,187.092 437.203,187.079 437.314,187.549C438.213,191.354 436.412,191.512 437.785,195.245C436.912,202.525 437.625,207.682 437.773,208.752C436.883,211.111 436.706,211.095 437.329,213.548C437.723,215.098 437.994,215.028 437.64,216.537C436.488,221.446 437.299,221.466 438.734,224.17C438.227,225.01 435.625,229.316 438.437,236.433C435.794,243.458 437.296,248.26 437.502,251.498L437.369,252.5C436.762,257.007 437.701,256.994 437.365,261.516C437.217,263.502 438.641,263.661 438.734,263.816C437.17,267.036 437.984,269.215 437.825,273.535C437.719,276.437 436.736,276.484 437.795,279.224C437.002,284.362 436.583,285.618 437.803,291.817C437.552,292.47 436.226,295.918 437.329,300.544C438.116,303.844 436.641,303.999 437.781,307.239C436.503,316.371 438.037,319.366 438.397,320.303C436.36,322.518 437.105,325.656 437.11,328.497C437.118,332.673 435.914,333.095 438.607,336.242C438.483,336.468 437.179,336.496 437.375,338.495C437.848,343.324 436.519,343.578 438.714,347.927C436.763,350.212 437.107,350.496 437.107,368.497C437.097,380.165 437.087,391.833 437.078,403.501C437.062,420.57 438.544,427.395 429.393,430.069C421.576,432.353 360.246,429.585 353.437,431.446C349.674,430.031 346.494,429.06 341.573,431.44C340.345,431.212 330.385,429.365 325.962,431.702C318.119,429.579 317.378,430.129 314.215,431.722C313.133,431.265 310.017,429.949 299.557,430.948C299.158,430.987 298.875,431.44 298.476,431.478C298.225,431.381 297.615,430.433 295.513,430.323C289.853,430.028 287.182,431.193 286.517,431.483C277.487,429.779 272.459,431.346 271.432,431.44C270.538,431.114 266.097,429.497 259.548,431.457C258.39,431.141 253.613,429.838 244.556,430.908C244.148,430.956 243.861,431.409 243.453,431.457C242.525,431.25 236.094,429.812 231.561,431.439C229.55,430.933 229.622,430.911 227.498,430.896C219.919,430.845 217.295,430.096 215.568,432.526C214.706,432.098 215.006,430.646 207.505,430.973C204.676,431.097 205.133,432.062 204.085,432.544C202.622,431.081 202.61,431.037 200.492,430.923C199.916,430.892 189.792,430.915 189.555,430.937C189.152,430.974 188.864,431.426 188.461,431.464C182.504,429.308 182.273,429.067 176.503,431.497C175.246,431.259 166.603,429.619 160.51,431.508C158.003,430.439 158.092,430.164 156.498,430.178C155.993,430.182 150.643,430.229 150.192,430.422C149.673,430.644 149.544,431.427 149.025,431.649C145.758,430.646 145.784,430.822 139.5,430.847C135.305,430.863 133.95,429.52 132.888,433.514C132.426,432.703 131.963,431.892 131.5,431.08C125.09,430.305 124.577,429.656 122.039,432.567C121.761,432.283 121.775,431.788 121.497,431.503C120.082,430.056 50.611,431.548 47.456,430.638C36.841,427.578 38.872,418.415 38.861,415.498C38.64,351.11 39.647,350.618 37.606,348.306C40.306,342.384 37.87,337.293 37.46,336.437C38.854,334.148 39.041,334.14 38.794,331.478C38.267,325.795 40.154,325.471 37.577,320.41C39.03,315.742 39.074,315.686 38.209,307.247C38.211,307.237 38.779,306.523 38.641,305.477C37.788,298.997 38.735,299.022 38.105,292.566C38.065,292.151 37.577,291.867 37.536,291.453C37.928,290.554 39.542,286.853 38.207,279.217C39.278,276.459 38.781,276.434 38.362,273.525C37.888,270.222 40.831,269.115 37.467,263.55C38.716,261.378 40.149,258.556 37.561,251.574C39.812,247.298 39.47,238.397 37.608,236.3C40.237,228.63 38.301,226.449 37.459,224.446C37.558,224.154 41.002,215.007 37.56,208.424C38.12,206.989 38.847,206.56 38.844,202.49C38.844,201.809 39.196,197.209 37.45,196.098C37.181,195.928 36.765,196.303 36.496,196.132C38.035,195.643 38.688,196.172 38.831,194.53C38.868,194.112 38.281,192.48 38.393,191.483C38.85,187.422 37.427,187.407 38.344,183.461C39.284,179.417 37.445,179.871 36.546,179.14C36.666,178.975 38.563,178.056 38.677,174.501C38.694,173.976 38.849,169.155 37.437,168.048C37.189,167.853 36.739,168.283 36.49,168.088C37.489,167.764 38.804,168.426 38.873,165.512C38.909,163.993 38.863,155.37 38.858,154.488C38.844,151.966 37.841,152.384 37.443,151.956C37.552,151.661 40.877,146.857 37.498,140.497C39.058,135.529 38.874,135.511 38.837,127.497C38.826,124.963 37.915,125.432 37.447,124.904C37.558,124.298 38.538,124.106 38.65,123.5C39.172,120.66 38.678,116.112 38.609,115.473C38.3,112.639 36.568,113.16 36.488,113.102C37.362,112.804 38.82,113.346 38.855,110.516C38.899,106.986 38.872,107.015 38.842,96.498C38.837,94.753 38.853,78.1 38.855,76.5C38.886,44.003 37.522,41.697 45.718,37.999C51.644,35.326 107.575,38.318 121.524,36.526C127.959,38.218 132.539,36.831 133.453,36.555C140.994,37.298 140.961,37.176 148.541,36.547C151.786,37.398 151.783,36.898 156.494,36.872C160.449,36.85 159.819,34.827 160.023,34.532Z" style="fill:rgb(136,203,86);"/>
        <path d="M54.502,423.448C53.734,423.38 47.58,422.837 46.178,418.596C44.526,413.603 45.106,283.267 45.158,271.499C45.286,242.715 45.007,120.007 45.317,82.496C45.584,50.096 42.849,43.588 55.501,43.636C148.592,43.991 278.553,43.477 312.495,43.736C422.943,44.577 426.862,40.59 429.096,48.63C430.161,52.464 429.732,178.23 429.693,189.5C429.403,274.534 430.349,274.464 429.812,359.502C429.439,418.486 431.372,421.806 424.389,423.059C419.902,423.864 71.288,423.513 54.502,423.448Z" style="fill:rgb(23,136,164);"/>
        <path d="M355.502,274.232C371.321,274.182 388.953,271.972 394.452,284.521C397.401,291.248 396.569,291.576 396.745,365.501C396.771,376.188 395.464,380.041 387.396,386.363C381.796,390.752 374.662,389.144 352.499,389.446C304.107,390.106 301.763,389.686 297.427,388.907C279.381,385.668 283.035,358.974 283.046,357.501C283.548,291.302 281.401,290.608 285.81,283.681C293.436,271.698 303.612,274.579 333.491,274.168C335.287,274.144 353.741,274.224 355.502,274.232Z" style="fill:rgb(148,212,78);"/>
        <path d="M185.753,87.282C192.68,96.725 191.175,97.623 191.481,131.5C191.904,178.176 190.875,180.038 188.853,183.697C181.107,197.717 170.301,194.936 145.498,195.106C94.634,195.453 94.356,195.597 90.601,193.316C74.744,183.685 79.261,179.62 78.63,139.497C77.932,95.084 79.457,92.941 81.773,89.688C89.334,79.065 97.135,81.693 131.503,81.293C176.273,80.771 176.825,81.08 180.23,82.983C183.304,84.702 183.242,84.748 185.753,87.282Z" style="fill:rgb(102,198,237);"/>
        <path d="M64.606,297.389C71.211,301.22 71.232,296.31 75.466,296.064C81.38,295.72 81.304,296.527 149.511,295.857C159.425,295.76 158.497,298.515 165.586,305.419C168.07,307.839 172.24,310.285 172.175,315.498C171.626,359.671 172.641,395.526 171.303,397.359C169.569,399.737 169.32,399.567 168.65,402.508C168.022,403.226 167.756,402.741 167.092,403.5C166.523,404.15 167.117,404.377 166.5,404.965C166.452,405.011 163.737,405.04 163.496,405.043C93.252,405.793 91.257,404.923 85.537,402.428C58.988,390.849 62.557,364.497 62.539,359.499C62.524,355.339 62.371,312.82 62.567,307.501C62.874,299.189 62.001,299.081 62.427,298.5C62.641,298.208 63.286,298.625 63.5,298.333L64.606,297.389Z" style="fill:rgb(25,147,177);"/>
        <path d="M318.982,63.019C321.394,61.838 323.614,60.751 352.499,61.294C379.625,61.803 387.674,57.811 403.398,73.601C415.667,85.921 412.925,103.994 413.13,121.516C413.67,167.604 412.647,167.545 412.752,171.546C412.765,172.072 413.228,172.083 412.82,172.5C412.669,172.655 412.639,172.585 410.369,173.654C403.384,169.683 403.562,175.489 399.504,175.396C349.912,174.267 337.614,176.492 334.55,173.445C332.295,171.203 321.784,159.562 320.685,158.344C316.9,154.153 317.955,153.47 317.688,120.499C317.659,116.828 317.334,76.724 317.911,74.607C318.947,70.806 323.722,68.953 318.982,63.019Z" style="fill:rgb(25,146,177);"/>
        <path d="M294.78,62.713C297.776,60.32 298.164,61.103 301.234,62.761C305.36,70.222 300.525,71.731 300.502,74.5C300.447,81.451 299.828,158.616 300.845,161.389C301.684,163.68 319.616,180.239 325.865,188.195C328.95,192.124 330.088,190.422 381.495,190.867C399.644,191.024 399.766,190.778 403.6,188.696C407.344,186.663 415.147,188.967 411.637,196.569C408.952,202.382 402.114,197.037 401.474,196.536C398.652,194.331 398.183,195.358 333.501,195.262C327.019,195.253 326.268,195.827 322.388,190.578C318.714,185.608 307.198,175.327 301.572,168.328C301.239,168.421 300.905,168.514 300.572,168.607C300.414,168.805 299.969,168.398 299.811,168.597C299.217,169.342 300.525,169.508 299.768,180.504C299.683,181.75 299.568,183.42 308.703,193.309C313.53,198.533 313.876,198.102 318.633,203.379C322.405,207.563 329.314,205.078 348.497,205.69C353.023,205.835 391.74,206.006 395.5,206.023C405.198,206.066 405.611,201.276 410.587,204.397C414.04,206.562 412.255,217.336 404.501,214.497C401.798,213.507 400.964,210.546 398.5,210.536C371.447,210.416 371.527,210.963 344.5,210.72C320.548,210.505 319.884,211.133 317.028,207.971C302.284,191.653 295.646,187.769 295.64,182.504C295.614,159.443 295.892,108.9 295.928,102.5C296.08,74.887 296.323,74.762 295.131,72.696C292.552,68.224 292.072,67.794 294.78,62.713Z" style="fill:rgb(230,227,104);"/>
        <path d="M214.008,402.529C213.028,411.934 205.237,407.667 204.457,406.534C200.756,401.159 205.517,398.167 206.112,397.273C207.392,395.351 206.836,316.517 206.786,309.495C206.67,293.035 207.922,292.034 201.88,286.127C199.763,284.059 200.028,283.9 197.604,281.397C177.181,260.305 169.16,250.335 166.458,249.828C164.108,249.387 134.3,249.684 131.503,249.712C76.099,250.264 75.616,249.168 72.509,251.511C64.742,257.37 59.254,244.67 66.376,242.189C71.048,240.562 74.341,244.653 74.383,244.676C76.802,246.012 153.432,245.583 162.499,245.308C172.689,244.999 171.62,248.149 179.701,256.318C196.009,272.802 210.092,287.977 210.409,288.555C212.591,292.548 211.094,366.785 211.618,393.499C211.71,398.205 212.789,397.933 214.008,402.529Z" style="fill:rgb(237,224,94);"/>
        <path d="M277.588,62.587C281.352,60.162 281.946,60.639 285.25,63.678C287.737,71.12 283.175,70.807 283.255,75.503C283.725,103.23 283.142,187.918 283.371,188.553C283.553,189.056 311.643,220.757 315.512,221.44C318.97,222.051 322.339,220.871 397.5,221.713C404.395,221.79 405.459,216.331 411.041,220.904C413.457,222.884 411.363,227.721 411.129,228.262C404.032,234.252 402.803,226.567 398.509,226.294C388.079,225.629 314.628,226.579 312.408,225.721C310.239,224.882 310.417,224.623 291.878,205.148C279.136,191.763 279.037,191.08 278.802,189.463C278.386,186.605 278.805,126.014 278.844,120.497C278.852,119.336 278.782,74.519 278.769,74.447C278.483,72.925 277.015,71.569 276.053,68.616C275.044,65.52 277.442,62.855 277.588,62.587Z" style="fill:rgb(229,226,98);"/>
        <path d="M193.549,407.599C185.062,409.87 185.996,401.248 186.884,399.699C190.595,393.223 188.811,392.633 189.258,315.497C189.364,297.115 189.598,296.745 187.062,293.889C184.479,290.981 165.248,271.865 161.444,267.551C157.817,263.436 156.679,265.402 92.501,264.799C76.119,264.645 75.927,264.711 72.252,267.114C63.041,273.136 58.48,255.621 69.529,257.305C73.681,257.938 72.841,260.575 77.499,260.564C159.66,260.381 159.823,260.499 161.437,261.6C162.193,262.116 192.229,292.284 193.252,295.565C194.085,298.236 193.686,386.579 193.65,394.493C193.633,398.253 200.105,402.958 193.549,407.599Z" style="fill:rgb(238,225,98);"/>
        <path d="M64.606,297.389C62.899,295.222 62.333,295.272 62.879,292.564C64.885,282.599 73.942,291.492 76.5,291.49C80.34,291.487 116.363,291.462 124.5,291.513C156.204,291.713 156.76,290.739 159.581,293.397C165.544,299.02 165.29,299.186 171.277,304.708C177.017,310.001 176.32,310.722 176.33,318.501C176.427,395.345 175.912,395.557 177.599,398.438C183.146,407.909 169.62,413.323 168.65,402.508C169.32,399.567 169.569,399.737 171.303,397.359C172.641,395.526 171.626,359.671 172.175,315.498C172.24,310.285 168.07,307.839 165.586,305.419C158.497,298.515 159.425,295.76 149.511,295.857C81.304,296.527 81.38,295.72 75.466,296.064C71.232,296.31 71.211,301.22 64.606,297.389Z" style="fill:rgb(229,226,101);"/>
        <path d="M311.711,63.626C313.996,61.687 314.757,60.121 318.982,63.019C323.722,68.953 318.947,70.806 317.911,74.607C317.334,76.724 317.659,116.828 317.688,120.499C317.955,153.47 316.9,154.153 320.685,158.344C321.784,159.562 332.295,171.203 334.55,173.445C337.614,176.492 349.912,174.267 399.504,175.396C403.562,175.489 403.384,169.683 410.369,173.654C410.758,174.135 413.692,177.761 411.222,181.336C407.18,187.186 400.431,179.858 399.478,179.577C398.455,179.276 359.019,179.335 355.501,179.34C334.25,179.373 334.039,178.897 332.633,177.379C321.096,164.925 312.902,158.258 312.94,154.493C313.004,148.175 313.434,105.639 313.096,75.513C313.043,70.81 309.072,70.967 311.711,63.626Z" style="fill:rgb(235,227,97);"/>
        <path d="M360.217,108.633C360.089,108.22 359.875,107.837 359.748,107.424C353.794,88.166 374.79,80.796 384.402,90.591C398.65,105.111 373.675,130.038 360.217,108.633Z" style="fill:rgb(94,194,232);"/>
        <path d="M99.527,353.761C119.39,353.326 119.773,378.152 104.428,382.271C86.025,387.21 76.987,357.559 99.527,353.761Z" style="fill:rgb(239,223,81);"/>
        <path d="M260.117,63.193C264.335,59.231 266.105,61.658 268.074,63.772C269.465,68.481 269.551,68.781 266.8,72.685C265.435,74.62 266.552,121.679 265.931,167.509C265.848,173.648 271.449,180.248 265.309,183.026C261.129,184.917 255.491,178.443 260.107,173.152C262.211,170.74 261.021,146.374 261.494,104.5C261.835,74.251 261.294,73.495 259.748,71.335C257.099,67.635 259.751,63.732 260.117,63.193Z" style="fill:rgb(232,227,103);"/>
        <path d="M231.18,399.636C231.897,402.094 232.195,402.061 231.565,404.52C230.412,409.018 219.435,411.932 221.809,400.594C223.684,396.492 224.078,396.772 224.221,396.414C225.337,393.624 224.703,337.611 224.645,332.497C224.361,307.345 225.545,301.754 223.48,299.52C218.128,293.733 224.031,288.894 227.473,289.642C236.11,291.518 229.395,300.892 229.292,302.486C229.29,302.512 229.275,367.373 229.288,371.499C229.358,394.868 228.527,395.212 231.18,399.636Z" style="fill:rgb(234,225,95);"/>
        <path d="M62.846,231.562C66.785,222.014 73.967,230.279 75.489,230.57C77.851,231.022 159.921,230.893 162.507,230.798C167.386,230.62 166.606,226.879 171.441,227.814C181.473,229.756 173.998,243.029 166.834,237.12C164.835,235.471 164.412,235.122 134.501,235.169C75.132,235.262 74.943,235.021 73.774,235.896C63.554,243.543 62.847,231.923 62.846,231.562Z" style="fill:rgb(230,228,96);"/>
        <path d="M62.764,278.476C62.835,277.926 63.42,273.427 66.554,272.676C67.011,272.567 70.119,271.822 72.333,273.725C76.092,276.958 76.596,275.735 85.497,275.766C148.825,275.985 150.953,274.793 154.173,277.846C155.249,278.867 171.001,296.371 172.129,297.737C173.761,299.713 171.501,302.54 168.169,298.821C158.433,287.954 157.444,288.925 153.972,284.12C150.125,278.794 149.051,280.244 142.502,280.191C137.302,280.15 91.129,279.778 77.495,280.231C72.084,280.411 66,288.319 62.764,278.476Z" style="fill:rgb(228,228,102);"/>
        <path d="M452.627,307.863C455.58,305.635 456.053,305.714 467.529,306.041C472.946,306.195 476.238,313.802 472.016,320.132C470.734,322.054 458.15,323.458 452.591,320.301C453.577,317.708 453.656,317.74 453.656,317.501C453.642,309.704 453.001,308.542 452.627,307.863Z" style="fill:rgb(71,68,64);"/>
        <path d="M22.854,336.087C21.379,340.141 21.884,340.196 21.981,344.489C22.05,347.538 23.302,347.36 23.581,347.967C21.931,348.719 21.915,348.674 21.8,348.779C20.954,349.55 19.085,351.253 7.55,350.007C0.584,349.254 -2.164,334.175 9.497,334.098C18.12,334.041 19.909,333.657 22.854,336.087Z" style="fill:rgb(68,66,61);"/>
        <path d="M452.629,195.86C453.301,195.342 453.384,195.517 453.925,194.86C454.672,193.955 455.433,193.031 468.569,194.096C474.271,194.559 478.282,209.762 466.512,209.881C459.347,209.954 459.087,211.156 452.602,208.141C454.577,205.059 454.097,198.233 452.629,195.86Z" style="fill:rgb(70,68,64);"/>
        <g transform="matrix(1,0,0,1,-1.395594,-27.921829)">
            <path d="M452.629,195.86C453.301,195.342 453.384,195.517 453.925,194.86C454.672,193.955 455.433,193.031 468.569,194.096C474.271,194.559 478.282,209.762 466.512,209.881C459.347,209.954 459.087,211.156 452.602,208.141C454.577,205.059 454.097,198.233 452.629,195.86Z" style="fill:rgb(70,68,64);"/>
        </g>
        <path d="M23.614,224.016C22.779,225.299 21.782,225.085 21.938,230.498C22.009,232.967 21.847,234.866 23.583,235.975C23.845,236.143 24.251,235.76 24.513,235.927C22.913,236.22 22.821,235.882 21.747,236.765C20.717,237.612 20.84,237.781 19.541,237.843C9.893,238.299 2.722,238.551 1.908,232.441C0.153,219.28 12.558,222.04 14.508,222.068C19.249,222.136 19.285,221.991 23.614,224.016Z" style="fill:rgb(71,68,62);"/>
        <path d="M453.475,112.477C454.212,111.623 455.452,110.188 467.481,110.861C475.724,111.323 477.664,126.757 465.505,126.899C456.305,127.007 456.08,127.142 453.123,124.897C453.511,122.509 453.886,116.783 453.475,112.477Z" style="fill:rgb(70,67,63);"/>
        <path d="M453.095,224.017C455.666,221.336 456.923,221.923 467.518,222.079C474.716,222.185 474.225,230.87 473.724,232.563C471.854,238.884 467.357,238.029 463.494,237.931C459.163,237.822 455.722,238.858 453.015,235.995C453.158,234.731 454.95,230.908 453.095,224.017Z" style="fill:rgb(69,66,62);"/>
        <path d="M453.106,336.048C454.905,334.206 455.113,333.856 466.521,334.173C476.267,334.444 477.225,350.02 466.489,350.129C456.193,350.233 455.125,350.364 453.502,348.499C453.974,339.746 453.334,337.018 453.106,336.048Z" style="fill:rgb(69,66,62);"/>
        <path d="M22.432,307.597C20.666,314.302 22.481,319.011 22.836,319.932C19.614,322.581 17.173,321.961 9.492,321.913C-0.821,321.85 1.157,310.348 3.771,307.776C6.161,305.425 19.132,304.852 22.432,307.597Z" style="fill:rgb(69,66,63);"/>
        <path d="M22.381,251.677C20.643,258.112 22.493,263.054 22.838,263.976C19.229,266.155 19.078,265.97 8.494,265.887C0.106,265.821 0.728,254.94 3.803,251.822C6.065,249.527 18.833,248.716 22.381,251.677Z" style="fill:rgb(72,70,65);"/>
        <path d="M453.206,280.241C455.36,278.024 455.552,277.78 465.498,277.961C478.05,278.19 476.179,293.807 466.507,293.893C456.377,293.984 455.68,294.588 453.498,291.501C454.136,285.428 453.365,281.128 453.206,280.241Z" style="fill:rgb(74,71,67);"/>
        <path d="M22.436,279.59L22.595,280.5C20.938,283.403 21.852,288.746 21.973,289.454C22.066,289.996 22.777,290.263 22.945,290.787C23.042,291.087 22.597,291.398 22.693,291.698C19.478,294.519 19.058,293.884 9.503,293.897C-1.247,293.911 -0.726,278.451 8.485,278.121C19.973,277.71 21.544,278.909 22.436,279.59Z" style="fill:rgb(71,68,65);"/>
        <path d="M453.128,252.047C456.11,249.493 458.227,250.065 466.507,250.13C467.529,250.138 475.242,250.199 473.875,260.569C473.136,266.173 465.364,266.037 464.496,266.022C456.188,265.877 455.735,266.476 453.23,263.723C453.431,262.811 454.419,258.317 453.128,252.047Z" style="fill:rgb(72,68,64);"/>
        <path d="M22.377,195.689L22.105,196.5C21.844,202.343 20.75,202.459 22.851,207.986C19.534,210.602 17.115,209.966 9.488,209.91C-1.417,209.829 -0.551,194.375 8.485,194.088C22.757,193.635 22.353,195.671 22.377,195.689Z" style="fill:rgb(69,66,62);"/>
        <path d="M23.407,167.88C22.818,168.641 20.318,171.867 22.854,179.893C21.461,181.415 21.413,182.222 9.498,182.028C-1.978,181.84 -0.912,165.083 11.518,166.224C17.591,166.781 17.816,165.516 23.407,167.88Z" style="fill:rgb(72,69,65);"/>
        <path d="M453.524,140.523C455.192,138.433 456.202,138.796 467.491,138.855C476.267,138.902 476.883,153.88 467.49,154.148C454.496,154.518 454.54,153.544 452.619,152.18C454.882,148.853 453.696,148.549 453.627,144.499C453.582,141.823 453.615,141.881 453.524,140.523Z" style="fill:rgb(72,68,64);"/>
        <path d="M22.415,112.582C22.05,117.677 21.12,117.709 22.692,124.717C20.39,126.553 20.129,126.29 9.501,126.24C-2.622,126.182 0.982,111.152 7.531,110.851C20.482,110.257 21.648,111.66 22.415,112.582Z" style="fill:rgb(67,66,62);"/>
        <path d="M149.128,21.88C147.359,20.629 147.051,20.689 146.983,18.493C146.955,17.612 146.812,12.995 147.03,7.472C147.338,-0.35 161.822,-0.231 162.185,6.531C162.878,19.451 161.523,20.84 160.67,21.713C154.152,21.171 150.042,21.751 149.128,21.88Z" style="fill:rgb(71,67,62);"/>
        <path d="M204.254,21.773C203.289,20.836 201.958,20.301 202.331,17.472C202.831,13.683 202.114,13.757 202.212,9.483C202.437,-0.345 212.525,1.305 214.394,2.65C218.97,5.945 217.815,13.505 217.827,15.496C217.852,19.428 218.038,19.644 215.334,22.393C214.668,22.303 214.166,21.646 213.5,21.556C209.64,21.036 204.987,21.672 204.254,21.773Z" style="fill:rgb(70,67,62);"/>
        <path d="M176.296,21.731C175.187,20.528 174.494,20.513 174.703,8.504C174.858,-0.453 185.603,1.012 188.259,3.738C190.329,5.863 191.647,18.283 188.292,22.367C187.401,22.007 183.776,20.54 176.296,21.731Z" style="fill:rgb(69,68,65);"/>
        <path d="M287.005,21.99C285.387,20.578 285.04,20.671 284.996,18.496C284.977,17.532 284.83,10.254 285.153,6.445C285.665,0.412 299.793,-0.602 300.24,7.521C300.913,19.779 299.408,21.681 298.653,22.635C297.119,21.792 294.185,20.12 287.005,21.99Z" style="fill:rgb(71,69,66);"/>
        <path d="M232.002,446.125C234.32,447.304 234.279,447.397 234.504,447.398C234.903,447.398 236.993,447.402 239.496,447.328C241.99,447.254 241.767,446.569 242.934,446.179C245.602,449.347 245.181,450.744 245.092,460.489C245.05,465.023 241.289,466.614 239.582,466.949C229.827,468.867 229.868,460.482 229.873,459.503C229.907,452.402 227.786,451.765 232.002,446.125Z" style="fill:rgb(70,67,62);"/>
        <path d="M243.67,21.733C237.597,21.139 237.469,20.251 231.748,22.35C229.424,19.244 229.962,16.859 230.044,8.483C230.125,0.204 240.339,1.22 242.348,2.712C246.129,5.523 245.271,9.205 245.281,10.499C245.34,18.814 246.286,19.331 243.67,21.733Z" style="fill:rgb(67,64,60);"/>
        <path d="M133.645,21.669C124.282,20.975 124.23,21.003 123.516,21.385C121.601,22.409 122.366,23.118 122.101,23.519C122.051,23.359 121.486,21.517 121.486,21.517C119.528,19.273 119.634,19.039 119.733,9.503C119.857,-2.48 134.932,0.692 135.044,7.521C135.279,21.699 133.825,21.469 133.645,21.669Z" style="fill:rgb(68,65,60);"/>
        <path d="M57.459,400.24C67.701,399.832 69.439,409.669 66.058,415.205C57.578,429.088 37.247,405.707 57.459,400.24Z" style="fill:rgb(222,154,45);"/>
        <path d="M176.657,446.609C180.66,447.833 185.749,447.363 186.538,447.291C187.151,447.234 187.653,446.694 188.265,446.638C190.298,449.282 189.971,449.518 190.048,460.492C190.107,468.882 175.668,469.544 174.856,461.475C173.692,449.891 175.854,447.498 176.657,446.609Z" style="fill:rgb(69,66,64);"/>
        <path d="M342.023,446.126C342.59,446.258 342.905,446.969 343.472,447.101C348.157,448.191 352.61,446.83 353.368,446.598C355.557,448.992 355.15,450.038 355.153,450.505C355.209,458.826 356.443,464.854 350.566,466.691C340.166,469.941 340.011,459.566 339.995,458.496C339.897,451.928 338.042,451.34 342.023,446.126Z" style="fill:rgb(71,66,63);"/>
        <path d="M259.293,21.745C257.427,19.734 257.804,17.861 257.749,9.497C257.675,-1.846 269.468,1.697 271.359,3.637C274.558,6.918 272.716,20.378 272.552,20.542C272.026,21.065 271.249,21.288 270.723,21.811C269.827,21.629 265.582,20.769 259.293,21.745Z" style="fill:rgb(71,68,65);"/>
        <path d="M341.366,21.647C341.167,21.431 340.052,20.946 339.972,18.498C339.564,6.101 340.319,2.267 345.545,1.878C357.119,1.017 355.248,8.097 355.234,14.499C355.225,18.758 355.849,19.028 353.186,22.382C352.389,21.869 350.133,20.416 341.366,21.647Z" style="fill:rgb(71,67,64);"/>
        <path d="M149.054,446.213C149.369,446.334 149.247,447.295 160.769,447.186C162.156,448.756 162.414,448.851 162.145,461.481C161.989,468.766 147.109,469.551 147.064,460.505C147.019,451.432 146.422,449.62 149.054,446.213Z" style="fill:rgb(70,66,62);"/>
        <path d="M314.302,21.745C313.565,20.945 312.443,21.033 312.82,7.516C313.031,-0.02 327.706,-1.297 327.878,8.495C328.076,19.763 327.99,20.18 325.975,22.754C323.752,21.569 323.827,20.574 314.302,21.745Z" style="fill:rgb(68,65,61);"/>
        <path d="M286.699,446.633C291.609,447.252 291.532,447.649 296.508,447.207C297.139,447.151 297.687,446.687 298.318,446.631C298.977,447.363 300.66,447.083 300.176,461.474C300.015,466.243 292.684,468.899 287.395,465.654C284.15,463.663 283.993,450.132 286.699,446.633Z" style="fill:rgb(69,66,63);"/>
        <path d="M259.616,446.602C265.533,448.555 270.394,446.926 271.279,446.629C272.223,448.677 272.468,448.694 272.362,460.499C272.354,461.443 272.287,468.933 262.426,466.87C255.323,465.384 255.821,449.905 259.616,446.602Z" style="fill:rgb(70,66,64);"/>
        <path d="M419.46,68.374C400.784,71.422 406.386,43.366 421.291,50.895C422.846,51.681 433.012,62.034 419.46,68.374Z" style="fill:rgb(227,157,40);"/>
        <path d="M54.375,67.736C43.998,60.255 50.673,52.044 54.488,50.473C71.117,43.625 72.093,74.133 54.375,67.736Z" style="fill:rgb(224,155,45);"/>
        <path d="M121.691,446.632C122.469,446.763 129.885,448.011 131.531,447.278C132.082,447.033 132.443,446.459 132.994,446.213C135.234,449.273 134.968,450.185 134.882,460.508C134.811,468.976 120.066,469.637 119.84,460.492C119.534,448.139 120.346,448.161 121.691,446.632Z" style="fill:rgb(67,64,61);"/>
        <path d="M425.187,406.611C429.579,426.976 401.875,419.837 407.946,406.674C411.511,398.945 421.38,397.989 425.187,406.611Z" style="fill:rgb(221,158,41);"/>
        <path d="M325.428,446.571C326.401,447.4 328.525,449.212 327.204,462.451C326.861,465.885 320.903,468.006 317.402,466.793C312.105,464.956 312.777,461.612 312.768,459.499C312.723,449.731 312.149,449.379 314.241,447.108C314.421,447.123 316.495,447.292 316.495,447.292C324.463,447.59 324.313,446.785 325.428,446.571Z" style="fill:rgb(68,64,60);"/>
        <path d="M203.769,446.653C209.773,448.839 214.756,446.742 215.631,446.374C216.349,447.231 217.476,447.149 217.172,461.489C217.055,466.979 208.354,468.925 204.598,465.396C201.974,462.93 201.846,452.251 203.769,446.653Z" style="fill:rgb(68,66,62);"/>
        <path d="M22.432,307.597C23.679,307.794 33.479,309.346 38.209,307.247C39.074,315.686 39.03,315.742 37.577,320.41C32.4,318.978 32.351,319.821 22.836,319.932C22.481,319.011 20.666,314.302 22.432,307.597Z" style="fill:rgb(230,149,34);"/>
        <path d="M22.377,195.689C25.449,196.195 25.418,196.057 36.496,196.132C36.765,196.303 37.181,195.928 37.45,196.098C39.196,197.209 38.844,201.809 38.844,202.49C38.847,206.56 38.12,206.989 37.56,208.424C36.419,208.132 33.873,207.482 22.851,207.986C20.75,202.459 21.844,202.343 22.105,196.5L22.377,195.689Z" style="fill:rgb(232,152,35);"/>
        <path d="M437.785,195.245C440.702,196.561 443.078,196.056 452.629,195.86C454.097,198.233 454.577,205.059 452.602,208.141C441.384,207.165 438.86,208.274 437.773,208.752C437.625,207.682 436.912,202.525 437.785,195.245Z" style="fill:rgb(231,151,38);"/>
        <g transform="matrix(1,0,0,1,-0.60335,-28.021796)">
            <path d="M437.785,195.245C440.702,196.561 443.078,196.056 452.629,195.86C454.097,198.233 454.577,205.059 452.602,208.141C441.384,207.165 438.86,208.274 437.773,208.752C437.625,207.682 436.912,202.525 437.785,195.245Z" style="fill:rgb(231,151,38);"/>
        </g>
        <path d="M437.781,307.239C440.517,308.477 443.112,308.074 452.627,307.863C453.001,308.542 453.642,309.704 453.656,317.501C453.656,317.74 453.577,317.708 452.591,320.301C450.084,319.9 442.749,319.51 438.397,320.303C438.037,319.366 436.503,316.371 437.781,307.239Z" style="fill:rgb(232,151,40);"/>
        <path d="M22.436,279.59C24.868,280.101 34.67,280.762 38.207,279.217C39.542,286.853 37.928,290.554 37.536,291.453C35.2,291.049 35.203,290.787 31.529,291.625C30.84,291.782 30.063,291.959 22.693,291.698C22.597,291.398 23.042,291.087 22.945,290.787C22.777,290.263 22.066,289.996 21.973,289.454C21.852,288.746 20.938,283.403 22.595,280.5L22.436,279.59Z" style="fill:rgb(232,149,40);"/>
        <path d="M22.415,112.582C25.909,113.406 25.877,113.11 36.488,113.102C36.568,113.16 38.3,112.639 38.609,115.473C38.678,116.112 39.172,120.66 38.65,123.5C38.538,124.106 37.558,124.298 37.447,124.904C27.336,124.411 27.281,123.451 22.692,124.717C21.12,117.709 22.05,117.677 22.415,112.582Z" style="fill:rgb(234,150,28);"/>
        <path d="M22.381,251.677C23.654,251.894 32.843,252.86 37.561,251.574C40.149,258.556 38.716,261.378 37.467,263.55C32.507,262.563 30.269,263.079 22.838,263.976C22.493,263.054 20.643,258.112 22.381,251.677Z" style="fill:rgb(232,153,41);"/>
        <path d="M438.734,224.17C439.821,224.544 440.06,224.626 453.095,224.017C454.95,230.908 453.158,234.731 453.015,235.995C440.933,235.762 439.564,236.13 438.437,236.433C435.625,229.316 438.227,225.01 438.734,224.17Z" style="fill:rgb(233,152,38);"/>
        <path d="M23.407,167.88C28.577,168.166 28.538,168.104 36.49,168.088C36.739,168.283 37.189,167.853 37.437,168.048C38.849,169.155 38.694,173.976 38.677,174.501C38.563,178.056 36.666,178.975 36.546,179.14C29.702,179.638 29.77,179.819 22.854,179.893C20.318,171.867 22.818,168.641 23.407,167.88Z" style="fill:rgb(228,147,38);"/>
        <g transform="matrix(1,0,0,1,0.436129,-28.351167)">
            <path d="M23.407,167.88C22.818,168.641 20.318,171.867 22.854,179.893C21.461,181.415 21.413,182.222 9.498,182.028C-1.978,181.84 -0.912,165.083 11.518,166.224C17.591,166.781 17.816,165.516 23.407,167.88Z" style="fill:rgb(72,69,65);"/>
        </g>
        <g transform="matrix(1,0,0,1,0.436129,-28.351167)">
            <path d="M23.407,167.88C28.577,168.166 28.538,168.104 36.49,168.088C36.739,168.283 37.189,167.853 37.437,168.048C38.849,169.155 38.694,173.976 38.677,174.501C38.563,178.056 36.666,178.975 36.546,179.14C29.702,179.638 29.77,179.819 22.854,179.893C20.318,171.867 22.818,168.641 23.407,167.88Z" style="fill:rgb(228,147,38);"/>
        </g>
        <path d="M437.785,140.21C441.359,141.61 451.983,140.807 453.524,140.523C453.615,141.881 453.582,141.823 453.627,144.499C453.696,148.549 454.882,148.853 452.619,152.18C441.773,151.048 438.893,152.309 437.806,152.785C436.898,147.144 436.794,147.205 436.959,141.5L437.785,140.21Z" style="fill:rgb(232,157,41);"/>
        <path d="M22.854,336.087C23.52,336.287 27.542,337.493 31.52,336.588C34.465,335.918 34.463,336.701 37.46,336.437C37.87,337.293 40.306,342.384 37.606,348.306C33.745,347.583 30.646,347.908 23.581,347.967C23.302,347.36 22.05,347.538 21.981,344.489C21.884,340.196 21.379,340.141 22.854,336.087Z" style="fill:rgb(231,150,30);"/>
        <path d="M438.607,336.242C439.072,336.326 442.56,336.952 444.515,336.567C448.751,335.73 448.785,336.85 453.106,336.048C453.334,337.018 453.974,339.746 453.502,348.499C450.192,347.578 446.169,347.818 438.714,347.927C436.519,343.578 437.848,343.324 437.375,338.495C437.179,336.496 438.483,336.468 438.607,336.242Z" style="fill:rgb(232,150,32);"/>
        <path d="M23.614,224.016C30.488,225.427 30.504,224.874 37.459,224.446C38.301,226.449 40.237,228.63 37.608,236.3C31.035,235.461 31.093,235.911 24.513,235.927C24.251,235.76 23.845,236.143 23.583,235.975C21.847,234.866 22.009,232.967 21.938,230.498C21.782,225.085 22.779,225.299 23.614,224.016Z" style="fill:rgb(232,152,33);"/>
        <path d="M341.573,431.44C346.494,429.06 349.674,430.031 353.437,431.446C353.252,432.644 352.224,439.289 353.368,446.598C352.61,446.83 348.157,448.191 343.472,447.101C342.905,446.969 342.59,446.258 342.023,446.126C341.921,438.75 342.339,438.792 341.573,431.44Z" style="fill:rgb(231,153,41);"/>
        <path d="M286.517,431.483C287.182,431.193 289.853,430.028 295.513,430.323C297.615,430.433 298.225,431.381 298.476,431.478C298.277,432.674 297.123,439.619 298.318,446.631C297.687,446.687 297.139,447.151 296.508,447.207C291.532,447.649 291.609,447.252 286.699,446.633C288.037,436.849 286.847,432.65 286.517,431.483Z" style="fill:rgb(226,156,42);"/>
        <path d="M176.503,431.497C182.273,429.067 182.504,429.308 188.461,431.464C188.269,432.662 187.205,439.316 188.265,446.638C187.653,446.694 187.151,447.234 186.538,447.291C185.749,447.363 180.66,447.833 176.657,446.609C176.825,445.412 178.014,436.923 176.503,431.497Z" style="fill:rgb(229,154,47);"/>
        <path d="M149.025,431.649C149.544,431.427 149.673,430.644 150.192,430.422C150.643,430.229 155.993,430.182 156.498,430.178C158.092,430.164 158.003,430.439 160.51,431.508C160.349,432.752 159.063,442.678 160.769,447.186C149.247,447.295 149.369,446.334 149.054,446.213C149.431,438.927 149.375,439.01 149.025,431.649Z" style="fill:rgb(225,149,42);"/>
        <path d="M437.518,112.485C438.768,112.743 446.292,114.3 453.475,112.477C453.886,116.783 453.511,122.509 453.123,124.897C447.71,123.398 440.919,124.009 438.692,124.785C438.461,124.219 437.615,124.066 437.384,123.5C436.99,122.536 437.211,114.3 437.232,113.5L437.518,112.485Z" style="fill:rgb(231,150,37);"/>
        <path d="M437.502,251.498C437.898,251.557 438.16,252.015 438.555,252.073C438.656,252.088 451.766,252.111 453.128,252.047C454.419,258.317 453.431,262.811 453.23,263.723C450.482,262.857 441.974,262.693 438.734,263.816C438.641,263.661 437.217,263.502 437.365,261.516C437.701,256.994 436.762,257.007 437.369,252.5L437.502,251.498Z" style="fill:rgb(231,157,44);"/>
        <path d="M259.548,431.457C266.097,429.497 270.538,431.114 271.432,431.44C270.202,436.348 271.022,445.073 271.279,446.629C270.394,446.926 265.533,448.555 259.616,446.602C259.687,446.159 260.758,436.099 259.548,431.457Z" style="fill:rgb(227,150,44);"/>
        <path d="M437.795,279.224C440.152,280.307 451.132,280.902 453.206,280.241C453.365,281.128 454.136,285.428 453.498,291.501C451.915,291.204 441.38,290.385 437.803,291.817C436.583,285.618 437.002,284.362 437.795,279.224Z" style="fill:rgb(229,151,40);"/>
        <path d="M122.039,432.567C124.577,429.656 125.09,430.305 131.5,431.08C131.963,431.892 132.426,432.703 132.888,433.514C132.869,439.931 132.877,439.847 132.994,446.213C132.443,446.459 132.082,447.033 131.531,447.278C129.885,448.011 122.469,446.763 121.691,446.632C122.103,443.605 121.926,443.631 122.039,432.567Z" style="fill:rgb(229,151,41);"/>
        <path d="M231.561,431.439C236.094,429.812 242.525,431.25 243.453,431.457C242.546,434.878 242.873,434.903 242.934,446.179C241.767,446.569 241.99,447.254 239.496,447.328C236.993,447.402 234.903,447.398 234.504,447.398C234.279,447.397 234.32,447.304 232.002,446.125C232.198,443.132 232.145,432.692 232.129,432.529C232.09,432.121 231.601,431.847 231.561,431.439Z" style="fill:rgb(231,149,36);"/>
        <path d="M204.085,432.544C205.133,432.062 204.676,431.097 207.505,430.973C215.006,430.646 214.706,432.098 215.568,432.526C214.739,435.866 214.501,442.529 215.631,446.374C214.756,446.742 209.773,448.839 203.769,446.653C204.385,439.563 204.117,439.642 204.085,432.544Z" style="fill:rgb(228,148,37);"/>
        <path d="M314.215,431.722C317.378,430.129 318.119,429.579 325.962,431.702C324.789,440.718 325.299,445.387 325.428,446.571C324.313,446.785 324.463,447.59 316.495,447.292C316.495,447.292 314.421,447.123 314.241,447.108C314.447,445.895 316.007,436.696 314.215,431.722Z" style="fill:rgb(226,150,38);"/>
        <path d="M287.005,21.99C294.185,20.12 297.119,21.792 298.653,22.635C297.51,26.28 297.982,27.945 298.038,34.518C297.284,35.828 297.716,36.871 293.489,37.015C289.953,37.135 289.904,37.841 286.537,36.539C287.979,31.585 287.153,31.538 287.005,21.99Z" style="fill:rgb(230,154,38);"/>
        <path d="M341.366,21.647C350.133,20.416 352.389,21.869 353.186,22.382C352.679,26.927 352.934,26.876 352.889,34.501C352.641,35.117 353.792,36.749 349.477,37.004C349.002,37.033 344.135,37.321 343.527,37.141C342.807,36.928 342.742,35.676 342.022,35.462C342.102,24.946 342.385,24.731 341.366,21.647Z" style="fill:rgb(234,149,33);"/>
        <path d="M133.645,21.669C132.337,24.941 132.325,32.947 133.453,36.555C132.539,36.831 127.959,38.218 121.524,36.526C121.566,36.122 122.047,35.85 122.089,35.446C122.178,34.588 122.107,24.473 122.101,23.519C122.366,23.118 121.601,22.409 123.516,21.385C124.23,21.003 124.282,20.975 133.645,21.669Z" style="fill:rgb(233,147,30);"/>
        <path d="M176.296,21.731C183.776,20.54 187.401,22.007 188.292,22.367C188.03,23.786 187.098,31.713 188.501,36.499C185.069,37.351 185.064,36.94 181.504,36.937C179.347,36.936 179.046,37.485 177.021,35.444C177.258,23.832 176.929,23.53 176.296,21.731Z" style="fill:rgb(229,149,36);"/>
        <path d="M243.67,21.733C242.399,25.034 242.503,33.097 243.464,36.537C239.782,37.51 233.441,37.032 231.548,36.55C231.652,35.552 233.433,30.427 231.748,22.35C237.469,20.251 237.597,21.139 243.67,21.733Z" style="fill:rgb(232,151,36);"/>
        <path d="M149.128,21.88C150.042,21.751 154.152,21.171 160.67,21.713C160.327,22.626 159.825,22.594 160.023,34.532C159.819,34.827 160.449,36.85 156.494,36.872C151.783,36.898 151.786,37.398 148.541,36.547C149.582,31.627 149.256,31.632 149.128,21.88Z" style="fill:rgb(231,150,39);"/>
        <path d="M314.302,21.745C323.827,20.574 323.752,21.569 325.975,22.754C325.389,29.821 324.081,31.954 325.786,36.246C324.787,36.535 319.643,38.869 314.481,36.483C314.704,35.325 316.259,27.252 314.302,21.745Z" style="fill:rgb(232,151,33);"/>
        <path d="M259.293,21.745C265.582,20.769 269.827,21.629 270.723,21.811C268.545,28.673 271.049,35.44 271.459,36.547C265.54,38.041 265.489,37.426 259.471,36.473C260.479,32.841 260.377,24.586 259.293,21.745Z" style="fill:rgb(230,149,42);"/>
        <path d="M204.254,21.773C204.987,21.672 209.64,21.036 213.5,21.556C214.166,21.646 214.668,22.303 215.334,22.393C215.316,22.497 214.824,22.442 215.02,34.522C214.854,34.789 215.136,35.197 214.97,35.465C213.07,38.521 204.298,36.749 203.523,36.529C204.474,34.853 204.755,35.018 204.838,33.535C205.311,25.089 204.54,22.67 204.254,21.773Z" style="fill:rgb(233,150,30);"/>
        <path d="M336.031,19.504C335.616,22.757 336.767,24.65 333.546,24.021C329.142,23.161 332.028,8.264 335.682,17.425C335.745,17.582 335.708,17.579 336.031,19.504Z" style="fill:rgb(252,254,254);"/>
    </g>
</svg>
