<?xml version="1.0" encoding="UTF-8" standalone="no"?><!DOCTYPE svg PUBLIC "-//W3C//DTD SVG 1.1//EN" "http://www.w3.org/Graphics/SVG/1.1/DTD/svg11.dtd"><svg width="100%" height="100%" viewBox="0 0 1024 1024" version="1.1" xmlns="http://www.w3.org/2000/svg" xmlns:xlink="http://www.w3.org/1999/xlink" xml:space="preserve" xmlns:serif="http://www.serif.com/" style="fill-rule:evenodd;clip-rule:evenodd;stroke-linejoin:round;stroke-miterlimit:2;"><g id="Background"><path d="M124.559,237.968c3.183,-1.001 3.292,-0.989 297.382,-1.029c37.852,-0.005 471.707,-0.063 473.154,0.02c0.376,0.022 0.34,0.077 4.588,1.035c-7.787,68.381 -62.719,704.321 -65.963,715.295c-1.904,6.441 -11.41,55.027 -69.694,69.032c-11.749,2.823 -436.662,1.264 -474.633,1.125c-21.252,-0.078 -55.046,1.993 -83.699,-35.953c-21.75,-28.805 -16.68,-59.347 -19.754,-71.227c-1.087,-4.202 -2.019,-26.966 -2.115,-29.316c-0,-0.004 0,-0 -9.005,-93.976c-1.482,-15.467 -0.658,-15.414 -2.034,-30.949c-0.12,-1.354 -1.097,-12.394 -2.276,-16.833c-0.467,-1.759 -24.279,-279.619 -26.196,-286.674c-2.46,-9.05 0.92,-9.378 -1.556,-18.492c-0.021,-0.079 -17.069,-196.955 -18.198,-202.059Z" style="fill:var(--icon-secondary, #40C2AC);"/><path d="M371.822,79.303c0.488,4.528 3.652,3.026 3.892,3.021c7.438,-0.139 22.837,0.754 34.473,-0.386c2.326,0.927 2.285,1.041 162.8,1.066c37.755,0.006 38.17,0.353 41.067,-2.315c1.89,0.814 1.49,1.589 3.632,1.565c10.765,-0.124 28.352,0.01 30.817,0.029c2.453,0.019 2.052,-0.815 3.75,-1.489c2.846,2.543 3.302,2.183 59.448,2.201c78.181,0.025 83.962,-2.883 128.062,20.751c2.686,1.439 23.235,16.884 24.025,17.67c1.238,1.233 0.853,1.555 14.661,16.188c9.983,10.579 18.371,31.351 19.554,34.279c-6.645,5.603 -7.759,2.444 -76.868,2.601c-11.526,0.026 -674.957,0.052 -684.328,-0.08c-5.505,-0.078 -5.46,0.316 -10.695,-0.989c15.974,-45.767 47.109,-62.084 58.803,-70.541c9.844,-7.119 40.715,-18.056 55.099,-19.447c12.14,-1.174 129.456,0.485 131.059,-1.047c0.183,-0.175 0.056,-0.228 0.75,-3.077Z" style="fill:var(--icon-primary, #3A97DD);"/><path d="M576.463,569.431c-0.635,21.71 -4.635,158.497 -10.772,271.274c-1.202,22.09 -4.725,31.712 -18.985,46.141c-22.66,22.928 -78.589,16.567 -88.27,-32.188c-0.238,-1.198 -3.433,-77.2 -4.104,-111.067c-0.582,-29.389 -5.148,-124.813 -5.667,-135.663c-8.967,-187.409 -8.762,-188.192 -1.666,-203.239c30.617,-64.922 137.675,-49.449 134.632,32.159c-0.396,10.607 -3.839,102.943 -5.169,132.583Z" style="fill:var(--icon-accent, #F7D24A);"/><path d="M723.725,894.023c-6.997,2.756 -16.029,10.576 -42.823,2.081c-9.738,-3.087 -26.815,-16.811 -31.044,-32.229c-5.396,-19.674 -1.245,-20.379 5.518,-152.601c6.621,-129.435 15.769,-262.41 17.338,-285.215c5.495,-79.87 97.904,-76.627 113.934,-15.233c2.325,8.903 -2.257,67.144 -31.884,412.903c-3.714,43.348 -3.28,52.553 -31.04,70.294Z" style="fill:var(--icon-detail, #BCDC52);"/><path d="M257.705,686.529c-7.592,-100.672 -25.331,-259.478 -20.795,-277.413c13.776,-54.471 91.187,-58.706 110.293,-5.858c1.972,5.454 3.294,9.11 6.996,72.151c22.142,377.043 22.162,377.293 20.254,383.85c-17.558,60.324 -98.259,49.97 -103.644,-9.309c-0.302,-3.326 -3.104,-34.169 -3.374,-41.607c-0.689,-18.969 -8.117,-93.55 -9.729,-121.813Z" style="fill:var(--icon-surface, #BCDD52);"/><path d="M898.003,171.883c4.723,5.633 14.631,-2.309 32.075,11.243c11.096,8.62 18.446,44.115 -17.943,53.638c-0.966,0.253 -11.455,1.146 -12.453,1.23c-4.248,-0.959 -4.212,-1.014 -4.588,-1.035c-1.447,-0.083 -435.302,-0.025 -473.154,-0.02c-294.089,0.039 -294.199,0.027 -297.382,1.029c-5.829,-0.925 -27.931,1.179 -38.203,-21.664c-3.011,-6.697 -1.257,-21.677 3.211,-27.163c15.632,-19.192 26.314,-12.802 36.544,-15.724c5.235,1.305 5.19,0.911 10.695,0.989c9.371,0.132 672.802,0.106 684.328,0.08c69.11,-0.157 70.223,3.001 76.868,-2.601Z" style="fill:var(--icon-primary, #195F9A);"/><path d="M371.822,79.303c-0.572,-61.587 49.139,-74.887 57.749,-77.314c9.119,-2.57 9.264,-1.905 141.871,-1.929c3.548,-0.001 27.242,-0.005 43.277,9.684c19.338,11.685 26.79,26.982 28.713,29.792c8.416,12.299 8.775,37.883 8.822,41.258c-1.698,0.674 -1.297,1.508 -3.75,1.489c-2.465,-0.019 -20.052,-0.153 -30.817,-0.029c-2.143,0.025 -1.742,-0.751 -3.632,-1.565c3.915,-23.138 -16.86,-37.486 -19.767,-39.494c-5.483,-3.787 -5.959,-4.309 -98.369,-4.126c-56.334,0.111 -57.624,-1.858 -73.46,9.076c-7.15,4.937 -17.056,23.548 -12.271,35.794c-11.635,1.14 -27.034,0.247 -34.473,0.386c-0.24,0.004 -3.404,1.507 -3.892,-3.021Z" style="fill:var(--icon-primary, #195E9B);"/></g></svg>