<?xml version="1.0" encoding="UTF-8" standalone="no"?>
<!DOCTYPE svg PUBLIC "-//W3C//DTD SVG 1.1//EN" "http://www.w3.org/Graphics/SVG/1.1/DTD/svg11.dtd">
<svg width="100%" height="100%" viewBox="0 0 1024 1024" version="1.1" xmlns="http://www.w3.org/2000/svg" xmlns:xlink="http://www.w3.org/1999/xlink" xml:space="preserve" xmlns:serif="http://www.serif.com/" style="fill-rule:evenodd;clip-rule:evenodd;stroke-linejoin:round;stroke-miterlimit:2;">
    <g id="Background" transform="matrix(1.74989,0,0,1.74989,-1.673333,45.679225)">
        <path d="M475.946,200.418C475.814,216.458 475.918,216.418 475.898,232.497C476.084,250.766 475.814,252.016 475.939,269.509C475.964,270.148 476.051,272.44 475.816,277.504C475.914,291.475 475.469,291.457 475.951,300.497C475.994,303.511 476.077,303.479 475.871,306.509C475.798,317.174 475.903,356.144 476.003,358.464C475.936,360.505 475.929,364.924 475.928,365.486C475.765,377.472 475.824,383.709 475.855,388.503C475.868,390.501 475.88,392.499 475.893,394.496C475.916,396.726 475.825,435.376 475.85,445.503C475.847,447.5 475.843,449.497 475.84,451.494C475.669,472.575 475.822,473.396 475.912,475.498C476.01,478.502 475.98,478.475 476.007,481.496C475.492,491.528 476.022,491.5 475.897,501.53C475.27,538.159 477.457,538.752 472.858,547.676C469.152,554.867 464.241,555.895 462.5,557.245C462.12,557.54 461.91,558.019 461.53,558.314C458.49,558.405 458.55,558.821 455.511,558.89C442.107,559.197 357.063,558.921 348.502,558.893C348.105,558.461 347.896,557.878 347.5,557.446C347.02,556.922 346.169,557.274 346.136,554.484C345.848,529.825 346.196,528.54 346.784,526.368C356.054,526.903 378.716,526.442 381.492,526.385C384.251,526.329 383.725,525.24 383.705,522.496C383.601,508.231 383.707,488.981 383.692,487.505C383.521,470.508 383.795,469.92 382.479,469.564C381.609,469.329 365.938,469.466 364.5,469.478C334.647,469.738 332.951,469.203 331.563,469.658C330.672,469.95 329.838,470.224 330.608,481.333C330.266,481.464 330.416,482.455 323.5,481.885L322.321,481.25C322.592,477.319 322.362,475.533 322.361,475.511C322.198,471.362 323.628,469.376 319.501,469.41C283.577,469.707 283.622,469.477 280.504,469.58C272.297,469.849 270.77,469.188 270.286,470.356C269.409,472.469 270.452,482.689 270.477,482.714C270.726,482.958 271.247,482.235 271.496,482.48C268.519,485.152 267.403,485.024 267.334,493.497C267.068,526.64 267.06,526.632 267.194,529.51C267.419,534.357 267.37,555.964 267.257,556.5C267.175,556.888 266.582,557.028 266.5,557.416L265.497,558.878C244.706,558.938 222.343,558.783 209.498,559.042C212.275,558.971 212.274,559.057 212.496,558.966C212.976,558.768 212.755,557.942 213.029,557.5C213.358,556.97 217.579,555.692 218.337,555.225C230.2,547.913 229.051,535.703 229.095,526.477C259.341,526.587 261.079,526.657 261.637,525.602C262.688,523.616 261.618,523.443 261.957,497.513C261.985,495.428 262.248,475.31 261.826,471.456C261.563,469.057 258.721,469.477 252.5,469.467C250.627,469.464 250.631,469.495 229.096,469.515C229.106,463.066 229.065,462.976 229.423,460.531C234.276,461.36 300.889,460.682 348.497,460.873C395.501,461.062 395.458,460.48 442.492,460.92C443.326,460.928 446.601,461.508 446.77,459.547C446.91,457.923 446.734,442.019 446.717,440.495C446.683,437.404 444.321,438.694 434.505,438.369C430.907,438.25 430.944,438.469 389.5,438.396C378.22,438.376 260.579,438.169 248.499,438.351C243.139,438.432 230.383,438.056 229.631,438.611C229.369,438.804 229.322,439.209 229.06,439.403C229.12,438.771 229.012,438.775 229.189,431.476C229.374,431.404 231.502,430.575 231.502,430.575C237.162,430.305 259.973,430.842 261.224,430.024C262.142,429.422 261.776,426.459 261.867,420.514C261.918,417.233 262.457,382.052 261.503,379.498C260.72,377.399 247.616,378.842 233.501,378.41C231.27,378.341 231.305,378.459 229.08,378.51C229.101,377.794 229.336,369.768 229.334,369.567C229.661,369.682 229.779,370.346 231.496,370.327C235.217,370.286 235.18,370.278 235.501,370.28C256.206,370.399 256.163,370.434 272.5,370.443C325.878,370.471 325.86,370.626 330.5,370.616C396.182,370.48 439.315,370.574 442.5,370.514C448.086,370.407 446.849,368.075 446.815,362.493C446.735,349.824 446.785,349.292 446.241,348.793C445.718,348.311 441.886,348.289 441.505,348.286C438.064,348.266 405.955,348.076 398.492,348.176C365.419,348.616 239.93,347.837 229.441,348.468C228.852,344.582 229.139,344.597 229.117,340.462C259.131,339.743 261.736,341.909 261.831,337.516C261.842,337.043 261.947,292.65 261.852,291.488C261.58,288.179 259.795,289.845 241.5,289.478C235.289,289.354 235.327,289.174 229.149,289.518C229.244,284.977 228.585,284.952 229.467,280.516C230.509,280.721 230.429,280.954 231.493,280.915C242.53,280.515 443.096,281.269 445.469,280.432C446.641,280.019 446.745,279.614 446.651,265.5C446.625,261.569 447.498,258.796 443.504,258.803C415.018,258.86 340.445,258.859 338.497,258.824C329.528,258.66 240.959,259.348 228.707,258.478C228.578,254.352 228.554,254.329 227.337,251.568C227.756,251.408 228.081,251.054 228.5,250.894C229.439,250.537 251.86,250.989 259.512,250.749C259.71,250.743 261.349,250.692 261.679,249.555C262.012,248.402 261.934,202.074 261.794,201.43C261.464,199.916 260.922,199.7 247.503,199.68C244.467,199.675 210.653,199.625 209.553,199.792C206.706,200.225 208.206,202.632 207.681,236.503C207.648,238.626 208.459,239.401 208.5,239.505C207.78,239.505 202.862,239.505 199.505,239.386C199.516,237.417 199.722,237.447 199.527,235.498C199.218,232.406 200.317,202.925 199.143,200.744C198.548,199.639 198.253,199.561 183.503,199.655C165.85,199.766 151.831,199.588 150.51,199.642C146.449,199.809 147.366,201.461 147.34,205.501C147.145,235.879 147.811,235.861 147.744,238.5C147.737,238.793 147.501,239.051 147.494,239.344C145.414,239.328 145.419,239.388 121.501,239.328C117.893,239.319 117.363,238.309 117.208,238.245C118.019,236.063 117.816,236.019 117.852,226.503C117.949,201.642 117.547,21.129 118.108,18.421C119.871,9.898 127.418,5.383 128.606,4.673C133.924,1.491 134.245,1.917 155.502,1.868C156.536,1.866 443.801,1.846 452.498,1.893C457.677,1.922 463.578,0.958 471.739,10.298C475.893,15.052 475.949,21.465 475.958,22.498C476.086,37.248 475.905,198.85 475.946,200.418Z" style="fill:rgb(27,137,190);"/>
        <path d="M117.208,238.245C117.363,238.309 117.893,239.319 121.501,239.328C145.419,239.388 145.414,239.328 147.494,239.344C150.303,239.434 192.31,239.625 199.505,239.386C202.862,239.505 207.78,239.505 208.5,239.505C212.67,239.795 212.704,239.64 216.56,241.313C219.435,242.561 219.989,241.713 222.428,244.566C225.219,247.831 225.066,247.898 227.337,251.568C228.554,254.329 228.578,254.352 228.707,258.478C229.853,271.08 228.165,272.961 229.467,280.516C228.585,284.952 229.244,284.977 229.149,289.518C229.106,291.911 228.975,332.48 229.117,340.462C229.139,344.597 228.852,344.582 229.441,348.468C229.337,349.076 229.072,349.011 229.09,350.516C229.296,368.053 229.178,368.051 229.334,369.567C229.336,369.768 229.101,377.794 229.08,378.51C229.307,409.529 228.731,422.916 229.189,431.476C229.012,438.775 229.12,438.771 229.06,439.403C229.04,441.093 228.855,456.682 229.423,460.531C229.065,462.976 229.106,463.066 229.096,469.515C229.062,473.675 229.151,473.664 228.943,521.511C228.942,521.909 228.988,521.9 229.095,526.477C229.051,535.703 230.2,547.913 218.337,555.225C217.579,555.692 213.358,556.97 213.029,557.5C212.755,557.942 212.976,558.768 212.496,558.966C212.274,559.057 212.275,558.971 209.498,559.042C203.993,558.876 151.582,558.95 146.546,558.957C146.712,557.726 146.884,557.787 146.867,556.573C146.624,538.448 147.029,528.969 147.132,526.571C151.156,526.61 196.455,527.052 197.439,526.401C198.911,525.429 198.127,524.9 198.269,479.495C198.294,471.314 198.768,469.506 195.512,469.391C190.08,469.2 155.942,469.249 152.501,469.254C146.933,469.262 148.265,471.713 148.262,475.485C148.261,476.601 148.252,487.818 148.105,489.428C148.022,490.345 147.926,490.456 147.868,490.524C147.15,491.354 146.821,490.916 146.112,491.737C142.965,490.172 142.903,490.4 139.429,490.147C139.422,488.582 139.35,471.163 139.253,470.588C139.031,469.262 138.438,469.219 122.498,469.32C116.701,469.357 116.743,469.419 108.502,469.384C91.275,469.311 90.734,468.943 90.187,470.304C89.811,471.238 90.041,487.154 89.754,488.414C89.711,488.602 89.661,488.566 88.499,490.485C83.45,493.206 84.444,494.507 84.408,511.5C84.341,543.109 84.443,551.982 84.483,555.501C84.503,557.277 84.253,557.246 84.524,559.011C76.179,558.728 23.288,559.407 20.452,558.663C14.537,557.111 14.616,556.889 9.424,553.612C7.156,552.181 2.178,543.98 2.065,540.528C1.635,527.414 1.911,348.223 1.937,331.501C1.943,327.741 2.003,288.921 1.929,284.5C1.81,277.379 1.948,261.507 1.965,259.507C1.991,256.592 1.416,255.395 5.389,248.432C7.519,244.7 16.032,239.224 20.472,239.066C30.479,238.711 48.696,239.122 60.499,238.936C70.105,238.785 70.091,238.976 110.501,238.971C113.932,238.971 114.031,239.633 117.208,238.245Z" style="fill:rgb(149,204,62);"/>
        <path d="M475.946,200.418C478.666,201.595 478.795,200.987 494.502,201.071C516.489,201.189 557.874,200.731 559.543,201.38C568.049,204.692 570.054,206.73 574.192,212.721C574.651,213.385 576.095,218.311 576.03,220.503C575.743,230.179 576.477,539.867 575.629,542.546C575.221,543.835 570.746,551.858 569.584,552.618C563.401,556.663 562.569,559.499 548.499,559.023C536.863,558.63 517.215,558.969 514.496,559.016C514.538,558.845 515.117,558.102 515.129,556.447C515.281,535.988 515.214,536.024 515.398,532.54C516.564,532.452 520.087,532.405 520.495,532.4C542.371,532.113 547.135,533.157 548.484,531.488C549.708,529.974 548.848,492.501 548.954,487.508C549.062,482.427 547.557,482.337 542.499,482.474C521.478,483.041 508.989,482.529 504.509,482.721C499.636,482.931 502.446,485.701 501.358,500.823C498.928,500.901 496.502,501.259 492.603,500.861C493.489,496.22 492.94,496.208 493.056,491.476C493.133,488.348 493.385,483.309 491.428,482.934C490.49,482.754 490.48,483.182 479.499,482.51C478.833,482.469 478.141,482.608 477.5,482.422C476.938,482.259 476.57,481.659 476.007,481.496C475.98,478.475 476.01,478.502 475.912,475.498C478.601,473.246 478.991,474.327 482.51,474.277C498.803,474.049 511.859,474.616 535.488,474.188C545.669,474.004 549.069,476.072 549.14,470.5C549.151,469.622 549.113,469.639 549.135,459.526C549.141,456.711 550.047,453.147 545.492,452.896C542.137,452.711 542.155,452.907 503.491,452.777C500.899,452.768 479.817,452.841 478.513,453.055C476.459,453.392 476.748,452.388 475.84,451.494C475.843,449.497 475.847,447.5 475.85,445.503L476.567,445.5C476.724,445.443 478.521,444.794 478.521,444.794C490.392,444.216 493.199,446.576 493.149,441.492C492.989,425.014 493.339,398.066 493.17,397.562C492.215,394.72 491.055,396.126 478.534,396.023C477.969,396.018 478.019,396.315 477.5,396.162C477.322,396.109 477.382,396.039 475.893,394.496C475.88,392.499 475.868,390.501 475.855,388.503C476.617,388.119 477.057,387.245 477.818,386.86C478.03,386.753 478.208,387.181 478.444,387.195C479.806,387.279 479.801,386.898 495.502,387.092C496.862,387.109 496.848,387.078 512.502,387.076C538.591,387.074 538.577,387.031 542.528,387.132C546.963,387.245 548.55,387.985 548.953,383.539C549.062,382.34 549.179,381.053 549.121,368.493C549.109,365.99 548.127,365.832 538.495,365.683C532.156,365.585 501.716,365.888 498.518,365.92C488.888,366.016 488.921,365.578 478.463,365.96C477.147,366.009 477.185,365.942 475.928,365.486C475.929,364.924 475.936,360.505 476.003,358.464C480.713,357.024 480.784,357.862 487.509,357.762C490.259,357.721 493.367,357.971 493.091,354.514C492.504,347.17 493.469,343.874 493.081,333.513C492.926,329.387 493.497,309.873 492.391,308.592C491.769,307.874 491.199,307.213 480.531,307.991C480.181,308.016 479.836,308.089 479.487,308.123C478.799,308.191 477.518,308.202 477.5,308.191C476.84,307.773 476.531,306.926 475.871,306.509C476.077,303.479 475.994,303.511 475.951,300.497C476.981,299.352 476.933,299.09 478.457,299.14C481.532,299.24 530.92,299.012 545.506,299.186C550.526,299.247 548.392,295.285 548.976,285.531C549.227,281.35 550.126,277.725 545.498,277.612C533.363,277.316 492.136,277.627 487.496,277.663C479.805,277.721 478.809,277.959 478.499,278.007C478.284,278.041 477.65,278.14 475.816,277.504C476.051,272.44 475.964,270.148 475.939,269.509C476.001,269.5 476.002,268.999 481.557,269.15C483.18,269.194 484.534,269.289 489.496,269.253C493.724,269.222 493.306,267.721 493.247,263.507C492.937,241.535 493.723,237.265 492.64,235.39C491.659,233.691 477.712,235.025 477.5,234.856C477.105,234.542 477.22,233.815 476.825,233.5L475.898,232.497C475.918,216.418 475.814,216.458 475.946,200.418Z" style="fill:rgb(246,203,61);"/>
        <path d="M336.499,102.903C300.833,102.915 265.167,102.927 229.502,102.939C155.859,103.018 155.873,103.213 149.481,102.853C146.647,102.693 146.672,101.596 146.925,92.509C147.215,82.098 146.246,81.101 148.517,80.571C149.789,80.273 444.555,80.241 445.459,80.614C446.808,81.168 446.64,82.285 446.512,99.5C446.482,103.554 444.424,102.907 437.504,102.931C386.991,103.105 387.021,102.832 336.499,102.903Z" style="fill:rgb(183,225,238);"/>
        <path d="M367.503,191.095C300.974,190.955 159.765,191.199 154.502,191.071C148.105,190.916 146.91,191.353 146.794,188.485C146.076,170.695 146.203,170.294 147.56,169.632C148.675,169.088 442.128,169.432 443.5,169.453C447.178,169.509 446.814,170.807 446.76,174.502C446.538,189.754 447.051,190.406 445.391,191.028C444.84,191.235 373.734,191.106 367.503,191.095Z" style="fill:rgb(181,224,238);"/>
        <path d="M322.321,481.25L323.5,481.885C330.416,482.455 330.266,481.464 330.608,481.333C333.486,482.104 333.498,481.747 336.489,481.835C348.092,482.179 346.097,487.183 346.512,508.5C346.649,515.546 345.73,521.332 346.784,526.368C346.196,528.54 345.848,529.825 346.136,554.484C346.169,557.274 347.02,556.922 347.5,557.446C347.896,557.878 348.105,558.461 348.502,558.893C313.245,558.785 274.54,558.898 265.497,558.878L266.5,557.416C266.582,557.028 267.175,556.888 267.257,556.5C267.37,555.964 267.419,534.357 267.194,529.51C267.06,526.632 267.068,526.64 267.334,493.497C267.403,485.024 268.519,485.152 271.496,482.48C276.408,481.288 299.719,482.086 313.511,481.89C322.016,481.77 321.972,481.343 322.321,481.25Z" style="fill:rgb(22,103,153);"/>
        <path d="M229.06,439.403C229.322,439.209 229.369,438.804 229.631,438.611C230.383,438.056 243.139,438.432 248.499,438.351C260.579,438.169 378.22,438.376 389.5,438.396C430.944,438.469 430.907,438.25 434.505,438.369C444.321,438.694 446.683,437.404 446.717,440.495C446.734,442.019 446.91,457.923 446.77,459.547C446.601,461.508 443.326,460.928 442.492,460.92C395.458,460.48 395.501,461.062 348.497,460.873C300.889,460.682 234.276,461.36 229.423,460.531C228.855,456.682 229.04,441.093 229.06,439.403Z" style="fill:rgb(182,225,237);"/>
        <path d="M229.441,348.468C239.93,347.837 365.419,348.616 398.492,348.176C405.955,348.076 438.064,348.266 441.505,348.286C441.886,348.289 445.718,348.311 446.241,348.793C446.785,349.292 446.735,349.824 446.815,362.493C446.849,368.075 448.086,370.407 442.5,370.514C439.315,370.574 396.182,370.48 330.5,370.616C325.86,370.626 325.878,370.471 272.5,370.443C256.163,370.434 256.206,370.399 235.501,370.28C235.18,370.278 235.217,370.286 231.496,370.327C229.779,370.346 229.661,369.682 229.334,369.567C229.178,368.051 229.296,368.053 229.09,350.516C229.072,349.011 229.337,349.076 229.441,348.468Z" style="fill:rgb(182,224,237);"/>
        <path d="M228.707,258.478C240.959,259.348 329.528,258.66 338.497,258.824C340.445,258.859 415.018,258.86 443.504,258.803C447.498,258.796 446.625,261.569 446.651,265.5C446.745,279.614 446.641,280.019 445.469,280.432C443.096,281.269 242.53,280.515 231.493,280.915C230.429,280.954 230.509,280.721 229.467,280.516C228.165,272.961 229.853,271.08 228.707,258.478Z" style="fill:rgb(180,225,238);"/>
        <path d="M88.499,490.485C91.104,490.294 91.104,490.371 139.429,490.147C142.903,490.4 142.965,490.172 146.112,491.737C146.262,491.994 146.555,492.149 146.705,492.407C147.443,493.673 147.25,494.246 147.132,526.571C147.029,528.969 146.624,538.448 146.867,556.573C146.884,557.787 146.712,557.726 146.546,558.957C139.452,559.161 91.182,558.838 84.524,559.011C84.253,557.246 84.503,557.277 84.483,555.501C84.443,551.982 84.341,543.109 84.408,511.5C84.444,494.507 83.45,493.206 88.499,490.485Z" style="fill:rgb(97,151,39);"/>
        <path d="M198.378,457.5C198.234,459.051 198.727,460.485 195.5,460.503C190.22,460.532 190.228,460.413 129.5,460.431C121.82,460.433 36.02,460.458 33.507,460.391C33.276,460.385 31.409,460.335 31.328,458.508C31.089,453.128 31.458,442.86 31.506,441.5C31.644,437.663 33.33,438.487 41.494,438.303C50.133,438.109 50.125,438.592 149.501,438.366C167.371,438.325 196.283,437.983 197.434,438.634C198.844,439.431 198.17,440.853 198.378,457.5Z" style="fill:rgb(211,234,181);"/>
        <path d="M39.499,347.861C65.593,347.883 197.208,347.842 197.316,347.878C198.917,348.407 198.108,349.122 198.386,365.504C198.44,368.708 198.711,369.838 195.504,369.83C187.663,369.811 130.209,369.668 97.5,369.736C85.918,369.76 76.339,369.646 74.5,369.624C68.832,369.556 32.61,370.039 31.493,369.513C30.796,369.186 30.353,369.004 30.589,351.504C30.649,347.032 32.488,347.688 39.499,347.861Z" style="fill:rgb(210,235,176);"/>
        <path d="M391.703,473.499C391.744,472.837 391.698,472.172 391.738,471.51C391.891,469 395.098,469.524 396.5,469.522C400.179,469.517 441.36,469.458 442.496,469.554C444.467,469.72 444.883,470.336 444.888,479.502C444.889,481.023 444.898,496.621 444.863,498.51C444.545,516.056 445.386,525.119 444.161,526.069C443.222,526.797 393.739,526.336 393.53,526.314C391.019,526.051 391.914,522.655 391.726,515.489C391.501,506.858 391.744,481.627 391.703,473.499Z" style="fill:rgb(89,195,217);"/>
        <path d="M146.112,491.737C146.821,490.916 147.15,491.354 147.868,490.524C147.926,490.456 148.022,490.345 148.105,489.428C148.252,487.818 148.261,476.601 148.262,475.485C148.265,471.713 146.933,469.262 152.501,469.254C155.942,469.249 190.08,469.2 195.512,469.391C198.768,469.506 198.294,471.314 198.269,479.495C198.127,524.9 198.911,525.429 197.439,526.401C196.455,527.052 151.156,526.61 147.132,526.571C147.25,494.246 147.443,493.673 146.705,492.407C146.555,492.149 146.262,491.994 146.112,491.737Z" style="fill:rgb(180,222,111);"/>
        <path d="M81.329,472.509C81.449,491.51 81.276,491.465 81.476,510.501C81.62,524.21 81.783,526.311 79.539,526.682C78.875,526.792 57.299,526.423 35.5,526.633C34.096,526.646 32.02,526.99 31.856,524.481C31.803,523.663 31.92,478.221 31.875,473.5C31.825,468.166 34.189,469.493 39.495,469.383C55.536,469.049 75.381,469.303 78.501,469.342C81.578,469.382 81.188,471.1 81.329,472.509Z" style="fill:rgb(180,222,110);"/>
        <path d="M355.499,378.428C364.024,378.249 363.998,378.463 372.499,378.414C381.682,378.362 382.359,378.574 382.927,379.086C384.293,380.317 383.274,392.774 383.738,425.498C383.789,429.163 384.177,430.543 380.501,430.472C375.278,430.372 357.5,430.525 355.5,430.543C353.739,430.558 335.821,430.713 333.488,430.66C329.572,430.571 330.583,427.859 330.589,416.501C330.602,392.549 330.455,392.58 330.464,390.5C330.513,379.328 330.755,379.127 331.596,378.687C332.598,378.161 353.587,378.406 355.499,378.428Z" style="fill:rgb(90,197,218);"/>
        <path d="M405.498,378.409C407.259,378.391 421.002,378.255 427.5,378.394C439.395,378.647 439.383,378.096 442.51,378.39C446.26,378.743 444.323,380.727 444.839,397.492C444.864,398.317 444.841,426.499 444.716,428.514C444.581,430.692 442.599,430.399 441.498,430.399C430.447,430.393 430.456,430.63 429.495,430.612C411.107,430.276 393.855,431.053 392.659,430.206C391.697,429.524 391.733,429.3 391.652,415.503C391.635,412.703 391.502,390.121 391.685,380.499C391.738,377.705 393.216,378.581 405.498,378.409Z" style="fill:rgb(90,196,218);"/>
        <path d="M276.497,378.373C284.92,378.269 284.884,378.506 290.501,378.45C293.861,378.417 295.019,378.196 298.503,378.265C320.849,378.705 321.096,378.284 321.847,379.179C322.43,379.874 322.5,379.957 322.431,390.5C322.221,422.702 322.447,422.699 322.374,425.498C322.271,429.45 322.458,430.756 318.493,430.688C295.468,430.293 295.5,430.816 272.501,430.478C269.282,430.431 270.066,428.155 270.078,425.501C270.274,384.027 269.794,384.05 270.098,380.459C270.328,377.751 273.737,378.407 276.497,378.373Z" style="fill:rgb(90,197,219);"/>
        <path d="M341.502,199.672C344.701,199.659 377.931,199.527 381.499,199.57C384.143,199.602 383.769,201.368 383.76,203.499C383.571,248.942 384.227,250.179 382.617,250.737C380.869,251.342 380.81,251.024 359.494,250.91C341.332,250.814 332.533,251.328 331.581,250.401C329.982,248.842 330.745,233.729 330.54,202.499C330.516,198.932 332.26,199.809 341.502,199.672Z" style="fill:rgb(91,196,217);"/>
        <path d="M391.622,247.502C391.617,245.182 391.566,220.148 391.589,218.502C391.826,201.418 390.976,200.057 393.558,199.827C395.263,199.675 426.265,199.648 428.494,199.713C442.805,200.132 444.052,198.847 444.566,201.489C445.147,204.474 444.773,204.499 444.852,239.496C444.873,249.229 445.134,250.696 442.514,250.842C440.704,250.944 398.342,250.904 394.501,250.901C391.324,250.898 391.751,249.733 391.622,247.502Z" style="fill:rgb(91,196,217);"/>
        <path d="M416.5,289.529C442.571,289.733 444.691,287.894 444.793,291.476C444.842,293.2 444.824,338.001 444.712,338.548C444.173,341.174 439.444,340.002 421.491,340.252C409.563,340.419 396.661,340.288 394.502,340.267C390.867,340.23 391.819,337.216 391.752,332.5C391.698,328.674 391.692,292.36 391.757,291.509C391.973,288.638 396.891,289.361 400.501,289.47C404.78,289.599 405.81,289.313 416.5,289.529Z" style="fill:rgb(90,196,218);"/>
        <path d="M368.505,340.269C337.427,339.929 331.514,341.016 330.871,339.347C330.83,339.24 330.351,329.18 330.472,325.499C330.783,316.076 330.558,299.307 330.608,295.5C330.667,291.079 330.053,289.394 334.499,289.425C377.761,289.726 377.745,289.325 381.504,289.417C384.093,289.48 383.631,292.553 383.632,294.504C383.658,336.195 383.745,336.164 383.56,338.506C383.377,340.822 381.66,340.278 368.505,340.269Z" style="fill:rgb(90,197,218);"/>
        <path d="M322.496,247.5C322.082,251.606 320.601,250.789 316.502,250.868C309.288,251.006 291.783,250.632 280.5,251.025C270.576,251.37 270.314,250.46 270.082,249.653C269.94,249.161 269.698,201.801 270.341,200.412C270.976,199.04 271.569,199.851 317.502,199.63C318.822,199.623 322.27,199.071 322.344,201.502C322.456,205.18 322.292,205.146 322.496,247.5Z" style="fill:rgb(91,197,218);"/>
        <path d="M261.878,157.511C261.669,160.25 262.247,161.407 259.502,161.329C247.249,160.98 210.027,161.719 208.66,161.145C207.239,160.548 207.934,159.902 207.839,118.496C207.832,115.586 206.934,111.665 210.507,111.638C210.583,111.637 255.584,111.709 259.504,111.715C262.392,111.72 261.639,113.735 261.813,121.491C262.167,137.305 261.723,142.728 261.878,157.511Z" style="fill:rgb(92,197,218);"/>
        <path d="M273.5,289.438C275.82,289.441 302.407,289.47 302.5,289.472C320.605,289.735 322.029,288.67 322.34,291.507C322.456,292.569 322.421,337.44 322.357,338.484C322.201,341.032 319.196,340.342 317.503,340.318C311.972,340.238 312.004,340.297 306.501,340.266C284.798,340.145 271.864,340.637 270.792,340.024C270.268,339.724 269.652,339.372 269.93,332.522C270.148,327.169 269.956,299.215 270.035,296.5C270.174,291.771 268.764,289.782 273.5,289.438Z" style="fill:rgb(91,197,219);"/>
        <path d="M338.503,111.807C348.502,111.786 358.501,111.765 368.5,111.744C381.109,111.722 383.316,111.004 383.547,113.494C383.813,116.363 383.872,117.006 383.744,149.502C383.703,159.981 383.959,161.459 380.5,161.452C377.54,161.447 356.243,161.407 343.501,161.299C332.203,161.204 330.646,161.75 330.54,159.499C330.529,159.261 330.463,137.421 330.457,135.501C330.452,133.821 330.407,118.937 330.664,114.51C330.864,111.076 333.184,111.786 338.503,111.807Z" style="fill:rgb(91,196,218);"/>
        <path d="M440.486,111.729C443.613,111.892 444.853,111.349 444.826,114.494C444.801,117.455 444.934,117.417 444.816,151.503C444.791,158.645 445.736,161.413 442.499,161.417C429.495,161.436 429.523,161.227 416.497,161.297C395.326,161.411 395.341,161.543 393.503,161.468C390.562,161.349 392.03,159.556 391.744,129.49C391.593,113.65 391.562,113.487 392.483,112.484C393.481,111.394 402.062,111.834 413.505,111.782C415.664,111.772 432.695,111.694 440.486,111.729Z" style="fill:rgb(90,196,217);"/>
        <path d="M208.5,239.505C208.459,239.401 207.648,238.626 207.681,236.503C208.206,202.632 206.706,200.225 209.553,199.792C210.653,199.625 244.467,199.675 247.503,199.68C260.922,199.7 261.464,199.916 261.794,201.43C261.934,202.074 262.012,248.402 261.679,249.555C261.349,250.692 259.71,250.743 259.512,250.749C251.86,250.989 229.439,250.537 228.5,250.894C228.081,251.054 227.756,251.408 227.337,251.568C225.066,247.898 225.219,247.831 222.428,244.566C219.989,241.713 219.435,242.561 216.56,241.313C212.704,239.64 212.67,239.795 208.5,239.505Z" style="fill:rgb(91,197,218);"/>
        <path d="M270.078,122.498C270.133,114.442 269.753,112.532 271.584,111.839C272.176,111.615 321.105,111.728 321.363,111.834C322.787,112.418 322.335,113.055 322.432,158.501C322.439,161.763 319.952,161.253 317.501,161.304C314.998,161.357 272.004,161.324 271.529,161.297C269.464,161.18 270.036,159.107 270.047,153.49C270.08,137.97 269.973,138.009 270.078,122.498Z" style="fill:rgb(91,196,218);"/>
        <path d="M198.181,411.534C198.083,429.23 198.54,429.713 197.355,430.218C196.171,430.723 196.097,430.026 168.498,430.317C166.983,430.332 150.122,430.51 149.558,430.367C147.912,429.95 148.682,429.113 148.429,400.502C148.242,379.293 148.411,378.882 149.496,378.491C151.145,377.897 173.151,378.275 188.484,378.123C195.829,378.051 198.35,377.38 198.265,381.492C198.214,383.895 198.139,387.515 198.181,411.534Z" style="fill:rgb(180,223,110);"/>
        <path d="M147.509,158.5C147.452,136.46 147.464,135.5 147.489,133.5C147.716,115.466 146.263,112.127 149.526,111.822C149.626,111.813 195.367,111.671 197.483,111.738C200.468,111.832 199.649,115.487 199.649,115.508C199.608,118.733 199.713,144.214 199.665,146.507C199.391,159.596 200.34,161.586 196.5,161.49C182.087,161.132 152.301,161.419 149.511,161.305C147.141,161.207 147.532,158.696 147.509,158.5Z" style="fill:rgb(90,196,218);"/>
        <path d="M81.412,384.502C81.429,388.02 81.597,422.761 81.255,428.48C81.095,431.162 79.616,430.093 60.504,430.273C36.067,430.502 35.684,430.446 33.551,430.132C30.821,429.73 32.188,428.293 31.864,404.484C31.528,379.777 31.453,378.97 33.461,378.379C35.015,377.922 54.582,378.201 72.498,378.139C73.135,378.136 79.866,378.113 80.452,378.574C81.683,379.541 81.395,383.633 81.412,384.502Z" style="fill:rgb(180,222,111);"/>
        <path d="M148.35,294.503C148.354,293.896 147.929,290.111 149.132,289.008C149.402,288.761 149.439,288.344 172.502,288.437C196.853,288.536 197.6,287.994 198.087,289.627C198.52,291.082 198.283,336.083 198.144,337.448C197.81,340.718 194.305,339.807 189.499,339.78C150.12,339.558 148.966,340.706 148.449,338.517C148.221,337.551 148.34,298.025 148.35,294.503Z" style="fill:rgb(181,223,112);"/>
        <path d="M90.07,393.511C90.062,392.453 89.961,392.477 90.042,389.502C90.264,381.301 89.163,378.463 92.475,378.253C100.203,377.764 121.011,378.045 123.492,378.078C137.607,378.269 138.642,377.995 139.05,380.546C139.209,381.534 139.193,426.352 139.19,426.506C139.132,429.326 139.297,430.224 136.487,430.249C133.528,430.276 109.696,430.494 99.497,430.351C91.651,430.242 89.856,431.109 90.053,427.501C90.121,426.242 90.074,396.23 90.07,393.511Z" style="fill:rgb(180,222,110);"/>
        <path d="M81.422,308.498C81.284,333.922 81.791,338.978 80.532,339.541C78.541,340.431 78.432,339.569 38.513,339.881C33.974,339.917 32.029,341.036 31.957,336.51C31.9,332.989 31.959,333.013 31.859,292.492C31.852,289.514 31.523,288.447 34.498,288.443C38.177,288.439 80.056,288.39 80.486,288.534C81.886,289 81.39,289.605 81.422,308.498Z" style="fill:rgb(181,222,113);"/>
        <path d="M106.502,288.562C137.764,288.373 137.841,288.504 138.307,288.866C139.234,289.585 139.292,289.785 139.291,303.5C139.291,305.339 139.29,323.85 139.2,326.483C139.011,331.986 139.28,331.951 139.189,337.465C139.137,340.596 136.848,339.921 134.469,339.901C113.465,339.729 113.497,339.987 92.481,339.857C89.349,339.837 90.105,336.782 90.108,333.491C90.149,290.55 89.87,290.489 90.371,289.431C90.818,288.486 91.135,288.467 106.502,288.562Z" style="fill:rgb(180,222,111);"/>
        <path d="M492.603,500.861C496.502,501.259 498.928,500.901 501.358,500.823C510.289,501.479 511.2,500.178 513.163,501.906C516.834,505.14 514.482,519.928 515.398,532.54C515.214,536.024 515.281,535.988 515.129,556.447C515.117,558.102 514.538,558.845 514.496,559.016C511.059,558.876 511.066,558.941 485.499,559.012C464.316,559.071 463.381,558.817 461.53,558.314C461.91,558.019 462.12,557.54 462.5,557.245C464.241,555.895 469.152,554.867 472.858,547.676C477.457,538.752 475.27,538.159 475.897,501.53C476.495,501.376 477.04,501.054 477.637,500.901C479.547,500.41 479.585,501.074 492.603,500.861Z" style="fill:rgb(240,133,62);"/>
        <path d="M536.496,307.847C545.987,307.897 548.755,307.12 548.904,310.471C548.98,312.182 549.122,349.535 549.008,351.449C548.873,353.734 549.365,357.422 546.502,357.575C541.768,357.826 509.705,357.685 506.505,357.671C505.285,357.666 503.169,357.952 502.148,356.763C501.381,355.87 501.828,345.831 501.607,315.499C501.57,310.312 500.847,307.86 504.51,307.75C506.102,307.702 533.937,307.834 536.496,307.847Z" style="fill:rgb(249,226,125);"/>
        <path d="M330.608,481.333C329.838,470.224 330.672,469.95 331.563,469.658C332.951,469.203 334.647,469.738 364.5,469.478C365.938,469.466 381.609,469.329 382.479,469.564C383.795,469.92 383.521,470.508 383.692,487.505C383.707,488.981 383.601,508.231 383.705,522.496C383.725,525.24 384.251,526.329 381.492,526.385C378.716,526.442 356.054,526.903 346.784,526.368C345.73,521.332 346.649,515.546 346.512,508.5C346.097,487.183 348.092,482.179 336.489,481.835C333.498,481.747 333.486,482.104 330.608,481.333Z" style="fill:rgb(89,195,217);"/>
        <path d="M513.497,444.616C502.866,444.552 502.188,445.039 501.748,443.394C501.424,442.186 501.648,416.806 501.668,414.494C501.804,399.074 500.112,396.007 504.519,395.659C505.328,395.595 535.781,395.632 538.5,395.635C548.046,395.646 549.112,395.359 549.088,397.516C548.749,428.788 549.159,428.768 549.073,431.484C548.732,442.276 550.18,444.774 546.498,444.654C539.475,444.424 539.497,444.993 532.49,444.699C522.991,444.3 523.031,444.799 513.497,444.616Z" style="fill:rgb(249,226,124);"/>
        <path d="M147.494,239.344C147.501,239.051 147.737,238.793 147.744,238.5C147.811,235.861 147.145,235.879 147.34,205.501C147.366,201.461 146.449,199.809 150.51,199.642C151.831,199.588 165.85,199.766 183.503,199.655C198.253,199.561 198.548,199.639 199.143,200.744C200.317,202.925 199.218,232.406 199.527,235.498C199.722,237.447 199.516,237.417 199.505,239.386C192.31,239.625 150.303,239.434 147.494,239.344Z" style="fill:rgb(90,197,217);"/>
        <path d="M501.358,500.823C502.446,485.701 499.636,482.931 504.509,482.721C508.989,482.529 521.478,483.041 542.499,482.474C547.557,482.337 549.062,482.427 548.954,487.508C548.848,492.501 549.708,529.974 548.484,531.488C547.135,533.157 542.371,532.113 520.495,532.4C520.087,532.405 516.564,532.452 515.398,532.54C514.482,519.928 516.834,505.14 513.163,501.906C511.2,500.178 510.289,501.479 501.358,500.823Z" style="fill:rgb(249,227,124);"/>
        <path d="M229.096,469.515C250.631,469.495 250.627,469.464 252.5,469.467C258.721,469.477 261.563,469.057 261.826,471.456C262.248,475.31 261.985,495.428 261.957,497.513C261.618,523.443 262.688,523.616 261.637,525.602C261.079,526.657 259.341,526.587 229.095,526.477C228.988,521.9 228.942,521.909 228.943,521.511C229.151,473.664 229.062,473.675 229.096,469.515Z" style="fill:rgb(90,197,218);"/>
        <path d="M261.921,43.482C261.933,45.645 262.056,68.46 261.641,70.524C261.179,72.816 260.097,72.057 241.495,72.152C238.936,72.165 211.925,72.304 209.517,72.085C207.107,71.866 207.71,70.933 207.766,68.505C207.914,62.106 207.549,40.374 207.855,39.562C208.707,37.31 210.762,38.78 236.49,38.252C237.771,38.225 237.743,38.587 252.496,38.315C259.521,38.185 261.591,38.186 261.785,40.462C261.871,41.466 261.836,42.478 261.921,43.482Z" style="fill:rgb(90,196,218);"/>
        <path d="M333.496,38.316C343.077,38.454 369.238,38.214 369.512,38.227C381.925,38.805 383.823,37.177 383.833,40.503C383.86,49.998 383.606,49.972 383.855,59.486C384.168,71.447 383.351,71.753 382.399,72.11C382.361,72.125 332.138,72.254 331.632,72.024C330.498,71.51 330.37,71.188 330.453,56.5C330.497,48.476 330.681,48.503 330.421,40.504C330.347,38.212 331.195,38.507 333.496,38.316Z" style="fill:rgb(90,195,217);"/>
        <path d="M391.691,57.504C391.82,40.206 391.355,40.051 392.091,39.214C393.028,38.15 393.341,38.323 442.503,38.417C442.683,38.417 444.131,38.42 444.47,39.511C445.038,41.345 445.006,41.377 444.899,63.501C444.867,70.038 445.561,72.203 441.509,72.143C430.138,71.975 394.905,72.389 393.353,71.948C391.383,71.388 391.773,67.931 391.691,57.504Z" style="fill:rgb(89,195,217);"/>
        <path d="M270.072,40.475C270.346,39.674 269.767,38.23 272.512,38.351C279.529,38.66 279.496,38.228 286.5,38.276C304.922,38.401 304.91,38.301 306.509,38.375C315.889,38.811 319.353,37.565 321.503,38.495C322.535,38.941 322.603,39.246 322.533,52.501C322.438,70.453 323.003,70.95 321.647,71.671C320.484,72.289 320.388,72.091 284.503,72.173C271.235,72.203 271.08,72.497 270.277,71.69C269.897,71.307 269.923,68.76 269.925,68.504C269.961,64.981 270.062,42.717 270.072,40.475Z" style="fill:rgb(90,196,217);"/>
        <path d="M147.578,57.499C147.565,55.793 147.381,40.661 147.782,39.592C148.667,37.226 159.333,38.787 169.495,38.354C175.383,38.102 179.962,38.527 182.499,38.436C183.698,38.393 192.88,38.066 197.499,38.509C200.035,38.752 199.859,41.631 199.793,49.509C199.618,70.4 199.774,70.498 199.223,71.316C198.695,72.097 198.463,72.135 175.497,72.141C150.774,72.147 150.726,72.626 148.665,72.026C147.414,71.661 147.723,71.147 147.578,57.499Z" style="fill:rgb(89,195,218);"/>
        <path d="M229.08,378.51C231.305,378.459 231.27,378.341 233.501,378.41C247.616,378.842 260.72,377.399 261.503,379.498C262.457,382.052 261.918,417.233 261.867,420.514C261.776,426.459 262.142,429.422 261.224,430.024C259.973,430.842 237.162,430.305 231.502,430.575C231.502,430.575 229.374,431.404 229.189,431.476C228.731,422.916 229.307,409.529 229.08,378.51Z" style="fill:rgb(92,198,219);"/>
        <path d="M229.149,289.518C235.327,289.174 235.289,289.354 241.5,289.478C259.795,289.845 261.58,288.179 261.852,291.488C261.947,292.65 261.842,337.043 261.831,337.516C261.736,341.909 259.131,339.743 229.117,340.462C228.975,332.48 229.106,291.911 229.149,289.518Z" style="fill:rgb(92,198,219);"/>
        <path d="M514.507,269.242C509.476,269.147 509.503,269.157 504.497,269.201C501.126,269.23 501.649,266.602 501.654,262.504C501.69,237.079 501.279,236.605 502.446,235.44C502.838,235.048 502.841,234.276 519.497,234.549C546.449,234.989 549.706,232.515 549.275,237.479C548.58,245.485 549.373,245.464 549.149,253.486C548.764,267.29 550.021,268.355 547.452,269.18C547.21,269.257 519.171,269.322 514.507,269.242Z" style="fill:rgb(249,226,124);"/>
        <path d="M475.84,451.494C476.748,452.388 476.459,453.392 478.513,453.055C479.817,452.841 500.899,452.768 503.491,452.777C542.155,452.907 542.137,452.711 545.492,452.896C550.047,453.147 549.141,456.711 549.135,459.526C549.113,469.639 549.151,469.622 549.14,470.5C549.069,476.072 545.669,474.004 535.488,474.188C511.859,474.616 498.803,474.049 482.51,474.277C478.991,474.327 478.601,473.246 475.912,475.498C475.822,473.396 475.669,472.575 475.84,451.494Z" style="fill:rgb(249,230,162);"/>
        <path d="M475.816,277.504C477.65,278.14 478.284,278.041 478.499,278.007C478.809,277.959 479.805,277.721 487.496,277.663C492.136,277.627 533.363,277.316 545.498,277.612C550.126,277.725 549.227,281.35 548.976,285.531C548.392,295.285 550.526,299.247 545.506,299.186C530.92,299.012 481.532,299.24 478.457,299.14C476.933,299.09 476.981,299.352 475.951,300.497C475.469,291.457 475.914,291.475 475.816,277.504Z" style="fill:rgb(249,231,163);"/>
        <path d="M475.928,365.486C477.185,365.942 477.147,366.009 478.463,365.96C488.921,365.578 488.888,366.016 498.518,365.92C501.716,365.888 532.156,365.585 538.495,365.683C548.127,365.832 549.109,365.99 549.121,368.493C549.179,381.053 549.062,382.34 548.953,383.539C548.55,387.985 546.963,387.245 542.528,387.132C538.577,387.031 538.591,387.074 512.502,387.076C496.848,387.078 496.862,387.109 495.502,387.092C479.801,386.898 479.806,387.279 478.444,387.195C478.208,387.181 478.03,386.753 477.818,386.86C477.057,387.245 476.617,388.119 475.855,388.503C475.824,383.709 475.765,377.472 475.928,365.486Z" style="fill:rgb(250,232,164);"/>
        <path d="M88.499,490.485C89.661,488.566 89.711,488.602 89.754,488.414C90.041,487.154 89.811,471.238 90.187,470.304C90.734,468.943 91.275,469.311 108.502,469.384C116.743,469.419 116.701,469.357 122.498,469.32C138.438,469.219 139.031,469.262 139.253,470.588C139.35,471.163 139.422,488.582 139.429,490.147C91.104,490.371 91.104,490.294 88.499,490.485Z" style="fill:rgb(180,222,110);"/>
        <path d="M475.871,306.509C476.531,306.926 476.84,307.773 477.5,308.191C477.518,308.202 478.799,308.191 479.487,308.123C479.836,308.089 480.181,308.016 480.531,307.991C491.199,307.213 491.769,307.874 492.391,308.592C493.497,309.873 492.926,329.387 493.081,333.513C493.469,343.874 492.504,347.17 493.091,354.514C493.367,357.971 490.259,357.721 487.509,357.762C480.784,357.862 480.713,357.024 476.003,358.464C475.903,356.144 475.798,317.174 475.871,306.509Z" style="fill:rgb(248,228,128);"/>
        <path d="M475.893,394.496C477.382,396.039 477.322,396.109 477.5,396.162C478.019,396.315 477.969,396.018 478.534,396.023C491.055,396.126 492.215,394.72 493.17,397.562C493.339,398.066 492.989,425.014 493.149,441.492C493.199,446.576 490.392,444.216 478.521,444.794C478.521,444.794 476.724,445.443 476.567,445.5L475.85,445.503C475.825,435.376 475.916,396.726 475.893,394.496Z" style="fill:rgb(247,227,125);"/>
        <path d="M322.321,481.25C321.972,481.343 322.016,481.77 313.511,481.89C299.719,482.086 276.408,481.288 271.496,482.48C271.247,482.235 270.726,482.958 270.477,482.714C270.452,482.689 269.409,472.469 270.286,470.356C270.77,469.188 272.297,469.849 280.504,469.58C283.622,469.477 283.577,469.707 319.501,469.41C323.628,469.376 322.198,471.362 322.361,475.511C322.362,475.533 322.592,477.319 322.321,481.25Z" style="fill:rgb(89,196,219);"/>
        <path d="M475.898,232.497L476.825,233.5C477.22,233.815 477.105,234.542 477.5,234.856C477.712,235.025 491.659,233.691 492.64,235.39C493.723,237.265 492.937,241.535 493.247,263.507C493.306,267.721 493.724,269.222 489.496,269.253C484.534,269.289 483.18,269.194 481.557,269.15C476.002,268.999 476.001,269.5 475.939,269.509C475.814,252.016 476.084,250.766 475.898,232.497Z" style="fill:rgb(248,228,128);"/>
        <path d="M476.007,481.496C476.57,481.659 476.938,482.259 477.5,482.422C478.141,482.608 478.833,482.469 479.499,482.51C490.48,483.182 490.49,482.754 491.428,482.934C493.385,483.309 493.133,488.348 493.056,491.476C492.94,496.208 493.489,496.22 492.603,500.861C479.585,501.074 479.547,500.41 477.637,500.901C477.04,501.054 476.495,501.376 475.897,501.53C476.022,491.5 475.492,491.528 476.007,481.496Z" style="fill:rgb(247,229,124);"/>
    </g>
</svg>
