<?xml version="1.0" encoding="UTF-8" standalone="no"?>
<!DOCTYPE svg PUBLIC "-//W3C//DTD SVG 1.1//EN" "http://www.w3.org/Graphics/SVG/1.1/DTD/svg11.dtd">
<svg width="100%" height="100%" viewBox="0 0 1024 1024" version="1.1" xmlns="http://www.w3.org/2000/svg" xmlns:xlink="http://www.w3.org/1999/xlink" xml:space="preserve" xmlns:serif="http://www.serif.com/" style="fill-rule:evenodd;clip-rule:evenodd;stroke-linejoin:round;stroke-miterlimit:2;">
    <g id="Background" transform="matrix(1.414371,0,0,1.414371,93.813783,-2.401463)">
        <path d="M309.284,140.275C314.842,144.523 314.53,144.829 320.223,148.895C326.879,153.649 336.829,161.904 346.649,168.26C348.049,169.166 347.879,169.365 363.196,180.939C374.481,189.466 378.623,191.993 383.67,196.298C363.79,222.809 104.381,554.42 100.36,558.608C81.647,544.833 81.37,545.4 79.821,544.119C66.891,533.426 66.223,534.444 53.183,523.896C45.344,517.555 29.244,508.018 26.27,503.289C32.036,495.932 32.242,496.195 37.804,488.745C38.589,487.694 43.146,481.591 47.809,475.765C70.029,448.005 69.266,447.505 94.199,416.249C104.38,403.486 104.287,403.441 177.215,309.283C207.139,270.648 207.275,270.877 237.228,232.283C250.665,214.969 308.264,141.747 309.284,140.275Z" style="fill:var(--icon-accent, #F9D730);"/>
        <path d="M383.67,196.298C386.77,198.485 452.373,247.331 458.342,251.776L458.716,252.074C448.185,265.793 447.21,264.937 436.909,278.836C433.826,282.995 299.152,452.37 292.123,462.196C288.755,466.904 288.384,466.505 285.132,471.202C285.122,471.216 262.623,499.359 261.612,500.583C257.561,505.489 214.376,561.08 201.625,576.591C198.565,580.313 195.625,584.447 195.127,585.148C194.229,586.41 174.634,610.207 173.335,613.665C136.86,586.016 106.279,563.827 100.36,558.608C104.381,554.42 363.79,222.809 383.67,196.298Z" style="fill:var(--icon-primary, #A2D23C);"/>
        <path d="M359.696,75.606C376.372,55.622 383.87,43.367 403.181,20.237C425.853,-6.921 461.292,0.763 476.233,11.831C492.656,23.996 492.822,23.75 494.247,24.81C515.385,40.535 515.461,40.393 517.249,41.822C536.802,57.447 537.684,56.103 546.241,62.815C563.065,76.01 587.299,88.13 589.02,116.518C590.886,147.304 572.804,156.97 559.988,175.83C559.246,176.923 538.259,204.189 535.566,206.611C535.565,206.61 534.759,205.078 533.194,203.878C531.332,202.451 512.616,188.103 509.777,186.236C502.093,181.63 365.529,78.612 359.696,75.606Z" style="fill:var(--icon-detail, #0FADD5);"/>
        <path d="M26.27,503.289C29.244,508.018 45.344,517.555 53.183,523.896C66.223,534.444 66.891,533.426 79.821,544.119C81.37,545.4 81.647,544.833 100.36,558.608C106.279,563.827 136.86,586.016 173.335,613.665C181.163,619.763 193.378,628.102 198.401,633.308C188.361,639.596 107.796,678.225 86.781,687.806C85.564,684.444 84.575,685.186 65.143,669.95C39.833,650.105 39.408,650.812 14.125,630.978C12.162,629.439 12.326,629.327 10.11,628.244C10.11,622.863 9.893,622.878 10.331,621.44C11.832,616.515 10.645,615.675 11.322,613.437C12.838,608.426 11.58,602.883 12.326,600.437C13.415,596.869 18.68,523.812 19.672,520.562C21.52,514.505 17.39,512.674 26.27,503.289Z" style="fill:var(--icon-surface, #FAD499);"/>
        <path d="M359.696,75.606C365.529,78.612 502.093,181.63 509.777,186.236C502.38,196.786 465.28,245.34 459.809,249.949C459.666,250.07 459.701,250.084 458.342,251.776C452.373,247.331 386.77,198.485 383.67,196.298C378.623,191.993 374.481,189.466 363.196,180.939C347.879,169.365 348.049,169.166 346.649,168.26C336.829,161.904 326.879,153.649 320.223,148.895C314.53,144.829 314.842,144.523 309.284,140.275C323.384,122.276 322.96,122.069 337.213,104.255C358.159,78.076 357.857,77.866 359.696,75.606Z" style="fill:var(--icon-secondary, #95D6F3);"/>
        <path d="M458.716,252.074C465.666,257.192 479.283,266.496 484.336,271.397C473.239,285.097 455.671,308.064 453.212,311.278C439.1,329.725 422.884,349.066 420.821,351.769C385.546,398.005 355.455,434.414 354.683,435.618C350.744,441.766 234.738,586.912 222.806,602.755C221.226,604.853 201.862,631.084 198.401,633.308C193.378,628.102 181.163,619.763 173.335,613.665C174.634,610.207 194.229,586.41 195.127,585.148C195.625,584.447 198.565,580.313 201.625,576.591C214.376,561.08 257.561,505.489 261.612,500.583C262.623,499.359 285.122,471.216 285.132,471.202C288.384,466.505 288.755,466.904 292.123,462.196C299.152,452.37 433.826,282.995 436.909,278.836C447.21,264.937 448.185,265.793 458.716,252.074Z" style="fill:var(--icon-primary, #93C53C);"/>
        <path d="M10.11,628.244C12.326,629.327 12.162,629.439 14.125,630.978C39.408,650.812 39.833,650.105 65.143,669.95C84.575,685.186 85.564,684.444 86.781,687.806C73.713,693.827 12.158,723.744 8.416,725.279C4.077,727.059 1.915,722.679 2.212,720.48C3.711,709.408 4.344,692.732 5.682,683.518C5.72,683.257 6.176,675.038 6.231,674.471C10.385,631.938 9.361,631.878 10.11,628.244Z" style="fill:var(--icon-primary, #151516);"/>
        <path d="M509.777,186.236C512.616,188.103 531.332,202.451 533.194,203.878C534.759,205.078 535.565,206.61 535.566,206.611C527.319,215.749 492.372,262.603 484.336,271.397C479.283,266.496 465.666,257.192 458.716,252.074L458.342,251.776C459.701,250.084 459.666,250.07 459.809,249.949C465.28,245.34 502.38,196.786 509.777,186.236Z" style="fill:var(--icon-secondary, #72C2E8);"/>
    </g>
</svg>
