<?xml version="1.0" encoding="UTF-8" standalone="no"?>
<!DOCTYPE svg PUBLIC "-//W3C//DTD SVG 1.1//EN" "http://www.w3.org/Graphics/SVG/1.1/DTD/svg11.dtd">
<svg width="100%" height="100%" viewBox="0 0 1024 1024" version="1.1" xmlns="http://www.w3.org/2000/svg" xmlns:xlink="http://www.w3.org/1999/xlink" xml:space="preserve" xmlns:serif="http://www.serif.com/" style="fill-rule:evenodd;clip-rule:evenodd;stroke-linejoin:round;stroke-miterlimit:2;">
    <g id="Background" transform="matrix(1.453346,0,0,1.453346,24.006077,6.796642)">
        <path d="M342.344,371.289L343.684,371.398C344.438,377.946 344.41,377.878 344.824,384.486C344.821,384.876 344.908,605.31 344.915,624.512C344.942,690.62 344.39,690.763 345.46,693.29C335.64,692.62 336.183,690.219 326.44,688.893C326.097,688.847 299.545,680.455 284.433,676.675C283.723,676.497 260.738,669.35 257.439,668.904C254.297,668.48 247.415,665.676 246.567,665.331C245.018,664.7 244.741,665.723 226.436,659.666C214.806,655.817 211.706,656.71 198.564,651.339C197.486,650.899 197.393,651.438 184.569,647.321C181.092,646.204 181.027,646.733 177.567,645.327C176.017,644.698 175.741,645.726 157.428,639.682C149.075,636.925 123.523,629.825 120.565,629.003C109.924,626.046 110.222,625.398 99.437,622.667C76.46,616.848 78.977,610.388 78.987,577.499C79.016,473.527 78.835,473.565 79.08,464.531C84.558,466.372 84.649,465.836 148.618,484.087C152.126,485.088 191.393,496.291 192.482,496.569C220.508,503.708 220.028,505.113 245.553,511.316C259.284,514.653 259.505,518.256 270.634,513.828C274.879,512.14 276.697,511.416 299.139,464.344C314.196,432.762 315.045,433.281 329.237,401.378C341.522,373.76 341.248,373.675 342.344,371.289Z" style="fill:rgb(251,228,112);"/>
        <path d="M344.824,384.486L345.908,385.5L346.128,386.5C347.058,388.878 347.696,388.575 359.655,415.414C360.516,417.344 361.193,419.351 361.992,421.308C362.652,422.925 366.824,433.14 370.929,441.233C372.42,444.172 371.991,444.359 388.329,478.569C398.88,500.663 400.897,520.863 425.397,515.051C428.133,514.402 558.328,477.865 567.471,476.176C569.033,475.887 568.669,474.899 586.54,470.635C590.378,469.72 608.164,463.635 608.5,465.303C609.006,467.815 608.54,526.651 608.801,532.5C609.314,544 608.665,575.741 608.589,579.5C608.543,581.74 608.055,605.604 608.777,607.5C609.087,608.314 609.579,607.788 609.928,608.573C610.165,609.108 609.46,609.039 609.695,609.569C606.53,621.639 600.719,620.973 587.431,625.313C576.183,628.986 554.339,634.599 551.444,635.342C534.778,639.624 515.645,645.68 512.556,646.658C493.226,652.776 492.932,651.48 473.565,657.683C469.139,659.101 465.781,659.253 448.557,664.66C431.641,669.97 426.401,670.791 424.427,671.101C423.616,671.228 423.876,672.122 414.57,673.99C411.586,674.59 365.364,688.499 345.46,693.29C344.39,690.763 344.942,690.62 344.915,624.512C344.908,605.31 344.821,384.876 344.824,384.486Z" style="fill:rgb(243,195,54);"/>
        <path d="M599.648,299.234C614.851,304.982 613.674,309.23 625.354,328.589C667.952,399.185 670.612,405.814 669.313,410.439C668.654,412.787 669.992,416.349 662.257,423.205C659.052,426.045 642.077,428.666 620.563,435.665C614.375,437.679 612.028,435.196 610.909,440.501C610.515,439.849 611.558,438.033 608.508,438.742C575.296,446.464 430.418,487.357 426.5,487.485C414.744,487.867 411.066,477.116 394.933,451.222C371.546,413.684 372.667,413.097 349.237,375.667C348.994,375.278 349.011,375.32 346.132,370.85C344.217,367.877 342.788,370.252 342.448,370.419L342.344,371.289C341.248,373.675 341.522,373.76 329.237,401.378C315.045,433.281 314.196,432.762 299.139,464.344C276.697,511.416 274.879,512.14 270.634,513.828C259.505,518.256 259.284,514.653 245.553,511.316C220.028,505.113 220.508,503.708 192.482,496.569C191.393,496.291 152.126,485.088 148.618,484.087C84.649,465.836 84.558,466.372 79.08,464.531C79.069,456.86 79.058,449.19 79.047,441.519C79.628,441.571 79.813,440.351 80.393,440.403C82.529,440.595 84.502,441.63 86.571,442.194C137.221,456.009 137.163,456.055 141.573,457.222C150.212,459.509 151.645,460.204 188.574,470.221C243.938,485.237 243.727,485.948 248.578,487.106C263.557,490.68 270.645,478.347 271.656,476.588C279.74,462.521 335.546,374.628 342.562,367.133C346.905,366.951 346.798,366.616 352.337,365.056C395.035,353.403 462.928,336.181 472.562,333.737C502.957,326.027 535.971,316.907 541.469,315.388C545.438,314.291 567.261,309.064 569.507,308.527C579.028,306.246 592.507,302.085 594.491,301.472C597.241,300.623 597.369,301.042 599.648,299.234Z" style="fill:rgb(249,222,101);"/>
        <path d="M79.009,298.77C79.753,298.844 79.673,298.65 80.446,298.726C80.619,298.743 80.604,298.755 82.573,299.119C114.034,306.055 230.373,337.963 342.562,367.133C335.546,374.628 279.74,462.521 271.656,476.588C270.645,478.347 263.557,490.68 248.578,487.106C243.727,485.948 243.938,485.237 188.574,470.221C151.645,460.204 150.212,459.509 141.573,457.222C137.163,456.055 137.221,456.009 86.571,442.194C84.502,441.63 82.529,440.595 80.393,440.403C79.813,440.351 79.628,441.571 79.047,441.519C77.139,439.464 76.852,440.025 65.573,436.314C59.113,434.189 39.695,429.244 37.435,428.668C12.453,422.307 11.489,420.608 10.348,418.598C3.279,406.147 7.503,402.261 14.663,391.602C16.109,389.45 32.263,365.403 32.788,364.731C38.763,357.073 67.027,311.395 74.732,303.734C77.293,301.188 77.674,301.544 79.009,298.77Z" style="fill:rgb(250,228,112);"/>
        <path d="M350.666,232.303L349.5,233.23C349.041,233.367 348.819,233.969 348.36,234.106C346.467,234.671 346.426,234.359 324.379,240.013C316.87,241.939 213.924,266.758 210.509,267.538C201.921,269.499 202.012,269.609 103.46,293.325C99.919,294.177 100.038,294.314 96.428,295.175C89.332,296.868 88.896,295.499 82.573,299.119C80.604,298.755 80.619,298.743 80.446,298.726C79.673,298.65 79.753,298.844 79.009,298.77C73.019,292.489 70.48,289.133 69.805,288.24C64.989,281.874 20.808,231.43 13.749,224.256C12.195,222.676 12.644,222.419 11.201,220.756C10.507,219.956 -3.27,210.357 4.217,200.277C10.112,192.341 18.831,194.235 34.441,189.34C38.988,187.914 52.83,185.307 54.439,185.004C62.863,183.418 68.262,181.711 69.44,181.339C70.458,181.018 70.667,181.93 82.436,178.322C84.091,177.815 84.229,178.466 103.566,173.68C105.238,173.266 120.702,169.439 124.563,168.915C126.402,168.665 163.799,159.223 173.558,157.896C174.938,157.708 188.385,153.746 194.563,152.912C199.001,152.312 207.347,149.682 208.44,149.338C209.458,149.017 209.677,150.021 221.444,146.344C221.867,146.212 246.518,141.147 252.434,139.321C255.921,138.244 265.937,138.927 270.254,142.791C274.826,146.882 349.331,230.915 350.666,232.303Z" style="fill:rgb(119,203,249);"/>
        <path d="M350.666,232.303C352.062,233.462 352.008,233.448 353.593,234.286C350.846,237.781 351.873,238.215 351.887,251.498C351.941,304.061 352.29,303.975 352.577,356.498C352.621,364.397 352.608,364.427 352.337,365.056C346.798,366.616 346.905,366.951 342.562,367.133C230.373,337.963 114.034,306.055 82.573,299.119C88.896,295.499 89.332,296.868 96.428,295.175C100.038,294.314 99.919,294.177 103.46,293.325C202.012,269.609 201.921,269.499 210.509,267.538C213.924,266.758 316.87,241.939 324.379,240.013C346.426,234.359 346.467,234.671 348.36,234.106C348.819,233.969 349.041,233.367 349.5,233.23L350.666,232.303Z" style="fill:rgb(32,141,212);"/>
        <path d="M353.593,234.286C354.967,234.727 592.524,295.996 599.648,299.234C597.369,301.042 597.241,300.623 594.491,301.472C592.507,302.085 579.028,306.246 569.507,308.527C567.261,309.064 545.438,314.291 541.469,315.388C535.971,316.907 502.957,326.027 472.562,333.737C462.928,336.181 395.035,353.403 352.337,365.056C352.608,364.427 352.621,364.397 352.577,356.498C352.29,303.975 351.941,304.061 351.887,251.498C351.873,238.215 350.846,237.781 353.593,234.286Z" style="fill:rgb(56,204,136);"/>
        <path d="M560.828,19.013C577.522,33.918 577.463,43.405 580.609,55.469C580.932,56.709 582.39,73.935 574.982,88.735C559.245,120.179 526.721,126.398 520.268,150.424C518.226,158.027 520.118,162.086 515.501,162.108C481.308,162.268 481.198,161.695 480.981,161.223C479.579,158.169 479.033,137.221 483.712,127.599C500.181,93.736 544.041,83.469 527.667,54.393C521.214,42.932 491.503,35.316 474.802,60.726C471.488,65.768 470.912,69.623 464.305,64.764C457.096,59.463 434.534,49.326 436.411,44.459C436.688,43.741 449.762,17.072 478.425,7.305C506.335,-2.206 539.056,0.467 560.828,19.013Z" style="fill:rgb(17,121,223);"/>
        <path d="M342.448,370.419C342.788,370.252 344.217,367.877 346.132,370.85C349.011,375.32 348.994,375.278 349.237,375.667C372.667,413.097 371.546,413.684 394.933,451.222C411.066,477.116 414.744,487.867 426.5,487.485C430.418,487.357 575.296,446.464 608.508,438.742C611.558,438.033 610.515,439.849 610.909,440.501C610.716,527.287 611.38,540.136 610.155,553.473C609.649,558.986 611.189,558.966 610.371,564.477C610.053,566.615 610.845,566.6 610.866,591.499C610.867,592.948 610.875,602.49 609.695,609.569C609.46,609.039 610.165,609.108 609.928,608.573C609.579,607.788 609.087,608.314 608.777,607.5C608.055,605.604 608.543,581.74 608.589,579.5C608.665,575.741 609.314,544 608.801,532.5C608.54,526.651 609.006,467.815 608.5,465.303C608.164,463.635 590.378,469.72 586.54,470.635C568.669,474.899 569.033,475.887 567.471,476.176C558.328,477.865 428.133,514.402 425.397,515.051C400.897,520.863 398.88,500.663 388.329,478.569C371.991,444.359 372.42,444.172 370.929,441.233C366.824,433.14 362.652,422.925 361.992,421.308C361.193,419.351 360.516,417.344 359.655,415.414C347.696,388.575 347.058,388.878 346.128,386.5L345.908,385.5L344.824,384.486C344.41,377.878 344.438,377.946 343.684,371.398L342.448,370.419Z" style="fill:rgb(236,180,29);"/>
        <path d="M513.774,183.005C528.576,191.392 535.222,222.26 503.525,230.593C485.575,235.312 460.388,207.889 480.714,187.713C496.43,172.114 512.137,182.11 513.774,183.005Z" style="fill:rgb(17,122,223);"/>
        <path d="M342.448,370.419L343.684,371.398L342.344,371.289L342.448,370.419Z" style="fill:rgb(246,207,84);"/>
    </g>
</svg>
