<?xml version="1.0" encoding="UTF-8" standalone="no"?>
<!DOCTYPE svg PUBLIC "-//W3C//DTD SVG 1.1//EN" "http://www.w3.org/Graphics/SVG/1.1/DTD/svg11.dtd">
<svg width="100%" height="100%" viewBox="0 0 1024 1024" version="1.1" xmlns="http://www.w3.org/2000/svg" xmlns:xlink="http://www.w3.org/1999/xlink" xml:space="preserve" xmlns:serif="http://www.serif.com/" style="fill-rule:evenodd;clip-rule:evenodd;stroke-linejoin:round;stroke-miterlimit:2;">
    <g id="Background" transform="matrix(1.304833,0,0,1.304833,-2.089951,150.528011)">
        <path d="M393.534,124.464C395.462,124.247 395.122,123.733 395.396,122.457C395.676,121.149 397.247,113.832 400.741,106.617C417.15,72.736 430.902,52 467.716,27.785C508.773,0.781 560.674,1.616 563.54,2.357C564.256,2.542 585.298,4.401 588.548,5.354C595.629,7.43 608.758,7.792 639.378,23.735C642.649,25.438 663.587,39.319 670.73,46.265C691.033,66.011 727.755,104.537 727.067,177.5C727.02,182.548 726.748,211.377 715.654,239.562C701.33,275.95 694.957,276.016 696.567,281.184C684.467,281.799 684.53,280.759 672.537,281.719C588.594,281.596 587.816,283.062 584.84,280.149C581.571,276.95 562.337,248.2 546.703,261.736C540.598,267.02 536.033,285.893 531.514,292.516C518.682,287.225 518.856,286.62 513.963,286.074C510.134,283.076 506.608,266.052 477.424,174.525C470.102,151.562 452.382,160.6 448.776,167.64C446.417,172.248 418.133,258.855 415.355,265.404C415.113,265.368 415.025,265.898 414.783,265.862C411.394,265.369 411.622,263.983 393.536,263.779C394.898,258.123 393.837,138.367 393.74,127.462C393.771,126.695 393.801,125.928 393.832,125.162L393.534,124.464Z" style="fill:rgb(71,207,191);"/>
        <path d="M393.534,124.464L393.832,125.162C393.801,125.928 393.771,126.695 393.74,127.462C393.837,138.367 394.898,258.123 393.536,263.779C362.884,264.045 363.001,265.894 351.98,266.152C347.615,256.046 317.782,150.651 313.424,144.554C305.955,134.102 291.703,138.304 288.483,148.493C286.253,155.554 263.331,225.07 248.186,272.399C247.131,275.696 235.274,312.751 234.446,313.429C232.912,314.685 233.099,313.088 228.084,304.747C221.137,293.194 221.464,282.447 203.494,281.968C182.173,281.398 104.138,281.84 95.499,281.889C92.844,281.904 91.547,280.517 91.508,280.499C88.782,273.435 76.21,256.497 67.652,224.447C63.684,209.585 59.754,192.781 60.162,167.487C60.179,166.421 61.091,155.497 61.178,154.455C62.138,142.942 71.06,104.037 86.194,83.278C90.866,76.869 90.356,76.589 95.193,70.243C152.172,-4.497 244.839,-10.943 305.382,19.742C315.15,24.692 371.726,53.367 393.534,124.464Z" style="fill:rgb(45,129,223);"/>
        <path d="M446.45,267.502C448.505,268.098 470.363,271.669 473.468,272.739C475.222,273.344 475.406,272.569 476.561,272.499C477.032,274.063 478.335,278.023 478.493,278.502C480.597,284.893 498.314,338.711 504.144,358.601C504.706,360.519 509.473,376.779 525.513,371.536C536.478,367.951 548.178,323.695 558.456,306.49C573.111,316.347 574.126,314.725 577.368,317.666C581.631,321.533 620.83,349.656 629.757,361.773C621.468,370.102 621.479,370.009 620.805,370.768C617.959,373.972 617.83,373.715 614.761,376.768C607.972,383.521 570.223,421.069 525.754,456.802C501.749,476.09 501.846,476.138 499.758,477.809C483.164,491.092 458.098,511.99 408.744,545.801C393.414,556.303 390.571,553.877 361.614,534.324C359.851,533.133 344.421,522.714 339.756,519.186C335.341,515.846 294.316,484.813 284.764,477.183C220.371,425.744 166.999,372.408 157.305,362.721C160.956,356.449 185.971,334.562 203.063,322.488C210.578,332.177 216.673,346.901 222.949,357.262C229.742,368.476 240.041,367.778 246.226,363.135C253.908,357.368 267.055,303.449 275.395,284.509C279.853,284.379 308.525,272.737 321.13,272.302C323.688,275.701 323.083,276.051 361.751,401.415C368.822,424.34 369.589,428.425 375.655,431.169C391.578,438.371 396.587,415.729 397.658,412.551C401.571,400.951 444.364,274.063 446.45,267.502Z" style="fill:rgb(160,217,84);"/>
        <path d="M415.355,265.404C418.133,258.855 446.417,172.248 448.776,167.64C452.382,160.6 470.102,151.562 477.424,174.525C506.608,266.052 510.134,283.076 513.963,286.074C512.1,292.453 518.835,304.75 520.154,311.585C520.205,311.848 521.325,317.656 523.056,313.268C526.761,303.873 527.76,304.381 530.867,294.723C530.998,294.239 531.129,293.756 531.261,293.272L531.514,292.516C536.033,285.893 540.598,267.02 546.703,261.736C562.337,248.2 581.571,276.95 584.84,280.149C587.816,283.062 588.594,281.596 672.537,281.719C670.733,285.014 668.279,284.725 669.248,304.515C669.466,308.977 672.869,312.491 673.48,312.96C673.744,313.163 674.214,312.772 674.478,312.974C673.011,313.249 673.09,313.224 671.738,313.799C671.24,313.564 671.011,312.925 670.513,312.69C669.196,312.07 669.109,313.048 650.501,313.076C580.522,313.18 580.449,313.754 574.515,312.434C566.314,310.609 561.625,299.816 558.456,306.49C548.178,323.695 536.478,367.951 525.513,371.536C509.473,376.779 504.706,360.519 504.144,358.601C498.314,338.711 480.597,284.893 478.493,278.502C478.335,278.023 477.032,274.063 476.561,272.499C475.402,268.556 462.159,223.507 461.585,223.349C459.439,222.761 459.931,225.642 456.711,235.569C451.521,251.572 451.102,251.337 446.45,267.502C444.364,274.063 401.571,400.951 397.658,412.551C396.587,415.729 391.578,438.371 375.655,431.169C369.589,428.425 368.822,424.34 361.751,401.415C323.083,276.051 323.688,275.701 321.13,272.302C321.794,269.739 321.209,269.697 311.963,239.369C303.891,212.89 301.359,200.87 299.79,206.613C293.102,231.094 285.69,251.185 275.395,284.509C267.055,303.449 253.908,357.368 246.226,363.135C240.041,367.778 229.742,368.476 222.949,357.262C216.673,346.901 210.578,332.177 203.063,322.488C200.021,310.52 191.246,313.226 181.505,313.124C176.899,313.075 116.619,313.145 116.486,313.235C116.05,313.53 115.952,314.187 115.515,314.483C113.507,313.126 113.366,312.748 88.5,313.073C84.42,313.127 60.021,313.446 37.501,313.072C15.338,312.703 14.758,314.494 9.272,310.797C-5.968,300.529 5.694,286.346 7.404,285.354C15.135,280.868 15.526,281.909 24.498,281.915C87.783,281.957 87.981,282.236 91.508,280.499C91.547,280.517 92.844,281.904 95.499,281.889C104.138,281.84 182.173,281.398 203.494,281.968C221.464,282.447 221.137,293.194 228.084,304.747C233.099,313.088 232.912,314.685 234.446,313.429C235.274,312.751 247.131,275.696 248.186,272.399C263.331,225.07 286.253,155.554 288.483,148.493C291.703,138.304 305.955,134.102 313.424,144.554C317.782,150.651 347.615,256.046 351.98,266.152C352.391,269.074 352.855,272.378 362.339,301.552C371.271,329.026 380.616,365.04 381.446,365.596C382.804,366.505 383.263,363.539 385.059,358.351C387.759,350.55 392.558,335.407 393.192,333.406C394.921,327.951 414.045,267.607 415.355,265.404Z" style="fill:rgb(248,219,76);"/>
        <path d="M672.537,281.719C684.53,280.759 684.467,281.799 696.567,281.184C707.201,281.198 757.583,281.052 758.524,281.201C763.54,281.996 763.484,281.187 768.499,281.176C787.379,281.136 794.276,305.461 774.426,312.312C769.391,314.05 682.474,313.065 674.478,312.974C674.214,312.772 673.744,313.163 673.48,312.96C672.869,312.491 669.466,308.977 669.248,304.515C668.279,284.725 670.733,285.014 672.537,281.719Z" style="fill:rgb(241,124,53);"/>
        <path d="M393.536,263.779C411.622,263.983 411.394,265.369 414.783,265.862C415.025,265.898 415.113,265.368 415.355,265.404C414.045,267.607 394.921,327.951 393.192,333.406C392.558,335.407 387.759,350.55 385.059,358.351C383.263,363.539 382.804,366.505 381.446,365.596C380.616,365.04 371.271,329.026 362.339,301.552C352.855,272.378 352.391,269.074 351.98,266.152C363.001,265.894 362.884,264.045 393.536,263.779Z" style="fill:rgb(157,216,82);"/>
        <path d="M558.456,306.49C561.625,299.816 566.314,310.609 574.515,312.434C580.449,313.754 580.522,313.18 650.501,313.076C669.109,313.048 669.196,312.07 670.513,312.69C671.011,312.925 671.24,313.564 671.738,313.799C670.243,315.407 670.623,315.633 669.218,317.254C668.205,318.422 653.573,336.01 653.29,336.303C650.833,338.858 637.442,355.466 629.757,361.773C620.83,349.656 581.631,321.533 577.368,317.666C574.126,314.725 573.111,316.347 558.456,306.49Z" style="fill:rgb(68,207,188);"/>
        <path d="M115.515,314.483C115.952,314.187 116.05,313.53 116.486,313.235C116.619,313.145 176.899,313.075 181.505,313.124C191.246,313.226 200.021,310.52 203.063,322.488C185.971,334.562 160.956,356.449 157.305,362.721C147.338,352.592 148.102,351.962 138.242,341.756C129.247,332.446 119.419,319.181 115.515,314.483Z" style="fill:rgb(40,127,220);"/>
        <path d="M321.13,272.302C308.525,272.737 279.853,284.379 275.395,284.509C285.69,251.185 293.102,231.094 299.79,206.613C301.359,200.87 303.891,212.89 311.963,239.369C321.209,269.697 321.794,269.739 321.13,272.302Z" style="fill:rgb(40,127,218);"/>
        <path d="M446.45,267.502C451.102,251.337 451.521,251.572 456.711,235.569C459.931,225.642 459.439,222.761 461.585,223.349C462.159,223.507 475.402,268.556 476.561,272.499C475.406,272.569 475.222,273.344 473.468,272.739C470.363,271.669 448.505,268.098 446.45,267.502Z" style="fill:rgb(68,205,186);"/>
        <path d="M513.963,286.074C518.856,286.62 518.682,287.225 531.514,292.516L531.261,293.272C531.129,293.756 530.998,294.239 530.867,294.723C527.76,304.381 526.761,303.873 523.056,313.268C521.325,317.656 520.205,311.848 520.154,311.585C518.835,304.75 512.1,292.453 513.963,286.074Z" style="fill:rgb(153,217,80);"/>
    </g>
</svg>
