<?xml version="1.0" encoding="UTF-8" standalone="no"?>
<!DOCTYPE svg PUBLIC "-//W3C//DTD SVG 1.1//EN" "http://www.w3.org/Graphics/SVG/1.1/DTD/svg11.dtd">
<svg width="100%" height="100%" viewBox="0 0 1024 1024" version="1.1" xmlns="http://www.w3.org/2000/svg" xmlns:xlink="http://www.w3.org/1999/xlink" xml:space="preserve" xmlns:serif="http://www.serif.com/" style="fill-rule:evenodd;clip-rule:evenodd;stroke-linejoin:round;stroke-miterlimit:2;">
    <g id="Background" transform="matrix(1.554771,0,0,1.554771,-3.038566,3.258879)">
        <path d="M573.348,188.628C596.42,229.738 599.005,244.492 604.307,264.576C648.465,476.259 477.237,565.202 435.501,581.501C303.231,633.158 183.054,579.727 119.539,508.466C111.498,499.444 111.683,499.533 103.988,490.254C104.789,489.53 292.018,365.973 295.5,367.88C295.747,368.016 295.856,368.335 296.103,368.471C296.05,369.789 292.678,398.996 298.506,399.402C298.703,399.416 355.642,399.735 356.389,399.277C364.374,394.376 346.503,380.024 394.106,339.031C435.476,303.405 441.301,294.822 451.947,263.638C461.594,261.614 558.752,195.667 573.348,188.628Z" style="fill:var(--icon-secondary, #FAED72);"/>
        <path d="M573.348,188.628C558.752,195.667 461.594,261.614 451.947,263.638C481.9,127.79 255.413,90.959 203.408,222.461C201.353,227.659 215.345,231.028 234.273,240.923C263.149,256.019 263.944,255.434 264.503,254.503C267.029,250.296 282.204,206.472 329.511,204.913C363.872,203.78 404.514,239.898 352.143,288.126C313.641,323.582 301.114,337.556 296.103,368.471C295.856,368.335 295.747,368.016 295.5,367.88C292.018,365.973 104.789,489.53 103.988,490.254C83.034,461.709 77.174,447.54 65.183,419.579C-22.017,163.894 267.857,-52.976 492.833,102.043C542.03,135.942 568.515,180.497 573.348,188.628Z" style="fill:var(--icon-accent, #8FD3F5);"/>
        <path d="M573.348,188.628C568.515,180.497 542.03,135.942 492.833,102.043C267.857,-52.976 -22.017,163.894 65.183,419.579C57.593,426.536 29.306,442.538 24.321,446.59C21.099,437.486 -24.409,334.421 24.41,208.464C111.724,-16.809 441.536,-86.203 604.833,148.234C632.488,187.937 645.131,230.873 647.387,238.534C646.116,239.844 615.996,261.68 604.307,264.576C599.005,244.492 596.42,229.738 573.348,188.628Z" style="fill:var(--icon-detail, #168FD9);"/>
        <path d="M647.387,238.534C703.113,417.009 576.857,653.801 317.496,651.832C237.568,651.226 86.119,599.669 24.321,446.59C29.306,442.538 57.593,426.536 65.183,419.579C77.174,447.54 83.034,461.709 103.988,490.254C111.683,499.533 111.498,499.444 119.539,508.466C183.054,579.727 303.231,633.158 435.501,581.501C477.237,565.202 648.465,476.259 604.307,264.576C615.996,261.68 646.116,239.844 647.387,238.534Z" style="fill:var(--icon-surface, #4FC46B);"/>
        <path d="M451.947,263.638C441.301,294.822 435.476,303.405 394.106,339.031C346.503,380.024 364.374,394.376 356.389,399.277C355.642,399.735 298.703,399.416 298.506,399.402C292.678,398.996 296.05,369.789 296.103,368.471C301.114,337.556 313.641,323.582 352.143,288.126C404.514,239.898 363.872,203.78 329.511,204.913C282.204,206.472 267.029,250.296 264.503,254.503C263.944,255.434 263.149,256.019 234.273,240.923C215.345,231.028 201.353,227.659 203.408,222.461C255.413,90.959 481.9,127.79 451.947,263.638Z" style="fill:var(--icon-primary, #164A87);"/>
        <path d="M322.583,428.898C381.765,423.812 383.993,481.382 367.143,501.216C330.259,544.632 265.673,497.903 289.928,452.711C300.755,432.537 320.149,429.721 322.583,428.898Z" style="fill:var(--icon-primary, #154985);"/>
    </g>
</svg>
