<?xml version="1.0" encoding="UTF-8" standalone="no"?>
<!DOCTYPE svg PUBLIC "-//W3C//DTD SVG 1.1//EN" "http://www.w3.org/Graphics/SVG/1.1/DTD/svg11.dtd">
<svg width="100%" height="100%" viewBox="0 0 1024 1024" version="1.1" xmlns="http://www.w3.org/2000/svg" xmlns:xlink="http://www.w3.org/1999/xlink" xml:space="preserve" xmlns:serif="http://www.serif.com/" style="fill-rule:evenodd;clip-rule:evenodd;stroke-linejoin:round;stroke-miterlimit:2;">
    <g id="Background" transform="matrix(1.823432,0,0,1.823432,-3.47671,57.096513)">
        <path d="M414.597,64.38C416.962,67.734 416.843,67.678 418.997,71.282C411.46,77.523 411.062,77.228 407.217,84.336C401.148,95.554 385.74,95.171 393.018,104.778C394.361,106.55 394.164,113.841 399.427,111.336C404.469,108.936 405.502,107.845 407.174,109.75C408.238,110.408 408.236,110.223 409.513,110.198C412.482,110.138 411.379,122.969 418.555,117.559C421.875,115.055 418.33,113.162 422.044,107.229C423.627,104.701 414.407,103.52 421.971,93.854C425.112,89.84 424.143,85.911 428.4,88.671C433.554,92.014 429.556,93.151 428.938,95.641C428.636,96.859 430.952,98.722 430.665,100.514C429.838,105.668 438.486,101.731 439.514,105.494C440.369,108.622 434.547,108.457 432.301,109.333C430.282,112.961 431.788,113.06 432.73,114.724C432.041,120.355 427.659,121.833 426.507,121.875C423.417,121.987 412.878,124.643 409.451,123.88C405.649,123.033 401.836,129.335 403.713,125.5C404.456,123.981 404.515,124.099 404.769,122.415C405.667,121.764 406.566,121.113 407.464,120.462C408.062,120.617 408.318,119.862 409.167,120.902C409.709,121.565 409.608,121.735 410.463,121.746C413.011,121.781 409.999,118.613 409.812,118.417C409.114,116.734 409.025,116.753 409.058,116.599C409.34,115.312 409.816,115.72 409.789,115.627C409.741,115.466 409.08,113.245 407.806,114.961C405.782,117.687 406.542,118.016 406.371,118.245C405.226,119.778 404.719,118.974 403.336,120.268C401.216,123.645 402.447,125.492 398.282,128.191C393.392,131.362 393.944,132.185 388.448,134.281C388.054,134.391 387.894,133.39 387.5,133.501C387.5,133.501 386.492,135.267 386.405,135.421C383.455,138.072 383.376,137.869 380.319,140.292C378.771,141.518 378.921,141.564 378.223,143.408C377.686,144.826 375.537,145.072 378.504,149.497C378.512,149.509 386.972,155.951 379.427,157.089C376.05,157.598 361.679,154.461 364.295,160.585C365.291,162.917 359.315,171.568 361.636,175.408C364.223,179.687 364.837,179.056 368.218,180.874C370.534,182.12 362.302,192.671 361.597,193.574C357.374,198.987 360.038,200.392 355.725,205.686C349.327,213.538 346.92,213.165 345.21,217.38C339.012,232.656 338.992,233.01 341.017,240.65C343.066,248.377 335.893,250.331 342.905,260.213C343.538,261.104 357.851,278.917 362.373,280.788C367.921,283.085 368.026,280.705 376.482,280.141C382.861,279.716 384.948,277.359 390.557,278.085C393.065,278.41 392.979,278.719 395.412,278.181C398.02,277.605 399.361,281.835 403.5,281.724C404.973,281.684 410.236,280.176 412.172,284.621C413.322,287.263 410.232,297.496 409.904,298.579C408.756,302.383 416.014,303.901 417.752,311.448C420.355,322.751 422.915,323.28 417.767,333.634C413.248,342.722 420.905,342.821 421.919,365.496C422.092,369.35 425.883,371.368 425.784,377.497C425.783,377.565 424.476,385.041 427.547,387.439C431.208,390.3 435.139,384.443 444.535,383.899C448.674,383.659 447.756,381.936 458.271,371.26C465.419,364.003 462.236,361.413 470.166,355.08C475.288,350.989 467.69,345.542 473.638,342.808C485.812,337.214 487.473,335.749 485.011,322.553C479.954,295.445 500.531,298.255 510.789,271.607C514.794,261.203 520.49,249.098 510.356,254.216C499.393,259.754 494.667,260.666 492.909,248.458C491.873,241.27 486.463,235.029 480.705,218.422C480.073,216.601 465.625,189.801 475.443,200.555C477.146,202.42 476.417,202.961 481.875,208.016C485.113,211.014 485.231,211.145 485.379,215.51C485.459,217.874 489.048,219.751 490.292,223.56C490.704,224.823 492.151,229.252 497.185,238.665C498.445,241.019 499.124,242.625 496.439,242.112C491.695,241.204 498.867,245.928 498.859,248.466C498.852,250.775 498.851,252.217 500.694,250.92C513.618,241.826 520.726,242.101 522.668,235.568C523.224,233.696 533.948,225.184 528.739,219.302C524.554,214.575 524.789,214.491 522.967,212.065C520.201,208.384 521.039,213.586 520.269,214.122C518.329,215.472 517.225,213.545 510.752,207.247C507.306,203.893 501.061,190.72 508.703,199.217C512.501,203.439 519.415,206.198 520.446,206.609C521.518,207.037 525.806,211.157 526.502,211.495C531.762,214.051 531.965,213.151 537.86,213.421C539.612,225.956 549.585,297.296 502.815,367.703C475.916,408.196 462.09,412.49 461.968,417.167C458.133,415.805 449.512,410.354 434.509,411.592C423.199,412.526 413.414,419.766 411.837,420.933C403.695,426.957 399.199,436.202 398.066,438.143C392.731,439.002 308.806,416.886 243.431,384.585C251.287,375.697 253.414,376.962 257.528,364.511C259.022,359.99 267.189,360.025 268.201,359.112C277.383,350.823 276.486,349.815 277.63,337.518C278.342,329.857 292.625,318.415 289.593,311.453C288.774,309.574 279.542,305.088 275.397,303.901C269.28,302.148 269.715,301.158 263.588,299.257C256.027,296.91 256.757,295.496 249.492,292.535C249.063,292.344 247.259,291.539 244.383,289.631C242.935,288.67 244.407,285.269 244.236,284.553C242.252,276.274 230.867,274.96 229.46,274.797C217.408,273.406 218.158,261.929 214.531,261.333C209.343,260.48 209.082,260.612 208.662,260.825C206.207,262.071 206.244,260.017 203.468,260.239C202.072,260.35 202.021,260.543 196.576,258.338C193.459,257.076 193.468,257.995 190.379,259.067C187.22,260.163 186.785,249.321 183.696,255.584C181.993,259.039 181.001,257.782 177.528,259.551C177.164,259.736 167.892,258.516 163.461,259.261C154.955,260.69 156.811,252.994 159.226,248.35C161.638,243.714 155.753,243.375 152.551,242.341C148.891,241.16 148.366,244.673 146.411,242.59C143.505,239.495 153.034,227.363 149.318,225.898C141.043,222.634 141.785,227.104 135.295,233.26C133.991,234.497 126.403,232.303 124.929,231.098C120.651,227.598 120.756,203.649 135.558,200.876C141.638,199.737 141.529,204.459 144.605,202.62C146.182,201.677 145.386,195.676 158.416,200.694C164.343,202.976 158.808,213.243 167.436,213.028C168.124,213.519 168.811,214.01 169.499,214.501C170.384,215.228 170.275,215.716 171.389,215.282C174.214,214.181 170.707,212.655 170.497,212.564L169.069,212.572C168.272,207.496 169.448,207.557 169.163,202.523C168.875,197.421 168.642,196.515 178.156,190.024C185.738,184.851 183.821,181.494 186.647,178.645C196.588,168.622 193.691,165.323 206.359,159.248C210.854,157.092 213.247,153.536 217.515,154.237C222.989,155.137 223.033,154.521 227.774,151.71C230.197,151.742 230.233,151.53 231.466,149.488C232.429,147.893 233.149,149.221 234.386,148.308C238.342,145.387 238.616,144.558 244.453,146.612C247.56,147.705 250.854,143.584 249.506,141.496C247.281,138.051 247.233,138.183 245.207,134.659C246.081,133.554 245.994,133.343 247.449,133.268C249.959,133.138 248.957,131.101 248.321,130.971C248.072,130.92 248.089,130.937 245.179,130.514C245.131,130.183 244.844,128.236 244.837,126.345C244.834,125.478 244.56,125.686 243.937,125.102C243.023,124.246 242.578,122.734 242.511,122.507C245.828,119.296 313.472,91.469 327.519,88.761C327.318,89.025 326.759,88.754 326.558,89.018C326.151,89.55 323.92,92.782 333.472,93.749C341.953,94.608 342.485,86.933 338.537,87.831C334.976,88.641 335.066,88.662 331.364,88.913C329.994,89.006 330.213,88.489 329.272,88.143C332.689,85.729 392.735,68.275 414.597,64.38Z" style="fill:rgb(19,112,204);fill-opacity:1;"/>
        <path d="M418.997,71.282C430.006,82.661 430.86,81.559 439.467,85.585C457.744,94.134 475.978,82.988 476.785,82.728C477.474,84.714 477.27,84.804 478.71,86.309C489.469,97.552 504.078,119.728 506.084,122.774C522.828,148.192 536.63,190.881 537.86,213.421C531.965,213.151 531.762,214.051 526.502,211.495C525.806,211.157 521.518,207.037 520.446,206.609C519.415,206.198 512.501,203.439 508.703,199.217C501.061,190.72 507.306,203.893 510.752,207.247C517.225,213.545 518.329,215.472 520.269,214.122C521.039,213.586 520.201,208.384 522.967,212.065C524.789,214.491 524.554,214.575 528.739,219.302C533.948,225.184 523.224,233.696 522.668,235.568C520.726,242.101 513.618,241.826 500.694,250.92C498.851,252.217 498.852,250.775 498.859,248.466C498.867,245.928 491.695,241.204 496.439,242.112C499.124,242.625 498.445,241.019 497.185,238.665C492.151,229.252 490.704,224.823 490.292,223.56C489.048,219.751 485.459,217.874 485.379,215.51C485.231,211.145 485.113,211.014 481.875,208.016C476.417,202.961 477.146,202.42 475.443,200.555C465.625,189.801 480.073,216.601 480.705,218.422C486.463,235.029 491.873,241.27 492.909,248.458C494.667,260.666 499.393,259.754 510.356,254.216C520.49,249.098 514.794,261.203 510.789,271.607C500.531,298.255 479.954,295.445 485.011,322.553C487.473,335.749 485.812,337.214 473.638,342.808C467.69,345.542 475.288,350.989 470.166,355.08C462.236,361.413 465.419,364.003 458.271,371.26C447.756,381.936 448.674,383.659 444.535,383.899C435.139,384.443 431.208,390.3 427.547,387.439C424.476,385.041 425.783,377.565 425.784,377.497C425.883,371.368 422.092,369.35 421.919,365.496C420.905,342.821 413.248,342.722 417.767,333.634C422.915,323.28 420.355,322.751 417.752,311.448C416.014,303.901 408.756,302.383 409.904,298.579C410.232,297.496 413.322,287.263 412.172,284.621C410.236,280.176 404.973,281.684 403.5,281.724C399.361,281.835 398.02,277.605 395.412,278.181C392.979,278.719 393.065,278.41 390.557,278.085C384.948,277.359 382.861,279.716 376.482,280.141C368.026,280.705 367.921,283.085 362.373,280.788C357.851,278.917 343.538,261.104 342.905,260.213C335.893,250.331 343.066,248.377 341.017,240.65C338.992,233.01 339.012,232.656 345.21,217.38C346.92,213.165 349.327,213.538 355.725,205.686C360.038,200.392 357.374,198.987 361.597,193.574C362.302,192.671 370.534,182.12 368.218,180.874C364.837,179.056 364.223,179.687 361.636,175.408C359.315,171.568 365.291,162.917 364.295,160.585C361.679,154.461 376.05,157.598 379.427,157.089C386.972,155.951 378.512,149.509 378.504,149.497C375.537,145.072 377.686,144.826 378.223,143.408C378.921,141.564 378.771,141.518 380.319,140.292C383.376,137.869 383.455,138.072 386.405,135.421C387.086,135.041 387.767,134.661 388.448,134.281C393.944,132.185 393.392,131.362 398.282,128.191C402.447,125.492 401.216,123.645 403.336,120.268C403.814,120.984 404.291,121.699 404.769,122.415C404.515,124.099 404.456,123.981 403.713,125.5C401.836,129.335 405.649,123.033 409.451,123.88C412.878,124.643 423.417,121.987 426.507,121.875C427.659,121.833 432.041,120.355 432.73,114.724C434.997,113.918 435.113,113.595 435.189,113.385C435.751,111.824 434.286,112.392 432.301,109.333C434.547,108.457 440.369,108.622 439.514,105.494C438.486,101.731 429.838,105.668 430.665,100.514C430.952,98.722 428.636,96.859 428.938,95.641C429.556,93.151 433.554,92.014 428.4,88.671C424.143,85.911 425.112,89.84 421.971,93.854C414.407,103.52 423.627,104.701 422.044,107.229C418.33,113.162 421.875,115.055 418.555,117.559C411.379,122.969 412.482,110.138 409.513,110.198C408.236,110.223 408.238,110.408 407.174,109.75C405.502,107.845 404.469,108.936 399.427,111.336C394.164,113.841 394.361,106.55 393.018,104.778C385.74,95.171 401.148,95.554 407.217,84.336C411.062,77.228 411.46,77.523 418.997,71.282Z" style="fill:rgb(70,217,208);fill-opacity:1;"/>
        <path d="M73.542,285.943C77.459,287.483 77.066,288.013 80.231,290.812C132.994,337.472 195.057,370.476 197.47,372.523C198.72,379.75 200.208,382.819 199.946,387.537C199.28,399.542 202.402,402.751 203.323,403.698C205.172,405.598 203.633,407.268 204.715,409.405C204.843,409.657 204.834,409.638 206.312,412.546L205.649,413.542C205.611,413.636 204.016,415.257 205.676,417.402C206.581,418.572 205.885,419.618 205.871,419.648C204.522,422.6 210.131,424.856 211.216,426.674C213.693,430.826 214.738,429.524 218.338,431.826C219.231,432.397 229.291,438.831 231.107,435.34C232.284,433.079 230.04,434.707 227.553,434.027C222.034,432.519 220.044,427.218 219.738,426.4C219.126,424.77 210.445,420.062 218.52,421.553C218.809,421.507 219.098,421.461 219.387,421.415C220.689,416.607 221.217,416.948 221.606,416.644C226.301,412.973 224.88,411.564 220.74,407.283C217.301,403.727 222.78,403.65 223.631,401.56C226.161,395.347 227.344,396.236 234.509,391.441C237.594,392.4 248.025,397.895 276.312,409.906C322.07,429.336 389.976,448.473 395.434,447.468C394.237,450.665 394.574,456.226 394.566,457.507C394.559,458.691 394.081,458.408 393.497,459.491C385.532,464.022 344.802,478.964 308.505,479.863C262.414,481.005 252.948,475.465 235.455,472.757C224.359,471.04 177.297,453.903 149.789,432.151C138.979,423.604 83.572,383.386 62.397,302.535C61.337,298.487 61.36,298.59 60.281,294.638C60.843,292.714 60.933,292.753 62.695,291.943C68.354,289.339 67.858,288.534 73.542,285.943Z" style="fill:rgb(20,112,203);"/>
        <path d="M411.36,30.814C413.469,35.548 409.343,35.787 410.557,54.515C410.003,55.031 410.302,55.279 409.5,55.5C390.161,60.819 389.828,59.264 370.635,64.996C320.15,80.073 320.196,79.989 281.506,94.901C281.739,92.792 281.915,92.774 283.735,91.774C288.564,89.12 301.25,83.259 303.285,79.306C303.384,79.487 304.521,81.571 304.521,81.571C304.927,81.773 308.131,79.384 308.425,79.164C316.794,75.907 318.661,76.358 317.747,72.458C317.2,70.124 319.074,71.286 320.78,69.548L321.327,67.277C325.074,65.528 321.454,64.886 321.263,64.852C319.869,64.605 320.456,64.073 320.937,62.809C323.854,62.106 324.431,62.715 325.791,59.819C326.323,59.308 325.94,58.945 327.415,58.261C330.194,56.972 329.262,55.693 326.565,54.291C323.145,52.513 327.139,52.098 328.733,48.537C330.627,46.071 331.219,44.963 328.29,44.011C327.99,43.914 327.69,44.398 327.39,44.3C333.785,42.558 344.966,36.282 334.465,38.088C331.343,38.624 323.484,38.637 323.414,38.631C324.667,35.153 322.908,35.615 322.535,35.385C322.408,35.307 322.621,33.118 313.565,33.387C303.645,31.952 293.471,37.216 289.542,37.086C285.98,36.967 286.069,37.761 282.501,37.48C281.701,37.416 281.808,38.532 272.471,37.929C271.664,37.877 268.804,37.692 262.398,38.806C260.501,34.603 259.218,35.8 243.497,35.659C240.647,35.633 220.136,38.292 218.714,38.967C216.817,39.866 216.933,39.968 215.466,41.464C215.072,41.714 214.678,41.965 214.284,42.215C212.841,41.81 212.845,42.218 211.403,41.731C208.783,41.986 209.013,42.644 206.393,43.075C204.045,43.462 205.276,44.549 204.858,46.559C202.988,55.559 209.12,55.677 212.529,56.364C218.821,57.633 221.051,55.073 221.534,54.518C222.046,54.069 221.747,53.882 222.297,53.399C222.468,53.248 222.463,53.269 224.543,51.644C232.997,45.906 239.09,44.951 239.543,44.848C244.722,48.323 245.216,47.039 245.594,47.405C249.25,50.939 238.278,48.679 238.489,51.502C238.557,52.411 243.142,54.187 243.537,54.443C249.475,58.289 253.952,53.267 259.332,58.67C261.069,60.415 263.187,67.44 263.175,67.503C263.033,68.218 262.423,68.786 262.291,69.503C262.075,70.679 267.215,70.987 264.398,73.4C262.701,74.854 263.608,75.238 263.16,77.361C262.266,79.406 262.167,79.417 262.853,81.585C260.443,87.021 260.339,87.009 260.414,87.517C261.686,96.122 265.114,98.499 266.254,100.325C263.131,103.565 246.253,108.455 238.46,113.412C235.026,111.36 235.963,110.36 232.744,108.123C231.057,106.951 231.452,105.61 228.427,106.201C224.801,106.909 224.823,106.733 221.355,107.983L220.585,105.457C216.604,102.206 216.513,97.896 205.217,100.01C202.816,100.459 205.015,102.4 204.257,105.436C203.217,109.602 204.291,116.845 201.154,119.047C195.97,122.687 202.279,126.37 197.14,130.044C190.611,134.71 186.577,133.425 187.809,125.54C188.435,121.524 186.675,122.081 177.411,116.666C174.49,114.958 160.463,113.359 171.914,103.974C181.938,95.758 185.323,97.869 186.489,92.498C187.089,89.736 188.197,91.116 190.755,92.252C189.741,94.349 189.727,94.327 189.66,94.517C189.014,96.373 190.819,99.741 191.944,96.724C192.552,95.096 192.516,95.175 193.479,93.747C198.633,94.353 192.272,98.397 194.523,99.441C195.552,99.918 200.837,96.125 199.151,92.624C196.266,86.633 199.869,87.09 204.296,82.138C204.453,81.962 208,81.171 208.91,75.542C209.499,71.902 208.204,69.188 211.412,70.785C212.265,71.21 214.233,73.308 214.458,73.548C214.677,73.782 214.731,73.839 218.456,73.578C218.4,74.218 218.343,74.858 218.287,75.498C218.36,76.183 217.558,75.81 217.633,76.515C217.644,76.62 217.703,77.18 218.499,77.503C218.83,77.637 219.218,77.157 219.549,77.291C222.337,77.932 220.8,79.049 219.349,81.504C219.892,83.454 219.874,83.447 219.936,83.61C220.124,84.11 220.276,83.956 220.463,84.452C219.991,84.706 219.518,84.959 219.046,85.212C216.23,85.828 216.576,86.34 214.343,88.063C214.084,88.211 209.562,90.789 212.561,91.335C214.148,91.624 214.028,91.729 215.42,92.537C217.232,94.69 218.672,92.503 220.171,94.853C221.491,96.923 230.804,101.209 231.557,100.58C231.835,100.347 231.673,99.799 231.951,99.566C232.116,98.831 232.281,98.097 232.447,97.362C232.665,97.255 233.605,97.519 234.871,95.806C235.7,94.685 235.306,93.596 235.359,93.477C236.108,91.786 237.392,92.44 237.509,92.38C240.941,92.491 238.941,90.681 237.783,87.444C237.102,85.541 243.265,85.662 243.534,85.632C248.152,85.115 242.124,81.28 241.795,81.07C238.315,78.856 241.218,75.734 234.61,73.182C231.507,71.983 234.454,69.289 231.336,67.947C223.14,64.419 218.594,65.08 217.476,65.242C214.334,65.698 214.033,63.678 215.757,62.859C216.273,62.614 216.879,62.591 217.384,62.325C219.188,61.376 218.321,60.559 216.341,59.924C212.691,58.753 212.332,59.094 210.02,62.242C208.001,64.991 201.494,62.352 202.176,68.552C200.813,70.215 200.947,72.077 199.54,70.405C199.114,69.899 199.218,69.074 198.793,68.568C199.976,62.164 201.303,62.713 207.356,60.265C209.596,59.359 207.393,59.009 205.486,57.67C205.171,57.642 204.857,57.615 204.543,57.587C201.183,60.023 199.012,61.28 198.512,61.57C197.328,61.404 197.37,61.409 196.559,60.469C194.834,58.196 194.061,58.938 192.619,56.473C192.276,55.888 193.414,51.84 190.72,52.929C190.306,53.097 189.956,53.392 189.551,53.58C187.516,54.528 180.505,52.648 182.803,56.289C183.531,57.444 188.461,56.121 189.365,57.616C191.109,60.497 191.191,60.351 193.364,62.826C194.169,63.424 194.974,64.021 195.78,64.619C192.499,68.164 195.44,69.648 196.336,70.723C198.926,73.716 199.548,75.177 202.47,72.466C203.343,71.656 203.466,71.95 204.543,71.391C208.152,75.494 204.903,76.916 199.468,75.999C194.689,75.193 194.026,86.453 192.178,80.641C191.122,77.319 192.273,76.724 188.632,72.387C186.178,69.463 188.017,69.191 189.285,65.501C188.974,65.215 188.663,64.929 188.352,64.642C187.684,64.048 188.114,63.817 187.5,63.271C186.804,62.651 186.57,63.222 186.022,62.569C185.793,62.295 186.244,61.772 186.015,61.499C185.051,57.606 183.626,60.899 183.182,61.453C181.053,64.866 180.422,64.46 179.185,68.332C180.451,74.292 183.322,74.678 184.439,74.773C187.611,75.044 184.571,87.911 183.4,81.598C182.844,78.602 179.089,83.085 176.605,83.975C173.865,84.957 175.452,82.459 173.706,80.101C172.679,78.65 172.661,78.673 172.597,78.533C172.384,78.075 172.784,78.048 172.553,77.549C175.043,75.68 175.428,74.745 172.853,73.008C169.78,70.935 174.733,63.738 168.423,66.288C166.79,66.948 164.974,64.985 164.284,64.981C163.464,64.976 161.555,66.405 156.45,64.219C153.6,64.723 153.685,64.886 151.796,66.763C148.789,64.657 148.276,64.246 145.662,66.696C145.497,66.851 143.819,71.756 148.177,68C150.068,66.371 150.376,68.457 150.692,68.616C146.355,74.506 152.23,73.32 153.119,74.839C153.648,75.742 149.956,79.868 156.467,79.059C162.115,78.358 163.318,76.533 169.501,78.577C171.601,80.446 171.678,80.371 171.769,80.596C171.99,81.14 171.434,81.098 171.668,81.673C171.457,81.653 171.472,82.183 171.26,82.163C166.73,81.73 166.832,81.332 166.441,81.35C161.225,81.589 158.903,85.764 147.403,80.692C144.574,79.445 146.536,77.83 144.231,75.808C138.719,70.971 136.926,79.134 130.625,75.339C129.593,74.638 129.72,74.428 128.518,74.416C126.418,74.396 126.815,73.545 126.177,73.219C176.917,23.882 214.666,16.219 246.458,7.36C271.643,0.343 324.609,0.121 352.549,8.351C358.977,10.245 377.276,13.405 411.36,30.814Z" style="fill:rgb(18,112,200);"/>
        <path d="M217.184,135.014C217.571,135.609 217.329,136.481 217.716,137.077C217.899,137.357 218.045,137.029 221.693,138.359C221.842,138.948 221.992,139.537 222.141,140.126C220.153,142.159 218.857,143.275 218.558,143.533C218.432,143.694 216.984,145.546 216.984,145.546C217.098,147.325 217.88,146.066 219.49,145.449C225.308,143.012 223.519,147.067 223.27,147.293C220.5,149.812 223.316,151.275 226.524,149.857C226.701,149.779 226.677,149.763 228.588,148.591C227.482,150.479 227.435,150.446 227.393,150.63C227.309,151.003 227.858,151.338 227.774,151.71C223.033,154.521 222.989,155.137 217.515,154.237C213.247,153.536 210.854,157.092 206.359,159.248C193.691,165.323 196.588,168.622 186.647,178.645C183.821,181.494 185.738,184.851 178.156,190.024C168.642,196.515 168.875,197.421 169.163,202.523C169.448,207.557 168.272,207.496 169.069,212.572C168.525,212.724 167.98,212.876 167.436,213.028C158.808,213.243 164.343,202.976 158.416,200.694C145.386,195.676 146.182,201.677 144.605,202.62C141.529,204.459 141.638,199.737 135.558,200.876C120.756,203.649 120.651,227.598 124.929,231.098C126.403,232.303 133.991,234.497 135.295,233.26C141.785,227.104 141.043,222.634 149.318,225.898C153.034,227.363 143.505,239.495 146.411,242.59C148.366,244.673 148.891,241.16 152.551,242.341C155.753,243.375 161.638,243.714 159.226,248.35C156.811,252.994 154.955,260.69 163.461,259.261C167.892,258.516 177.164,259.736 177.528,259.551C181.001,257.782 181.993,259.039 183.696,255.584C186.785,249.321 187.22,260.163 190.379,259.067C193.468,257.995 193.459,257.076 196.576,258.338C202.021,260.543 202.072,260.35 203.468,260.239C206.244,260.017 206.207,262.071 208.662,260.825C209.082,260.612 209.343,260.48 214.531,261.333C218.158,261.929 217.408,273.406 229.46,274.797C230.867,274.96 242.252,276.274 244.236,284.553C244.407,285.269 242.935,288.67 244.383,289.631C247.259,291.539 249.063,292.344 249.492,292.535C256.757,295.496 256.027,296.91 263.588,299.257C269.715,301.158 269.28,302.148 275.397,303.901C279.542,305.088 288.774,309.574 289.593,311.453C292.625,318.415 278.342,329.857 277.63,337.518C276.486,349.815 277.383,350.823 268.201,359.112C267.189,360.025 259.022,359.99 257.528,364.511C253.414,376.962 251.287,375.697 243.431,384.585C236.404,382.089 213.481,370.44 198.426,361.646C196.871,345.835 201.109,342.64 187.675,334.231C182.581,331.043 180.01,329.367 168.998,310.223C163.956,301.457 163.125,301.008 166.156,291.391C167.941,285.729 167.637,285.714 170.316,280.418C171.287,278.498 172.898,267.92 172.08,266.803C166.024,258.533 158.99,268.971 153.8,261.285C147.583,252.077 149.349,249.974 141.661,247.087C137.299,245.449 134.14,240.853 128.57,239.266C126.707,238.734 108.034,233.412 106.374,229.583C100.946,217.067 101.729,216.816 101.125,215.803C99.04,212.306 101.082,211.021 97.669,208.826C108.144,200.516 156.401,166.809 171.308,160.179C173.969,162.143 174.318,162.766 178.509,160.52L179.501,161.376C181.314,162.379 181.369,163.058 182.225,162.215C183.11,161.344 180.835,159.611 180.632,159.456L179.961,158.463C180.316,156.617 180.385,156.627 180.345,156.47C180.129,155.634 179.622,156.029 179.419,155.244C182.77,153.35 182.686,153.331 185.19,152.061C187.705,153.682 188.054,155.4 189.36,153.427C190.014,152.437 189.468,152.433 188.516,150.552C192.374,147.601 208.619,138.249 217.184,135.014Z" style="fill:rgb(169,224,74);"/>
        <path d="M188.352,64.642L189.285,65.501C188.017,69.191 186.178,69.463 188.632,72.387C192.273,76.724 191.122,77.319 192.178,80.641C194.026,86.453 194.689,75.193 199.468,75.999C204.903,76.916 208.152,75.494 204.543,71.391C203.754,70.444 202.965,69.498 202.176,68.552C201.494,62.352 208.001,64.991 210.02,62.242C212.332,59.094 212.691,58.753 216.341,59.924C218.321,60.559 219.188,61.376 217.384,62.325C216.879,62.591 216.273,62.614 215.757,62.859C214.033,63.678 214.334,65.698 217.476,65.242C218.594,65.08 223.14,64.419 231.336,67.947C234.454,69.289 231.507,71.983 234.61,73.182C241.218,75.734 238.315,78.856 241.795,81.07C242.124,81.28 248.152,85.115 243.534,85.632C243.265,85.662 237.102,85.541 237.783,87.444C238.941,90.681 240.941,92.491 237.509,92.38C237.392,92.44 236.108,91.786 235.359,93.477C235.306,93.596 235.7,94.685 234.871,95.806C233.605,97.519 232.665,97.255 232.447,97.362C231.265,95.743 230.709,95.543 230.505,95.47C225.45,93.658 231.694,99.332 231.951,99.566C231.673,99.799 231.835,100.347 231.557,100.58C230.804,101.209 221.491,96.923 220.171,94.853C218.672,92.503 217.232,94.69 215.42,92.537C216.151,91.661 216.881,90.786 217.612,89.911C218.061,89.688 221.948,90.33 219.046,85.212C219.518,84.959 219.991,84.706 220.463,84.452C222.233,84.05 227.803,83.92 226.199,81.726C225.225,80.393 221.862,81.591 221.508,81.717C219.98,82.26 219.623,81.531 219.349,81.504C220.8,79.049 222.337,77.932 219.549,77.291C219.385,77.165 219.408,77.151 218.287,75.498C218.343,74.858 218.4,74.218 218.456,73.578C214.731,73.839 214.677,73.782 214.458,73.548C214.233,73.308 212.265,71.21 211.412,70.785C208.204,69.188 209.499,71.902 208.91,75.542C208,81.171 204.453,81.962 204.296,82.138C199.869,87.09 196.266,86.633 199.151,92.624C200.837,96.125 195.552,99.918 194.523,99.441C192.272,98.397 198.633,94.353 193.479,93.747C192.39,92.913 192.403,92.91 192.303,92.847C191.561,92.382 191.47,92.7 190.755,92.252C188.197,91.116 187.089,89.736 186.489,92.498C185.323,97.869 181.938,95.758 171.914,103.974C160.463,113.359 174.49,114.958 177.411,116.666C186.675,122.081 188.435,121.524 187.809,125.54C186.577,133.425 190.611,134.71 197.14,130.044C202.279,126.37 195.97,122.687 201.154,119.047C204.291,116.845 203.217,109.602 204.257,105.436C205.015,102.4 202.816,100.459 205.217,100.01C216.513,97.896 216.604,102.206 220.585,105.457C219.733,106.113 219.871,106.154 218.956,106.711C218.771,106.824 217.657,109.037 221.355,107.983C224.823,106.733 224.801,106.909 228.427,106.201C231.452,105.61 231.057,106.951 232.744,108.123C235.963,110.36 235.026,111.36 238.46,113.412C234.888,115.687 218.808,121.807 177.636,144.672C175.965,143.585 172.625,140.682 168.428,139.957C166.615,139.644 160.634,143.054 159.606,146.53C157.546,153.495 164.873,144.825 169.452,144.114C170.871,145.067 170.763,145.176 172.441,145.571L173.499,146.63C173.268,146.792 170.761,148.541 170.597,148.635C128.391,172.904 100.813,195.502 94.638,197.6C92.368,192.061 91.952,191.88 91.458,191.666C89.183,190.676 89.755,194.389 90.221,198.56C90.495,201.012 91.353,200.381 91.507,200.523C90.438,201.157 89.37,201.79 88.301,202.423C84.765,190.479 87.742,186.377 85.548,183.462C82.933,179.985 81.094,179.411 82.955,166.584C85.306,150.383 95.264,148.766 91.501,140.5C89.2,135.446 95.92,128.124 94.322,119.542C94.015,117.894 95.212,116.709 95.346,116.438C96.368,114.37 95.54,114.364 94.286,112.366C95.066,110.981 105.618,94.136 117.261,82.267C121.275,78.175 120.667,77.661 125.215,74.182C125.302,74.116 125.215,74.182 126.177,73.219C126.815,73.545 126.418,74.396 128.518,74.416C129.72,74.428 129.593,74.638 130.625,75.339C136.926,79.134 138.719,70.971 144.231,75.808C146.536,77.83 144.574,79.445 147.403,80.692C158.903,85.764 161.225,81.589 166.441,81.35C166.832,81.332 166.73,81.73 171.26,82.163C171.472,82.183 171.457,81.653 171.668,81.673C172.347,81.149 173.027,80.625 173.706,80.101C175.452,82.459 173.865,84.957 176.605,83.975C179.089,83.085 182.844,78.602 183.4,81.598C184.571,87.911 187.611,75.044 184.439,74.773C183.322,74.678 180.451,74.292 179.185,68.332C183.162,68.697 182.865,67.637 185.759,64.957C186.703,64.083 186.815,64.525 188.352,64.642Z" style="fill:rgb(169,224,76);"/>
        <path d="M97.669,208.826C101.082,211.021 99.04,212.306 101.125,215.803C101.729,216.816 100.946,217.067 106.374,229.583C108.034,233.412 126.707,238.734 128.57,239.266C134.14,240.853 137.299,245.449 141.661,247.087C149.349,249.974 147.583,252.077 153.8,261.285C158.99,268.971 166.024,258.533 172.08,266.803C172.898,267.92 171.287,278.498 170.316,280.418C167.637,285.714 167.941,285.729 166.156,291.391C163.125,301.008 163.956,301.457 168.998,310.223C180.01,329.367 182.581,331.043 187.675,334.231C201.109,342.64 196.871,345.835 198.426,361.646C148.166,334.178 103.289,298.674 90.471,286.53C89.161,285.29 89.17,285.375 87.768,284.191C80.697,278.221 81.211,277.029 80.989,276.763C96.204,255.09 85.492,230.342 78.218,224.741C77.474,224.169 77.55,223.791 77.454,223.655C79.414,223.227 79.792,223.145 97.669,208.826Z" style="fill:rgb(19,112,203);"/>
        <path d="M411.36,30.814C415.637,29.798 414.38,28.349 416.329,24.412C421.931,13.097 437.098,3.533 448.456,2.148C476.893,-1.32 489.39,19.334 491.358,22.587C506.064,46.892 493.329,61.604 492.019,68.459C489.373,71.167 489.473,71.17 487.071,74.115C484.899,76.78 484.909,76.697 484.733,76.931C477.359,82.193 477.35,82.18 476.785,82.728C475.978,82.988 457.744,94.134 439.467,85.585C430.86,81.559 430.006,82.661 418.997,71.282C416.843,67.678 416.962,67.734 414.597,64.38C413.198,57.326 411.545,55.964 410.557,54.515C409.343,35.787 413.469,35.548 411.36,30.814Z" style="fill:rgb(248,231,13);"/>
        <path d="M461.968,417.167C462.679,417.746 470.668,424.152 471.425,424.759C471.988,425.74 476.239,432.055 476.591,432.454C476.955,432.868 477.576,433.03 477.883,433.488C478.057,433.747 477.737,434.165 477.911,434.424C492.722,469.919 464.884,489.405 461.365,491.247C428.385,508.505 403.021,483.951 398.398,471.542C395.126,462.76 396.259,459.929 393.497,459.491C394.081,458.408 394.559,458.691 394.566,457.507C394.574,456.226 394.237,450.665 395.434,447.468C396.512,443.074 397.734,440.041 398.066,438.143C399.199,436.202 403.695,426.957 411.837,420.933C413.414,419.766 423.199,412.526 434.509,411.592C449.512,410.354 458.133,415.805 461.968,417.167Z" style="fill:rgb(244,120,84);fill-opacity:1;"/>
        <path d="M56.428,210.121C63.957,212.735 68.362,216.232 70.551,217.218C74.13,220.735 73.642,221.232 77.454,223.655C77.55,223.791 77.474,224.169 78.218,224.741C85.492,230.342 96.204,255.09 80.989,276.763C74.353,283.114 73.803,285.034 73.542,285.943C67.858,288.534 68.354,289.339 62.695,291.943C60.933,292.753 60.843,292.714 60.281,294.638C54.02,291.994 43.653,302.154 22.587,289.357C-8.608,270.405 -3.861,223.345 32.435,211.318C42.97,207.828 54.03,210.062 56.428,210.121Z" style="fill:rgb(243,169,26);"/>
        <path d="M492.019,68.459C495.353,76.447 513.791,95.294 524.665,113.399C566.384,182.863 561.777,235.614 561.966,256.501C562.094,270.603 556.55,298.058 555.681,300.571C550.114,316.663 548.007,344.462 506.213,400.256C497.156,412.347 480.934,428.408 477.911,434.424C477.737,434.165 478.057,433.747 477.883,433.488C477.576,433.03 476.955,432.868 476.591,432.454C476.239,432.055 471.988,425.74 471.425,424.759C474.662,423.444 474.521,421.777 483.423,412.429C532.365,361.035 585.763,257.261 527.223,137.625C516.923,116.575 508.769,107.953 502.039,97.811C501.822,97.483 486.26,77.849 484.733,76.931C484.909,76.697 484.899,76.78 487.071,74.115C489.473,71.17 489.373,71.167 492.019,68.459Z" style="fill:rgb(214,215,215);fill-opacity:1;"/>
        <path d="M410.557,54.515C411.545,55.964 413.198,57.326 414.597,64.38C392.735,68.275 332.689,85.729 329.272,88.143L327.519,88.761C313.472,91.469 245.828,119.296 242.511,122.507C239.521,123.574 227.175,128.697 222.454,132.299C219.753,133.548 219.923,133.671 217.184,135.014C208.619,138.249 192.374,147.601 188.516,150.552C187.407,151.055 186.298,151.558 185.19,152.061C182.686,153.331 182.77,153.35 179.419,155.244C175.339,157.773 175.697,158.295 171.308,160.179C156.401,166.809 108.144,200.516 97.669,208.826C79.792,223.145 79.414,223.227 77.454,223.655C73.642,221.232 74.13,220.735 70.551,217.218C77.241,213.04 87.408,203.749 88.301,202.423C89.37,201.79 90.438,201.157 91.507,200.523C93.381,199.342 93.229,199.247 94.638,197.6C100.813,195.502 128.391,172.904 170.597,148.635C170.761,148.541 173.268,146.792 173.499,146.63C175.77,146.101 175.675,145.979 177.636,144.672C218.808,121.807 234.888,115.687 238.46,113.412C246.253,108.455 263.131,103.565 266.254,100.325C267.547,100.253 268.184,100.218 281.506,94.901C320.196,79.989 320.15,80.073 370.635,64.996C389.828,59.264 390.161,60.819 409.5,55.5C410.302,55.279 410.003,55.031 410.557,54.515Z" style="fill:rgb(247,252,251);"/>
        <path d="M80.989,276.763C81.211,277.029 80.697,278.221 87.768,284.191C89.17,285.375 89.161,285.29 90.471,286.53C103.289,298.674 148.166,334.178 198.426,361.646C213.481,370.44 236.404,382.089 243.431,384.585C308.806,416.886 392.731,439.002 398.066,438.143C397.734,440.041 396.512,443.074 395.434,447.468C389.976,448.473 322.07,429.336 276.312,409.906C248.025,397.895 237.594,392.4 234.509,391.441C223.253,384.765 208.946,378.733 202.665,375.224C201.616,374.637 200.668,373.84 199.54,373.423C198.872,373.175 198.968,373.862 198.342,373.624C198.237,373.584 198.342,373.624 197.47,372.523C195.057,370.476 132.994,337.472 80.231,290.812C77.066,288.013 77.459,287.483 73.542,285.943C73.803,285.034 74.353,283.114 80.989,276.763Z" style="fill:rgb(248,252,251);"/>
        <path d="M313.565,33.387C313.399,35.406 313.224,35.422 311.414,36.385C310.124,37.073 311.244,38.645 312.433,38.225C315.468,37.152 315.319,36.863 318.552,36.388C318.548,36.557 318.502,38.499 318.502,38.499C318.603,38.639 318.656,38.525 320.629,38.864C320.846,38.808 320.845,38.994 323.414,38.631C323.484,38.637 331.343,38.624 334.465,38.088C344.966,36.282 333.785,42.558 327.39,44.3C324.763,45.985 326.261,46.536 326.451,46.591C327.957,47.029 327.749,47.274 328.733,48.537C327.139,52.098 323.145,52.513 326.565,54.291C329.262,55.693 330.194,56.972 327.415,58.261C325.94,58.945 326.323,59.308 325.791,59.819C324.891,59.168 325.389,58.831 324.562,58.233C324.492,58.183 324.257,58.013 323.487,58.154C320.843,58.637 320.928,62.384 320.937,62.809C320.456,64.073 319.869,64.605 321.263,64.852C321.454,64.886 325.074,65.528 321.327,67.277C320.191,66.684 319.429,65.697 316.636,66.771C316.487,66.828 312.901,69.598 317.491,68.567C320.662,67.855 320.753,69.535 320.78,69.548C319.074,71.286 317.2,70.124 317.747,72.458C318.661,76.358 316.794,75.907 308.425,79.164C307.016,77.758 307.263,76.866 305.504,77.511C304.54,77.865 304.672,78.012 303.285,79.306C301.25,83.259 288.564,89.12 283.735,91.774C281.915,92.774 281.739,92.792 281.506,94.901C268.184,100.218 267.547,100.253 266.254,100.325C265.114,98.499 261.686,96.122 260.414,87.517C260.339,87.009 260.443,87.021 262.853,81.585C264.391,81.249 269.875,80.629 268.507,78.496C267.559,77.018 267.256,78.156 265.575,78.837C264.045,79.458 264.254,78.593 263.16,77.361C263.608,75.238 262.701,74.854 264.398,73.4C267.215,70.987 262.075,70.679 262.291,69.503C262.423,68.786 263.033,68.218 263.175,67.503C263.187,67.44 261.069,60.415 259.332,58.67C253.952,53.267 249.475,58.289 243.537,54.443C243.142,54.187 238.557,52.411 238.489,51.502C238.278,48.679 249.25,50.939 245.594,47.405C245.216,47.039 244.722,48.323 239.543,44.848C239.779,44.738 242.119,43.648 242.533,43.561C248.92,44.697 248.927,44.474 249.216,44.199C249.821,43.621 250.2,43.259 258.444,39.274C259.762,39.118 261.08,38.962 262.398,38.806C268.804,37.692 271.664,37.877 272.471,37.929C281.808,38.532 281.701,37.416 282.501,37.48C286.069,37.761 285.98,36.967 289.542,37.086C293.471,37.216 303.645,31.952 313.565,33.387Z" style="fill:rgb(152,209,243);"/>
        <path d="M415.73,158.208L414.5,159.209C414.325,159.506 413.683,159.203 413.508,159.5C413.419,159.652 413.631,159.602 414.94,161.169C416.091,162.547 416.501,162.052 419.156,162.643C420.482,164.023 420.439,164.008 420.74,164.25C424.61,167.368 425.272,167.113 425.252,169.209C420.711,173.868 432.39,174.536 431.784,166.59C431.065,157.167 412.445,154.523 421.364,151.137C424.221,150.052 424.605,154.218 428.52,156.465C438.333,162.099 437.413,163.302 438.364,167.541C438.68,168.946 438.991,168.705 440.716,170.26C439.814,172.376 439.816,172.361 439.741,172.546C439.647,172.781 440.653,174.953 442.654,171.281C442.798,171.52 448.438,180.908 446.135,171.558C445.121,167.44 451.37,167.017 448.057,164.961C444.635,162.838 452.328,162.104 455.438,157.461C455.876,156.806 455.819,152.491 459.814,149.997C466.055,146.1 468.688,144.029 467.348,146.556C466.374,148.392 464.382,149.235 466.518,149.422C468.579,149.602 471.276,144.514 472.859,148.369C473.977,151.092 474.919,150.027 477.441,151.601C479.351,152.792 492.986,159.161 488.227,162.066C487.59,162.456 477.372,162.732 475.598,162.173C470.483,160.559 470.275,160.128 465.507,162.515C462.986,163.777 459.457,159.298 456.313,165.39C452.854,172.093 456.015,172.065 458.17,174.746C459.251,176.092 459.548,179.254 462.657,176.701C467.328,172.864 468.298,177.36 474.562,175.79C479.391,174.579 476.541,178.083 475.72,185.531C475.661,186.065 474.792,185.693 472.896,191.627C471.429,196.22 468.138,191.38 465.5,191.503C454.67,192.011 454.978,190.175 444.544,187.369C438.377,185.71 442.43,192.561 438.555,193.69C434.608,194.841 426.316,190.308 425.35,189.78C417.271,185.364 412.437,187.045 413.873,180.606C414.468,177.939 416.164,176.523 413.487,176.608C390.927,177.319 390.532,176.409 379.374,182.239C377.166,183.392 366.649,179.597 376.465,178.318C381.201,177.701 390.087,168.737 389.648,164.488C389.008,158.297 392.861,160.7 397.72,156.775C403.649,151.986 405.719,154.365 406.173,154.887C408.144,157.151 409.031,154.341 409.534,154.387C410.717,154.496 415.262,157.861 415.73,158.208Z" style="fill:rgb(12,112,199);"/>
        <path d="M94.286,112.366C95.54,114.364 96.368,114.37 95.346,116.438C95.212,116.709 94.015,117.894 94.322,119.542C95.92,128.124 89.2,135.446 91.501,140.5C95.264,148.766 85.306,150.383 82.955,166.584C81.094,179.411 82.933,179.985 85.548,183.462C87.742,186.377 84.765,190.479 88.301,202.423C87.408,203.749 77.241,213.04 70.551,217.218C68.362,216.232 63.957,212.735 56.428,210.121C61.728,196.409 59.171,171.948 86.625,124.574C87.203,123.576 91.403,116.329 94.286,112.366Z" style="fill:rgb(16,111,201);"/>
        <path d="M197.47,372.523C198.342,373.624 198.237,373.584 198.342,373.624C198.968,373.862 198.872,373.175 199.54,373.423C200.668,373.84 201.616,374.637 202.665,375.224C208.946,378.733 223.253,384.765 234.509,391.441C227.344,396.236 226.161,395.347 223.631,401.56C222.78,403.65 217.301,403.727 220.74,407.283C224.88,411.564 226.301,412.973 221.606,416.644C221.217,416.948 220.689,416.607 219.387,421.415L218.52,421.553C210.445,420.062 219.126,424.77 219.738,426.4C220.044,427.218 222.034,432.519 227.553,434.027C230.04,434.707 232.284,433.079 231.107,435.34C229.291,438.831 219.231,432.397 218.338,431.826C214.738,429.524 213.693,430.826 211.216,426.674C210.131,424.856 204.522,422.6 205.871,419.648C205.885,419.618 206.581,418.572 205.676,417.402C204.016,415.257 205.611,413.636 205.649,413.542C205.82,414.376 205.101,414.539 206.065,415.578C206.41,415.949 208.425,417.474 208.5,417.469C208.93,417.441 210.466,416.687 206.312,412.546C204.834,409.638 204.843,409.657 204.715,409.405C203.633,407.268 205.172,405.598 203.323,403.698C202.402,402.751 199.28,399.542 199.946,387.537C200.208,382.819 198.72,379.75 197.47,372.523Z" style="fill:rgb(167,223,81);"/>
        <path d="M262.398,38.806C261.08,38.962 259.762,39.118 258.444,39.274C257.321,39.226 253.431,39.058 244.613,41.735C242.648,42.332 242.795,43.33 242.533,43.561C242.119,43.648 239.779,44.738 239.543,44.848C239.09,44.951 232.997,45.906 224.543,51.644C219.011,47.597 218.532,48.766 211.733,47.961C212.699,46.76 213.035,47.315 214.033,46.268C215.596,44.628 214.713,44.377 214.284,42.215C214.678,41.965 215.072,41.714 215.466,41.464C216.933,39.968 216.817,39.866 218.714,38.967C220.136,38.292 240.647,35.633 243.497,35.659C259.218,35.8 260.501,34.603 262.398,38.806Z" style="fill:rgb(172,224,90);"/>
        <path d="M372.931,109.922C374.642,108.145 375.541,107.27 376.395,109.555C377.286,111.939 375.511,112.12 376.529,114.484C378.952,120.111 386.225,126.03 387.241,126.856C390.563,129.559 386.455,133.214 382.414,134.179C374.967,135.959 375.169,136.455 374.517,136.382C370.992,135.987 377.647,130.522 377.953,129.555C379.446,124.822 373.193,133.163 370.91,130.401C374.003,127.302 375.849,127.639 374.535,123.458C373.231,121.655 373.32,121.635 373.201,121.486C372.664,118.012 372.855,117.944 372.427,117.561C372.138,117.303 368.622,116.791 371.609,122.34C372.074,123.01 372.54,123.68 373.006,124.35C372.029,126.481 371.945,126.363 370.368,128.017C367.799,129.227 363.093,132.261 361.241,130.886C357.571,128.16 363.35,126.264 362.144,124.923C359.861,122.382 361.399,121.916 364.349,120.239C367.409,118.499 366.204,117.373 368.847,114.97C369.321,114.757 370.715,114.129 372.931,109.922Z" style="fill:rgb(69,215,218);"/>
        <path d="M501.149,343.355C499.786,346.357 493.627,362.797 488.432,361.751C484.768,361.013 487.584,346.815 490.974,341.811C495.171,335.616 494.773,335.339 500.088,330.091C500.265,329.916 507.322,320.224 504.865,328.581C503.588,332.923 504.784,333.102 503.245,337.401C503.075,337.877 503.09,337.842 501.149,343.355Z" style="fill:rgb(68,214,215);"/>
        <path d="M156.45,64.219C161.555,66.405 163.464,64.976 164.284,64.981C164.974,64.985 166.79,66.948 168.423,66.288C174.733,63.738 169.78,70.935 172.853,73.008C175.428,74.745 175.043,75.68 172.553,77.549C171.041,78.17 171.052,77.942 169.501,78.577C163.318,76.533 162.115,78.358 156.467,79.059C149.956,79.868 153.648,75.742 153.119,74.839C152.23,73.32 146.355,74.506 150.692,68.616C151.06,67.998 151.428,67.38 151.796,66.763C153.685,64.886 153.6,64.723 156.45,64.219Z" style="fill:rgb(174,228,78);"/>
        <path d="M245.179,130.514C248.089,130.937 248.072,130.92 248.321,130.971C248.957,131.101 249.959,133.138 247.449,133.268C245.994,133.343 246.081,133.554 245.207,134.659C244.327,134.88 243.057,134.572 242.274,135.252C239.144,137.97 238.148,137.371 237.259,141.449C236.579,144.575 233.437,144.856 228.588,148.591C226.677,149.763 226.701,149.779 226.524,149.857C223.316,151.275 220.5,149.812 223.27,147.293C223.519,147.067 225.308,143.012 219.49,145.449C219.288,145.317 219.566,144.868 219.364,144.736C218.202,143.978 218.075,144.576 218.014,144.485C217.638,143.923 218.959,144.132 218.558,143.533C218.857,143.275 220.153,142.159 222.141,140.126C221.992,139.537 221.842,138.948 221.693,138.359C218.045,137.029 217.899,137.357 217.716,137.077C217.329,136.481 217.571,135.609 217.184,135.014C219.923,133.671 219.753,133.548 222.454,132.299C226.495,135.812 227.297,132.685 232.45,133.734C233.3,133.908 235.122,134.925 235.575,135.003C236.661,135.189 239.189,133.643 239.475,133.468C239.717,133.37 239.718,133.463 242.55,132.387C245.486,132.341 244.993,130.936 245.179,130.514Z" style="fill:rgb(34,128,184);"/>
        <path d="M507.752,174.318C507.359,173.855 507.501,173.662 505.877,172.108C502.576,168.951 508.889,168.736 507.629,165.437C506.358,162.11 502.846,164.706 501.774,159.419C500.851,154.865 491.891,153.141 499.636,147.693C505.788,143.365 501.907,151.478 503.976,154.039C508.34,159.439 507.202,160.159 511.74,165.305C515.543,169.616 517.43,184.299 507.752,174.318Z" style="fill:rgb(12,118,198);"/>
        <path d="M242.511,122.507C242.578,122.734 243.023,124.246 243.937,125.102C244.56,125.686 244.834,125.478 244.837,126.345C244.844,128.236 245.131,130.183 245.179,130.514C244.993,130.936 245.486,132.341 242.55,132.387L241.745,131.169C241.631,130.925 240.315,128.108 238.688,129.755C237.904,130.549 238.558,130.644 239.849,132.707L239.475,133.468C239.189,133.643 236.661,135.189 235.575,135.003C235.122,134.925 233.3,133.908 232.45,133.734C227.297,132.685 226.495,135.812 222.454,132.299C227.175,128.697 239.521,123.574 242.511,122.507Z" style="fill:rgb(179,226,99);"/>
        <path d="M245.207,134.659C247.233,138.183 247.281,138.051 249.506,141.496C250.854,143.584 247.56,147.705 244.453,146.612C238.616,144.558 238.342,145.387 234.386,148.308C233.149,149.221 232.429,147.893 231.466,149.488C230.233,151.53 230.197,151.742 227.774,151.71C227.858,151.338 227.309,151.003 227.393,150.63C227.435,150.446 227.482,150.479 228.588,148.591C233.437,144.856 236.579,144.575 237.259,141.449C238.148,137.371 239.144,137.97 242.274,135.252C243.057,134.572 244.327,134.88 245.207,134.659Z" style="fill:rgb(167,218,100);"/>
        <path d="M211.403,41.731C211,44.358 211.267,44.626 208.626,46.713C208.493,46.843 207.58,47.127 206.721,48.582C206.178,49.501 206.745,50.098 210.493,49.386C214.311,51.272 214.322,51.075 218.485,51.677C220.801,52.012 220.917,52.218 221.534,54.518C221.051,55.073 218.821,57.633 212.529,56.364C209.12,55.677 202.988,55.559 204.858,46.559C205.276,44.549 204.045,43.462 206.393,43.075C209.013,42.644 208.783,41.986 211.403,41.731Z" style="fill:rgb(177,223,87);"/>
        <path d="M169.452,144.114C164.873,144.825 157.546,153.495 159.606,146.53C160.634,143.054 166.615,139.644 168.428,139.957C172.625,140.682 175.965,143.585 177.636,144.672C175.675,145.979 175.77,146.101 173.499,146.63L172.441,145.571C171.114,144.448 171.105,144.572 169.452,144.114Z" style="fill:rgb(40,138,164);"/>
        <path d="M164.621,223.141C161.653,222.567 157.684,222.688 159.82,220.818C164.469,216.75 176.612,226.346 178.494,226.563C182.173,226.985 178.7,232.127 174.34,228.721C169.853,225.216 170.014,224.971 164.621,223.141Z" style="fill:rgb(182,223,124);"/>
        <path d="M327.519,88.761L329.272,88.143C330.213,88.489 329.994,89.006 331.364,88.913C335.066,88.662 334.976,88.641 338.537,87.831C342.485,86.933 341.953,94.608 333.472,93.749C323.92,92.782 326.151,89.55 326.558,89.018C326.759,88.754 327.318,89.025 327.519,88.761Z" style="fill:rgb(183,229,123);"/>
        <path d="M196.559,60.469C195.317,62.185 195.322,62.144 193.364,62.826C191.191,60.351 191.109,60.497 189.365,57.616C188.461,56.121 183.531,57.444 182.803,56.289C180.505,52.648 187.516,54.528 189.551,53.58C189.956,53.392 190.306,53.097 190.72,52.929C193.414,51.84 192.276,55.888 192.619,56.473C194.061,58.938 194.834,58.196 196.559,60.469Z" style="fill:rgb(155,197,116);"/>
        <path d="M204.543,57.587L205.486,57.67C207.393,59.009 209.596,59.359 207.356,60.265C201.303,62.713 199.976,62.164 198.793,68.568C197.974,69.286 197.155,70.005 196.336,70.723C195.44,69.648 192.499,68.164 195.78,64.619C197.258,63.171 197.248,63.234 198.512,61.57C199.012,61.28 201.183,60.023 204.543,57.587Z" style="fill:rgb(158,206,87);"/>
        <path d="M185.536,234.477C185.539,234.299 184.552,232.869 186.642,231.808C188.334,230.95 196.022,233.719 196.202,233.86C198.103,235.356 198.64,234.025 200.678,235.443L200.278,236.211C196.301,237.536 193.936,236.135 189.508,235.548C187.642,235.408 187.711,235.369 185.899,235.021L185.536,234.477Z" style="fill:rgb(147,220,120);"/>
        <path d="M415.73,158.208C420.141,160.578 420.88,158.941 424.859,162.003C425.267,162.318 433.826,168.905 428.547,167.286C427.331,166.479 427.276,166.742 421.522,162.465C419.961,161.305 419.939,162.584 419.156,162.643C416.501,162.052 416.091,162.547 414.94,161.169C413.631,159.602 413.419,159.652 413.508,159.5C413.683,159.203 414.325,159.506 414.5,159.209L415.73,158.208Z" style="fill:rgb(16,134,197);"/>
        <path d="M157.375,61.705C151.313,59.632 152.483,58.193 152.822,57.858C157.315,53.423 171.01,64.829 159.483,62.201C159.314,62.163 159.327,62.164 157.375,61.705Z" style="fill:rgb(173,215,83);"/>
        <path d="M382.35,46.13C382.664,45.887 385.847,43.423 386.51,43.421C388.729,43.414 387.611,44.539 387.474,46.773C386.577,46.569 386.603,46.669 384.716,46.744C382.139,49.348 381.019,48.2 379.341,51.436C379.11,51.88 376.396,57.115 374.538,55.451C374.276,55.216 374.058,55.021 376.488,51.5C378.172,49.162 378.301,49.342 380.524,47.557C382.002,46.436 381.959,46.499 382.35,46.13Z" style="fill:rgb(128,200,247);"/>
        <path d="M384.716,46.744C386.603,46.669 386.577,46.569 387.474,46.773C393.71,44.794 393.884,45.229 394.083,45.726C394.3,46.27 393.85,48.848 393.531,49.518C393.377,49.841 393.292,50.018 389.602,51.657C386.901,51.252 386.771,51.067 385.894,48.398C385.501,47.847 385.108,47.295 384.716,46.744Z" style="fill:rgb(114,190,242);"/>
        <path d="M313.565,33.387C322.621,33.118 322.408,35.307 322.535,35.385C322.908,35.615 324.667,35.153 323.414,38.631C320.845,38.994 320.846,38.808 320.629,38.864C320.554,37.624 321.752,35.884 318.552,36.388C315.319,36.863 315.468,37.152 312.433,38.225C311.244,38.645 310.124,37.073 311.414,36.385C313.224,35.422 313.399,35.406 313.565,33.387Z" style="fill:rgb(102,172,223);"/>
        <path d="M175.111,60.121C172.664,61.024 172.693,61.074 172.469,61.096C162.932,62.028 168.958,55.434 171.453,55.74C172.894,55.916 172.22,56.976 173.608,57.367C174.032,57.487 179.782,55.936 175.111,60.121Z" style="fill:rgb(174,212,105);"/>
        <path d="M233.545,42.473C232.824,43.59 232.713,43.417 231.456,43.898C228.339,43.6 228.332,43.366 225.567,44.611C222.06,46.189 221.221,44.684 220.617,44.395C220.838,43.861 220.49,43.198 220.711,42.664C221.186,41.519 225.243,41.397 227.437,40.96C230.684,40.314 230.609,40.989 233.545,42.473Z" style="fill:rgb(71,166,148);"/>
        <path d="M211.733,47.961C218.532,48.766 219.011,47.597 224.543,51.644C222.463,53.269 222.468,53.248 222.297,53.399C221.747,53.882 222.046,54.069 221.534,54.518C220.917,52.218 220.801,52.012 218.485,51.677C214.322,51.075 214.311,51.272 210.493,49.386L211.477,48.41L211.733,47.961Z" style="fill:rgb(54,147,131);"/>
        <path d="M258.444,39.274C250.2,43.259 249.821,43.621 249.216,44.199C248.927,44.474 248.92,44.697 242.533,43.561C242.795,43.33 242.648,42.332 244.613,41.735C253.431,39.058 257.321,39.226 258.444,39.274Z" style="fill:rgb(35,132,185);"/>
        <path d="M201.48,44.629C201.461,45.067 203.172,46.137 200.217,48.146C197.197,50.199 199.515,50.674 200.619,51.36C203.022,52.855 199.757,56.02 196.869,53.136C192.436,48.707 200.775,44.947 201.48,44.629Z" style="fill:rgb(153,201,119);"/>
        <path d="M183.182,61.453C185.476,62.397 185.418,61.68 186.015,61.499C186.244,61.772 185.793,62.295 186.022,62.569C186.57,63.222 186.804,62.651 187.5,63.271C188.114,63.817 187.684,64.048 188.352,64.642C186.815,64.525 186.703,64.083 185.759,64.957C182.865,67.637 183.162,68.697 179.185,68.332C180.422,64.46 181.053,64.866 183.182,61.453Z" style="fill:rgb(83,154,141);"/>
        <path d="M179.419,155.244C179.622,156.029 180.129,155.634 180.345,156.47C180.385,156.627 180.316,156.617 179.961,158.463C179.576,158.941 179.818,159.001 179.43,159.482C179.36,159.568 179.43,159.482 178.509,160.52C174.318,162.766 173.969,162.143 171.308,160.179C175.697,158.295 175.339,157.773 179.419,155.244Z" style="fill:rgb(31,133,153);"/>
        <path d="M94.638,197.6C93.229,199.247 93.381,199.342 91.507,200.523C91.353,200.381 90.495,201.012 90.221,198.56C89.755,194.389 89.183,190.676 91.458,191.666C91.952,191.88 92.368,192.061 94.638,197.6Z" style="fill:rgb(30,120,163);"/>
        <path d="M381.306,44.524C381.045,45.535 380.785,46.546 380.524,47.557C378.301,49.342 378.172,49.162 376.488,51.5C373.859,49.474 372.961,48.612 375.588,46.614C375.981,46.315 380.46,42.908 380.52,42.913C380.663,42.923 380.577,43.028 381.306,44.524Z" style="fill:rgb(80,183,237);"/>
        <path d="M467.454,301.449C468.473,301.797 469.492,302.144 470.512,302.492C470.591,303.129 471.249,308.451 466.486,309.435C463.445,310.064 467.142,302.392 467.454,301.449Z" style="fill:rgb(17,117,192);"/>
        <path d="M172.493,236.559C160.922,233.004 178.36,232.677 178.732,234.43C179.231,236.79 173.02,236.577 172.493,236.559Z" style="fill:rgb(147,209,122);"/>
        <path d="M167.48,51.869C168.459,51.456 168.149,50.729 169.767,50.904C170.394,50.972 180.872,47.089 179.369,50.455C178.565,52.259 172.617,53.464 169.566,52.368C168.891,52.126 169.217,51.725 168.491,51.551C167.922,51.415 168.089,52.015 167.48,51.869Z" style="fill:rgb(121,183,148);"/>
        <path d="M467.454,301.449C468.559,296.889 471.44,293.603 471.507,293.602C474.274,293.581 471.149,300.368 470.512,302.492C469.492,302.144 468.473,301.797 467.454,301.449Z" style="fill:rgb(32,167,199);"/>
        <path d="M372.931,109.922C370.715,114.129 369.321,114.757 368.847,114.97C368.083,113.389 367.133,113.282 368.911,109.755C371.147,105.325 371.981,109.011 372.931,109.922Z" style="fill:rgb(22,153,202);"/>
        <path d="M385.894,48.398C386.771,51.067 386.901,51.252 389.602,51.657C389.294,52.506 389.5,53.486 389.192,54.335C389.004,54.854 387.29,55.958 386.374,52.581C386.268,52.188 385.974,51.74 381.446,53.881L381.215,52.313C383.614,50.316 383.914,50.799 385.894,48.398Z" style="fill:rgb(110,190,244);"/>
        <path d="M211.403,41.731C212.845,42.218 212.841,41.81 214.284,42.215C214.713,44.377 215.596,44.628 214.033,46.268C213.035,47.315 212.699,46.76 211.733,47.961L211.477,48.41C210.526,47.844 209.576,47.278 208.626,46.713C211.267,44.626 211,44.358 211.403,41.731Z" style="fill:rgb(76,168,168);"/>
        <path d="M409.812,118.417C408.839,119.016 408.957,119.047 407.464,120.462C406.566,121.113 405.667,121.764 404.769,122.415C404.291,121.699 403.814,120.984 403.336,120.268C404.719,118.974 405.226,119.778 406.371,118.245C406.542,118.016 405.782,117.687 407.806,114.961C409.08,113.245 409.741,115.466 409.789,115.627C409.816,115.72 409.34,115.312 409.058,116.599C409.025,116.753 409.114,116.734 409.812,118.417Z" style="fill:rgb(44,175,223);"/>
        <path d="M419.156,162.643C419.939,162.584 419.961,161.305 421.522,162.465C427.276,166.742 427.331,166.479 428.547,167.286C428.305,167.472 428.302,167.342 425.252,169.209C425.272,167.113 424.61,167.368 420.74,164.25C420.439,164.008 420.482,164.023 419.156,162.643Z" style="fill:rgb(68,187,229);"/>
        <path d="M198.793,68.568C199.218,69.074 199.114,69.899 199.54,70.405C200.947,72.077 200.813,70.215 202.176,68.552C202.965,69.498 203.754,70.444 204.543,71.391C203.466,71.95 203.343,71.656 202.47,72.466C199.548,75.177 198.926,73.716 196.336,70.723C197.155,70.005 197.974,69.286 198.793,68.568Z" style="fill:rgb(140,207,122);"/>
        <path d="M219.046,85.212C221.948,90.33 218.061,89.688 217.612,89.911C217.093,89.574 217.011,90.07 216.464,89.715C216.283,89.598 216.306,89.592 214.343,88.063C216.576,86.34 216.23,85.828 219.046,85.212Z" style="fill:rgb(53,153,149);"/>
        <path d="M151.796,66.763C151.428,67.38 151.06,67.998 150.692,68.616C150.376,68.457 150.068,66.371 148.177,68C143.819,71.756 145.497,66.851 145.662,66.696C148.276,64.246 148.789,64.657 151.796,66.763Z" style="fill:rgb(122,193,154);"/>
        <path d="M219.349,81.504C219.623,81.531 219.98,82.26 221.508,81.717C221.862,81.591 225.225,80.393 226.199,81.726C227.803,83.92 222.233,84.05 220.463,84.452C220.276,83.956 220.124,84.11 219.936,83.61C219.874,83.447 219.892,83.454 219.349,81.504Z" style="fill:rgb(62,155,132);"/>
        <path d="M263.16,77.361C264.254,78.593 264.045,79.458 265.575,78.837C267.256,78.156 267.559,77.018 268.507,78.496C269.875,80.629 264.391,81.249 262.853,81.585C262.167,79.417 262.266,79.406 263.16,77.361Z" style="fill:rgb(98,169,217);"/>
        <path d="M325.791,59.819C324.431,62.715 323.854,62.106 320.937,62.809C320.928,62.384 320.843,58.637 323.487,58.154C324.257,58.013 324.492,58.183 324.562,58.233C325.389,58.831 324.891,59.168 325.791,59.819Z" style="fill:rgb(93,165,216);"/>
        <path d="M239.368,426.963C237.825,426.433 237.495,426.913 236.83,425.418C235.681,422.838 241.896,424.686 242.319,424.812C242.599,424.895 244.551,427.761 239.368,426.963Z" style="fill:rgb(130,196,162);"/>
        <path d="M214.343,88.063C216.306,89.592 216.283,89.598 216.464,89.715C217.011,90.07 217.093,89.574 217.612,89.911C216.881,90.786 216.151,91.661 215.42,92.537C214.028,91.729 214.148,91.624 212.561,91.335C209.562,90.789 214.084,88.211 214.343,88.063Z" style="fill:rgb(119,185,143);"/>
        <path d="M374.535,123.458C375.849,127.639 374.003,127.302 370.91,130.401C370.729,129.606 370.549,128.812 370.368,128.017C371.945,126.363 372.029,126.481 373.006,124.35C373.516,124.052 374.025,123.755 374.535,123.458Z" style="fill:rgb(20,153,172);"/>
        <path d="M465.051,320.928C465.605,321.197 470.402,323.522 471.191,325.571C472.866,329.922 469.553,325.785 465.634,323.331C465.572,323.143 465.649,323.183 465.051,320.928Z" style="fill:rgb(25,163,182);"/>
        <path d="M134.449,88.443C134.66,88.304 137.231,86.619 137.602,88.47C137.657,88.742 137.977,90.339 135.426,91.169C135.205,91.24 129.024,91.997 134.449,88.443Z" style="fill:rgb(57,147,120);"/>
        <path d="M190.755,92.252C191.47,92.7 191.561,92.382 192.303,92.847C192.403,92.91 192.39,92.913 193.479,93.747C192.516,95.175 192.552,95.096 191.944,96.724C190.819,99.741 189.014,96.373 189.66,94.517C189.727,94.327 189.741,94.349 190.755,92.252Z" style="fill:rgb(115,189,171);"/>
        <path d="M303.285,79.306C304.672,78.012 304.54,77.865 305.504,77.511C307.263,76.866 307.016,77.758 308.425,79.164C308.131,79.384 304.927,81.773 304.521,81.571C304.521,81.571 303.384,79.487 303.285,79.306Z" style="fill:rgb(80,144,214);"/>
        <path d="M327.39,44.3C327.69,44.398 327.99,43.914 328.29,44.011C331.219,44.963 330.627,46.071 328.733,48.537C327.749,47.274 327.957,47.029 326.451,46.591C326.261,46.536 324.763,45.985 327.39,44.3Z" style="fill:rgb(85,155,208);"/>
        <path d="M226.489,111.643C225.111,111.156 224.338,111.579 224.681,110.447C226.097,105.764 234.064,114.16 229.408,112.27C227.965,111.684 228.058,111.669 226.489,111.643Z" style="fill:rgb(34,130,119);"/>
        <path d="M432.301,109.333C434.286,112.392 435.751,111.824 435.189,113.385C435.113,113.595 434.997,113.918 432.73,114.724C431.788,113.06 430.282,112.961 432.301,109.333Z" style="fill:rgb(18,138,177);"/>
        <path d="M217.78,252.624C217.509,252.768 214.196,254.525 215.528,249.512C215.99,247.774 220.309,246.745 218.403,249.442C217.145,251.223 218.019,251.406 217.78,252.624Z" style="fill:rgb(38,140,218);"/>
        <path d="M321.327,67.277L320.78,69.548C320.753,69.535 320.662,67.855 317.491,68.567C312.901,69.598 316.487,66.828 316.636,66.771C319.429,65.697 320.191,66.684 321.327,67.277Z" style="fill:rgb(74,146,195);"/>
        <path d="M185.536,234.477L185.899,235.021C184.007,236.491 184.127,237.431 182.409,236.641C181.826,236.373 181.795,235.589 181.791,235.484C181.672,232.493 183.213,232.628 185.536,234.477Z" style="fill:rgb(61,140,188);"/>
        <path d="M373.201,121.486C372.45,122.095 372.518,122.059 372.45,122.095C372.046,122.313 372.028,122.114 371.609,122.34C368.622,116.791 372.138,117.303 372.427,117.561C372.855,117.944 372.664,118.012 373.201,121.486Z" style="fill:rgb(15,111,145);"/>
        <path d="M208.626,46.713C209.576,47.278 210.526,47.844 211.477,48.41L210.493,49.386C206.745,50.098 206.178,49.501 206.721,48.582C207.58,47.127 208.493,46.843 208.626,46.713Z" style="fill:rgb(61,167,121);"/>
        <path d="M165.481,52.441C165.716,52.455 170.88,53.229 165.467,55.38C165.248,55.467 161.058,55.138 165.481,52.441Z" style="fill:rgb(163,199,163);"/>
        <path d="M234.74,90.396C229.548,93.014 230.189,89.718 230.432,89.463C232.29,87.517 232.638,88.662 234.74,90.396Z" style="fill:rgb(94,169,112);"/>
        <path d="M206.312,412.546C210.466,416.687 208.93,417.441 208.5,417.469C208.425,417.474 206.41,415.949 206.065,415.578C205.101,414.539 205.82,414.376 205.649,413.542L206.312,412.546Z" style="fill:rgb(113,181,109);"/>
        <path d="M188.516,150.552C189.468,152.433 190.014,152.437 189.36,153.427C188.054,155.4 187.705,153.682 185.19,152.061C186.298,151.558 187.407,151.055 188.516,150.552Z" style="fill:rgb(76,159,108);"/>
        <path d="M237.175,82.616C237.799,88.905 234.613,83.705 234.575,83.489C234.353,82.223 234.698,81.82 234.792,81.711C235.596,80.774 235.674,81.528 237.175,82.616Z" style="fill:rgb(72,150,113);"/>
        <path d="M189.462,50.625C187.966,50.094 187.603,49.78 188.548,48.551C189.224,47.671 195.805,47.286 190.476,50.4L189.462,50.625Z" style="fill:rgb(138,179,154);"/>
        <path d="M247.991,293.5C247.8,294.211 248.464,294.351 247.465,295.463C245.76,297.36 243.665,296.35 244.783,294.696C245.834,293.14 246.143,293.661 247.991,293.5Z" style="fill:rgb(90,176,80);"/>
        <path d="M414.734,163.87C416.953,163.909 417.339,165.274 415.402,166.249C408.954,169.496 414.593,164.008 414.734,163.87Z" style="fill:rgb(57,178,225);"/>
        <path d="M196.559,60.469C197.37,61.409 197.328,61.404 198.512,61.57C197.248,63.234 197.258,63.171 195.78,64.619C194.974,64.021 194.169,63.424 193.364,62.826C195.322,62.144 195.317,62.185 196.559,60.469Z" style="fill:rgb(92,161,128);"/>
        <path d="M172.553,77.549C172.784,78.048 172.384,78.075 172.597,78.533C172.661,78.673 172.679,78.65 173.706,80.101C173.027,80.625 172.347,81.149 171.668,81.673C171.434,81.098 171.99,81.14 171.769,80.596C171.678,80.371 171.601,80.446 169.501,78.577C171.052,77.942 171.041,78.17 172.553,77.549Z" style="fill:rgb(104,179,126);"/>
        <path d="M409.812,118.417C409.999,118.613 413.011,121.781 410.463,121.746C409.608,121.735 409.709,121.565 409.167,120.902C408.318,119.862 408.062,120.617 407.464,120.462C408.957,119.047 408.839,119.016 409.812,118.417Z" style="fill:rgb(22,154,211);"/>
        <path d="M232.447,97.362C232.281,98.097 232.116,98.831 231.951,99.566C231.694,99.332 225.45,93.658 230.505,95.47C230.709,95.543 231.265,95.743 232.447,97.362Z" style="fill:rgb(87,167,103);"/>
        <path d="M241.745,131.169C241.113,131.682 240.481,132.194 239.849,132.707C238.558,130.644 237.904,130.549 238.688,129.755C240.315,128.108 241.631,130.925 241.745,131.169Z" style="fill:rgb(89,167,111);"/>
        <path d="M200.678,235.443C202.015,236.591 205.631,239.475 200.65,239.235C200.807,238.418 200.683,238.445 200.278,236.211L200.678,235.443Z" style="fill:rgb(48,154,210);"/>
        <path d="M318.552,36.388C321.752,35.884 320.554,37.624 320.629,38.864C318.656,38.525 318.603,38.639 318.502,38.499C318.502,38.499 318.548,36.557 318.552,36.388Z" style="fill:rgb(100,178,229);"/>
        <path d="M222.548,72.532C222.769,72.352 224.633,70.829 226.037,71.813C226.449,72.102 224.591,76.181 222.548,72.532Z" style="fill:rgb(118,189,95);"/>
        <path d="M216.598,158.704C211.313,158.062 216.571,156.175 217.309,156.539C218.727,157.237 217.516,157.516 216.598,158.704Z" style="fill:rgb(158,200,175);"/>
        <path d="M465.051,320.928C465.649,323.183 465.572,323.143 465.634,323.331C465.366,323.255 462.65,322.489 462.659,321.502C462.675,319.805 463.488,320.373 465.051,320.928Z" style="fill:rgb(43,170,194);"/>
        <path d="M170.497,212.564C170.707,212.655 174.214,214.181 171.389,215.282C170.275,215.716 170.384,215.228 169.499,214.501C169.741,214.03 169.547,214.053 169.798,213.567C169.843,213.48 169.798,213.567 170.497,212.564Z" style="fill:rgb(159,213,203);"/>
        <path d="M471.767,151.739C468.416,154.039 468.041,152.997 468.041,152.689C468.034,150.039 469.291,150.906 471.767,151.739Z" style="fill:rgb(48,164,214);"/>
        <path d="M397.518,49.607C399.115,49.885 400.132,49.922 399.136,51.226C398.67,51.835 393.599,52.514 397.518,49.607Z" style="fill:rgb(80,161,234);"/>
        <path d="M180.632,159.456C180.835,159.611 183.11,161.344 182.225,162.215C181.369,163.058 181.314,162.379 179.501,161.376C179.869,160.849 180.005,161.04 180.18,160.403C180.329,159.864 180.484,159.993 180.632,159.456Z" style="fill:rgb(74,162,82);"/>
        <path d="M440.716,170.26C441.766,170.654 441.716,170.612 442.654,171.281C440.653,174.953 439.647,172.781 439.741,172.546C439.816,172.361 439.814,172.376 440.716,170.26Z" style="fill:rgb(36,152,220);"/>
        <path d="M220.585,105.457L221.355,107.983C217.657,109.037 218.771,106.824 218.956,106.711C219.871,106.154 219.733,106.113 220.585,105.457Z" style="fill:rgb(88,152,120);"/>
        <path d="M185.899,235.021C187.711,235.369 187.642,235.408 189.508,235.548C187.633,237.482 187.687,237.523 187.483,237.637C186.231,238.336 186.639,237.205 185.899,235.021Z" style="fill:rgb(84,175,162);"/>
        <path d="M371.749,144.26C371.861,144.051 373.194,141.563 374.345,142.826C374.505,143.001 375.719,145.232 371.749,144.26Z" style="fill:rgb(55,172,237);"/>
        <path d="M183.182,61.453C183.626,60.899 185.051,57.606 186.015,61.499C185.418,61.68 185.476,62.397 183.182,61.453Z" style="fill:rgb(186,221,176);"/>
        <path d="M201.261,79.214C202.035,79.546 202.809,79.879 203.583,80.211L202.5,81.058C201.302,81.312 200.849,81.791 200.681,80.53C200.55,79.553 201.234,79.274 201.261,79.214Z" style="fill:rgb(91,189,101);"/>
        <path d="M373.201,121.486C373.32,121.635 373.231,121.655 374.535,123.458C374.025,123.755 373.516,124.052 373.006,124.35C372.54,123.68 372.074,123.01 371.609,122.34C372.028,122.114 372.046,122.313 372.45,122.095C372.518,122.059 372.45,122.095 373.201,121.486Z" style="fill:rgb(55,181,194);"/>
        <path d="M169.516,270.475C165.784,266.435 170.673,268.206 170.808,268.352C171.166,268.739 170.751,269.421 170.703,269.5C170.259,270.23 169.929,269.796 169.516,270.475Z" style="fill:rgb(70,150,214);"/>
        <path d="M241.745,131.169L242.55,132.387C239.718,133.463 239.717,133.37 239.475,133.468L239.849,132.707C240.481,132.194 241.113,131.682 241.745,131.169Z" style="fill:rgb(121,192,173);"/>
        <path d="M218.558,143.533C218.959,144.132 217.638,143.923 218.014,144.485C218.075,144.576 218.202,143.978 219.364,144.736C219.566,144.868 219.288,145.317 219.49,145.449C217.88,146.066 217.098,147.325 216.984,145.546C216.984,145.546 218.432,143.694 218.558,143.533Z" style="fill:rgb(103,183,103);"/>
        <path d="M179.961,158.463L180.632,159.456C180.484,159.993 180.329,159.864 180.18,160.403C180.005,161.04 179.869,160.849 179.501,161.376L178.509,160.52C179.43,159.482 179.36,159.568 179.43,159.482C179.818,159.001 179.576,158.941 179.961,158.463Z" style="fill:rgb(100,175,161);"/>
        <path d="M381.306,44.524C381.654,45.059 382.002,45.595 382.35,46.13C381.959,46.499 382.002,46.436 380.524,47.557C380.785,46.546 381.045,45.535 381.306,44.524Z" style="fill:rgb(61,146,204);"/>
        <path d="M252.347,145.576C252.126,148.671 250.874,147.439 250.747,147.299C250.495,147.021 250.718,145.752 251.214,145.5C251.552,145.329 252.009,145.747 252.347,145.576Z" style="fill:rgb(87,169,243);"/>
        <path d="M169.069,212.572L170.497,212.564C169.798,213.567 169.843,213.48 169.798,213.567C169.547,214.053 169.741,214.03 169.499,214.501C168.811,214.01 168.124,213.519 167.436,213.028C167.98,212.876 168.525,212.724 169.069,212.572Z" style="fill:rgb(76,158,154);"/>
        <path d="M233.545,42.473C233.72,42.615 233.998,42.581 234.173,42.722C234.287,42.815 235.877,44.1 233.522,44.443C232.817,44.546 232.161,43.796 231.456,43.898C232.713,43.417 232.824,43.59 233.545,42.473Z" style="fill:rgb(129,208,92);"/>
        <path d="M169.452,144.114C171.105,144.572 171.114,144.448 172.441,145.571C170.763,145.176 170.871,145.067 169.452,144.114Z" style="fill:rgb(129,185,90);"/>
        <path d="M402.405,114.421L402.745,115.316C401.459,115.449 400.879,116.858 400.811,115.516C400.811,115.516 402.278,114.508 402.405,114.421Z" style="fill:rgb(23,132,204);"/>
        <path d="M381.215,52.313L381.446,53.881C380.17,53.911 379.833,53.578 380.462,52.402C380.582,52.179 381.096,52.536 381.215,52.313Z" style="fill:rgb(67,152,232);"/>
        <path d="M218.287,75.498C219.408,77.151 219.385,77.165 219.549,77.291C219.218,77.157 218.83,77.637 218.499,77.503C217.703,77.18 217.644,76.62 217.633,76.515C217.558,75.81 218.36,76.183 218.287,75.498Z" style="fill:rgb(105,192,185);"/>
        <path d="M388.448,134.281C387.767,134.661 387.086,135.041 386.405,135.421C386.492,135.267 387.5,133.501 387.5,133.501C387.894,133.39 388.054,134.391 388.448,134.281Z" style="fill:rgb(48,170,222);"/>
        <path d="M225.462,137.663L225.831,138.199C225.634,138.17 223.369,137.843 223.369,137.843C223.153,136.461 224.057,137.784 225.462,137.663Z" style="fill:rgb(78,147,198);"/>
        <path d="M201.261,79.214C202.554,79.496 202.643,79.206 203.583,80.211C202.809,79.879 202.035,79.546 201.261,79.214Z" style="fill:rgb(125,199,95);"/>
        <path d="M225.462,137.663C225.843,137.939 226.225,138.214 226.607,138.489L225.831,138.199L225.462,137.663Z" style="fill:rgb(78,150,207);"/>
        <path d="M222.548,72.532C222.093,72.754 222.453,73.03 222.023,73.24C221.897,73.301 221.9,73.281 220.359,73.806C221.089,73.381 221.818,72.956 222.548,72.532Z" style="fill:rgb(169,221,84);"/>
    </g>
</svg>
