<?xml version="1.0" encoding="UTF-8" standalone="no"?>
<!DOCTYPE svg PUBLIC "-//W3C//DTD SVG 1.1//EN" "http://www.w3.org/Graphics/SVG/1.1/DTD/svg11.dtd">
<svg width="100%" height="100%" viewBox="0 0 1024 1024" version="1.1" xmlns="http://www.w3.org/2000/svg" xmlns:xlink="http://www.w3.org/1999/xlink" xml:space="preserve" xmlns:serif="http://www.serif.com/" style="fill-rule:evenodd;clip-rule:evenodd;stroke-linejoin:round;stroke-miterlimit:2;">
    <g id="Background" transform="matrix(1.5343,0,0,1.5343,79.563515,-307.529017)">
        <path d="M257.765,279.363C264.155,281.717 273.954,277.872 289.507,279.389C290.122,302.275 289.697,712.811 289.659,750.5C289.625,782.7 289.051,782.69 288.484,783.457C241.948,784.728 201.757,782.393 193.534,784.453C189.326,783.478 57.252,784.34 39.5,783.976C36.648,783.918 18.052,783.537 8.379,766.576C2.117,755.597 -2.202,742.688 8.35,724.403C11.921,718.217 55.827,684.258 74.67,607.559C82.419,576.021 78.807,575.58 80.077,456.492C80.157,448.984 85.021,424.614 86.356,420.448C95.997,390.373 110.351,355.767 155.773,319.829C162.642,314.394 163.26,315.401 170.276,310.201C175.633,306.232 197.063,295.072 215.615,288.975C220.136,287.489 220.831,288.914 224.137,285.546C225.091,285.676 225.002,286.301 226.49,285.867C226.964,285.729 226.974,285.81 232.483,284.425C243.754,281.592 253.226,282.336 257.765,279.363Z" style="fill:var(--icon-primary, #62D38F);"/>
        <path d="M289.507,279.389C290.863,279.308 291.632,279.263 306.485,279.996C307.375,280.04 307.333,280.262 317.455,281.903C319.678,282.263 319.875,280.645 320.122,280.406C321.252,283.99 322.534,282.479 326.541,283.309C341.886,286.485 352.127,291.637 353.747,290.532C354.014,290.35 353.478,289.745 353.745,289.563C355.516,292.511 356.195,291.705 367.569,296.329C371.833,298.063 383.678,304.589 385.569,305.364C386.046,305.56 404.149,317.088 406.252,318.793C425.834,334.659 428.33,338.158 429.809,340.233C435.056,347.589 463.835,367.81 478.675,427.436C486.569,459.157 483.369,497.814 484.027,570.505C484.186,588.086 491.936,619.549 492.344,620.56C494.74,626.496 494.017,626.664 496.341,632.565C511.71,671.586 518.891,678.954 528.204,692.73C536.926,705.632 550.616,718.082 551.204,718.754C564.249,733.666 570.186,764.789 538.615,780.722C530.065,785.037 529.226,783.966 473.501,783.968C392.453,783.971 392.362,782.915 385.504,784.503C382.997,783.333 382.954,783.354 376.5,783.412C295.428,784.135 295.506,782.937 288.484,783.457C289.051,782.69 289.625,782.7 289.659,750.5C289.697,712.811 290.122,302.275 289.507,279.389Z" style="fill:var(--icon-secondary, #FAE158);"/>
        <path d="M288.484,783.457C295.506,782.937 295.428,784.135 376.5,783.412C382.954,783.354 382.997,783.333 385.504,784.503C385.274,785.546 382.659,797.403 382.617,797.539C360.516,869.907 273.457,890.341 222.709,840.294C195.445,813.406 197.712,791.522 193.534,784.453C201.757,782.393 241.948,784.728 288.484,783.457Z" style="fill:var(--icon-accent, #F0834C);"/>
        <path d="M257.765,279.363C253.226,282.336 243.754,281.592 232.483,284.425C226.974,285.81 226.964,285.729 226.49,285.867C225.002,286.301 225.091,285.676 224.137,285.546C214.421,246.944 235.713,216.527 263.536,205.59C316.894,184.616 372.804,230.645 353.745,289.563C353.478,289.745 354.014,290.35 353.747,290.532C352.127,291.637 341.886,286.485 326.541,283.309C322.534,282.479 321.252,283.99 320.122,280.406C333.983,247.931 293.592,216.678 264.763,245.763C252.086,258.552 257.042,276.714 257.765,279.363Z" style="fill:var(--icon-detail, #154F93);"/>
    </g>
</svg>
