<?xml version="1.0" encoding="UTF-8" standalone="no"?>
<!DOCTYPE svg PUBLIC "-//W3C//DTD SVG 1.1//EN" "http://www.w3.org/Graphics/SVG/1.1/DTD/svg11.dtd">
<svg width="100%" height="100%" viewBox="0 0 1024 1024" version="1.1" xmlns="http://www.w3.org/2000/svg" xmlns:xlink="http://www.w3.org/1999/xlink" xml:space="preserve" xmlns:serif="http://www.serif.com/" style="fill-rule:evenodd;clip-rule:evenodd;stroke-linejoin:round;stroke-miterlimit:2;">
    <g id="Background" transform="matrix(0.780262,-0.956578,0.956578,0.780262,-7.767971,327.015875)">
        <g transform="matrix(0.833109,0,0,1,0.283474,0)">
            <path d="M1.941,502.461C1.453,408.775 1.845,75.617 1.888,38.5C1.916,15.138 -0.234,2.794 11.516,1.951C12.425,1.885 340.986,1.912 341.491,1.923C342.345,1.94 348.17,2.056 350.633,7.432C352.231,10.918 351.967,11.105 352.023,266.5C352.132,760.572 351.605,760.543 351.95,803.501C352.066,817.909 353.907,833.339 342.48,834.058C340.498,834.182 17.075,834.099 16.504,834.092C1.689,833.916 2.047,829.444 1.982,814.525C2.273,814.477 2.285,814.329 3.388,814.294C29.896,813.442 32.316,816.144 34.014,810.36C34.306,809.367 33.927,770.57 33.879,768.478C33.72,761.485 25.355,763.476 17.5,763.456C4.534,763.425 4.627,763.59 3.516,763.455C2.908,763.38 2.568,762.551 1.959,762.477L2.054,759.424C16.851,758.39 16.833,759.939 31.541,758.762C34.745,758.505 35.422,748.073 30.477,747.854C22.634,747.505 4.798,748.227 1.967,747.464L2.054,743.417C14.295,743.083 14.231,743.32 26.5,743.219C27.078,743.214 32.88,743.166 33.525,741.511C34.01,740.266 34.987,733.402 31.509,732.464C29.732,731.984 3.782,732.262 3.567,732.234C2.977,732.158 2.54,731.551 1.95,731.475L2.065,727.417C30.3,728.376 33.691,727.879 33.9,724.544C34.493,715.072 29.997,716.922 18.503,716.84C3.829,716.735 3.858,716.969 1.969,716.467L2.056,712.413C30.337,711.963 33.002,714.624 33.689,709.539C35.229,698.157 27.331,702.22 3.379,701.744C2.281,701.722 2.245,701.516 1.973,701.461L2.051,697.418C30.81,695.896 33.62,699.114 33.865,694.529C34.42,684.112 29.851,686.103 19.498,686.176C5.315,686.277 4.454,686.478 1.953,685.463L2.033,681.424C4.546,681.551 32.376,682.952 33.476,680.488C33.693,680.002 35.033,671.966 31.605,671.103C28.507,670.323 4.858,671.519 1.98,670.459L2.038,666.407C14.833,665.606 32.59,667.839 33.786,664.614C34.385,662.998 34.687,656.603 31.442,655.698C28.928,654.997 4.105,655.476 3.555,655.388C2.955,655.293 2.583,654.564 1.984,654.468L2.048,651.418C29.776,650.019 34.715,653.586 34.105,645.518C33.596,638.787 30.365,640.18 19.503,640.12C4.768,640.038 4.669,640.597 1.977,639.47L2.035,635.413C31.422,636.128 33.693,636.514 34.103,631.477C34.909,621.548 25.926,625.758 7.505,625.014C3.937,624.87 3.896,625.268 1.971,624.465L2.036,620.407C30.148,619.432 34.039,622.499 34.173,615.5C34.33,607.244 29.021,610.158 3.404,609.72C2.286,609.701 2.35,609.533 1.966,609.464L2.033,604.422C30.844,605.374 34.082,605.771 34.149,599.51C34.22,592.917 31.071,594.066 10.494,594.088C5.506,594.093 5.477,594.821 1.993,593.47L2.05,589.418C30.628,588.774 34.027,590.955 34.187,584.499C34.378,576.804 30.535,578.707 11.5,578.528C11.209,578.525 11.22,578.528 4.499,578.642C2.669,578.673 2.139,577.55 1.995,577.484L1.988,574.524C6.971,572.872 31.971,575.604 33.589,572.555C34.175,571.452 35.614,564.316 31.474,563.646C26.94,562.912 3.889,563.336 3.596,563.297C3.002,563.217 2.589,562.558 1.996,562.478L2.085,559.442C15.283,558.171 15.265,559.376 28.501,559.115C37.748,558.932 34.309,548.916 31.509,548.452C28.634,547.975 7.485,547.899 3.5,548.051L1.991,547.478L2.094,544.453C9.887,541.769 32.457,546.361 33.825,541.603C36.897,530.919 30.659,532.866 19.501,532.82C3.458,532.755 3.455,532.881 1.972,532.466L2.06,528.414C32.282,528.286 33.109,528.549 33.664,526.565C36.503,516.422 31.051,517.503 20.5,517.598C18.255,517.619 6.569,518.191 1.968,517.472L2.046,513.428C15.29,512.91 15.236,513.232 28.497,513.217C33.984,513.21 34.61,512.004 34.063,506.518C33.532,501.19 27.019,502.825 4.496,502.649C3.187,502.638 3.256,502.557 1.941,502.461ZM332.998,29.328C326.426,14.458 308.424,22.881 309.88,34.461C311.962,51.013 337.852,47.935 332.998,29.328ZM331.484,797.51C321.858,783.308 305.959,795.978 309.325,806.55C314.536,822.914 339.44,814.874 331.484,797.51Z" style="fill:rgb(83,186,116);"/>
        </g>
        <path d="M80.623,81.539C81.988,78.123 81.59,77.816 84.654,75.738C87.493,73.813 87.749,73.995 127.497,74.166C184.125,74.408 184.894,73.548 188.132,76.886C191.29,80.141 191.293,80.722 190.76,133.508C190.179,191.041 193.382,196.443 185.459,203.411C182.132,204.272 182.128,204.076 142.5,203.562C86.393,202.833 83.721,206.158 80.809,199.389C78.852,194.84 79.838,194.606 79.757,137.507C79.685,87.408 79.916,85.961 80.623,81.539Z" style="fill:rgb(51,137,245);"/>
        <path d="M80.748,252.558C80.827,252.415 81.564,250.612 83.592,248.601C87.177,245.046 134.647,247.826 178.514,246.739C192.954,246.381 190.714,256.445 190.513,279.5C189.741,368.256 192.742,370.015 186.44,375.368C181.649,377.301 180.543,376.784 169.5,376.709C145.181,376.544 145.225,376.916 138.498,376.781C94.202,375.896 83.549,379.377 80.72,371.434C80.087,369.657 79.18,259.867 80.748,252.558Z" style="fill:rgb(46,191,239);"/>
        <path d="M80.967,470.729C81.385,470.26 84.276,467.014 87.454,466.295C91.915,465.284 150.058,465.961 155.501,466.025C179.098,466.3 190.96,463.036 190.708,478.504C190.179,511.003 191.213,510.951 190.668,543.502C189.956,586.043 193.721,589.108 183.388,595.069C179.913,595.599 179.989,595.656 176.499,595.685C169.539,595.742 122.919,596.126 89.498,595.572C78.038,595.382 79.792,585.116 79.877,556.506C80.123,474.522 79.407,474.316 80.967,470.729Z" style="fill:rgb(247,218,74);"/>
        <path d="M184.406,766.223C177.565,767.603 129.733,766.209 96.499,766.745C80.727,766.999 79.627,763.446 79.857,750.506C79.933,746.22 79.777,645.689 79.797,645.526C80.816,637.027 87.814,637.515 109.498,637.654C183.958,638.132 185.045,636.557 188.463,640.534C191.175,643.689 191.225,644.154 190.417,692.5C189.319,758.324 193.795,761.742 184.406,766.223Z" style="fill:rgb(242,165,60);"/>
        <path d="M80.967,470.729C79.407,474.316 80.123,474.522 79.877,556.506C79.792,585.116 78.038,595.382 89.498,595.572C122.919,596.126 169.539,595.742 176.499,595.685C179.989,595.656 179.913,595.599 183.388,595.069C183.764,596.027 184.219,595.614 184.567,596.5C184.594,596.569 184.655,596.723 184.299,597.386C181.43,602.732 176.036,607.355 175.182,608.087C173.289,609.71 173.067,609.881 121.5,609.614C86.755,609.433 69.312,612.753 67.164,600.547C66.18,594.951 66.69,545.31 66.739,540.507C67.318,484.15 64.501,482.512 71.023,477.003C75.417,473.292 78.073,471.627 79.485,470.5L80.967,470.729Z" style="fill:rgb(59,166,93);"/>
        <path d="M80.748,252.558C79.18,259.867 80.087,369.657 80.72,371.434C83.549,379.377 94.202,375.896 138.498,376.781C145.225,376.916 145.181,376.544 169.5,376.709C180.543,376.784 181.649,377.301 186.44,375.368C186.46,375.91 187.589,375.958 187.609,376.5C187.665,377.96 179.628,386.721 175.332,389.187C172.784,390.649 112.919,389.804 107.492,389.727C77.299,389.301 76.598,391.471 70.796,387.153C65.225,383.008 67.133,381.357 66.791,284.5C66.722,264.92 62.716,260.201 80.748,252.558Z" style="fill:rgb(58,166,95);"/>
        <path d="M80.623,81.539C79.916,85.961 79.685,87.408 79.757,137.507C79.838,194.606 78.852,194.84 80.809,199.389C83.721,206.158 86.393,202.833 142.5,203.562C182.128,204.076 182.132,204.272 185.459,203.411C185.67,203.895 186.399,204.016 186.61,204.5C187.749,207.114 179.095,216.09 174.491,216.444C164.598,217.204 141.379,216.565 138.501,216.486C117.831,215.917 77.151,217.254 73.386,215.719C65.971,212.695 66.547,208.964 66.803,170.511C66.833,165.87 66.646,165.908 66.705,112.493C66.728,92.141 63.844,86.079 79.5,81.669L80.623,81.539Z" style="fill:rgb(60,166,97);"/>
        <path d="M1.959,762.477C2.568,762.551 2.908,763.38 3.516,763.455C4.627,763.59 4.534,763.425 17.5,763.456C25.355,763.476 33.72,761.485 33.879,768.478C33.927,770.57 34.306,809.367 34.014,810.36C32.316,816.144 29.896,813.442 3.388,814.294C2.285,814.329 2.273,814.477 1.982,814.525C2.18,791.4 1.991,766.641 1.959,762.477Z" style="fill:rgb(247,218,120);"/>
        <path d="M1.967,747.464C4.798,748.227 22.634,747.505 30.477,747.854C35.422,748.073 34.745,758.505 31.541,758.762C16.833,759.939 16.851,758.39 2.054,759.424C2.051,758.467 2.035,753.499 1.967,747.464Z" style="fill:rgb(241,221,124);"/>
        <path d="M1.991,547.478L3.5,548.051C7.485,547.899 28.634,547.975 31.509,548.452C34.309,548.916 37.748,558.932 28.501,559.115C15.265,559.376 15.283,558.171 2.085,559.442C1.894,553.453 2.024,553.527 1.991,547.478Z" style="fill:rgb(240,222,127);"/>
        <path d="M1.95,731.475C2.54,731.551 2.977,732.158 3.567,732.234C3.782,732.262 29.732,731.984 31.509,732.464C34.987,733.402 34.01,740.266 33.525,741.511C32.88,743.166 27.078,743.214 26.5,743.219C14.231,743.32 14.295,743.083 2.054,743.417C2.032,737.436 1.953,737.509 1.95,731.475Z" style="fill:rgb(241,222,126);"/>
        <path d="M1.977,639.47C4.669,640.597 4.768,640.038 19.503,640.12C30.365,640.18 33.596,638.787 34.105,645.518C34.715,653.586 29.776,650.019 2.048,651.418C1.955,645.415 1.956,645.517 1.977,639.47Z" style="fill:rgb(240,222,127);"/>
        <path d="M1.984,654.468C2.583,654.564 2.955,655.293 3.555,655.388C4.105,655.476 28.928,654.997 31.442,655.698C34.687,656.603 34.385,662.998 33.786,664.614C32.59,667.839 14.833,665.606 2.038,666.407C2.02,662.427 2.002,658.448 1.984,654.468Z" style="fill:rgb(239,221,126);"/>
        <path d="M1.972,532.466C3.455,532.881 3.458,532.755 19.501,532.82C30.659,532.866 36.897,530.919 33.825,541.603C32.457,546.361 9.887,541.769 2.094,544.453C1.986,533.319 1.971,533.425 1.972,532.466Z" style="fill:rgb(242,223,126);"/>
        <path d="M1.98,670.459C4.858,671.519 28.507,670.323 31.605,671.103C35.033,671.966 33.693,680.002 33.476,680.488C32.376,682.952 4.546,681.551 2.033,681.424C2.03,680.547 2.022,677.5 1.98,670.459Z" style="fill:rgb(239,221,127);"/>
        <path d="M1.953,685.463C4.454,686.478 5.315,686.277 19.498,686.176C29.851,686.103 34.42,684.112 33.865,694.529C33.62,699.114 30.81,695.896 2.051,697.418C2.026,696.462 1.949,693.499 1.953,685.463Z" style="fill:rgb(242,220,126);"/>
        <path d="M1.996,562.478C2.589,562.558 3.002,563.217 3.596,563.297C3.889,563.336 26.94,562.912 31.474,563.646C35.614,564.316 34.175,571.452 33.589,572.555C31.971,575.604 6.971,572.872 1.988,574.524C1.991,570.509 1.993,566.494 1.996,562.478Z" style="fill:rgb(241,222,128);"/>
        <path d="M1.995,577.484C2.139,577.55 2.669,578.673 4.499,578.642C11.22,578.528 11.209,578.525 11.5,578.528C30.535,578.707 34.378,576.804 34.187,584.499C34.027,590.955 30.628,588.774 2.05,589.418C1.975,584.499 1.993,578.439 1.995,577.484Z" style="fill:rgb(239,223,129);"/>
        <path d="M1.969,716.467C3.858,716.969 3.829,716.735 18.503,716.84C29.997,716.922 34.493,715.072 33.9,724.544C33.691,727.879 30.3,728.376 2.065,727.417C1.964,721.942 1.955,722 1.969,716.467Z" style="fill:rgb(241,220,127);"/>
        <path d="M1.968,517.472C6.569,518.191 18.255,517.619 20.5,517.598C31.051,517.503 36.503,516.422 33.664,526.565C33.109,528.549 32.282,528.286 2.06,528.414C1.935,522.847 1.951,522.959 1.968,517.472Z" style="fill:rgb(242,222,122);"/>
        <path d="M1.971,624.465C3.896,625.268 3.937,624.87 7.505,625.014C25.926,625.758 34.909,621.548 34.103,631.477C33.693,636.514 31.422,636.128 2.035,635.413C2.024,634.537 1.961,629.499 1.971,624.465Z" style="fill:rgb(241,221,127);"/>
        <path d="M1.993,593.47C5.477,594.821 5.506,594.093 10.494,594.088C31.071,594.066 34.22,592.917 34.149,599.51C34.082,605.771 30.844,605.374 2.033,604.422C2.02,600.771 2.006,597.121 1.993,593.47Z" style="fill:rgb(241,223,126);"/>
        <path d="M1.973,701.461C2.245,701.516 2.281,701.722 3.379,701.744C27.331,702.22 35.229,698.157 33.689,709.539C33.002,714.624 30.337,711.963 2.056,712.413C1.959,706.89 1.95,706.991 1.973,701.461Z" style="fill:rgb(242,221,126);"/>
        <path d="M1.966,609.464C2.35,609.533 2.286,609.701 3.404,609.72C29.021,610.158 34.33,607.244 34.173,615.5C34.039,622.499 30.148,619.432 2.036,620.407C2.03,614.92 1.961,614.98 1.966,609.464Z" style="fill:rgb(241,223,126);"/>
        <path d="M1.941,502.461C3.256,502.557 3.187,502.638 4.496,502.649C27.019,502.825 33.532,501.19 34.063,506.518C34.61,512.004 33.984,513.21 28.497,513.217C15.236,513.232 15.29,512.91 2.046,513.428C2.004,507.922 2,507.993 1.941,502.461Z" style="fill:rgb(242,221,124);"/>
        <g transform="matrix(1,0,0,1,-0.191833,-261.219333)">
            <path d="M1.967,747.464C4.798,748.227 22.634,747.505 30.477,747.854C35.422,748.073 34.745,758.505 31.541,758.762C16.833,759.939 16.851,758.39 2.054,759.424C2.051,758.467 2.035,753.499 1.967,747.464Z" style="fill:rgb(241,221,124);"/>
        </g>
        <g transform="matrix(1,0,0,1,-0.191833,-261.219333)">
            <path d="M1.991,547.478L3.5,548.051C7.485,547.899 28.634,547.975 31.509,548.452C34.309,548.916 37.748,558.932 28.501,559.115C15.265,559.376 15.283,558.171 2.085,559.442C1.894,553.453 2.024,553.527 1.991,547.478Z" style="fill:rgb(240,222,127);"/>
        </g>
        <g transform="matrix(1,0,0,1,-0.191833,-261.219333)">
            <path d="M1.95,731.475C2.54,731.551 2.977,732.158 3.567,732.234C3.782,732.262 29.732,731.984 31.509,732.464C34.987,733.402 34.01,740.266 33.525,741.511C32.88,743.166 27.078,743.214 26.5,743.219C14.231,743.32 14.295,743.083 2.054,743.417C2.032,737.436 1.953,737.509 1.95,731.475Z" style="fill:rgb(241,222,126);"/>
        </g>
        <g transform="matrix(1,0,0,1,-0.191833,-261.219333)">
            <path d="M1.977,639.47C4.669,640.597 4.768,640.038 19.503,640.12C30.365,640.18 33.596,638.787 34.105,645.518C34.715,653.586 29.776,650.019 2.048,651.418C1.955,645.415 1.956,645.517 1.977,639.47Z" style="fill:rgb(240,222,127);"/>
        </g>
        <g transform="matrix(1,0,0,1,-0.191833,-261.219333)">
            <path d="M1.984,654.468C2.583,654.564 2.955,655.293 3.555,655.388C4.105,655.476 28.928,654.997 31.442,655.698C34.687,656.603 34.385,662.998 33.786,664.614C32.59,667.839 14.833,665.606 2.038,666.407C2.02,662.427 2.002,658.448 1.984,654.468Z" style="fill:rgb(239,221,126);"/>
        </g>
        <g transform="matrix(1,0,0,1,-0.191833,-261.219333)">
            <path d="M1.972,532.466C3.455,532.881 3.458,532.755 19.501,532.82C30.659,532.866 36.897,530.919 33.825,541.603C32.457,546.361 9.887,541.769 2.094,544.453C1.986,533.319 1.971,533.425 1.972,532.466Z" style="fill:rgb(242,223,126);"/>
        </g>
        <g transform="matrix(1,0,0,1,-0.191833,-261.219333)">
            <path d="M1.98,670.459C4.858,671.519 28.507,670.323 31.605,671.103C35.033,671.966 33.693,680.002 33.476,680.488C32.376,682.952 4.546,681.551 2.033,681.424C2.03,680.547 2.022,677.5 1.98,670.459Z" style="fill:rgb(239,221,127);"/>
        </g>
        <g transform="matrix(1,0,0,1,-0.191833,-261.219333)">
            <path d="M1.953,685.463C4.454,686.478 5.315,686.277 19.498,686.176C29.851,686.103 34.42,684.112 33.865,694.529C33.62,699.114 30.81,695.896 2.051,697.418C2.026,696.462 1.949,693.499 1.953,685.463Z" style="fill:rgb(242,220,126);"/>
        </g>
        <g transform="matrix(1,0,0,1,-0.191833,-261.219333)">
            <path d="M1.996,562.478C2.589,562.558 3.002,563.217 3.596,563.297C3.889,563.336 26.94,562.912 31.474,563.646C35.614,564.316 34.175,571.452 33.589,572.555C31.971,575.604 6.971,572.872 1.988,574.524C1.991,570.509 1.993,566.494 1.996,562.478Z" style="fill:rgb(241,222,128);"/>
        </g>
        <g transform="matrix(1,0,0,1,-0.191833,-261.219333)">
            <path d="M1.995,577.484C2.139,577.55 2.669,578.673 4.499,578.642C11.22,578.528 11.209,578.525 11.5,578.528C30.535,578.707 34.378,576.804 34.187,584.499C34.027,590.955 30.628,588.774 2.05,589.418C1.975,584.499 1.993,578.439 1.995,577.484Z" style="fill:rgb(239,223,129);"/>
        </g>
        <g transform="matrix(1,0,0,1,-0.191833,-261.219333)">
            <path d="M1.969,716.467C3.858,716.969 3.829,716.735 18.503,716.84C29.997,716.922 34.493,715.072 33.9,724.544C33.691,727.879 30.3,728.376 2.065,727.417C1.964,721.942 1.955,722 1.969,716.467Z" style="fill:rgb(241,220,127);"/>
        </g>
        <g transform="matrix(1,0,0,1,-0.191833,-261.219333)">
            <path d="M1.968,517.472C6.569,518.191 18.255,517.619 20.5,517.598C31.051,517.503 36.503,516.422 33.664,526.565C33.109,528.549 32.282,528.286 2.06,528.414C1.935,522.847 1.951,522.959 1.968,517.472Z" style="fill:rgb(242,222,122);"/>
        </g>
        <g transform="matrix(1,0,0,1,-0.191833,-261.219333)">
            <path d="M1.971,624.465C3.896,625.268 3.937,624.87 7.505,625.014C25.926,625.758 34.909,621.548 34.103,631.477C33.693,636.514 31.422,636.128 2.035,635.413C2.024,634.537 1.961,629.499 1.971,624.465Z" style="fill:rgb(241,221,127);"/>
        </g>
        <g transform="matrix(1,0,0,1,-0.191833,-261.219333)">
            <path d="M1.993,593.47C5.477,594.821 5.506,594.093 10.494,594.088C31.071,594.066 34.22,592.917 34.149,599.51C34.082,605.771 30.844,605.374 2.033,604.422C2.02,600.771 2.006,597.121 1.993,593.47Z" style="fill:rgb(241,223,126);"/>
        </g>
        <g transform="matrix(1,0,0,1,-0.191833,-261.219333)">
            <path d="M1.973,701.461C2.245,701.516 2.281,701.722 3.379,701.744C27.331,702.22 35.229,698.157 33.689,709.539C33.002,714.624 30.337,711.963 2.056,712.413C1.959,706.89 1.95,706.991 1.973,701.461Z" style="fill:rgb(242,221,126);"/>
        </g>
        <g transform="matrix(1,0,0,1,-0.191833,-261.219333)">
            <path d="M1.966,609.464C2.35,609.533 2.286,609.701 3.404,609.72C29.021,610.158 34.33,607.244 34.173,615.5C34.039,622.499 30.148,619.432 2.036,620.407C2.03,614.92 1.961,614.98 1.966,609.464Z" style="fill:rgb(241,223,126);"/>
        </g>
        <g transform="matrix(1,0,0,1,-0.191833,-261.219333)">
            <path d="M1.941,502.461C3.256,502.557 3.187,502.638 4.496,502.649C27.019,502.825 33.532,501.19 34.063,506.518C34.61,512.004 33.984,513.21 28.497,513.217C15.236,513.232 15.29,512.91 2.046,513.428C2.004,507.922 2,507.993 1.941,502.461Z" style="fill:rgb(242,221,124);"/>
        </g>
        <g transform="matrix(1,0,0,1,0,-521.652316)">
            <path d="M1.967,747.464C4.798,748.227 22.634,747.505 30.477,747.854C35.422,748.073 34.745,758.505 31.541,758.762C16.833,759.939 16.851,758.39 2.054,759.424C2.051,758.467 2.035,753.499 1.967,747.464Z" style="fill:rgb(241,221,124);"/>
        </g>
        <g transform="matrix(1,0,0,1,0,-521.652316)">
            <path d="M1.991,547.478L3.5,548.051C7.485,547.899 28.634,547.975 31.509,548.452C34.309,548.916 37.748,558.932 28.501,559.115C15.265,559.376 15.283,558.171 2.085,559.442C1.894,553.453 2.024,553.527 1.991,547.478Z" style="fill:rgb(240,222,127);"/>
        </g>
        <g transform="matrix(1,0,0,1,0,-521.652316)">
            <path d="M1.95,731.475C2.54,731.551 2.977,732.158 3.567,732.234C3.782,732.262 29.732,731.984 31.509,732.464C34.987,733.402 34.01,740.266 33.525,741.511C32.88,743.166 27.078,743.214 26.5,743.219C14.231,743.32 14.295,743.083 2.054,743.417C2.032,737.436 1.953,737.509 1.95,731.475Z" style="fill:rgb(241,222,126);"/>
        </g>
        <g transform="matrix(1,0,0,1,0,-521.652316)">
            <path d="M1.977,639.47C4.669,640.597 4.768,640.038 19.503,640.12C30.365,640.18 33.596,638.787 34.105,645.518C34.715,653.586 29.776,650.019 2.048,651.418C1.955,645.415 1.956,645.517 1.977,639.47Z" style="fill:rgb(240,222,127);"/>
        </g>
        <g transform="matrix(1,0,0,1,0,-521.652316)">
            <path d="M1.984,654.468C2.583,654.564 2.955,655.293 3.555,655.388C4.105,655.476 28.928,654.997 31.442,655.698C34.687,656.603 34.385,662.998 33.786,664.614C32.59,667.839 14.833,665.606 2.038,666.407C2.02,662.427 2.002,658.448 1.984,654.468Z" style="fill:rgb(239,221,126);"/>
        </g>
        <g transform="matrix(1,0,0,1,0,-521.652316)">
            <path d="M1.972,532.466C3.455,532.881 3.458,532.755 19.501,532.82C30.659,532.866 36.897,530.919 33.825,541.603C32.457,546.361 9.887,541.769 2.094,544.453C1.986,533.319 1.971,533.425 1.972,532.466Z" style="fill:rgb(242,223,126);"/>
        </g>
        <g transform="matrix(1,0,0,1,0,-521.652316)">
            <path d="M1.98,670.459C4.858,671.519 28.507,670.323 31.605,671.103C35.033,671.966 33.693,680.002 33.476,680.488C32.376,682.952 4.546,681.551 2.033,681.424C2.03,680.547 2.022,677.5 1.98,670.459Z" style="fill:rgb(239,221,127);"/>
        </g>
        <g transform="matrix(1,0,0,1,0,-521.652316)">
            <path d="M1.953,685.463C4.454,686.478 5.315,686.277 19.498,686.176C29.851,686.103 34.42,684.112 33.865,694.529C33.62,699.114 30.81,695.896 2.051,697.418C2.026,696.462 1.949,693.499 1.953,685.463Z" style="fill:rgb(242,220,126);"/>
        </g>
        <g transform="matrix(1,0,0,1,0,-521.652316)">
            <path d="M1.996,562.478C2.589,562.558 3.002,563.217 3.596,563.297C3.889,563.336 26.94,562.912 31.474,563.646C35.614,564.316 34.175,571.452 33.589,572.555C31.971,575.604 6.971,572.872 1.988,574.524C1.991,570.509 1.993,566.494 1.996,562.478Z" style="fill:rgb(241,222,128);"/>
        </g>
        <g transform="matrix(1,0,0,1,0,-521.652316)">
            <path d="M1.995,577.484C2.139,577.55 2.669,578.673 4.499,578.642C11.22,578.528 11.209,578.525 11.5,578.528C30.535,578.707 34.378,576.804 34.187,584.499C34.027,590.955 30.628,588.774 2.05,589.418C1.975,584.499 1.993,578.439 1.995,577.484Z" style="fill:rgb(239,223,129);"/>
        </g>
        <g transform="matrix(1,0,0,1,0,-521.652316)">
            <path d="M1.969,716.467C3.858,716.969 3.829,716.735 18.503,716.84C29.997,716.922 34.493,715.072 33.9,724.544C33.691,727.879 30.3,728.376 2.065,727.417C1.964,721.942 1.955,722 1.969,716.467Z" style="fill:rgb(241,220,127);"/>
        </g>
        <g transform="matrix(1,0,0,1,0,-521.652316)">
            <path d="M1.971,624.465C3.896,625.268 3.937,624.87 7.505,625.014C25.926,625.758 34.909,621.548 34.103,631.477C33.693,636.514 31.422,636.128 2.035,635.413C2.024,634.537 1.961,629.499 1.971,624.465Z" style="fill:rgb(241,221,127);"/>
        </g>
        <g transform="matrix(1,0,0,1,0,-521.652316)">
            <path d="M1.993,593.47C5.477,594.821 5.506,594.093 10.494,594.088C31.071,594.066 34.22,592.917 34.149,599.51C34.082,605.771 30.844,605.374 2.033,604.422C2.02,600.771 2.006,597.121 1.993,593.47Z" style="fill:rgb(241,223,126);"/>
        </g>
        <g transform="matrix(1,0,0,1,0,-521.652316)">
            <path d="M1.973,701.461C2.245,701.516 2.281,701.722 3.379,701.744C27.331,702.22 35.229,698.157 33.689,709.539C33.002,714.624 30.337,711.963 2.056,712.413C1.959,706.89 1.95,706.991 1.973,701.461Z" style="fill:rgb(242,221,126);"/>
        </g>
        <g transform="matrix(1,0,0,1,0,-521.652316)">
            <path d="M1.966,609.464C2.35,609.533 2.286,609.701 3.404,609.72C29.021,610.158 34.33,607.244 34.173,615.5C34.039,622.499 30.148,619.432 2.036,620.407C2.03,614.92 1.961,614.98 1.966,609.464Z" style="fill:rgb(241,223,126);"/>
        </g>
    </g>
</svg>
