<?xml version="1.0" encoding="UTF-8" standalone="no"?>
<!DOCTYPE svg PUBLIC "-//W3C//DTD SVG 1.1//EN" "http://www.w3.org/Graphics/SVG/1.1/DTD/svg11.dtd">
<svg width="100%" height="100%" viewBox="0 0 1024 1024" version="1.1" xmlns="http://www.w3.org/2000/svg" xmlns:xlink="http://www.w3.org/1999/xlink" xml:space="preserve" xmlns:serif="http://www.serif.com/" style="fill-rule:evenodd;clip-rule:evenodd;stroke-linejoin:round;stroke-miterlimit:2;">
    <g id="Background" transform="matrix(1.141913,0,0,1.141913,168.295755,-2.962851)">
        <path d="M51.44,67.755C54.176,67.3 534.103,67.373 536.546,67.766C534.846,75.002 535.902,75.014 535.908,82.501C535.915,91.704 535.993,196.466 535.863,197.54C533.675,215.605 534.767,215.702 530.327,233.435C515.501,292.643 492.344,319.642 456.24,355.233C455.83,355.637 433.872,373.04 427.403,377.344C395.1,398.835 394.456,397.788 391.75,399.798C377.974,410.032 345.274,423.294 346.866,460.461C348.228,492.254 366.934,498.647 376.261,505.801C383.067,511.021 431.641,534.541 464.756,567.24C490.387,592.549 488.496,594.064 498.783,607.276C507.466,618.428 516.128,638.693 517.354,641.561C519.058,645.545 529.938,671 532.905,693.444C533.085,694.806 534.93,708.76 534.953,710.49C535.104,721.604 535.889,721.53 535.896,722.493C536.189,762.162 536.591,762.234 535.665,765.553C533.975,771.613 536.197,777.671 535.866,780.539C535.184,786.462 536.506,821.554 535.663,824.552C534.307,829.372 536.055,829.438 535.544,834.425C531.211,834.768 55.478,834.989 51.437,834.274C53.255,828.542 50.552,726.222 52.895,711.549C53.163,709.873 52.544,709.813 55.104,690.444C56.319,681.257 57.574,681.607 59.096,672.433C60.51,663.903 76.39,614.809 110.235,580.239C112.275,578.155 111.708,577.804 113.761,575.757C184.582,505.147 225.186,515.85 238.676,473.566C241.846,463.631 244.62,432.393 215.395,412.665C167.203,380.133 154.551,379.667 109.287,333.714C102.286,326.606 71.121,286.912 61.665,250.438C60.906,247.51 54.655,223.396 53.888,213.448C53.766,211.86 52.006,205.564 51.989,192.5C51.831,70.18 52.165,70.107 51.44,67.755Z" style="fill:var(--icon-primary, #7AC7E9);"/>
        <path d="M504.378,251.297C474.556,275.891 385.277,295.684 296.612,269.176C248.031,254.651 203.809,236.575 128.527,254.664C125.775,255.326 105.973,260.084 94.675,264.978C94.263,265.096 94.333,265.101 89.56,266.6C88.95,266.153 88.34,265.706 87.731,265.259C72.043,236.805 71.999,193.847 71.993,187.501C71.887,84.67 71.736,83.76 73.443,83.277C75.498,82.697 217.935,83.128 230.499,83.166C252.258,83.232 451.146,83.835 502.493,83.144C508.064,83.069 515.294,82.387 515.438,85.507C515.671,90.553 515.397,161.409 515.617,185.5C515.993,226.75 505.344,250.199 504.378,251.297Z" style="fill:var(--icon-accent, #B4E3F3);"/>
        <path d="M328.152,440.293C330.305,444.619 327.725,444.798 327.348,455.496C325.338,512.562 373.274,523.33 411.128,548.957C423.701,557.469 459.401,580.252 488.082,625.773C494.728,636.32 511.635,669.743 514.59,706.492C516.446,729.575 515.197,756.393 515.492,759.502C515.606,760.711 515.307,760.581 515.117,761.691L511.725,760.115C500.438,750.858 447.073,718.016 405.203,687.905C402.227,685.764 385.132,675.282 367.377,662.678C366.914,662.35 356.615,655.789 355.678,655.192C316.492,630.23 290.558,632.038 266.482,638.441C242.671,644.775 168.159,699.256 142.768,714.973C138.119,717.851 102.664,742.101 87.678,751.793C78.328,757.839 74.848,760.887 73.82,761.788C73.626,761.478 72.219,761.781 72.387,759.488C72.471,758.336 72.207,758.397 72.131,753.497C71.657,723.249 63.65,637.716 151.203,567.144C197.359,529.94 228.48,527.22 248.91,496.801C266.72,470.282 257.899,443.679 258.608,442.484C258.917,441.964 259.624,441.763 259.932,441.242C282.399,488.289 263.032,522.065 286.62,534.21C294.285,538.156 310.804,533.394 313.148,513.447C314.649,500.675 313.756,495.258 316.811,473.546C319.566,453.96 326.693,443.29 328.152,440.293Z" style="fill:var(--icon-accent, #B3E2F3);"/>
        <path d="M511.725,760.115L515.117,761.691C516.339,765.818 515.954,765.807 516.096,815.493C516.108,819.681 511.724,818.307 499.501,818.247C410.967,817.812 411.058,818.655 322.501,818.327C289.099,818.203 85.517,818.296 83.5,818.27C77.376,818.19 71.834,819.885 72.072,814.49C72.883,796.099 69.552,766.509 73.82,761.788C74.848,760.887 78.328,757.839 87.678,751.793C102.664,742.101 138.119,717.851 142.768,714.973C168.159,699.256 242.671,644.775 266.482,638.441C290.558,632.038 316.492,630.23 355.678,655.192C356.615,655.789 366.914,662.35 367.377,662.678C385.132,675.282 402.227,685.764 405.203,687.905C447.073,718.016 500.438,750.858 511.725,760.115Z" style="fill:var(--icon-surface, #F8D84E);"/>
        <path d="M504.378,251.297C504.492,252.454 505.106,252.363 504.595,253.504C503.654,255.605 498.772,268.932 492.968,279.75C477.961,307.727 458.997,326.144 454.163,331.162C438.27,347.663 395.984,376.18 380.616,384.725C338.127,408.349 337.813,423.653 328.152,440.293C326.693,443.29 319.566,453.96 316.811,473.546C313.756,495.258 314.649,500.675 313.148,513.447C310.804,533.394 294.285,538.156 286.62,534.21C263.032,522.065 282.399,488.289 259.932,441.242C257.508,436.432 257.493,436.566 255.074,431.69C234.056,389.328 211.064,394.087 152.401,347.63C133.896,332.976 135.018,331.774 129.133,326.891C119.74,319.097 87.727,275.236 89.56,266.6C94.333,265.101 94.263,265.096 94.675,264.978C105.973,260.084 125.775,255.326 128.527,254.664C203.809,236.575 248.031,254.651 296.612,269.176C385.277,295.684 474.556,275.891 504.378,251.297Z" style="fill:var(--icon-primary, #85D47A);"/>
        <path d="M51.44,67.755C32.944,66.69 22.469,69.829 9.73,56.291C-3.356,42.384 -3.996,2.412 39.503,2.136C40.152,2.132 555.113,2.036 556.53,2.185C589.846,5.7 598.307,55.033 561.547,66.641C557.394,67.953 544.72,67.724 536.546,67.766C534.103,67.373 54.176,67.3 51.44,67.755Z" style="fill:var(--icon-detail, #1B3F62);"/>
        <path d="M51.437,834.274C55.478,834.989 531.211,834.768 535.544,834.425C549.121,837.333 566.072,826.702 582.192,851.696C583.684,854.01 593.933,879.175 571.583,893.624C561.02,900.453 560.154,899.06 514.497,899.185C397.751,899.504 72.9,899.222 34.5,899.188C-4.228,899.155 -10.571,844.452 27.436,835.278C32.84,833.974 37.343,835.589 51.437,834.274Z" style="fill:var(--icon-detail, #1B4063);"/>
        <path d="M135.583,235.575C123.052,247.229 100.535,233.706 100.254,151.497C100.23,144.441 97.857,100.256 121.576,107.252C145.374,114.271 132.872,155.171 139.623,211.49C139.799,212.962 140.37,222.85 139.629,227.533C139.155,230.526 135.999,234.987 135.583,235.575Z" style="fill:var(--icon-secondary, #CFEEF7);"/>
        <path d="M199.226,571.705C208.396,588.476 184.061,606.404 165.114,636.268C159.462,645.175 152.247,652.642 150.99,653.943C135.765,669.699 105.391,661.803 126.007,623.222C128.151,619.209 139.223,598.487 162.838,579.893C188.946,559.337 195.55,567.712 199.226,571.705Z" style="fill:var(--icon-secondary, #CDEDF6);"/>
    </g>
</svg>
