<?xml version="1.0" encoding="UTF-8" standalone="no"?>
<!DOCTYPE svg PUBLIC "-//W3C//DTD SVG 1.1//EN" "http://www.w3.org/Graphics/SVG/1.1/DTD/svg11.dtd">
<svg width="100%" height="100%" viewBox="0 0 1024 1024" version="1.1" xmlns="http://www.w3.org/2000/svg" xmlns:xlink="http://www.w3.org/1999/xlink" xml:space="preserve" xmlns:serif="http://www.serif.com/" style="fill-rule:evenodd;clip-rule:evenodd;stroke-linejoin:round;stroke-miterlimit:2;">
    <g id="Background" transform="matrix(1.767314,0,0,1.767314,-20.793447,67.00662)">
        <path d="M191.469,403.305C194.058,403.667 194.293,403.457 198.397,406.632C203.828,410.835 204.604,408.589 213.74,402.886C215.042,402.072 215.947,401.507 232.263,407.915C233.239,408.298 236.25,423.178 236.522,424.522C209.375,435.958 224.081,456.183 227.848,459.063C250.582,476.449 274.492,439.982 248.083,425.753C249.99,424.336 250.128,424.861 252.477,425.037C258.138,425.462 258.637,416.854 260.463,409.489C261.276,406.214 263.115,408.462 274.663,402.861C278.119,401.185 278.383,402.003 286.234,406.932C292.258,410.715 292.274,406.935 298.474,403.361C319.095,402.982 335.647,403.27 413.487,403.182C418.676,403.268 427.447,403.472 435.515,403.147C503.414,403.336 503.358,403.276 513.513,403.228C551.047,402.939 553.063,403.248 556.459,403.77C602.464,410.838 602.716,475.791 557.395,484.041C554.166,484.628 555.01,492.39 555.007,492.455C554.835,495.703 550.394,501.005 546.562,501.769C529.297,505.209 530.843,484.697 530.581,484.419C529.148,482.901 528.837,483.72 504.5,483.828C482.407,483.927 76.12,483.74 64.512,483.899C60.137,483.959 62.307,486.184 62.218,490.492C61.906,505.706 39.431,506.236 38.926,490.489C38.872,488.796 39,487.098 38.877,485.409C38.714,483.155 37.656,484.217 35.459,483.762C0.399,476.494 -1.884,438.953 6.897,424.757C17.979,406.842 29.418,404.992 40.478,403.351C42.242,403.089 181.303,403.094 191.469,403.305Z" style="fill:rgb(16,30,66);"/>
        <path d="M247.502,137.437C248.788,133.241 247.288,132.989 249.388,127.446C251.957,120.669 281.802,105.214 294.278,96.194C304.377,88.893 352.346,58.602 357.432,55.391C388.349,35.868 388.054,35.507 390.751,33.833C397.179,29.841 396.659,29.256 401.169,23.235C428.979,-13.893 488.691,-1.518 497.886,44.44C502.247,66.235 492.47,81.126 491.315,83.399C488.015,89.886 480.136,95.398 479.915,97.547C479.755,99.114 479.99,252.865 480.074,254.572C480.222,257.581 495.128,255.621 498.509,256.461C509.619,259.221 505.923,263.543 509.539,268.151C507.123,272.159 508.316,272.532 508.282,310.499C508.26,335.283 507.907,337.669 509.576,341.854C508.133,351.402 509.041,371.509 509.615,373.142C505.294,373.761 403.367,373.941 397.358,373.118C399.414,368.065 398.192,343.147 398.064,340.544C397.947,338.151 392.814,333.347 391.343,330.592C373.228,296.668 393.4,277.48 393.83,272.545C394.062,269.885 394.415,265.829 398.165,239.455C404.052,198.05 404.541,198.173 404.886,194.558C405.017,193.184 406.028,182.59 407.141,177.447C408.347,171.877 413.138,135.673 413.172,135.454C417.912,105.12 416.777,105.063 417.413,102.48C419.207,95.196 409.376,103.687 404.572,106.611C386.12,117.841 386.749,118.661 381.578,121.62C380.673,122.139 375.631,125.025 370.435,128.4C364.219,132.437 296.593,176.359 292.579,178.63C273.488,189.43 271.256,171.543 267.749,175.585C268.87,153.015 255.512,142.78 247.502,137.437Z" style="fill:rgb(30,136,223);"/>
        <path d="M155.245,204.497C161.163,211.954 162.229,211.384 168.817,213.799C168.838,223.398 160.825,228.225 164.721,232.294C172.468,240.382 171.843,243.487 179.558,241.677C186.053,240.153 186.022,239.919 192.611,240.577C193.157,246.073 193.11,246.168 196.465,250.572C196.31,250.669 195.208,249.816 194.884,251.562C194.773,252.161 197.612,256.909 194.306,259.256C185.176,265.736 181.035,263.972 182.117,272.55C183.372,282.505 183.092,282.643 183.74,283.212C184.596,283.963 185.313,282.571 196.563,289.408C199.275,291.055 197.31,296.277 196.566,298.506C194.902,300.955 195.234,301.036 193.521,303.516C191.12,307.22 191.313,307.308 189.595,310.299C189.023,310.17 183.146,308.836 182.456,308.643C174.903,306.523 175.502,309.877 169.169,318.223C165.34,323.268 168.042,323.741 170.346,329.565C174.314,339.593 168.567,338.423 160.248,345.176C157.347,347.531 155.554,345.902 146.775,339.167C141.118,334.827 140.598,339.245 133.455,340.012C124.279,340.998 125.841,343.904 122.659,352.565C122.079,354.143 122.625,359.506 104.548,355.342C97.042,353.613 100.805,347.263 98.671,340.442C98.258,339.122 97.809,337.689 84.409,330.67C79.241,327.963 73.746,337.059 67.6,336.031C66.508,335.848 66.01,335.765 57.835,326.209C53.394,321.019 56.231,319.207 60.66,312.602C65.615,305.211 59.967,304.112 58.172,294.564C57.502,291 55.956,292.317 43.633,288.042C41.57,287.326 40.628,286.914 41.172,271.468C41.349,266.438 45.528,266.119 49.431,265.136C55.859,263.517 57.292,264.741 58.988,259.626C62.26,249.758 65.821,249.431 61.812,243.271C58.414,238.051 58.429,238.068 58.198,237.726C55.081,233.12 56.022,232.218 62.829,223.779C69.651,215.321 71.571,220.114 81.396,224.742C83.864,225.904 85.699,224.186 95.415,219.326C100.732,216.666 97.406,209.054 100.32,201.401C100.705,200.39 100.991,199.638 113.469,198.212C126.734,196.696 120.965,208.941 125.46,213.539C126.152,214.247 126.271,213.985 137.428,216.703C143.862,218.27 148.649,208.802 154.503,205.502C155.076,205.179 154.837,205.049 155.245,204.497L107.716,309.008C109.92,309.656 125.616,314.275 136.304,306.237C143.275,300.994 148.031,297.65 151.69,284.559C154.215,275.522 150.308,252.932 129.56,246.331C113.333,241.168 96.217,249.906 90.666,260.591C85.256,271.005 82.297,280.418 91.396,296.568C93.76,300.764 99.767,304.758 100.614,305.321C103.956,307.542 104.096,307.161 107.716,309.008L155.245,204.497Z" style="fill:rgb(32,189,182);"/>
        <path d="M211.573,297.185C216.538,301.999 218.325,303.258 223.487,299.461C232.432,296.432 234.338,297.808 235.169,292.444C237.012,280.543 239.365,280.218 240.431,280.071C241.305,279.951 255.824,279.573 257.577,280.354C261.458,282.084 258.571,294.535 264.406,296.74C267.4,297.871 270.341,298.633 270.843,298.689C280.345,300.992 279.487,300.976 282.887,299.163C283.68,298.74 283.367,298.587 284.343,298.123C291.325,294.8 292.498,293.669 297.732,299.291C298.442,300.053 305.828,307.986 305.79,309.512C305.744,311.409 296.261,320.898 298.275,325.596C300.944,331.822 299.574,332.286 302.98,338.181C303.563,339.191 305.163,338.622 312.437,340.697C316.036,341.724 319.089,339.628 319.09,346.502C319.093,356.966 320.218,363.171 315.562,363.822C304.468,365.374 303.576,366.465 302.841,368.606C301.807,371.617 301.874,371.532 300.937,374.539C297.274,381.675 297.053,382.236 301.935,389.218C302.028,389.351 302.052,389.312 303.512,390.495C305.445,395.546 305.15,395.787 302.775,400.594C300.36,401.613 300.424,401.645 298.474,403.361C292.274,406.935 292.258,410.715 286.234,406.932C278.383,402.003 278.119,401.185 274.663,402.861C263.115,408.462 261.276,406.214 260.463,409.489C258.637,416.854 258.138,425.462 252.477,425.037C250.128,424.861 249.99,424.336 248.083,425.753C242.965,423.738 242.93,423.796 237.5,424.455L236.522,424.522C236.25,423.178 233.239,408.298 232.263,407.915C215.947,401.507 215.042,402.072 213.74,402.886C204.604,408.589 203.828,410.835 198.397,406.632C194.293,403.457 194.058,403.667 191.469,403.305C191.414,402.883 192.389,402.789 192.334,402.368C191.839,398.586 186.055,398.454 191.346,390.404C191.724,389.829 191.809,389.919 196.202,383.301C196.989,382.115 197.2,381.797 190.657,366.407C189.121,362.794 174.499,366.798 174.188,357.53C173.815,346.436 173.28,341.984 179.437,341.108C190.948,339.47 190.851,338.727 192.13,335.435C193.588,331.684 194.572,328.681 196.223,323.46C197.352,319.891 197.3,320.367 195.081,317.723C191.724,311.604 190.258,311.3 190.315,310.145C190.358,309.254 192.474,307.117 195.081,303.439C196.466,301.816 197.236,300.798 197.499,300.498C204.538,292.167 207.673,295.96 211.573,297.185L276.994,341.341C265.577,311.266 226.47,316.858 217.791,339.612C204.82,373.619 245.275,394.678 266.34,377.298C283.214,363.377 277.809,344.228 276.994,341.341L211.573,297.185Z" style="fill:rgb(157,212,55);"/>
        <path d="M247.502,137.437C255.512,142.78 268.87,153.015 267.749,175.585C266.745,182.448 266.814,182.45 266.496,183.499C262.833,195.613 255.281,200.933 253.816,201.965C243.189,209.452 236.832,219.151 223.083,235.151C208.861,251.702 206.407,256.722 196.465,250.572C193.11,246.168 193.157,246.073 192.611,240.577C194.016,238.03 194.104,238.161 214.93,211.858C216.674,209.655 218.918,208.99 216.303,207.905C214.198,207.032 207.477,206.148 199.168,196.791C192.697,189.504 193.207,184.838 190.945,187.847C175.575,208.297 170.933,212.076 168.817,213.799C162.229,211.384 161.163,211.954 155.245,204.497C155.306,203.775 155.763,198.423 157.908,195.842C170.885,180.235 171.073,180.496 183.898,164.832C201.22,143.674 214.045,124.007 247.502,137.437Z" style="fill:rgb(15,30,67);"/>
        <path d="M424.269,335.892C383.674,306.549 423.32,252.906 460.327,272.8C502.42,295.427 470.021,361.413 424.269,335.892Z" style="fill:rgb(13,30,68);"/>
        <path d="M410.892,59.455C410.797,55.69 410.084,27.304 438.46,21.289C475.206,13.501 499.246,63.794 462.335,86.256C451.897,92.609 435.817,90.692 429.76,87.046C412.966,76.936 412.736,67.32 410.892,59.455Z" style="fill:rgb(12,31,69);"/>
        <path d="M397.358,373.118C403.367,373.941 505.294,373.761 509.615,373.142C517.666,373.382 517.557,373.119 525.503,373.28C538.504,373.542 539.703,385.901 533.338,391.305C527.933,395.894 500.081,392.052 460.497,393.542L441.503,393.542C435.274,393.16 434.863,393.319 414.501,393.31C401.953,393.697 402.031,393.588 389.512,393.202C382.187,392.975 368.436,396.119 367.115,384.546C365.289,368.542 390.152,374.26 397.358,373.118Z" style="fill:rgb(16,31,68);"/>
        <path d="M259.038,98.998C251.911,89.824 260.804,87.767 275.27,78.183C279.599,75.315 318.724,49.395 329.751,42.888C351.66,29.959 358.805,20.482 364.336,28.605C370.109,37.083 358.189,41.586 357.755,41.859C356.936,42.374 315.551,69.572 311.276,72.168C267.559,98.713 267.102,104.864 259.038,98.998Z" style="fill:rgb(16,31,70);"/>
        <path d="M437.595,326.141C412.753,317.927 419.425,287.812 438.548,283.69C471.654,276.553 477.82,332.143 437.595,326.141Z" style="fill:rgb(245,210,15);"/>
        <path d="M509.539,268.151C517.959,268.267 522.284,267.215 526.256,271.708C529.427,275.293 528.542,275.975 528.183,331.499C528.107,343.364 515.911,341.831 509.576,341.854C507.907,337.669 508.26,335.283 508.282,310.499C508.316,272.532 507.123,272.159 509.539,268.151Z" style="fill:rgb(14,30,68);"/>
        <path d="M461.648,68.62C441.497,90.93 410.471,59.074 433.684,39.721C449.457,26.571 477.699,45.42 461.648,68.62Z" style="fill:rgb(245,210,15);"/>
        <path d="M171.321,460.218C143.5,474.474 128.915,436.825 152.646,425.824C171.87,416.912 192.121,444.075 171.321,460.218Z" style="fill:rgb(229,148,27);"/>
        <path d="M61.452,444.502C63.877,416.49 92.104,421.977 98.168,433.664C112.422,461.137 66.268,478.561 61.452,444.502Z" style="fill:rgb(238,113,83);"/>
        <path d="M416.888,445.54C409.753,480.831 364.184,457.915 381.965,431.83C388.78,421.833 416.015,417.732 416.888,445.54Z" style="fill:rgb(153,208,54);"/>
        <path d="M458.505,452.498C449.35,425.868 478.762,417.239 490.377,430.611C507.754,450.617 476.464,480.209 458.505,452.498Z" style="fill:rgb(238,113,82);"/>
        <path d="M300.7,436.589C313.35,412.84 339.187,426.912 337.943,444.538C335.812,474.728 290.38,465.726 300.7,436.589Z" style="fill:rgb(230,148,26);"/>
        <path d="M236.522,424.522L237.5,424.455C242.93,423.796 242.965,423.738 248.083,425.753C274.492,439.982 250.582,476.449 227.848,459.063C224.081,456.183 209.375,435.958 236.522,424.522Z" style="fill:rgb(245,210,17);"/>
        <path d="M209.88,167.584C217.56,143.449 245.223,151.606 248.012,167.589C252.931,195.788 206.264,199.728 209.88,167.584Z" style="fill:rgb(244,209,22);"/>
        <path d="M273.96,138.638C274.069,138.439 275.634,132.528 282.463,131.312C287.142,130.479 291.097,134.277 292.018,135.808C301.035,150.814 271.992,159.769 273.96,138.638Z" style="fill:rgb(212,225,231);"/>
        <path d="M542.764,448.634C531.728,463.883 517.087,438.689 533.454,435.283C537.453,434.451 546.534,437.142 542.764,448.634Z" style="fill:rgb(189,196,198);"/>
        <path d="M237.033,169.606C237.775,189.767 213.262,177.539 221.889,166.789C224.777,163.191 233.743,160.557 237.033,169.606Z" style="fill:rgb(238,236,211);"/>
        <path d="M466.312,400.59L467.566,400.5C466.742,401.449 466.834,401.491 466.742,401.449C466.451,401.315 466.602,400.724 466.312,400.59Z" style="fill:rgb(250,251,250);fill-opacity:0.84;"/>
    </g>
</svg>
