<?xml version="1.0" encoding="UTF-8" standalone="no"?>
<!DOCTYPE svg PUBLIC "-//W3C//DTD SVG 1.1//EN" "http://www.w3.org/Graphics/SVG/1.1/DTD/svg11.dtd">
<svg width="100%" height="100%" viewBox="0 0 1024 1024" version="1.1" xmlns="http://www.w3.org/2000/svg" xmlns:xlink="http://www.w3.org/1999/xlink" xml:space="preserve" xmlns:serif="http://www.serif.com/" style="fill-rule:evenodd;clip-rule:evenodd;stroke-linejoin:round;stroke-miterlimit:2;">
    <g id="Background" transform="matrix(1.289734,0,0,1.289734,86.393395,-2.528033)">
        <path d="M475.507,506.382C471.087,509.896 415.914,547.848 410.713,551.426C395.424,529.873 394.075,526.404 389.531,528.562C249.701,594.964 20.094,517.751 2.817,298.469C-14.188,82.651 228.616,-75.204 422.418,41.634C566.6,128.558 617.542,339.853 462.198,483.157C457.139,487.823 461.767,488.317 467.17,495.768C473.317,504.245 472.903,504.349 475.507,506.382Z" style="fill:var(--icon-secondary, #1C75BD);"/>
        <path d="M50.029,315.614C45.074,289.965 38.647,189.876 119.229,113.226C282.095,-41.693 540.79,100.288 507.662,312.527C493.131,405.618 427.751,452.121 421.777,456.833C420.125,433.063 399.05,426.577 384.579,431.752C253.417,478.664 153.847,396.977 126.119,301.611C117.732,272.768 62.625,251.472 50.029,315.614Z" style="fill:var(--icon-accent, #ABE3EC);"/>
        <path d="M475.507,506.382C508.51,497.859 517.712,518.994 547.814,559.24C646.988,691.837 656.446,699.371 657.846,721.459C662.124,788.949 586.462,814.8 549.608,781.343C531.391,764.455 486.383,697.851 427.216,619.743C404.211,589.373 394.054,581.067 410.713,551.426C415.914,547.848 471.087,509.896 475.507,506.382Z" style="fill:var(--icon-primary, #F4C652);"/>
        <path d="M50.029,315.614C62.625,251.472 117.732,272.768 126.119,301.611C153.847,396.977 253.417,478.664 384.579,431.752C399.05,426.577 420.125,433.063 421.777,456.833C352.451,511.308 255.734,521.989 176.273,482.986C70.236,430.939 55.13,338.642 50.029,315.614Z" style="fill:var(--icon-detail, #5DCE82);"/>
        <path d="M253.312,81.835C276.559,97.347 262.305,119.209 247.575,123.717C134.445,158.343 137.138,235.717 114.349,247.239C96.893,256.066 67.968,244.612 88.662,201.571C112.416,152.167 150.553,108.578 226.504,82.509C245.687,75.924 250.51,80.65 253.312,81.835Z" style="fill:var(--icon-surface, #C9EBF0);"/>
        <path d="M447.828,530.046L446.5,529.044L447.004,528.5C447.279,529.015 447.553,529.531 447.828,530.046Z" style="fill:var(--icon-primary, #F9D04C);"/>
    </g>
</svg>
