<?xml version="1.0" encoding="UTF-8" standalone="no"?>
<!DOCTYPE svg PUBLIC "-//W3C//DTD SVG 1.1//EN" "http://www.w3.org/Graphics/SVG/1.1/DTD/svg11.dtd">
<svg width="100%" height="100%" viewBox="0 0 1024 1024" version="1.1" xmlns="http://www.w3.org/2000/svg" xmlns:xlink="http://www.w3.org/1999/xlink" xml:space="preserve" xmlns:serif="http://www.serif.com/" style="fill-rule:evenodd;clip-rule:evenodd;stroke-linejoin:round;stroke-miterlimit:2;">
    <g id="Background" transform="matrix(1.416714,0,0,1.416714,33.228702,-0.103923)">
        <path d="M346.273,6.954C394.309,33.018 421.266,45.384 488.485,65.546C501.09,69.327 560.841,83.612 573.453,84.978C579.401,85.623 579.192,86.563 647.539,95.191C673.856,98.512 673.866,126.98 673.867,130.503C673.938,323.666 687.412,494.943 518.771,629.826C459.489,677.241 398.748,703.543 354.571,718.678C334.895,725.419 334.352,722.807 324.552,719.359C254.323,694.656 233.814,683.626 174.428,643.608C167.062,638.645 142.882,618.135 140.193,615.854C110.103,590.331 57.79,533.329 31.384,457.546C5.039,381.938 5.087,302.11 3.257,289.52C2.26,282.66 2.038,233.385 2.016,228.502C1.533,121.427 1.302,120.165 4.732,112.612C13.744,92.765 37.635,94.971 45.539,93.779C84.539,87.895 173.123,77.038 273.521,34.55C297.403,24.444 336.879,2.248 337.531,2.344C339.059,2.569 338.724,3.15 346.273,6.954Z" style="fill:rgb(32,69,114);"/>
        <path d="M623.476,128.719C622.368,129.982 622.404,130.01 622.279,130.083C616.037,133.738 563.062,178.837 514.687,216.717C492.594,234.018 493.102,234.616 491.12,236.034C484.015,241.117 479.32,245.821 475.125,249.075C461.952,259.295 455.525,265.755 453.696,266.702C452.472,267.336 452.777,267.573 451.76,268.538C449.91,255.428 455.114,199.569 386.716,164.111C340.682,140.246 251.83,152.496 226.626,238.535C221.885,254.717 224.313,283.063 223.413,297.126C188.673,301.622 194.11,334.305 194.11,342.5C194.12,451.1 194.238,451.084 193.891,460.519C189.735,461.01 187.972,464.242 163.079,484.047C161.831,485.04 153.283,491.84 147.725,496.775C134.437,508.573 119.333,520.879 116.822,522.925C112.113,526.761 111.982,526.454 111.656,526.859C110.949,527.74 110.795,528.983 110.088,529.863C51.28,442.509 36.192,377.904 37.455,168.499C37.675,132.113 37.102,130.377 40.469,130.111C47.51,129.554 156.172,118.321 259.585,78.707C314.069,57.837 335.42,41.698 338.511,42.459C346.853,44.514 347.303,52.13 422.595,81.25C474.567,101.35 556.186,121.148 612.447,126.982C613.335,127.074 613.366,127.077 623.476,128.719Z" style="fill:rgb(100,199,231);"/>
        <path d="M623.476,128.719C632.87,129.571 637.667,129.244 637.917,132.455C638.012,133.671 640.531,262.661 634.482,327.499C623.875,441.193 586.879,539.885 472.233,619.108C420.618,654.775 367.552,675.216 342.527,684.572C336.104,686.973 335.812,685.859 320.551,680.352C249.931,654.871 186.766,612.624 154.073,579.915C138.423,564.257 134.342,562.184 110.088,529.863C110.795,528.983 110.949,527.74 111.656,526.859C111.982,526.454 112.113,526.761 116.822,522.925C119.333,520.879 134.437,508.573 147.725,496.775C153.283,491.84 161.831,485.04 163.079,484.047C187.972,464.242 189.735,461.01 193.891,460.519C193.696,519.323 192.765,520.86 200.015,530.89C215.114,549.152 221.826,542.56 288.499,543.671C298.817,543.842 298.771,542.661 417.5,543.613C456.886,543.928 457.3,543.763 460.496,542.489C486.091,532.283 481.428,510.201 481.701,484.504C481.79,476.152 481.878,330.026 481.761,327.492C480.486,299.987 454.906,297.748 451.509,297.451C450.442,289.99 451.618,270.847 451.76,268.538C452.777,267.573 452.472,267.336 453.696,266.702C455.525,265.755 461.952,259.295 475.125,249.075C479.32,245.821 484.015,241.117 491.12,236.034C493.102,234.616 492.594,234.018 514.687,216.717C563.062,178.837 616.037,133.738 622.279,130.083C622.404,130.01 622.368,129.982 623.476,128.719Z" style="fill:rgb(81,200,132);"/>
        <path d="M450.501,297.653L451.509,297.451C454.906,297.748 480.486,299.987 481.761,327.492C481.878,330.026 481.79,476.152 481.701,484.504C481.428,510.201 486.091,532.283 460.496,542.489C457.3,543.763 456.886,543.928 417.5,543.613C298.771,542.661 298.817,543.842 288.499,543.671C221.826,542.56 215.114,549.152 200.015,530.89C204.556,525.379 208.536,521.364 251.117,483.032C285.93,451.693 285.551,451.354 288.693,448.771C301.216,438.472 308.98,428.824 316.911,425.116C320.409,427.998 320.374,427.996 320.689,428.228C325.073,431.449 324.059,432.392 322.558,443.507C318.309,474.964 315.424,480.967 318.756,483.032C319.488,483.486 355.214,484.593 357.321,482.357C359.147,480.418 358.087,479.972 351.912,435.445C350.966,428.621 354.329,430.033 359.157,425.169C376.817,407.375 361.227,387.32 359.244,384.768C364.568,375.555 436.464,313.596 450.247,298.5L450.501,297.653Z" style="fill:rgb(246,203,67);"/>
        <path d="M223.413,297.126C225.981,297.123 241.554,297.106 255.512,297.337L257.561,297.231C263.248,297.389 333.861,297.319 340.496,297.312C359.064,297.294 392.765,297.722 418.407,297.047C434.949,297.932 434.925,296.256 450.501,297.653L450.247,298.5C436.464,313.596 364.568,375.555 359.244,384.768C331.1,359.347 290.657,395.743 316.911,425.116C308.98,428.824 301.216,438.472 288.693,448.771C285.551,451.354 285.93,451.693 251.117,483.032C208.536,521.364 204.556,525.379 200.015,530.89C192.765,520.86 193.696,519.323 193.891,460.519C194.238,451.084 194.12,451.1 194.11,342.5C194.11,334.305 188.673,301.622 223.413,297.126Z" style="fill:rgb(250,225,99);"/>
        <path d="M257.262,296.895C255.201,270.954 250.553,214.811 309.312,192.013C353.456,174.885 417.276,201.673 418.731,267.491C419.058,282.296 418.775,282.218 418.407,297.047C392.765,297.722 359.064,297.294 340.496,297.312C333.861,297.319 263.248,297.389 257.561,297.231L257.262,296.895Z" style="fill:rgb(100,199,231);"/>
        <path d="M451.76,268.538C451.618,270.847 450.442,289.99 451.509,297.451L450.501,297.653C434.925,296.256 434.949,297.932 418.407,297.047C418.775,282.218 419.058,282.296 418.731,267.491C417.276,201.673 353.456,174.885 309.312,192.013C250.553,214.811 255.201,270.954 257.262,296.895C256.679,297.042 256.095,297.189 255.512,297.337C241.554,297.106 225.981,297.123 223.413,297.126C224.313,283.063 221.885,254.717 226.626,238.535C251.83,152.496 340.682,140.246 386.716,164.111C455.114,199.569 449.91,255.428 451.76,268.538Z" style="fill:rgb(215,218,218);"/>
        <path d="M359.244,384.768C361.227,387.32 376.817,407.375 359.157,425.169C354.329,430.033 350.966,428.621 351.912,435.445C358.087,479.972 359.147,480.418 357.321,482.357C355.214,484.593 319.488,483.486 318.756,483.032C315.424,480.967 318.309,474.964 322.558,443.507C324.059,432.392 325.073,431.449 320.689,428.228C320.374,427.996 320.409,427.998 316.911,425.116C290.657,395.743 331.1,359.347 359.244,384.768Z" style="fill:rgb(30,67,112);"/>
        <path d="M257.262,296.895L257.561,297.231L255.512,297.337C256.095,297.189 256.679,297.042 257.262,296.895Z" style="fill:rgb(203,221,181);"/>
    </g>
</svg>
