<?xml version="1.0" encoding="UTF-8" standalone="no"?>
<!DOCTYPE svg PUBLIC "-//W3C//DTD SVG 1.1//EN" "http://www.w3.org/Graphics/SVG/1.1/DTD/svg11.dtd">
<svg width="100%" height="100%" viewBox="0 0 1024 1024" version="1.1" xmlns="http://www.w3.org/2000/svg" xmlns:xlink="http://www.w3.org/1999/xlink" xml:space="preserve" xmlns:serif="http://www.serif.com/" style="fill-rule:evenodd;clip-rule:evenodd;stroke-linejoin:round;stroke-miterlimit:2;">
    <g id="Background" transform="matrix(1.339769,0,0,1.339769,206.353864,-2.429987)">
        <path d="M42.161,739.969C28.008,739.132 27.66,739.001 26.481,738.557C5.382,730.61 3.193,716.152 2.22,709.526C2.075,708.537 2.142,41.297 2.19,34.497C2.338,13.397 20.372,1.974 32.503,1.846C37.551,1.793 420.622,1.82 421.499,1.826C439.152,1.951 451.921,15.379 453.776,31.478C454.491,37.676 453.925,599.139 453.876,648.501C453.812,711.607 455.133,717.136 447.239,726.29C431.728,744.279 418.184,736.729 412.691,740.595C412.262,740.236 411.929,739.772 411.5,739.413C410.165,738.294 367.096,739.184 362.5,738.929L361.5,738.767L360.177,739.908C358.345,739.336 352.234,739.427 347.499,739.416C257.936,739.205 258.027,739.091 168.5,739.221C97.393,739.325 97.149,738.994 94.552,740.526C93.065,739.299 93.112,739.206 92.946,739.2C67.339,738.329 48.559,739.361 43.5,739.004L42.161,739.969Z" style="fill:rgb(50,75,108);"/>
        <path d="M113.502,615.977C127.183,615.934 351.779,615.972 372.498,615.976C387.255,615.978 405.434,612.873 405.922,631.492C406.058,636.691 406.87,667.629 406.006,696.502C405.959,698.088 405.584,710.633 394.527,712.678C390.673,713.391 308.022,713.078 300.5,713.049C203.86,712.682 64.975,713.587 60.549,712.307C48.232,708.746 50.041,697.866 50.134,677.5C50.365,626.454 48.614,623.724 57.829,617.965C61.608,615.602 61.904,615.714 113.502,615.977Z" style="fill:rgb(245,165,76);"/>
        <path d="M53.506,588.495C49.305,582.514 50.106,580.999 50.104,570.502C50.103,567.541 50.097,536.305 50.105,533.499C50.169,513.323 47.179,496.71 66.506,496.971C78.512,497.133 349.058,496.992 351.501,497.037C394.008,497.808 405.94,491.446 406.029,516.505C406.047,521.621 406.245,577.105 406.09,580.462C405.797,586.799 399.35,592.91 394.525,593.632C389.215,594.426 307.098,593.976 299.496,593.934C153.201,593.131 153.217,594.101 140.498,593.937C63.795,592.951 61.658,597.236 53.506,588.495Z" style="fill:rgb(249,220,81);"/>
        <path d="M118.503,237.778C59.839,237.806 58.81,238.22 54.67,233.349C47.313,224.692 51.188,219.399 49.991,167.512C49.68,154.008 50.166,145.987 59.402,142.266C63.903,140.453 303.289,141.881 357.499,141.432C393.571,141.133 394.457,141.501 397.407,142.726C400.031,143.816 405.763,148.308 405.948,155.484C405.948,155.51 405.958,222.996 405.787,224.532C405.37,228.296 401.554,237.284 391.511,237.688C386.366,237.895 153.836,237.688 118.503,237.778Z" style="fill:rgb(77,180,239);"/>
        <path d="M406.058,402.499C406.094,407.304 406.482,459.034 405.828,462.56C403.125,477.135 385.551,474.736 375.501,474.706C287.376,474.44 64.765,475.322 60.645,474.031C47.814,470.008 50.101,455.543 50.073,440.5C49.984,392.669 49.413,392.527 50.84,388.63C55.349,376.308 66.34,378.614 90.499,378.406C154.205,377.858 364.661,378.284 388.502,378.332C408.771,378.373 406.079,395.13 406.058,402.499Z" style="fill:rgb(121,224,122);"/>
        <path d="M405.959,305.504C405.941,342.614 408.129,348.332 397.399,354.299C394.158,356.101 393.861,355.279 230.501,355.675C229.336,355.678 65.999,355.828 62.505,355.453C60.297,355.216 50.399,352.505 50.34,340.501C50.314,335.06 50.02,275.24 50.46,272.496C51.576,265.53 56.967,259.708 64.505,259.622C75.585,259.495 206.182,259.554 218.502,259.559C232.501,259.565 385.585,259.634 393.49,259.745C399.056,259.823 405.871,267.089 406.027,274.505C406.352,290.021 406.022,303.025 405.959,305.504Z" style="fill:rgb(51,203,181);"/>
        <path d="M78.27,663.486C78.397,662.821 79.334,657.922 83.609,656.914C89.461,655.535 154.35,656.378 160.501,656.458C172.945,656.619 170.42,669.069 165.329,671.119C162.002,672.458 161.854,671.918 120.5,671.76C83.193,671.617 78.685,673.298 78.27,663.486Z" style="fill:rgb(45,70,102);"/>
        <path d="M97.5,537.508C129.023,537.716 128.922,537.51 160.5,537.603C171.724,537.636 171.362,547.669 166.402,551.37C163.33,553.663 162.876,552.653 118.5,552.493C83.286,552.367 78.729,553.767 78.086,545.535C77.279,535.21 91.826,537.442 97.5,537.508Z" style="fill:rgb(44,69,100);"/>
        <path d="M86.498,300.381C97.572,300.271 102.226,300.535 159.5,300.502C175.016,300.493 170.108,314.835 163.476,315.294C157.332,315.72 157.355,315.334 86.501,315.409C76.251,315.42 73.615,301.329 86.498,300.381Z" style="fill:rgb(38,74,107);"/>
        <path d="M152.504,418.862C155.363,418.88 169.9,416.869 169.598,426.503C169.323,435.296 158.975,433.73 158.501,433.73C123.484,433.725 123.542,433.503 88.499,433.808C74.69,433.928 78.42,423.359 79.82,421.758C83.05,418.066 83.956,418.906 152.504,418.862Z" style="fill:rgb(38,71,98);"/>
        <path d="M77.956,190.422C77.928,189.589 77.116,184.087 83.443,182.285C87.032,181.263 138.697,181.987 143.502,182.055C162.292,182.318 167.637,180.125 169.491,188.502C171.896,199.373 152.913,196.675 152.503,196.68C142.095,196.803 129.499,196.712 127.499,196.697C84.251,196.383 81.101,199.076 77.956,190.422Z" style="fill:rgb(41,74,109);"/>
        <path d="M297.306,106.937C292.667,104.372 293.462,99.174 296.694,96.777C299.806,94.469 355.44,96.146 394.5,95.508C403.9,95.355 405.815,103.185 400.229,107.035C398.829,108 300.588,108.239 297.306,106.937Z" style="fill:rgb(23,48,77);"/>
        <path d="M56.584,95.901C67.531,95.116 119.987,95.568 125.5,95.616C151.529,95.84 159.198,94.014 160.75,100.433C162.944,109.508 147.843,107.74 146.496,107.751C139.536,107.81 84.403,108.272 59.496,107.623C49.962,107.375 48.491,98.869 56.584,95.901Z" style="fill:rgb(22,47,76);"/>
        <path d="M173.706,99.59C174.31,98.583 174.756,96.559 178.558,95.976C182.721,95.337 267.261,95.65 275.492,95.787C283.792,95.925 283.72,106.674 276.509,107.593C273.641,107.958 201.98,107.754 195.499,107.736C176.608,107.682 171.426,108.219 173.706,99.59Z" style="fill:rgb(23,48,77);"/>
        <path d="M51.539,50.501C51.895,48.249 51.883,46.599 55.657,44.929C57.793,43.985 151.773,44.553 155.494,44.731C162.504,45.066 163.209,54.798 156.446,56.045C153.551,56.579 107.732,56.171 103.496,56.133C56.724,55.717 52.766,58.353 51.539,50.501Z" style="fill:rgb(24,48,76);"/>
        <path d="M294.208,50.499C295.875,42.273 302.4,44.665 315.5,44.51C318.285,44.478 394.727,44.475 397.499,44.564C406.216,44.842 404.864,55.336 398.438,56.015C394.735,56.407 334.082,56.17 328.486,56.148C298.298,56.03 295.752,57.295 294.208,50.499Z" style="fill:rgb(24,48,76);"/>
        <path d="M185.5,44.553C196.904,44.361 238.544,44.658 273.5,44.412C285.288,44.329 283.255,55.539 276.496,56.046C274.692,56.181 186.542,56.165 182.512,56.068C181.582,56.046 171.116,55.795 173.644,48.547C175.694,42.672 185.318,44.551 185.5,44.553Z" style="fill:rgb(24,48,76);"/>
        <path d="M360.177,739.908L361.5,738.767L362.5,738.929C367.096,739.184 410.165,738.294 411.5,739.413C411.929,739.772 412.262,740.236 412.691,740.595C412.151,742.743 414.295,759.503 399.38,765.134C394.876,766.834 377.079,765.871 376.447,765.683C358.419,760.34 362.302,743.808 360.177,739.908Z" style="fill:rgb(22,43,67);"/>
        <path d="M42.161,739.969L43.5,739.004C48.559,739.361 67.339,738.329 92.946,739.2C93.112,739.206 93.065,739.299 94.552,740.526C93.611,748.274 96.101,759.372 79.541,765.632C78.118,766.17 60.186,766.215 58.45,765.677C40.591,760.145 44.167,743.644 42.161,739.969Z" style="fill:rgb(22,43,68);"/>
        <path d="M294.728,78.379C294.515,77.701 292.626,71.685 298.462,70.318C301.486,69.609 363.814,69.901 369.496,69.928C394.227,70.044 405.105,68.769 403.588,76.516C402.077,84.23 398.307,80.412 351.492,81.095C298.376,81.87 297.393,82.062 294.728,78.379Z" style="fill:rgb(24,48,78);"/>
        <path d="M51.653,74.537C54.993,68.115 58.447,70.149 68.499,70.028C75.378,69.946 139.294,69.181 154.491,69.882C162.576,70.255 161.921,79.778 156.391,81.017C155.095,81.307 103.067,81.136 102.509,81.13C58.933,80.658 51.301,84.043 51.653,74.537Z" style="fill:rgb(23,48,77);"/>
        <path d="M173.223,75.475C173.317,75.107 173.306,74.079 174.355,72.388C177.052,68.037 201.922,70.836 273.495,69.857C284.646,69.705 284.031,81.003 275.5,81.143C240.213,81.722 206.499,81.261 200.5,81.179C177.984,80.872 175.009,83.188 173.223,75.475Z" style="fill:rgb(24,48,77);"/>
        <path d="M365.763,539.232C376.302,551.019 354.394,563.916 349.618,547.473C347.883,541.498 356.446,531.088 365.763,539.232Z" style="fill:rgb(211,89,45);"/>
        <path d="M367.305,194.394C353.645,210.694 342.206,183.313 356.548,180.692C364.356,179.264 371.186,185.177 367.305,194.394Z" style="fill:rgb(33,105,170);"/>
        <path d="M352.626,301.63C361.336,295.075 368.195,303.246 368.586,307.492C370.13,324.257 339.712,318.018 352.626,301.63Z" style="fill:rgb(34,78,109);"/>
        <path d="M355.406,672.814C343.194,666.439 352.512,656.282 356.444,655.295C370.539,651.758 373.886,676.961 355.406,672.814Z" style="fill:rgb(246,142,48);"/>
        <path d="M330.73,194.634C319.677,208.952 305.443,186.738 318.501,181.503C322.415,179.934 335.31,180.17 330.73,194.634Z" style="fill:rgb(49,158,224);"/>
        <path d="M321.544,555.134C306.188,550.647 314.311,538.894 318.424,537.303C332.641,531.801 336.807,555.265 321.544,555.134Z" style="fill:rgb(154,232,109);"/>
        <path d="M350.139,423.364C356.878,411.649 366.14,419.206 367.779,423.4C373.234,437.349 345.468,441.119 350.139,423.364Z" style="fill:rgb(33,75,94);"/>
        <path d="M327.679,671.749C312.406,680.53 307.26,654.784 322.511,655.199C329.307,655.383 335.95,663.808 327.679,671.749Z" style="fill:rgb(218,93,48);"/>
        <path d="M327.345,300.844C340.56,311.591 319.527,326.129 313.886,311.324C312.201,306.902 315.306,295.597 327.345,300.844Z" style="fill:rgb(23,177,146);"/>
        <path d="M329.449,432.463C315.603,444.96 305.864,420.072 321.549,417.848C326.999,417.075 329.954,421.886 330.373,422.568C332.599,426.193 329.806,431.752 329.449,432.463Z" style="fill:rgb(28,178,124);"/>
    </g>
</svg>
