<?xml version="1.0" encoding="UTF-8" standalone="no"?>
<!DOCTYPE svg PUBLIC "-//W3C//DTD SVG 1.1//EN" "http://www.w3.org/Graphics/SVG/1.1/DTD/svg11.dtd">
<svg width="100%" height="100%" viewBox="0 0 1024 1024" version="1.1" xmlns="http://www.w3.org/2000/svg" xmlns:xlink="http://www.w3.org/1999/xlink" xml:space="preserve" xmlns:serif="http://www.serif.com/" style="fill-rule:evenodd;clip-rule:evenodd;stroke-linejoin:round;stroke-miterlimit:2;">
    <g id="Background" transform="matrix(1.397504,0,0,1.397504,-3.382792,-0.102335)">
        <path d="M735.05,373.479C731.021,375.394 728.047,375.063 679.477,374.942C676.49,374.921 676.545,374.912 632.504,374.857C612.199,374.831 612.256,374.898 610.473,375.5C610.179,370.427 610.281,370.527 610.096,365.52C604.805,222.145 493.529,158.425 448.516,143.455C281.756,87.993 131.423,213.946 127.803,363.507C126.65,411.165 135.845,435.786 143.454,458.506C136.801,463.399 82.752,483.704 77.035,487.627C61.898,449.283 64.249,439.448 60.588,439.118C14.358,434.953 3.525,432.271 2.926,410.486C2.113,380.887 2.299,325.973 3.355,322.453C10.203,299.638 32.501,305.513 52.464,300.372C56.9,299.229 57.039,300.436 61.439,299.13C65.961,297.788 68.952,256.645 101.659,204.597C105.967,197.743 102.927,197.282 98.654,190.403C96.172,186.407 89.221,177.813 82.62,166.428C79.412,160.894 72.488,154.981 77.38,142.442C80.648,134.067 135.347,79.701 147.426,76.287C161.835,72.214 175.678,88.238 192.196,98.995C197.786,102.635 198.822,106.955 203.749,103.844C207.555,101.441 243.086,83.362 261.418,77.29C300.095,64.48 302.64,66.884 303.158,62.48C303.531,59.305 309.31,20.865 312.414,14.459C318.778,1.325 322.991,1.711 391.499,1.983C413.399,2.07 424.369,1.816 428.143,24.564C429.64,33.584 430.262,33.366 431.824,42.456C435.525,63.989 434.908,64.581 436.592,65.165C448.133,69.167 451.503,67.172 492.442,83.638C494.898,84.626 502.209,87.567 522.26,97.99C536.369,105.325 536.882,105.442 538.276,104.232C542.579,100.499 571.31,79.053 579.428,76.307C592.579,71.858 597.285,80.163 625.206,103.841C627.898,106.124 655.901,134.497 657.654,137.397C668.071,154.627 658.915,160.347 636.779,193.705C633.385,198.819 632.239,199.149 634.335,202.605C647.662,224.573 660.575,245.22 673.335,293.552C675.808,302.92 679.744,298.405 697.443,301.886C709.294,304.216 720.452,302.827 728.289,310.701C736.334,318.784 735.123,330.294 735.05,373.479Z" style="fill:rgb(39,135,226);fill-opacity:1;"/>
        <path d="M519.02,278.823C541.116,316.791 535.668,319.845 530.427,324.417C514.165,338.608 506.843,337.693 507.898,344.438C511.85,369.703 512.2,374.379 507.85,397.56C506.64,404.004 511.821,402.137 531.851,418.075C533.612,419.476 540.91,421.369 526.817,447.665C513.419,472.663 502.014,485.622 498.295,487.05C493.34,488.953 492.191,486.993 479.675,482.075C466.363,476.844 465.743,471.539 460.02,477.002C445.898,490.483 420.36,500.413 416.631,501.863C410.899,504.092 413.403,506.259 409.69,530.528C408.072,541.109 404.615,543.976 371.5,544.444C340.208,544.886 335.413,541.783 332.796,540.091C324.193,534.524 328.07,504.632 322.473,502.563C306.55,496.677 294.2,492.074 276.388,475.626C270.545,470.231 247.539,494.401 236.743,485.201C225.794,475.87 199.239,432.769 202.887,422.634C206.135,413.613 229.347,404.914 229.703,400.516C230.165,394.809 224.167,383.041 228.349,352.483C229.616,343.225 231.025,340.239 226.383,337.725C200.668,323.794 201.864,317.105 202.335,314.471C204.475,302.505 229.92,250.465 244.467,255.598C270.253,264.696 270.13,272.336 276.901,266.965C310.683,240.16 324.44,243.47 325.2,237.47C328.802,209.052 323.753,199.421 348.477,198.136C406.438,195.125 405.87,202.072 407.198,204.671C411.917,213.904 410.402,238.573 413.736,240.092C427.152,246.202 427.735,244.832 444.301,254.827C460.454,264.573 459.907,271.044 467.258,267.083C470.62,265.272 490.244,255.789 493.465,255.276C503.234,253.719 509.005,265.307 519.02,278.823L295.049,360.429C294.211,368.268 287.841,403.551 325.264,431.83C339.033,442.234 393.214,464.223 431.359,412.407C450.06,387.004 452.098,325.21 394.485,301.537C372.81,292.63 343.399,296.766 322.578,313.599C300.314,331.598 297.072,349.639 295.049,360.429L519.02,278.823Z" style="fill:rgb(75,212,138);fill-opacity:1;"/>
        <path d="M679.477,374.942C681.927,386.454 678.512,420.381 676.658,431.522C676.325,433.521 675.594,435.476 675.565,437.503C675.557,438.097 676.561,438.393 676.553,438.987C673.517,441.876 674.953,442.563 673.666,446.561C673.263,447.812 669.723,461.486 667.667,467.566C650.1,519.505 636.892,530.933 633.299,540.435C631.365,545.548 665.957,578.284 661.654,592.553C657.74,605.534 639.269,618.961 635.793,623.758C632.228,628.677 631.606,627.979 627.269,632.277C592.136,667.091 587.181,666.666 574.441,661.618C572.421,660.817 550.327,644.338 548.259,642.796C536.104,633.73 535.688,632.873 533.393,634.322C528.703,637.282 507.051,650.948 470.417,663.289C439.088,673.843 436.143,670.326 435.056,675.411C431.236,693.279 429.776,716.978 420.756,724.799C416.274,728.685 415.291,730.888 376.501,730.952C345.337,731.003 345.297,731.081 342.552,730.327C337.121,728.835 315.111,735.788 310.011,710.572C309.846,709.754 308.86,708.307 307.012,698.57C304.872,687.299 304.658,686.565 304.362,685.544C303.2,681.55 304.701,673.959 299.57,672.311C294.956,670.829 279.561,669.512 255.564,659.336C254.306,658.802 254.223,659.276 239.577,653.321C237.016,652.28 208.726,638.229 204.735,635.19C199.506,631.209 191.97,641.734 175.728,652.792C160.41,663.221 152.657,671.798 134.259,653.743C132.521,652.036 131.825,652.843 111.716,633.269C108.7,630.334 99.809,622.153 98.767,621.194C94.183,616.976 80.113,601.76 78.349,598.593C71.032,585.464 78.341,579.627 89.807,562.742C102.33,544.301 106.521,543.773 101.672,536.393C91.614,521.083 78.781,491.634 77.035,487.627C82.752,483.704 136.801,463.399 143.454,458.506C146.693,465.144 155.978,494.601 188.741,530.279C258.551,606.3 343.692,607.776 355.491,608.604C389.008,610.954 424.184,603.991 446.406,596.22C508.297,574.573 532.497,545.242 544.116,535.03C548.118,531.513 564.511,511.149 565.135,510.236C591.9,471.083 607.75,438.687 610.473,375.5C612.256,374.898 612.199,374.831 632.504,374.857C676.545,374.912 676.49,374.921 679.477,374.942Z" style="fill:rgb(250,222,69);fill-opacity:1;"/>
        <path d="M735.05,373.479C734.804,419.688 737.204,422.714 723.272,432.177C719.611,434.664 690.617,438.66 676.553,438.987C676.561,438.393 675.557,438.097 675.565,437.503C675.594,435.476 676.325,433.521 676.658,431.522C678.512,420.381 681.927,386.454 679.477,374.942C728.047,375.063 731.021,375.394 735.05,373.479Z" style="fill:rgb(243,138,66);"/>
    </g>
</svg>
