<?xml version="1.0" encoding="UTF-8" standalone="no"?>
<!DOCTYPE svg PUBLIC "-//W3C//DTD SVG 1.1//EN" "http://www.w3.org/Graphics/SVG/1.1/DTD/svg11.dtd">
<svg width="100%" height="100%" viewBox="0 0 1024 1024" version="1.1" xmlns="http://www.w3.org/2000/svg" xmlns:xlink="http://www.w3.org/1999/xlink" xml:space="preserve" xmlns:serif="http://www.serif.com/" style="fill-rule:evenodd;clip-rule:evenodd;stroke-linejoin:round;stroke-miterlimit:2;">
    <g id="Background" transform="matrix(1.623472,0,0,1.623472,154.957748,1.083962)">
        <path d="M335.51,147.078C335.262,147.265 334.826,146.861 334.578,147.048C333.32,147.998 333.495,153.898 333.513,154.5C333.564,156.215 333.447,177.495 333.436,179.495C333.539,185.421 333.43,388.313 333.361,392.498C333.068,410.473 321.228,419.521 316.264,422.017C301.899,429.242 300.88,425.619 122.477,426.275C90.819,426.151 90.096,426.272 87.322,426.737C82.861,425.223 35.316,427.843 27.464,425.616C-1.01,417.541 1.898,393.582 1.934,376.502C2.255,225.253 1.247,32.936 2.657,27.55C10.856,-3.765 45.332,2.023 49.498,2.011C82.429,1.92 304.221,1.84 305.552,2.14C337.051,9.242 333.113,39.693 333.115,40.5C333.201,82.299 333.168,134.337 333.163,142.496C333.161,145.067 332.103,146.158 335.51,147.078Z" style="fill:rgb(22,115,199);"/>
        <path d="M32.883,148.498C32.805,135.163 32.851,132.37 32.881,120.494C32.957,90.125 28.919,67.037 54.805,47.98C74.072,33.796 76.192,37.761 171.5,36.901C208.042,36.571 207.954,37.625 244.501,37.192C287.924,36.678 299.552,73.031 300.108,87.522C301.327,119.249 300.677,158.343 300.575,164.501C299.628,221.521 301.321,221.47 300.662,278.501C300.057,330.796 304.499,349.636 289.356,368.383C269.554,392.897 245.792,388.747 228.502,388.637C95.04,387.79 95.098,388.87 83.501,388.613C48.25,387.831 35.777,357.809 33.903,346.429C31.951,334.574 33.257,219.247 32.883,148.498Z" style="fill:rgb(94,174,237);"/>
        <path d="M100.409,519.593C100.732,519.889 101.215,520.333 105.401,521.836C108.458,522.934 383.428,521.634 393.501,522.493C397.907,527.335 398.738,527.281 398.789,535.493C399.318,619.67 399.841,620.584 395.097,626.07C394.073,627.254 391.817,628.904 391.513,629.127C380.373,629.147 380.463,629.845 379.5,629.845C378.435,629.845 377.271,628.873 375.454,629.345C370.892,630.528 315.122,629.869 314.444,629.68C310.073,628.464 310.063,629.917 305.5,629.918C173.862,629.939 173.939,629.858 162.5,629.929C135.725,630.096 135.692,628.724 133.453,629.35C130.339,630.22 55.066,630.499 32.545,629.128C-2.797,626.977 2.035,588.967 2.065,586.504C2.479,552.218 -3.035,536.957 22.393,524.289C26.16,522.412 26.401,523.49 30.442,522.322C32.343,521.772 87.39,521.924 99.468,522.087C101.192,522.11 100.594,521.297 100.409,519.593Z" style="fill:rgb(251,225,92);"/>
        <path d="M333.436,179.495C343.232,183.273 363.638,171.608 391.399,198.59C402.343,209.226 402.735,230.553 402.789,233.489C403.1,250.367 402.645,250.356 403.591,444.499C403.725,471.961 383.948,496.532 350.504,496.793C282.741,497.321 187.659,496.944 173.499,496.888C170.054,496.874 154.704,498.749 137.695,483.273C120.553,467.676 120.715,449.2 121.617,428.515C121.681,427.035 122.437,426.378 122.477,426.275C300.88,425.619 301.899,429.242 316.264,422.017C321.228,419.521 333.068,410.473 333.361,392.498C333.43,388.313 333.539,185.421 333.436,179.495Z" style="fill:rgb(132,221,125);"/>
        <path d="M335.51,147.078C341.512,147.01 406.562,146.272 410.545,147.349C441.042,155.59 437.877,179.457 437.882,196.5C437.89,220.503 437.981,493.135 437.817,496.536C437.109,511.256 422.691,521.23 420.634,522.653C418.552,523.225 418.634,523.269 416.672,524.039C408.382,521.054 397.838,522.132 393.501,522.493C383.428,521.634 108.458,522.934 105.401,521.836C101.215,520.333 100.732,519.889 100.409,519.593C85.996,507.337 88.099,501.213 88.097,452.503C88.096,428.899 88.135,428.867 87.322,426.737C90.096,426.272 90.819,426.151 122.477,426.275C122.437,426.378 121.681,427.035 121.617,428.515C120.715,449.2 120.553,467.676 137.695,483.273C154.704,498.749 170.054,496.874 173.499,496.888C187.659,496.944 282.741,497.321 350.504,496.793C383.948,496.532 403.725,471.961 403.591,444.499C402.645,250.356 403.1,250.367 402.789,233.489C402.735,230.553 402.343,209.226 391.399,198.59C363.638,171.608 343.232,183.273 333.436,179.495C333.447,177.495 333.564,156.215 333.513,154.5C333.495,153.898 333.32,147.998 334.578,147.048C334.826,146.861 335.262,147.265 335.51,147.078Z" style="fill:rgb(80,198,108);"/>
        <path d="M117.418,258.576C78.463,216.391 100.653,152.115 158.525,143.79C181.665,140.461 235.993,154.279 233.848,217.536C232.325,262.41 168.306,305.841 117.418,258.576Z" style="fill:rgb(19,113,197);"/>
        <path d="M124.38,250.62C93.88,217.4 114.482,183.723 118.923,177.848C149.989,136.75 202.573,155.509 215.69,181.4C248.028,245.231 172.804,297.114 124.38,250.62Z" style="fill:rgb(212,212,212);"/>
        <path d="M393.501,522.493C397.838,522.132 408.382,521.054 416.672,524.039C418.622,524.84 418.525,524.973 420.631,525.347C434.124,534.544 435.224,539.003 437.31,547.559C438.535,552.583 437.866,602.722 437.615,603.536C428.691,632.452 408.76,629.134 391.513,629.127C391.817,628.904 394.073,627.254 395.097,626.07C399.841,620.584 399.318,619.67 398.789,535.493C398.738,527.281 397.907,527.335 393.501,522.493Z" style="fill:rgb(243,179,35);"/>
        <path d="M211.5,590.758C158.981,590.762 159.064,590.866 154.505,590.838C134.807,590.72 137.527,573.208 138.433,571.47C145.562,557.8 155.246,562.84 203.494,562.171C205.334,562.146 215.251,562.008 226.5,562.011C243.664,562.015 244.049,575.804 242.892,579.611C238.738,593.289 228.642,590.786 211.5,590.758Z" style="fill:rgb(254,255,221);"/>
        <path d="M32.691,567.633C39.393,560.352 44.578,561.955 56.496,562.019C78.021,562.134 77.915,561.862 99.51,562.047C125.162,562.267 121.891,590.981 101.5,590.823C55.865,590.468 42.027,591.67 38.402,589.688C24.462,582.065 31.789,569.216 32.691,567.633Z" style="fill:rgb(245,106,70);"/>
        <path d="M149.711,220.384C139.589,198.491 165.192,185.478 177.335,195.711C200.744,215.437 166.742,246.41 149.711,220.384Z" style="fill:rgb(21,113,197);"/>
        <path d="M307.426,403.383C290.248,412.544 285.774,383.44 302.516,384.151C308.33,384.398 318.866,393.598 307.426,403.383Z" style="fill:rgb(0,60,192);"/>
        <path d="M24.306,401.677C14.849,388.103 29.239,383.184 33.541,384.306C50.374,388.694 37.148,414.625 24.306,401.677Z" style="fill:rgb(0,60,192);"/>
        <path d="M21.738,40.432C20.17,22.693 35.162,26.924 37.347,28.69C51.145,39.844 29.216,57.755 21.738,40.432Z" style="fill:rgb(0,60,192);"/>
        <path d="M395.331,497.503C396.181,484.23 408.883,483.62 413.601,490.423C423.303,504.41 398.006,515.359 395.331,497.503Z" style="fill:rgb(64,158,104);"/>
        <path d="M312.836,37.514C310.086,57.303 284.524,43.771 294.799,30.711C298.839,25.576 311.582,23.628 312.836,37.514Z" style="fill:rgb(0,60,192);"/>
        <path d="M395.92,176.63C403.835,161.87 414.191,172.947 415.109,175.637C420.792,192.293 392.092,196.208 395.92,176.63Z" style="fill:rgb(64,158,104);"/>
        <path d="M112.375,505.731C100.383,497.286 110.486,486.003 116.537,485.987C132.262,485.946 128.894,512.894 112.375,505.731Z" style="fill:rgb(64,158,104);"/>
        <path d="M420.634,522.653C419.706,523.943 419.671,524.083 420.631,525.347C418.525,524.973 418.622,524.84 416.672,524.039C418.634,523.269 418.552,523.225 420.634,522.653Z" style="fill:rgb(211,237,187);fill-opacity:0.87;"/>
    </g>
</svg>
