<?xml version="1.0" encoding="UTF-8" standalone="no"?>
<!DOCTYPE svg PUBLIC "-//W3C//DTD SVG 1.1//EN" "http://www.w3.org/Graphics/SVG/1.1/DTD/svg11.dtd">
<svg width="100%" height="100%" viewBox="0 0 1024 1024" version="1.1" xmlns="http://www.w3.org/2000/svg" xmlns:xlink="http://www.w3.org/1999/xlink" xml:space="preserve" xmlns:serif="http://www.serif.com/" style="fill-rule:evenodd;clip-rule:evenodd;stroke-linejoin:round;stroke-miterlimit:2;">
    <g id="Background" transform="matrix(1.487428,0,0,1.487428,28.670293,-2.566732)">
        <path d="M531.445,110.325C530.529,116.282 531.113,151.121 531.041,171.495C530.97,191.24 528.276,208.079 543.651,214.109C550.568,216.822 630.889,214.291 647.964,215.552C647.973,216.488 647.974,587.184 647.974,619.499C647.974,644.25 652.306,672.927 621.579,686.686C609.268,692.199 592.959,688.274 589.437,689.319C585.13,690.597 579.275,687.87 574.436,689.318C566.883,691.578 565.367,687.84 560.437,689.319C553.946,691.266 547.15,688.838 545.439,689.318C538.133,691.368 530.813,687.698 525.436,689.319C518.563,691.392 497.847,688.295 494.436,689.317C487.276,691.463 464.232,688.782 462.436,689.318C455.351,691.435 451.48,688.407 448.437,689.318C440.737,691.621 436.898,687.976 432.436,689.317C424.73,691.631 420.314,687.866 415.437,689.318C409.674,691.034 403.543,687.781 398.436,689.319C390.6,691.679 390.267,686.979 382.437,689.319C376.518,691.088 370.913,687.679 365.436,689.318C358.102,691.512 357.79,687.123 350.437,689.319C345.232,690.874 340.307,687.868 335.437,689.318C328.88,691.272 323.363,688.779 321.439,689.317C312.94,691.696 307.661,687.761 302.437,689.318C298.592,690.464 290.707,688.035 286.436,689.319C278.957,691.568 275.466,687.825 270.437,689.32C263.645,691.338 259.791,687.721 254.437,689.32C249.751,690.72 242.309,687.86 237.437,689.321C233.527,690.493 233.527,688.988 229.5,688.986C210.991,688.976 210.965,690.51 192.558,688.091C182.456,686.764 181.476,683.167 176.444,680.996C175.846,679.948 176.235,679.725 174.622,678.395C157.236,664.057 162.508,642.115 161.318,593.475C161.644,588.157 161.812,544.8 161.416,534.521C161.687,521.983 161.635,500.487 161.628,497.527C161.574,486.999 161.561,487.101 161.403,476.522C161.494,457.453 161.533,457.516 161.359,438.468C161.946,429.746 161.53,419.338 161.493,416.502C161.481,413.54 161.465,409.737 161.436,379.486C161.893,370.137 161.574,362.902 161.502,358.5C161.5,355.14 161.482,325.808 161.579,316.507C161.99,296.966 161.652,260.358 161.607,255.475C161.253,230.032 162.005,215.409 161.561,209.512C162.05,197.361 161.552,155.222 161.496,150.501C161.672,148.044 161.294,133.283 173.039,122.041C174.389,120.749 181.922,113.538 193.577,110.906C199.752,109.511 516.295,110.714 531.445,110.325Z" style="fill:rgb(251,241,143);"/>
        <path d="M457.913,81.506C457.97,51.288 458.112,51.286 457.473,49.509C455.881,45.082 450.779,45.801 449.497,45.781C434.898,45.551 126.583,45.708 98.503,45.723C50.688,45.747 47.683,44.602 46.475,51.495C45.467,57.25 46.077,382.701 46.13,411.502C46.445,579.168 44.947,579.996 47.928,583.097C49.581,584.817 49.875,585.151 88.497,585.148C89.037,585.841 89.422,585.532 89.534,586.477C90.062,590.927 89.678,625.957 89.63,626.511C89.539,627.567 90.193,627.505 89.772,628.5C89.575,628.965 88.757,628.946 88.561,629.412C74.444,627.737 44.168,630.594 34.471,627.585C-3.66,615.75 1.998,579.042 2,569.5C1.971,458.167 1.942,346.833 1.913,235.5C2.16,47.119 1.199,47.063 2.882,35.562C5.227,19.528 20.796,5.989 33.433,3.171C40.99,1.486 41.082,1.943 431.5,1.872C460.189,1.867 477.14,-0.797 491.161,16.787C504.429,33.425 500.153,46.472 501.31,81.567C498.223,82.629 496.199,83.325 460.506,82.437C458.33,82.382 458.534,81.823 457.913,81.506Z" style="fill:rgb(40,131,229);"/>
        <path d="M457.913,81.506C458.534,81.823 458.33,82.382 460.506,82.437C496.199,83.325 498.223,82.629 501.31,81.567C503.733,83.908 504.262,82.768 525.502,82.958C558.91,83.258 568.973,113.737 565.278,132.57C554.809,126.856 544.554,110.532 536.514,110.146C536.108,110.127 536.138,110.16 531.445,110.325C516.295,110.714 199.752,109.511 193.577,110.906C181.922,113.538 174.389,120.749 173.039,122.041C161.294,133.283 161.672,148.044 161.496,150.501C136.767,151.175 133.721,149.764 132.276,153.393C131.208,156.078 131.706,199.482 131.752,203.489C131.865,213.365 153.598,206.207 161.561,209.512C162.005,215.409 161.253,230.032 161.607,255.475C135.584,255.042 132.428,255.207 131.983,259.56C131.845,260.913 131.398,310.53 132.305,312.608C134.218,316.989 155.604,314.464 159.423,315.206C160.247,315.367 160.755,316.347 161.579,316.507C161.482,325.808 161.5,355.14 161.502,358.5C159.957,358.262 160.036,358.019 158.522,358.041C140.934,358.304 133.169,356.134 131.88,361.584C131.595,362.79 131.797,374.275 131.981,375.4C132.959,381.37 153.656,377.172 161.436,379.486C161.465,409.737 161.481,413.54 161.493,416.502C152.859,419.603 132.452,413.241 131.905,421.547C130.938,436.216 132.141,438.052 137.503,438.115C155.462,438.323 155.395,437.646 161.359,438.468C161.533,457.516 161.494,457.453 161.403,476.522C148.935,477.565 148.986,476.113 136.518,476.929C130.745,477.308 131.797,483.711 131.796,492.489C131.796,500.624 153.659,494.958 161.628,497.527C161.635,500.487 161.687,521.983 161.416,534.521C156.886,534.9 143.092,534.583 141.5,534.546C129.286,534.265 132.119,539.604 131.922,548.504C131.855,551.543 131.853,551.63 131.775,586.495C131.75,598.119 153.817,589.466 161.318,593.475C162.508,642.115 157.236,664.057 174.622,678.395C176.235,679.725 175.846,679.948 176.444,680.996C128.538,681.143 128.543,681.494 124.56,680.324C117.434,678.229 109.182,678.166 99.204,665.754C84.089,646.952 93.452,642.686 88.561,629.412C88.757,628.946 89.575,628.965 89.772,628.5C90.193,627.505 89.539,627.567 89.63,626.511C89.678,625.957 90.062,590.927 89.534,586.477C89.422,585.532 89.037,585.841 88.497,585.148C88.691,584.793 89.227,584.716 89.422,584.36C89.766,583.732 89.554,146.874 89.537,140.5C89.504,128.144 85.52,99.133 113.714,85.963C122.853,81.694 123.364,83.289 264.496,82.932C279.696,82.894 413.848,82.555 454.486,83.037C458.093,83.08 457.476,81.777 457.913,81.506Z" style="fill:rgb(113,217,225);"/>
        <path d="M457.913,81.506C457.476,81.777 458.093,83.08 454.486,83.037C413.848,82.555 279.696,82.894 264.496,82.932C123.364,83.289 122.853,81.694 113.714,85.963C85.52,99.133 89.504,128.144 89.537,140.5C89.554,146.874 89.766,583.732 89.422,584.36C89.227,584.716 88.691,584.793 88.497,585.148C49.875,585.151 49.581,584.817 47.928,583.097C44.947,579.996 46.445,579.168 46.13,411.502C46.077,382.701 45.467,57.25 46.475,51.495C47.683,44.602 50.688,45.747 98.503,45.723C126.583,45.708 434.898,45.551 449.497,45.781C450.779,45.801 455.881,45.082 457.473,49.509C458.112,51.286 457.97,51.288 457.913,81.506Z" style="fill:rgb(251,252,252);"/>
        <path d="M580.115,529.361C573.663,541.011 570.703,538.551 534.503,538.753C528.534,538.786 268.318,538.694 241.495,538.774C226.367,538.819 219.073,510.59 245.49,510.908C273.116,511.241 568.673,510.686 570.564,511.192C582.54,514.397 580.378,527.74 580.115,529.361Z" style="fill:rgb(83,218,104);"/>
        <path d="M580.612,588.499C578.797,605.802 569.425,602.347 532.5,602.514C530.851,602.521 264.933,602.381 241.499,602.573C224.098,602.715 222.777,574.526 242.497,574.658C288.355,574.965 541.413,574.781 544.503,574.749C572.442,574.456 577.139,574.404 580.3,585.548C580.365,585.776 580.323,585.767 580.612,588.499Z" style="fill:rgb(83,218,104);"/>
        <path d="M580.688,461.505C578.115,477.22 570.014,474.493 533.501,474.596C509.909,474.663 244.324,475.414 238.602,474.106C223.081,470.557 225.521,446.887 241.513,446.762C281.285,446.452 415.378,446.811 430.497,446.851C484.83,446.996 484.78,446.858 489.5,446.941C507.688,447.263 568.101,445.894 572.426,447.698C580.272,450.97 580.637,460.219 580.688,461.505Z" style="fill:rgb(83,218,105);"/>
        <path d="M262.502,405.717C242.002,405.417 229.219,408.755 227.94,391.5C227.579,386.624 233.039,378.426 241.495,378.245C241.664,378.242 362.796,378.208 369.508,378.269C383.917,378.401 568.821,377.689 571.417,378.736C585.236,384.309 585.165,406.105 564.497,405.822C538.3,405.464 262.669,405.714 262.502,405.717Z" style="fill:rgb(245,206,61);"/>
        <path d="M297.51,311.121C319.352,311.066 566.832,310.448 570.535,311.363C585.843,315.144 583.219,338.663 567.502,338.6C536.609,338.474 273.437,338.203 240.495,338.66C226.383,338.856 223.345,315.601 238.487,311.459C243.042,310.213 243.133,310.794 297.51,311.121Z" style="fill:rgb(247,206,60);"/>
        <path d="M531.445,110.325C536.138,110.16 536.108,110.127 536.514,110.146C544.554,110.532 554.809,126.856 565.278,132.57C569.656,140.56 585.504,152.406 639.753,206.243C646.516,212.954 647.265,212.511 647.964,215.552C630.889,214.291 550.568,216.822 543.651,214.109C528.276,208.079 530.97,191.24 531.041,171.495C531.113,151.121 530.529,116.282 531.445,110.325Z" style="fill:rgb(245,136,81);"/>
        <path d="M326.499,245.319C413.932,245.3 413.903,245.101 421.498,245.383C436.32,245.933 440.526,265.214 427.355,272.171C423.638,274.134 260.302,272.522 245.516,272.929C223.221,273.543 226.881,255.247 231.888,249.826C237.529,243.718 239.018,245.485 326.499,245.319Z" style="fill:rgb(247,208,61);"/>
        <path d="M161.607,255.475C161.652,260.358 161.99,296.966 161.579,316.507C160.755,316.347 160.247,315.367 159.423,315.206C155.604,314.464 134.218,316.989 132.305,312.608C131.398,310.53 131.845,260.913 131.983,259.56C132.428,255.207 135.584,255.042 161.607,255.475Z" style="fill:rgb(41,155,224);"/>
        <path d="M161.496,150.501C161.552,155.222 162.05,197.361 161.561,209.512C153.598,206.207 131.865,213.365 131.752,203.489C131.706,199.482 131.208,156.078 132.276,153.393C133.721,149.764 136.767,151.175 161.496,150.501Z" style="fill:rgb(40,153,225);"/>
        <path d="M161.416,534.521C161.812,544.8 161.644,588.157 161.318,593.475C153.817,589.466 131.75,598.119 131.775,586.495C131.853,551.63 131.855,551.543 131.922,548.504C132.119,539.604 129.286,534.265 141.5,534.546C143.092,534.583 156.886,534.9 161.416,534.521Z" style="fill:rgb(40,154,224);"/>
        <path d="M161.493,416.502C161.53,419.338 161.946,429.746 161.359,438.468C155.395,437.646 155.462,438.323 137.503,438.115C132.141,438.052 130.938,436.216 131.905,421.547C132.452,413.241 152.859,419.603 161.493,416.502Z" style="fill:rgb(38,152,222);"/>
        <path d="M161.502,358.5C161.574,362.902 161.893,370.137 161.436,379.486C153.656,377.172 132.959,381.37 131.981,375.4C131.797,374.275 131.595,362.79 131.88,361.584C133.169,356.134 140.934,358.304 158.522,358.041C160.036,358.019 159.957,358.262 161.502,358.5Z" style="fill:rgb(38,154,223);"/>
        <path d="M161.403,476.522C161.561,487.101 161.574,486.999 161.628,497.527C153.659,494.958 131.796,500.624 131.796,492.489C131.797,483.711 130.745,477.308 136.518,476.929C148.986,476.113 148.935,477.565 161.403,476.522Z" style="fill:rgb(39,154,224);"/>
        <path d="M84.223,597.433C85.538,599.802 85.799,599.798 85.384,602.498C85.068,604.557 84.525,604.563 85.309,606.534C86.972,610.711 81.827,609.091 81.309,607.768C79.542,603.262 83.685,598.103 84.223,597.433Z" style="fill:rgb(38,130,227);"/>
    </g>
</svg>
