<?xml version="1.0" encoding="UTF-8" standalone="no"?>
<!DOCTYPE svg PUBLIC "-//W3C//DTD SVG 1.1//EN" "http://www.w3.org/Graphics/SVG/1.1/DTD/svg11.dtd">
<svg width="100%" height="100%" viewBox="0 0 1024 1024" version="1.1" xmlns="http://www.w3.org/2000/svg" xmlns:xlink="http://www.w3.org/1999/xlink" xml:space="preserve" xmlns:serif="http://www.serif.com/" style="fill-rule:evenodd;clip-rule:evenodd;stroke-linejoin:round;stroke-miterlimit:2;">
    <g id="Background" transform="matrix(1.195851,0,0,1.195851,-3.305119,96.472887)">
        <path d="M438.941,680.468C438.082,673.805 438.468,673.788 438.651,596.5C438.662,591.942 438.756,552.498 438.205,539.527C437.816,530.361 438.861,524.503 438.858,524.471C438.435,519.445 438.147,519.554 438.165,514.496C438.172,512.593 439.426,509.552 438.671,506.454C437.213,500.464 438.845,500.492 438.883,496.506C438.934,491.147 438.736,491.204 438.119,429.516C438.048,422.421 430.435,420.627 427.7,422.759C422.852,426.537 423.938,427.345 423.913,433.503C423.825,454.741 423.037,454.688 423.198,456.523C423.394,458.757 425.151,478.805 423.689,484.552C422.798,488.053 423.858,487.984 423.895,491.496C423.979,499.548 423.741,499.437 423.888,507.496C424.376,534.293 423.082,534.217 423.394,536.518C424.541,544.984 423.047,544.943 423.433,553.501C423.494,554.861 423.839,562.53 423.697,570.518C422.991,610.109 423.976,610.095 423.871,613.534C423.39,629.206 424.022,629.233 423.68,630.551C422.887,633.601 424.686,641.665 423.677,645.55C422.305,650.834 424.913,655.726 423.667,660.547C422.171,666.335 423.715,667.116 423.858,669.464C425.543,697.234 396.427,717.147 372.425,703.627C358.697,695.894 355.26,682.701 354.671,680.441C352.851,673.452 354.629,474.275 353.655,470.458C351.857,463.409 354.545,458.997 353.653,455.458C352.553,451.094 353.242,255.284 353.072,240.5C352.87,222.784 341.461,228.583 338.703,234.582C337.086,238.102 338.907,395.488 337.67,399.559C330.217,424.105 304.013,419.907 296.346,402.566C293.089,395.199 295.902,337.362 294.676,332.452C292.877,325.249 295.563,318.205 294.665,314.456C293.955,311.493 295.593,303.241 294.67,299.455C294.333,298.073 294.508,298.14 294.846,292.526C295.284,285.229 293.62,278.816 294.19,273.472C294.991,265.954 293.41,265.985 294.199,258.473C295.676,244.404 294.505,228.856 294.913,211.509C295.342,193.291 309.922,156.962 350.561,146.673C358.384,144.692 358.423,144.939 476.499,144.915C502.84,144.91 522.28,142.563 547.298,167.698C569.622,190.126 567.323,219.397 567.359,219.539C569.21,226.794 566.276,230.229 567.363,234.537C569.217,241.88 566.292,248.328 567.367,252.536C568.985,258.869 566.997,262.275 567.191,264.524C568.006,274.01 568.582,274.016 567.68,277.55C565.826,284.822 568.78,288.215 567.683,292.551C566.819,295.966 567.859,295.895 567.887,299.496C568.108,328.148 567.32,328.308 567.372,328.533C568.475,333.29 567.832,390.899 567.664,391.546C565.497,399.912 568.407,401.647 557.27,412.251C553.784,415.571 545.462,417.152 543.463,416.63C536.236,414.741 528.517,414.883 523.68,399.436C522.227,394.794 523.39,280.84 522.956,237.494C522.817,223.633 505.19,228.517 508.35,241.54C509.737,247.259 508.387,249.336 508.166,251.471C508.109,252.015 508.124,322.883 508.189,323.526C508.999,331.532 507.553,331.5 508.189,337.528C508.664,342.037 508.507,341.987 508.182,346.471C507.744,352.49 508.899,357.858 508.842,358.527C508.044,368.019 509.2,367.986 508.186,377.471C507.701,382.002 508.877,389.205 508.848,389.529C507.662,403.137 508.232,403.104 508.087,584.497C508.012,677.91 508.972,681.241 503.625,689.575C481.778,723.624 441.3,704.034 438.941,680.468Z" style="fill:rgb(100,210,133);"/>
        <path d="M271.085,400.396C261.737,425.058 228.321,421.802 228.987,390.502C229.444,369.033 229.074,251.582 229.036,239.502C228.993,225.818 214.942,225.267 214.849,237.504C214.496,284.019 214.452,283.93 214.825,330.495C214.963,347.855 214.315,347.827 214.067,547.498C213.909,675.114 214.548,675.264 212.659,681.556C200.91,720.7 145.555,714.649 144.909,673.496C144.526,649.118 145.745,618.535 144.277,603.517C143.894,599.6 144.816,429.004 143.692,426.422C141.424,421.214 131.541,417.796 129.803,429.542C127.664,443.998 130.361,673.439 128.323,681.442C118.941,718.284 66.416,717.329 60.85,675.461C59.231,663.284 60.545,405.485 60.071,380.5C59.876,370.197 60.489,236.805 59.703,234.431C56.629,225.146 46.269,229.495 45.911,235.531C45.434,243.598 45.032,243.514 45.786,251.476C46.29,256.81 44.742,280.937 45.801,287.476C45.903,288.103 45.802,352.483 45.874,384.5C45.881,387.608 48.672,408.53 31.532,415.58C27.076,417.413 7.92,419.18 2.687,397.44C1.35,391.888 2.394,266.567 1.945,227.501C1.826,217.188 0.816,201.06 9.733,183.615C19.24,165.013 36.639,155.308 39.594,153.659C57.931,143.431 69.619,144.898 109.498,144.921C210.673,144.978 211.031,144.23 221.572,148.319C259.152,162.896 265.634,185.694 270.677,202.438C272.946,209.972 271.796,240.171 272.053,272.5C272.133,282.583 273.008,392.616 271.646,398.546C271.612,398.696 271.605,398.683 271.085,400.396Z" style="fill:rgb(57,148,217);"/>
        <path d="M647.051,537.501C647.059,513.501 647.149,246.01 647.038,237.499C646.906,227.285 636.651,226.197 633.323,234.431C632.407,236.696 633.252,303.74 632.924,319.501C632.522,338.872 632.051,338.876 632.359,340.53C633.853,348.559 630.122,348.752 632.335,356.551C632.935,358.665 632.871,358.684 632.128,368.466C631.775,373.104 632.91,374.337 632.916,376.495C632.971,398.913 632.274,401.694 629.338,406.401C621.658,418.711 602.453,421.286 592.335,404.599C589.049,399.179 588.932,380.857 589.335,379.448C590.624,374.939 589.85,342.05 589.675,341.444C588.29,336.641 590.936,313.82 589.674,309.444C587.689,302.564 590.189,302.407 589.121,293.543C588.764,290.579 589.05,228.183 589.076,222.5C589.104,216.474 589.846,216.578 590.001,210.495C590.701,183.033 612.209,163.142 619.404,158.347C621.712,156.808 635.251,147.784 651.448,145.112C653.734,144.735 792.598,145.002 793.507,145.011C818.207,145.249 852.664,167.228 858.902,205.446C859.199,207.261 858.983,392.852 858.968,394.509C858.867,405.926 848.345,415.685 841.479,416.042C826.999,416.796 825.429,412.682 824.26,411.787C812.306,402.644 816.652,391.276 816.067,331.498C815.121,234.92 818.482,231.865 811.575,229.32C799.523,224.88 800.959,244.483 801.088,262.507C801.107,265.105 801.912,264.954 801.915,267.501C801.916,269.662 801.07,269.603 801.082,294.502C801.092,315.753 802.157,315.774 801.671,317.553C801.03,319.905 801.047,319.895 801.075,341.5C801.103,363.42 801.379,578.53 800.953,615.499C800.36,666.992 803.998,678.115 794.796,691.735C779.337,714.615 754.552,708.206 746.723,702.212C730.509,689.798 733.872,685.999 731.679,678.441C730.283,673.628 731.399,466.641 730.962,429.484C730.841,419.236 716.558,419.102 716.118,431.46C715.847,439.06 715.985,540.977 715.998,550.5C716.17,678.272 716.391,678.431 714.689,683.576C706.652,707.873 682.291,713.979 663.605,702.33C651.66,694.883 647.037,680.894 646.994,675.495C646.904,664.456 647.171,664.47 647.051,537.501Z" style="fill:rgb(250,219,87);"/>
        <path d="M400.244,10.002C403.629,8.25 425.062,-2.843 447.553,4.359C504.05,22.448 493.704,77.087 492.639,80.548C472.309,146.601 390.691,138.807 371.334,88.568C364.214,70.088 368.057,53.25 368.149,52.447C368.711,47.545 376.488,31.366 378.815,28.764C388.373,18.078 388.029,17.634 400.244,10.002Z" style="fill:rgb(100,210,133);"/>
        <path d="M192.006,36.737C192.97,39.159 206.363,61.724 193.657,91.571C192.613,94.023 180.529,117.748 154.565,125.675C112.056,138.654 65.274,103.29 73.112,55.446C81.585,3.727 145.208,-13.877 179.273,19.728C188.157,28.492 190.117,33.145 192.006,36.737Z" style="fill:rgb(57,148,216);"/>
        <path d="M787.948,57.491C787.976,64.922 791.891,93.992 762.744,115.794C730.78,139.703 689.623,125.652 673.341,101.601C665.421,89.903 661.367,82.027 661.995,57.513C662.191,49.868 672.956,13.619 710.432,4.316C749.379,-5.353 784.84,23.587 787.948,57.491Z" style="fill:rgb(250,225,91);"/>
    </g>
</svg>
