<svg width="35" height="41" viewBox="0 0 35 41" fill="none" xmlns="http://www.w3.org/2000/svg">
<path opacity="0.15" d="M3.18164 38.5612C3.18164 38.8054 3.54997 39.0473 4.2656 39.273C4.98122 39.4986 6.03013 39.7037 7.35244 39.8764C8.67475 40.0491 10.2446 40.1861 11.9722 40.2796C13.6999 40.3731 15.5516 40.4212 17.4216 40.4212C19.2917 40.4212 21.1434 40.3731 22.8711 40.2796C24.5987 40.1861 26.1685 40.0491 27.4908 39.8764C28.8131 39.7037 29.8621 39.4986 30.5777 39.273C31.2933 39.0473 31.6616 38.8054 31.6616 38.5612C31.6616 38.0679 30.1614 37.5948 27.4908 37.246C24.8203 36.8971 21.1983 36.7012 17.4216 36.7012C13.645 36.7012 10.023 36.8971 7.35244 37.246C4.68192 37.5948 3.18164 38.0679 3.18164 38.5612Z" fill="#45413C"/>
<path d="M33.4814 6.18138L28.6614 1.36138C28.429 1.12994 28.1144 1 27.7864 1C27.4584 1 27.1438 1.12994 26.9114 1.36138L17.4214 10.8514L7.93138 1.36138C7.69898 1.12994 7.38436 1 7.05638 1C6.7284 1 6.41378 1.12994 6.18138 1.36138L1.36138 6.18138C1.12994 6.41378 1 6.7284 1 7.05638C1 7.38436 1.12994 7.69898 1.36138 7.93138L10.8514 17.4214L1.36138 26.9114C1.12994 27.1438 1 27.4584 1 27.7864C1 28.1144 1.12994 28.429 1.36138 28.6614L6.18138 33.4814C6.41378 33.7128 6.7284 33.8428 7.05638 33.8428C7.38436 33.8428 7.69898 33.7128 7.93138 33.4814L17.4214 23.9914L26.9114 33.4814C27.1438 33.7128 27.4584 33.8428 27.7864 33.8428C28.1144 33.8428 28.429 33.7128 28.6614 33.4814L33.4814 28.6614C33.7128 28.429 33.8428 28.1144 33.8428 27.7864C33.8428 27.4584 33.7128 27.1438 33.4814 26.9114L23.9914 17.4214L33.4814 7.93138C33.7128 7.69898 33.8428 7.38436 33.8428 7.05638C33.8428 6.7284 33.7128 6.41378 33.4814 6.18138Z" fill="#3F3F3F"/>
<path d="M2.42138 9.02138L6.15138 5.29138C6.26578 5.17558 6.40203 5.08364 6.55223 5.02089C6.70244 4.95814 6.8636 4.92583 7.02638 4.92583C7.18916 4.92583 7.35032 4.95814 7.50052 5.02089C7.65072 5.08364 7.78697 5.17558 7.90138 5.29138L17.4214 14.7714L26.9114 5.29138C27.0258 5.17558 27.162 5.08364 27.3122 5.02089C27.4624 4.95814 27.6236 4.92583 27.7864 4.92583C27.9492 4.92583 28.1103 4.95814 28.2605 5.02089C28.4107 5.08364 28.547 5.17558 28.6614 5.29138L32.4214 9.02138L33.5114 7.93138C33.7428 7.69898 33.8728 7.38436 33.8728 7.05638C33.8728 6.7284 33.7428 6.41378 33.5114 6.18138L28.6614 1.36138C28.429 1.12994 28.1144 1 27.7864 1C27.4584 1 27.1438 1.12994 26.9114 1.36138L17.4214 10.8514L7.93138 1.36138C7.69898 1.12994 7.38436 1 7.05638 1C6.7284 1 6.41378 1.12994 6.18138 1.36138L1.36138 6.18138C1.12994 6.41378 1 6.7284 1 7.05638C1 7.38436 1.12994 7.69898 1.36138 7.93138L2.42138 9.02138Z" fill="#1B1B1B"/>
<path d="M33.4814 6.18138L28.6614 1.36138C28.429 1.12994 28.1144 1 27.7864 1C27.4584 1 27.1438 1.12994 26.9114 1.36138L17.4214 10.8514L7.93138 1.36138C7.69898 1.12994 7.38436 1 7.05638 1C6.7284 1 6.41378 1.12994 6.18138 1.36138L1.36138 6.18138C1.12994 6.41378 1 6.7284 1 7.05638C1 7.38436 1.12994 7.69898 1.36138 7.93138L10.8514 17.4214L1.36138 26.9114C1.12994 27.1438 1 27.4584 1 27.7864C1 28.1144 1.12994 28.429 1.36138 28.6614L6.18138 33.4814C6.41378 33.7128 6.7284 33.8428 7.05638 33.8428C7.38436 33.8428 7.69898 33.7128 7.93138 33.4814L17.4214 23.9914L26.9114 33.4814C27.1438 33.7128 27.4584 33.8428 27.7864 33.8428C28.1144 33.8428 28.429 33.7128 28.6614 33.4814L33.4814 28.6614C33.7128 28.429 33.8428 28.1144 33.8428 27.7864C33.8428 27.4584 33.7128 27.1438 33.4814 26.9114L23.9914 17.4214L33.4814 7.93138C33.7128 7.69898 33.8428 7.38436 33.8428 7.05638C33.8428 6.7284 33.7128 6.41378 33.4814 6.18138Z" stroke="#45413C" stroke-linecap="round" strokeLinejoin="round"/>
</svg>
