<svg width="29" height="20" viewBox="0 0 29 20" fill="none" xmlns="http://www.w3.org/2000/svg">
<path d="M12.325 16.25L19.7727 9.1875L17.8614 7.375L12.2986 12.6625L9.53045 10.0375L7.64545 11.8125M7.25 20C5.24636 20 3.53712 19.3458 2.12227 18.0375C0.707424 16.7208 0 15.1167 0 13.225C0 11.6 0.514091 10.15 1.54227 8.875C2.57924 7.6 3.93258 6.7875 5.60227 6.4375C6.15591 4.52083 7.25439 2.97083 8.89773 1.7875C10.5498 0.595833 12.4173 0 14.5 0C17.0749 0 19.2542 0.85 21.0382 2.55C22.8309 4.24167 23.7273 6.30833 23.7273 8.75C25.2476 8.91667 26.5042 9.54167 27.4973 10.625C28.4991 11.6917 29 12.9417 29 14.375C29 15.9417 28.4244 17.2708 27.2732 18.3625C26.122 19.4542 24.7203 20 23.0682 20H7.25Z" fill="#52C24A"/>
</svg>
