<svg width="147" height="77" viewBox="0 0 147 77" fill="none" xmlns="http://www.w3.org/2000/svg">
<path d="M2.52917 70V51.4106H6.70229V70H2.52917ZM11.1281 70V55.8367H13.7205L14.9851 56.469C15.8703 56.3003 16.9346 56.1528 18.1781 56.0264C19.4216 55.8999 20.8443 55.8367 22.4461 55.8367H24.0268C25.0807 55.8367 25.8921 55.9842 26.4612 56.2793C27.0302 56.5743 27.4307 56.9432 27.6625 57.3858C27.9154 57.8284 28.063 58.2815 28.1051 58.7452C28.1683 59.1878 28.2 59.5672 28.2 59.8833V70H24.343V59.8201C24.343 58.977 23.8372 58.5555 22.8255 58.5555H15.9335C15.5331 58.5555 15.2696 58.5977 15.1431 58.682C15.0378 58.7452 14.9851 58.9349 14.9851 59.251V70H11.1281ZM32.5398 70V58.5555H30.5797V55.8683H32.5398V53.0546C32.5398 52.338 32.6768 51.6741 32.9508 51.0629C33.2459 50.4516 33.7201 49.9564 34.3735 49.577C35.0479 49.1976 35.9331 49.0079 37.0291 49.0079H38.6098C41.139 49.0079 42.9515 49.1238 44.0475 49.3557C45.1646 49.5875 45.7231 49.7877 45.7231 49.9564L44.7747 52.3591C44.4164 52.2115 43.7735 52.0745 42.8462 51.9481C41.9188 51.8005 40.8018 51.7268 39.495 51.7268H37.9143C37.3874 51.7268 36.9975 51.8216 36.7445 52.0113C36.5127 52.201 36.3968 52.5277 36.3968 52.9914V55.8683H42.9726V58.5555H36.3968V70H32.5398ZM48.5995 53.8449C47.8197 53.8449 47.2506 53.6869 46.8923 53.3707C46.534 53.0546 46.3549 52.5277 46.3549 51.79C46.3549 51.0312 46.5235 50.5043 46.8607 50.2093C47.219 49.8931 47.7986 49.735 48.5995 49.735C49.4004 49.735 49.98 49.8931 50.3383 50.2093C50.6966 50.5043 50.8758 51.0312 50.8758 51.79C50.8758 52.5066 50.6966 53.0335 50.3383 53.3707C49.98 53.6869 49.4004 53.8449 48.5995 53.8449ZM46.671 70V55.8367H50.528V70H46.671ZM54.6599 70V55.8367H57.2523L58.5169 56.469C59.4021 56.3003 60.4664 56.1528 61.7099 56.0264C62.9535 55.8999 64.3761 55.8367 65.9779 55.8367H67.5586C68.6125 55.8367 69.4239 55.9842 69.993 56.2793C70.562 56.5743 70.9625 56.9432 71.1943 57.3858C71.4472 57.8284 71.5948 58.2815 71.6369 58.7452C71.7002 59.1878 71.7318 59.5672 71.7318 59.8833V70H67.8748V59.8201C67.8748 58.977 67.369 58.5555 66.3573 58.5555H59.4653C59.0649 58.5555 58.8014 58.5977 58.6749 58.682C58.5696 58.7452 58.5169 58.9349 58.5169 59.251V70H54.6599ZM77.6207 53.8449C76.8409 53.8449 76.2718 53.6869 75.9135 53.3707C75.5552 53.0546 75.3761 52.5277 75.3761 51.79C75.3761 51.0312 75.5447 50.5043 75.8819 50.2093C76.2402 49.8931 76.8198 49.735 77.6207 49.735C78.4216 49.735 79.0012 49.8931 79.3595 50.2093C79.7178 50.5043 79.897 51.0312 79.897 51.79C79.897 52.5066 79.7178 53.0335 79.3595 53.3707C79.0012 53.6869 78.4216 53.8449 77.6207 53.8449ZM75.6922 70V55.8367H79.5492V70H75.6922ZM83.6811 70V49.9564H87.5381V56.216C88.4444 56.1107 89.5087 56.0264 90.7311 55.9631C91.9747 55.8788 93.3868 55.8367 94.9675 55.8367H96.5798C97.6337 55.8367 98.4451 55.9737 99.0142 56.2477C99.5832 56.5216 99.9837 56.8694 100.216 57.2909C100.468 57.7125 100.616 58.1551 100.658 58.6187C100.721 59.0824 100.753 59.504 100.753 59.8833V65.9533C100.753 66.2695 100.721 66.6594 100.658 67.1231C100.616 67.5657 100.468 68.0083 100.216 68.4509C99.9837 68.8935 99.5832 69.2623 99.0142 69.5574C98.4451 69.8525 97.6337 70 96.5798 70H94.9675C93.2182 70 91.6901 69.9578 90.3834 69.8735C89.0766 69.7682 87.9912 69.6628 87.1271 69.5574L86.2735 70H83.6811ZM88.5181 67.2811H95.3785C96.3902 67.2811 96.896 66.8596 96.896 66.0166V59.8201C96.9171 59.3564 96.8222 59.0297 96.6115 58.8401C96.4007 58.6504 95.9897 58.5555 95.3785 58.5555H93.7978C92.4489 58.5555 91.2475 58.5871 90.1937 58.6504C89.161 58.6925 88.2757 58.7452 87.5381 58.8084V66.3011C87.5381 66.7437 87.5802 67.0177 87.6645 67.1231C87.7699 67.2285 88.0544 67.2811 88.5181 67.2811ZM108.321 70C106.719 70 105.56 69.6312 104.844 68.8935C104.127 68.1347 103.769 67.102 103.769 65.7953C103.769 64.4253 104.138 63.3715 104.875 62.6338C105.634 61.8961 106.783 61.5273 108.321 61.5273H109.934C111.514 61.5273 112.937 61.5694 114.202 61.6537C115.466 61.7381 116.509 61.8224 117.331 61.9067V59.8201C117.331 59.6304 117.31 59.4407 117.268 59.251C117.226 59.0403 117.1 58.8717 116.889 58.7452C116.678 58.6187 116.32 58.5555 115.814 58.5555H114.233C111.936 58.5555 110.018 58.5977 108.479 58.682C106.941 58.7452 105.897 58.8084 105.349 58.8717L105.002 56.469C105.002 56.1739 105.803 55.9947 107.404 55.9315C109.006 55.8683 111.683 55.8367 115.434 55.8367H117.015C118.069 55.8367 118.88 55.9842 119.45 56.2793C120.019 56.5743 120.419 56.9432 120.651 57.3858C120.904 57.8284 121.051 58.2815 121.093 58.7452C121.157 59.1878 121.188 59.5672 121.188 59.8833V70H118.596L117.363 69.3677C116.478 69.5152 115.413 69.6628 114.17 69.8103C112.926 69.9368 111.504 70 109.902 70H108.321ZM109.143 67.2811H116.383C116.847 67.2811 117.121 67.239 117.205 67.1547C117.289 67.0704 117.331 66.8069 117.331 66.3643V63.93H109.143C108.574 63.93 108.174 64.067 107.942 64.341C107.731 64.615 107.626 65.047 107.626 65.6372C107.626 66.2273 107.752 66.6489 108.005 66.9018C108.258 67.1547 108.637 67.2811 109.143 67.2811ZM126.163 76.1965C125.152 76.1965 124.224 76.0805 123.381 75.8487C122.538 75.6169 121.969 75.4061 121.674 75.2164L122.623 72.3711C122.981 72.5186 123.487 72.6872 124.14 72.8769C124.815 73.0877 125.573 73.1931 126.416 73.1931H126.764C127.734 73.1931 128.587 72.898 129.325 72.3079C130.084 71.7388 130.663 70.9695 131.064 70H129.483L123.287 55.8367H127.713L131.348 64.5623L132.17 66.8385H132.486L133.308 64.5623L137.007 55.8367H141.307L140.801 57.7652C140.401 58.5871 139.937 59.5356 139.41 60.6105C138.904 61.6643 138.377 62.7603 137.829 63.8984C137.281 65.0365 136.744 66.1325 136.217 67.1863C135.711 68.2401 135.258 69.178 134.857 70C134.246 71.2646 133.572 72.3606 132.834 73.2879C132.118 74.2153 131.285 74.9319 130.337 75.4377C129.409 75.9435 128.303 76.1965 127.017 76.1965H126.163Z" fill="white"/>
<path d="M32.1758 18.6143C37.9785 21.1529 51.5423 24.7071 59.3759 18.6143C55.7493 24.417 45.2319 32.5407 32.1758 18.6143Z" fill="#3BB3E1"/>
<path d="M31.0879 22.9664C43.2736 44.7265 66.6294 33.1211 76.7842 24.0544L66.9921 17.5264C60.0289 27.9712 40.5173 25.5051 31.0879 22.9664Z" fill="#3BB3E1"/>
<path d="M93.1045 3.38281C83.53 3.38281 76.4217 7.0095 74.6084 9.91085L84.4005 16.4389C93.9749 10.3461 105.435 15.7135 109.425 18.6149C109.425 8.17004 99.6325 3.38281 93.1045 3.38281Z" fill="#EC9430"/>
<path d="M70.2562 6.64662C44.1441 -9.02067 32.5387 6.64662 30 16.4387C44.7969 5.9938 57.2002 13.1747 63.7282 16.4387L90.9284 32.7588C110.512 42.5508 118.491 27.6814 118.129 20.7907C104.202 32.106 82.2243 15.3507 70.2562 6.64662Z" fill="#1C77BF"/>
</svg>
